<svg width="24" height="24" viewBox="0 0 24 24" fill="none" xmlns="http://www.w3.org/2000/svg">
<path d="M22.1737 17.5397L8.7675 8.36438C9.06291 7.61807 9.08268 6.79091 8.82325 6.03135C8.56381 5.27178 8.04217 4.62954 7.35193 4.21988C6.66169 3.81023 5.84805 3.65998 5.05703 3.7961C4.26601 3.93223 3.54939 4.34581 3.03579 4.96263C2.5222 5.57944 2.24524 6.35911 2.25463 7.16171C2.26403 7.9643 2.55915 8.73727 3.08704 9.3419C3.61493 9.94653 4.34103 10.3432 5.13502 10.4608C5.92901 10.5784 6.73891 10.4091 7.41937 9.98344L9.42469 12.0169L7.42031 14.0194C6.7414 13.5954 5.93366 13.4272 5.14196 13.545C4.35026 13.6627 3.62641 14.0587 3.10025 14.6618C2.57408 15.265 2.28003 16.0359 2.27083 16.8362C2.26162 17.6366 2.53788 18.414 3.05004 19.0291C3.5622 19.6442 4.27676 20.0567 5.06554 20.1926C5.85432 20.3285 6.66572 20.1789 7.35419 19.7707C8.04267 19.3625 8.56318 18.7223 8.82235 17.965C9.08153 17.2078 9.06241 16.3829 8.76844 15.6384L11.2912 13.9125L15.9375 18.6225C16.5033 19.1844 17.2682 19.5001 18.0656 19.5009C18.1945 19.5009 18.3232 19.4925 18.4509 19.4756H18.4772L21.8775 18.9028C22.0252 18.8782 22.1621 18.8099 22.2706 18.7068C22.3791 18.6036 22.4543 18.4704 22.4865 18.3242C22.5186 18.178 22.5063 18.0255 22.4511 17.8864C22.3958 17.7472 22.3002 17.6278 22.1766 17.5434L22.1737 17.5397ZM6.95062 8.44594C6.64369 8.75278 6.23983 8.94364 5.8079 8.98597C5.37597 9.0283 4.94273 8.91949 4.58207 8.67809C4.22141 8.43668 3.95565 8.07764 3.83014 7.66219C3.70462 7.24674 3.7271 6.80061 3.89376 6.39989C4.06042 5.99917 4.36093 5.66867 4.74404 5.46476C5.12715 5.26085 5.56914 5.19615 5.99462 5.2817C6.4201 5.36725 6.80273 5.59776 7.07725 5.9339C7.35177 6.27004 7.50118 6.69101 7.5 7.12501C7.49964 7.62192 7.30205 8.09837 6.95062 8.44969V8.44594ZM6.95062 18.1959C6.64369 18.5028 6.23983 18.6936 5.8079 18.736C5.37597 18.7783 4.94273 18.6695 4.58207 18.4281C4.22141 18.1867 3.95565 17.8276 3.83014 17.4122C3.70462 16.9967 3.7271 16.5506 3.89376 16.1499C4.06042 15.7492 4.36093 15.4187 4.74404 15.2148C5.12715 15.0108 5.56914 14.9461 5.99462 15.0317C6.4201 15.1173 6.80273 15.3478 7.07725 15.6839C7.35177 16.02 7.50118 16.441 7.5 16.875C7.50007 17.1214 7.45159 17.3653 7.35732 17.593C7.26306 17.8206 7.12486 18.0274 6.95062 18.2016V18.1959ZM12.6694 8.68032L15.9319 5.38126C16.258 5.05582 16.6544 4.80938 17.0906 4.66085C17.5267 4.51232 17.9911 4.46564 18.4481 4.52438H18.4744L21.8494 5.09344C21.9707 5.112 22.0858 5.15929 22.1851 5.23137C22.2844 5.30345 22.3651 5.39824 22.4203 5.50782C22.4995 5.66965 22.5178 5.85459 22.4718 6.02881C22.4259 6.20302 22.3187 6.35487 22.17 6.45657L15.6141 10.9425C15.5518 10.985 15.4781 11.0078 15.4027 11.0078C15.3272 11.0078 15.2535 10.985 15.1912 10.9425L12.7247 9.25501C12.6803 9.22368 12.6432 9.18308 12.616 9.13601C12.5889 9.08894 12.5723 9.03652 12.5673 8.98239C12.5624 8.92827 12.5694 8.87372 12.5876 8.82253C12.6059 8.77135 12.6351 8.72474 12.6731 8.68594L12.6694 8.68032Z" fill="#594E45"/>
</svg>
