<svg width="22" height="22" viewBox="0 0 22 22" fill="none" xmlns="http://www.w3.org/2000/svg">
<rect width="22" height="22" rx="11" fill="#FBF9F7"/>
<path fill-rule="evenodd" clip-rule="evenodd" d="M12.0262 12.1387L12.0249 12.1388V13.0256H10.0249V12.2968C10.0249 10.9756 10.5385 10.7278 11.109 10.4525C11.1538 10.4309 11.1989 10.4101 11.2442 10.3892C11.4952 10.2732 11.7502 10.1554 11.9716 9.89682C12.8011 9.08323 12.1749 7.79685 11.1251 7.80468C10.8961 7.78621 10.6664 7.83141 10.4615 7.93527C10.2566 8.03913 10.0844 8.19762 9.96385 8.39323C9.9166 8.46993 9.87803 8.55116 9.84856 8.63544C9.80291 8.76596 9.77909 8.90416 9.7787 9.04368L7.7749 9.03862C7.77796 7.82911 8.47674 6.69476 9.55562 6.14795C10.0901 5.87709 10.689 5.75923 11.2862 5.8074C12.9479 5.94142 14.3115 7.36354 14.3249 9.04683C14.3358 10.4171 13.2912 11.729 12.0262 12.1387ZM10.0249 16H11.3249C11.7115 16 12.0249 15.6866 12.0249 15.3V14H10.7249C10.3383 14 10.0249 14.3134 10.0249 14.7V16Z" fill="#A68263"/>
</svg>
