<svg width="24" height="24" viewBox="0 0 24 24" fill="none" xmlns="http://www.w3.org/2000/svg">
<path d="M21.3022 7.27083C21.1652 7.03161 20.9647 6.83497 20.7228 6.7027L12.47 2.18489C12.2494 2.0636 12.0017 2 11.75 2C11.4983 2 11.2506 2.0636 11.03 2.18489L2.78 6.70176C2.53814 6.83404 2.33762 7.03067 2.20062 7.26989C2.07004 7.4963 2.00088 7.7529 2 8.01426V16.9805C2.00061 17.2491 2.07331 17.5126 2.21052 17.7434C2.34772 17.9743 2.5444 18.1641 2.78 18.293L11.03 22.809C11.2504 22.9308 11.4982 22.9946 11.75 22.9946C12.0018 22.9946 12.2496 22.9308 12.47 22.809L20.72 18.293C20.9556 18.1641 21.1523 17.9743 21.2895 17.7434C21.4267 17.5126 21.4994 17.2491 21.5 16.9805V8.01426C21.4998 7.75347 21.4316 7.49723 21.3022 7.27083ZM11 21.0858L8 19.4433V14.7474C7.9997 14.6131 7.96334 14.4814 7.89474 14.3659C7.82614 14.2505 7.7278 14.1556 7.61 14.0911L3.5 11.8411V8.84114L11 12.9474V21.0858ZM11.75 11.6424L4.31187 7.56989L7.54437 5.80083L11.3881 7.90551C11.4985 7.96591 11.6223 7.99756 11.7481 7.99756C11.8739 7.99756 11.9977 7.96591 12.1081 7.90551L15.9519 5.80083L19.1844 7.56989L11.75 11.6424ZM20 11.8393L15.89 14.0893C15.7722 14.1537 15.6739 14.2486 15.6053 14.3641C15.5367 14.4795 15.5003 14.6112 15.5 14.7455V19.4415L12.5 21.084V12.9418L20 8.83551V11.8393Z" fill="#594E45"/>
</svg>
