<svg width="146" height="115" viewBox="0 0 146 115" fill="none" xmlns="http://www.w3.org/2000/svg">
<g clip-path="url(#clip0_625_1630)">
<path d="M145.882 31.9969V39.4451L145.169 39.2068C144.932 38.4322 144.338 37.7171 144.101 37.0021C143.864 36.2871 143.567 34.857 143.567 33.9037C143.567 32.9503 143.567 33.0695 143.804 32.8311C144.042 32.5928 144.042 32.712 144.101 32.6524C144.16 32.5928 144.101 32.3544 144.101 32.2949C144.101 32.2353 145.525 31.7586 145.763 31.9969H145.882Z" fill="#897A33"/>
<path d="M141.608 0C141.371 0.476684 141.608 1.13212 141.608 1.48964C141.608 1.84715 141.43 1.78756 141.371 1.96632C141.252 2.50259 141.371 4.23057 140.599 4.1114C139.828 3.99223 140.302 3.93264 140.124 3.87306C139.531 3.6943 139.531 3.93264 139.175 3.2772C138.641 2.26425 138.7 1.13212 138.522 0H141.668H141.608Z" fill="#897A33"/>
<path d="M12.8195 83.0153C12.2853 82.4194 12.9382 81.7044 13.0569 81.0489C13.1756 80.3935 12.7601 80.3935 13.2943 80.4531C13.2349 80.2743 13.0569 80.2147 12.9975 79.9764C12.8788 79.4401 13.2943 79.6785 13.2943 79.5593C13.2943 79.4401 13.0569 79.5593 12.9975 79.3805C12.9382 79.0826 13.1756 77.9505 13.2943 77.7122C13.413 77.4738 13.591 77.5334 13.6504 77.4738C13.7097 77.3546 13.6504 77.1163 13.7691 76.9375C13.8878 76.7588 14.0065 76.8184 14.0658 76.7588C14.1845 76.58 13.8284 76.7588 14.4813 76.2821C15.1341 75.8054 14.6593 75.7458 14.9561 75.3883C15.2528 75.0308 15.6683 75.0308 15.8463 74.9712C16.0244 74.9116 15.965 74.7329 16.0837 74.6137C16.3804 74.435 16.7959 74.6137 16.8552 74.6137C16.9146 74.6137 16.6772 74.3754 16.7365 74.3754C16.7959 74.3754 16.9146 74.3754 16.9739 74.3754C16.9739 74.3158 16.7959 74.0774 16.8552 73.9583C16.9146 73.8391 17.2707 73.6008 17.33 73.6008C17.5081 73.5412 17.7455 73.6008 17.9235 73.4816C18.1016 73.3624 17.9829 73.0645 18.4577 73.1837L18.1609 72.8857C18.339 72.6474 19.2886 72.6474 19.2886 72.5878C19.2886 72.5282 19.1105 72.3495 19.1699 72.2899C19.2292 72.2303 19.4666 72.2899 19.526 72.1707C19.9414 71.8728 20.5943 71.4557 20.9504 71.2769C21.3065 71.0982 21.6626 71.2769 21.9593 71.1577L21.6626 70.8598C21.9593 70.8598 22.1374 70.7407 22.2561 71.0386C22.3748 71.3365 22.4935 70.9194 22.6715 71.0386L22.2561 70.6215C22.6715 70.5023 23.087 69.966 23.5024 69.9065C23.9178 69.8469 23.5024 70.2044 23.6211 70.2044C23.9178 70.1448 24.2739 69.8469 24.7487 69.7873C25.6983 69.6681 27.4195 69.7873 28.4878 69.7873C30.8024 69.7873 32.9983 69.4894 35.2536 70.1448C37.5089 70.8002 35.5504 70.3236 35.6691 70.3831C36.2032 70.8002 37.2122 70.8598 37.9837 70.9194C38.7552 70.979 38.9926 71.0982 39.4674 71.0982C39.2894 71.5748 38.7552 71.5153 38.3991 71.694C38.043 71.8728 36.7967 72.9453 36.678 72.9453C36.5593 72.9453 35.9658 72.1111 35.8471 71.9324C35.491 71.6344 34.3634 70.8002 33.9479 70.6811C33.1764 70.4427 30.565 70.264 30.2089 71.1577C29.8528 72.0515 30.1496 72.5282 30.4463 72.8261C30.743 73.1241 31.8707 73.4816 32.2861 73.9583L34.8382 74.5541C34.6601 74.8521 34.2447 74.852 34.0666 75.0308C33.8886 75.2096 33.4731 75.6267 33.3544 75.8054C33.2357 75.9842 32.4642 76.8184 32.4642 76.9971C32.4642 77.3546 32.5829 77.593 32.5829 77.8909C32.7016 79.6189 32.8796 81.5256 32.8203 83.1344C32.7609 84.7432 33.1764 84.5645 33.1764 85.2795C33.1764 85.9945 32.9983 85.6966 33.0577 85.8158C33.117 85.9349 33.4138 85.8158 33.3544 85.9945C33.2951 86.1733 33.1764 86.1137 33.117 86.3521C32.9983 86.8287 33.5918 87.4246 33.0577 87.365C33.4138 87.6033 33.2951 90.2251 33.1764 90.3443C33.0577 90.4634 31.93 90.4634 31.6926 90.4634C30.5057 90.2847 29.7341 90.1059 28.5471 90.1059C26.7073 90.1059 24.8674 89.8676 23.0276 89.5101C21.1878 89.1526 20.5943 88.7355 19.704 88.6163C18.8138 88.4971 19.4666 88.6759 18.8731 88.378C18.2796 88.08 18.1609 88.2588 17.8642 88.1396C16.9146 87.7821 16.1431 87.3054 15.2528 86.8883C14.3626 86.4712 14.778 87.0075 14.5406 86.8287C14.4813 87.0671 14.778 87.1862 14.778 87.365C14.778 87.5438 14.6 87.6629 14.778 87.7225C14.9561 87.7821 14.9561 87.5438 15.1341 87.6629C15.3122 87.7821 15.3715 88.0204 15.4902 88.1396C16.4398 88.8546 18.9325 89.5101 20.1195 89.8676C21.3065 90.2251 22.1374 90.2251 23.265 90.4634C26.5292 91.1189 29.7341 91.2381 33.0577 91.6552C36.3813 92.0723 33.3544 91.6552 33.4731 91.7743C33.7699 92.1914 33.2357 92.251 33.2357 92.251C33.2357 92.4298 33.4731 93.4427 33.4731 93.5023C33.4731 93.8598 33.117 95.1111 33.117 95.409C33.117 95.707 33.2951 95.707 33.2951 95.9453C33.2951 96.7795 32.8796 97.9712 32.8203 98.865C32.7609 99.7588 32.8203 99.4609 32.7016 99.878C32.5829 100.295 32.2268 101.248 32.3455 101.427C32.4642 101.606 32.7609 101.427 32.5829 101.606C32.4048 101.785 32.2861 101.546 32.2861 101.666C32.2861 101.904 32.4048 102.142 32.4048 102.321C32.4048 102.5 32.1674 102.678 32.1674 102.917C32.1674 103.155 32.1674 103.989 32.2268 103.989C32.2861 103.989 32.9983 103.811 32.9983 103.751C33.117 103.453 32.9983 103.036 32.9983 103.036C33.4731 102.44 33.4138 102.321 33.2357 101.487C33.0577 100.653 33.4731 101.487 33.5325 101.368C33.5325 101.01 33.4731 100.057 33.5325 99.6992C33.5918 99.3417 33.7699 99.6396 33.8292 99.5204C33.9479 99.1629 33.8292 98.7458 33.8886 98.4479C33.9479 98.15 34.0666 98.2096 34.126 98.0904C34.126 97.9116 33.8292 98.0904 33.8292 97.9712C33.8292 97.8521 34.0666 97.9712 34.126 97.7925C34.2447 97.4945 34.304 96.0645 34.3634 95.6474C34.3634 94.8728 34.4821 93.4427 34.3634 92.7277C34.2447 92.0127 33.8292 91.536 35.1349 91.7743C37.3902 92.251 39.7642 92.7873 42.0195 93.1448C44.2748 93.5023 46.5894 93.6215 49.1414 93.7406C51.6935 93.8598 49.9723 94.1578 50.091 93.5023C50.2097 92.8469 49.6756 92.7873 49.1414 92.7277C48.6073 92.6681 48.6666 92.7873 48.4886 92.7873C45.4617 92.5489 42.4943 91.8339 39.5268 91.6552C36.5593 91.4764 36.2626 90.7018 34.6601 90.5826C33.0577 90.4634 34.3634 90.7018 34.3634 90.7018C34.3634 90.7018 34.4821 89.7484 34.4227 89.5101C34.4227 88.2588 34.0666 86.5308 34.0666 85.3391C34.0666 84.1474 34.0666 83.0748 33.9479 81.8831C33.8292 80.6914 33.9479 80.3935 33.7699 79.6189C33.5918 78.8443 33.4138 76.5204 33.7105 76.1033C34.0073 75.6862 34.2447 75.9842 34.304 75.9842C34.4227 75.9842 34.304 76.3417 34.6008 76.2225C34.8975 76.1033 34.8975 75.9246 35.0756 75.8054C35.2536 75.6862 35.6097 75.6862 35.6691 75.6267C35.9065 75.3883 35.5504 75.15 36.3813 74.9712C37.687 74.6733 38.8146 75.0308 40.0609 75.0308C41.3073 75.0308 40.0609 74.7329 40.1796 74.7925C41.9008 75.0308 43.7406 75.2691 45.4617 75.3883C47.1829 75.5075 47.717 75.4479 49.1414 75.9246C50.5658 76.4013 50.6252 76.3417 50.6252 76.58C50.6252 76.8184 50.3284 76.9971 50.3284 77.2355C50.3284 77.4738 50.5658 77.593 50.6252 77.7717C50.8032 78.3676 51.1 78.6655 51.2187 79.1422C51.6341 80.4531 51.3374 81.8236 51.3967 83.0748C51.5154 84.8624 51.5748 86.65 51.6341 88.378C51.6935 90.1059 51.1593 88.7951 51.6341 88.9738C52.1089 89.1526 51.6341 88.6163 51.8715 88.6759C51.6341 89.2717 51.6935 89.6293 51.7528 90.1655C51.7528 91.8339 52.0496 93.6215 52.287 95.1707C52.5243 96.7199 52.465 96.422 52.465 97.137C52.465 97.852 52.5243 99.5204 52.643 99.58C52.7617 99.6396 52.8804 99.58 52.8804 99.6992C52.9398 100.057 52.7617 101.666 52.8211 102.202C52.8804 102.738 53.1772 103.036 53.1772 103.036C52.8211 103.394 52.5244 102.5 52.465 102.261C52.4057 101.546 52.4057 101.368 52.2276 100.653C52.0496 99.9375 52.287 99.6992 51.5748 99.4609C50.8626 99.2225 51.3967 99.4609 51.3374 99.6992C51.3374 100.355 51.1 100.831 51.0406 101.427C50.9813 102.023 51.1 105.36 50.5065 105.479C49.913 105.598 49.3195 105.121 48.8447 105.062C47.4203 104.824 45.9959 105.002 44.5715 105.062C43.1471 105.121 42.0788 104.824 40.8918 104.764C39.7048 104.704 39.3487 104.883 38.7552 104.764C38.1618 104.645 38.3991 104.526 38.043 104.466C37.687 104.406 38.0431 104.824 37.9837 104.883C37.6276 105.181 36.9748 104.883 36.6187 104.883C36.2626 104.883 35.7878 104.883 35.3723 104.883C34.9569 104.883 34.7788 104.526 34.6008 104.526C34.4227 104.526 34.126 104.943 33.7699 104.943C33.4138 104.943 32.7609 104.466 32.2861 104.287C30.9211 103.751 27.5382 103.393 26.0544 103.393C24.5707 103.393 24.7487 103.691 24.3333 103.691C23.9178 103.691 23.9178 103.334 23.6211 103.393C23.3244 103.453 23.5024 103.751 23.3244 103.811C23.1463 103.87 22.9683 103.691 22.7902 103.691C22.6122 103.691 22.3154 103.691 22.078 103.691C21.8406 103.691 21.9 103.334 21.7813 103.274C21.3658 102.917 20.4162 103.513 19.9414 103.572C18.3983 103.215 16.7959 103.155 15.2528 102.857C13.7097 102.559 13.0569 102.44 12.8788 101.963C12.6414 101.129 12.7601 100.116 12.7008 99.2821C12.404 95.9453 12.1666 91.8935 12.404 88.5567C12.6414 85.2199 12.7601 86.9479 12.8195 86.2925C12.8788 85.637 12.6414 85.2795 12.7008 85.2199C12.8195 85.2199 13.413 85.3391 13.0569 84.8028C12.7008 84.2666 12.7008 84.8028 12.8195 84.3857C12.9382 83.9686 13.1162 84.3261 13.1162 84.2666C13.1756 83.7899 12.8788 83.9686 12.8788 83.909C12.8195 83.7899 12.9382 83.6707 12.9975 83.5515C13.0569 83.4324 12.7601 83.5515 12.7008 83.4324C12.6414 83.3132 13.1756 83.4919 13.1162 83.194C12.9382 83.194 12.9382 83.194 12.8195 83.0748C13.1756 83.4324 13.0569 82.7173 12.9382 82.479C12.8195 82.2407 12.7008 82.9557 12.8195 83.0748V83.0153ZM31.93 103.691V103.811C32.0487 103.811 32.0487 103.691 31.93 103.691Z" fill="#D28360"/>
<path d="M115.968 47.6015C116.858 48.1377 118.223 49.4486 118.876 50.4616C119.529 51.4745 120.3 54.6326 120.182 56.301C120.063 57.9694 119.885 58.3865 119.707 58.8631C119.529 59.3398 119.232 60.1144 118.995 60.7699C118.698 61.7232 118.104 62.8554 117.57 63.8087C117.036 64.7621 116.383 65.8346 115.552 66.4901C114.721 67.1455 114.365 67.503 113.831 68.0393C113.297 68.5756 113.297 68.6947 113.297 68.7543C113.178 69.1714 114.128 68.9927 114.247 69.4694C114.365 69.946 113.712 70.8994 113.06 70.959C112.407 71.0186 112.466 70.7206 112.169 70.7206C111.517 70.7206 111.695 70.5419 111.517 70.5419C111.16 70.5419 110.686 70.5419 110.389 70.5419C110.092 70.5419 109.499 70.959 109.38 70.4227C108.371 71.3165 108.965 69.5885 108.905 69.231C108.846 68.8735 108.49 68.516 108.43 68.4564C108.193 68.2776 107.481 68.2776 107.184 68.0393C106.234 67.3839 104.513 65.8942 103.623 65.06C102.733 64.2258 100.537 61.5445 99.9434 60.0548C99.3499 58.5652 99.9434 59.459 99.9434 59.1015C99.9434 58.744 99.6466 59.1015 99.6466 58.9227C99.2312 56.7776 98.6377 54.8113 99.2905 52.5471C99.9434 50.2828 100.715 49.3295 101.368 48.7932C102.021 48.2569 102.436 48.2569 102.614 48.0186C102.792 47.7802 102.436 47.4823 102.733 47.1844C103.03 46.8865 103.208 47.0056 103.445 46.8865C104.335 46.2906 104.81 46.0523 106.056 45.7543C107.303 45.4564 107.54 45.3372 108.371 45.2181C109.202 45.0989 109.736 44.9201 110.448 45.0393C111.16 45.1585 110.982 45.2776 111.16 45.2776C111.338 45.2776 111.517 45.1585 111.695 45.2181C111.873 45.2776 112.169 45.5756 112.407 45.6947C113.891 46.2906 114.721 46.946 116.027 47.6611L115.968 47.6015ZM101.961 48.9719C101.724 48.8528 101.368 49.0315 101.546 49.0911C101.724 49.1507 102.139 49.0315 101.961 48.9719ZM99.8247 53.2621C99.884 53.1429 99.5873 52.5471 99.5279 52.6662C99.4092 52.9642 99.7653 53.3217 99.8247 53.2621Z" fill="#897A33"/>
<path d="M124.1 86.6969C124.1 86.8161 124.278 86.9352 124.337 87.114C124.456 87.4119 124.634 88.6632 124.871 88.6632C125.109 88.6632 125.287 88.4845 125.346 88.5441C125.405 88.6036 125.405 89.557 125.94 88.9016C126.474 88.2461 125.821 87.7694 125.643 87.2928C125.465 86.8161 125.643 86.9352 125.643 86.8161C126.118 86.6969 127.186 86.7565 127.483 87.114C127.779 87.4715 127.483 87.2928 127.483 87.3523C127.483 87.4119 128.076 87.7694 128.136 87.6503C128.254 87.5311 127.898 86.8161 128.848 86.8161C129.797 86.8161 129.738 87.2332 130.272 87.114C130.213 87.3523 129.975 87.7694 129.975 87.8886C129.975 88.0078 130.153 87.9482 130.213 88.0078C130.332 88.127 130.45 88.4845 130.628 88.5441C131.222 88.6632 131.222 87.5907 131.281 87.3523C131.34 87.114 131.4 87.1736 131.4 87.114C132.646 86.9948 133.596 87.829 134.664 88.3057C134.961 88.5441 134.664 89.1399 134.664 89.4974H134.545C134.545 89.557 134.664 89.6166 134.664 89.6166C134.664 89.8549 134.664 90.0933 134.664 90.3316C134.427 90.4508 134.427 90.7487 134.367 90.9871C134.189 91.8808 134.011 92.715 133.952 93.6088C133.892 94.5026 133.952 93.7876 133.952 93.9068C133.952 94.0259 133.833 93.9067 133.833 94.0855C133.833 94.3238 134.071 94.7409 134.071 95.0389C134.071 95.158 134.071 95.2176 134.071 95.3368V95.456C134.071 95.5751 134.071 95.6347 134.071 95.7539L133.952 96.2306H134.071C134.071 96.4689 134.071 96.7073 134.071 96.886L133.952 97.0052C133.952 97.0052 133.952 97.2435 133.952 97.3031C133.833 97.4819 133.952 97.6606 133.952 97.899C133.952 97.9586 133.952 98.1373 133.952 98.1969L133.833 98.3161C133.833 98.3161 133.833 98.5544 133.833 98.614C133.655 99.1503 133.655 99.627 133.714 100.163C133.714 100.342 133.596 100.64 133.477 100.759C133.062 101.117 131.519 101.355 130.925 101.355C126.83 102.308 122.972 101.117 118.936 100.342C118.343 99.8653 117.275 99.9249 117.037 99.0907C116.384 96.7073 116.978 94.2643 117.037 91.8213C117.097 89.3783 116.918 91.4042 116.918 91.1062C116.918 90.57 117.097 88.6036 117.275 88.127C117.453 87.6503 117.749 87.2332 118.046 87.2928C118.462 87.829 118.996 88.3057 119.411 88.9016C119.827 89.4974 119.53 89.3783 119.767 89.6762C120.361 90.272 121.014 90.2125 121.785 90.3316C122.557 90.4508 122.082 90.5104 122.26 90.57C122.972 90.6891 123.803 90.57 124.515 90.8679C124.812 90.2124 124.575 90.8679 124.931 90.8679C125.584 90.8679 126.355 90.7487 126.949 90.7487C127.542 90.7487 127.601 91.1062 127.542 90.57C127.958 90.9275 127.958 90.9275 128.373 90.57C128.373 91.0466 128.61 90.7487 128.848 90.8083C129.382 90.8083 130.569 90.9871 130.51 90.1529C130.747 90.1529 130.628 90.3912 130.806 90.5104C130.984 90.6295 131.518 90.57 131.578 90.57C131.697 90.57 132.409 90.3316 132.705 90.272C133.002 90.2124 133.418 89.7358 133.477 89.6762C133.596 89.6762 133.892 89.6762 133.952 89.6762C134.011 89.6762 133.952 89.2591 133.952 89.2591C133.833 89.1399 131.578 89.3783 131.162 89.4378C130.747 89.4974 130.153 89.6762 129.679 89.7953C128.492 89.9741 127.008 89.7954 125.762 89.7358C124.515 89.6762 121.845 89.8549 120.776 88.9016C119.708 87.9482 120.539 88.4249 120.361 88.1865C120.183 87.9482 119.53 86.8161 119.471 86.7565C121.014 86.7565 122.557 86.3394 124.04 86.6373L124.1 86.6969ZM127.779 88.127C127.898 88.0078 127.542 87.5907 127.483 87.7099C127.364 87.8886 127.483 88.3653 127.779 88.127ZM122.794 93.1917C122.497 93.013 121.132 92.9534 120.717 92.7746C120.301 92.5959 118.284 91.7617 118.165 91.8213C118.046 91.8808 118.402 92.4767 118.521 92.5363C118.699 92.715 120.42 93.6684 120.598 93.728C120.895 93.7876 121.073 93.6088 121.37 93.6684C121.666 93.728 121.37 93.9067 121.666 93.9663C122.735 94.3238 125.168 94.6814 126.236 94.5026C127.305 94.3239 126.236 94.8005 126.355 94.8005C126.474 94.8005 127.186 94.7409 127.245 94.6814C127.483 94.5622 127.364 94.3238 127.483 94.3238C127.601 94.3238 127.483 94.5026 127.661 94.6218C128.136 94.9197 128.254 94.6218 128.492 94.5622C128.729 94.5026 129.263 94.7409 129.501 94.7409C129.738 94.7409 129.857 94.5622 130.035 94.5622C130.213 94.5622 130.51 94.6814 130.747 94.6814C130.984 94.6814 130.806 94.443 130.806 94.3834C130.925 94.2047 130.925 94.6814 131.044 94.6814C131.34 94.6814 132.112 94.6814 132.468 94.6814C132.824 94.6814 132.824 94.5026 132.943 94.5026C133.24 94.5026 133.536 94.8005 133.655 94.2047C133.833 93.3705 132.884 93.9663 132.765 93.9663C132.587 93.9663 132.29 93.728 131.993 93.728C129.916 93.4301 127.661 93.9068 125.643 93.728C123.625 93.5492 124.278 93.3109 124.04 93.4896C123.803 93.6684 124.04 93.728 123.922 93.728C123.803 93.728 123.091 93.4897 122.972 93.4301C122.853 93.3705 122.853 93.1917 122.853 93.1917H122.794ZM133.774 98.8523C133.774 98.8523 133.774 98.5544 133.714 98.4352C133.536 98.1969 131.756 98.3161 131.281 98.3161C129.323 98.2565 127.364 98.2565 125.405 97.899C123.447 97.5415 121.31 97.3031 119.411 96.9456C117.512 96.5881 117.631 96.2306 117.453 96.4689C117.275 96.7073 117.571 96.9456 117.69 97.0052C118.046 97.3627 118.224 97.1839 118.462 97.2435C119.827 97.6606 120.598 97.7798 122.023 98.0777C123.447 98.3757 122.497 98.4948 123.328 98.3161C124.159 98.1373 123.328 98.5544 123.447 98.614C123.684 98.614 123.981 98.614 124.278 98.614C124.812 98.6736 126.474 99.1503 126.83 98.9715C127.186 98.7928 127.067 98.7332 127.305 98.7332C127.542 98.7332 127.305 99.0311 127.483 99.0311C127.779 99.0907 127.958 98.9119 128.195 98.9119C128.432 98.9119 128.195 99.1503 128.314 99.2099C128.61 99.2099 130.153 99.0907 130.628 99.0907C131.103 99.0907 132.053 99.2099 132.587 99.2099C133.121 99.2099 133.774 98.9715 133.774 98.9119V98.8523Z" fill="#897A33"/>
<path d="M66.0562 100.414C66.1156 100.474 65.8188 100.891 65.9375 101.01C66.0562 101.129 66.7091 100.354 67.0058 101.427C67.3026 102.5 67.4806 102.678 67.4806 103.334C67.4806 103.989 67.4213 103.989 67.5993 104.764C67.7773 105.538 67.3619 105.36 67.4806 105.538C67.5993 105.717 68.1928 105.896 68.2521 105.896C68.5489 105.955 69.083 105.836 69.3798 105.896C70.3294 105.896 71.5164 106.194 72.4066 106.134C73.2969 106.075 73.5343 105.896 73.9497 105.777C74.3652 105.658 74.4245 105.777 74.4245 105.777C74.4245 105.777 74.2465 105.479 74.3652 105.36C74.4839 105.24 74.7213 105.181 74.8399 105.062C74.9586 104.823 74.84 104.466 74.9587 104.347C75.0774 104.228 75.3741 104.347 75.196 104.168C75.018 103.989 74.8993 104.227 74.8993 104.108C74.8993 103.989 75.1367 104.108 75.196 103.93C75.3147 103.453 74.8993 102.857 75.196 102.5C75.4928 102.142 76.383 102.321 76.7391 102.261C77.6294 102.023 77.392 101.01 78.6383 100.891C79.8847 100.772 79.8847 100.712 80.0034 101.248C79.2318 101.546 80.0034 101.606 80.0627 101.725C80.1221 101.844 80.1221 102.142 80.1221 102.321C80.3595 102.38 80.1221 102.082 80.3595 102.023C80.5969 101.963 80.7156 102.023 80.8936 102.023C81.0717 102.023 80.953 101.725 81.0717 101.725C81.3091 101.725 81.5465 101.844 81.7839 101.844C82.0213 101.844 82.1399 101.725 82.318 101.725C82.9708 101.725 82.4367 102.202 82.5554 102.261C82.6741 102.321 82.9708 102.082 83.0302 102.559C83.1489 102.202 83.5643 101.427 83.7424 102.142C84.2172 101.784 84.4546 101.01 85.1668 101.01C85.879 101.01 85.2261 101.248 85.3448 101.308C85.5822 101.427 85.9383 101.367 86.1757 101.606C86.4131 101.844 86.3538 102.023 86.4725 102.023C87.1847 102.202 87.066 101.725 87.4221 101.427C87.7782 101.129 87.9562 101.189 88.1343 101.129C88.5497 101.129 88.253 101.725 88.3717 101.844C88.4904 101.963 88.7871 101.308 89.1432 101.427C89.4993 101.546 89.2026 102.202 89.2026 102.5C89.2026 102.797 89.3212 103.036 89.3212 103.215C89.3212 103.512 89.0838 103.751 89.2619 104.347C89.4399 104.943 89.4399 104.406 89.5586 104.585C89.6773 104.764 89.5586 104.823 89.5586 104.883C89.5586 104.943 89.8554 104.764 89.9147 104.764C89.9741 104.764 89.9147 105.002 90.0928 105.062C90.6269 105.181 91.5172 105.062 92.0513 105.181C92.5855 105.3 92.0513 105.479 92.2294 105.479C92.4074 105.479 92.2887 105.121 92.5261 105.062C92.7635 105.002 93.1196 105.3 93.357 105.3L96.9773 104.943C96.918 105.121 96.6806 105.24 97.0367 105.24C97.3928 105.24 97.0367 105.002 97.2147 104.943C97.9863 104.764 98.5798 105.24 99.0546 105.24C99.5294 105.24 99.5294 104.943 99.7668 105.002C100.064 105.002 100.123 105.538 100.182 105.538C100.242 105.538 100.182 105.181 100.36 105.002C100.776 104.704 101.429 105.419 101.725 105.479C102.022 105.538 102.259 105.062 102.319 105.896C102.378 106.73 102.2 106.253 102.259 106.373C102.259 106.611 102.616 106.73 102.616 107.028C102.616 107.326 102.438 107.028 102.378 107.147C102.319 107.266 102.378 107.386 102.319 107.505C102.2 107.683 101.725 107.683 101.785 108.101C101.547 108.101 101.666 107.922 101.666 107.803C101.547 107.624 101.488 108.041 101.429 108.101C101.072 108.339 100.064 108.22 99.5887 108.22C99.1139 108.22 98.2237 108.458 97.6302 108.339C97.0367 108.22 97.5708 108.041 97.5115 108.041C96.8586 108.16 95.0782 108.458 94.4847 108.458C93.8912 108.458 92.8822 108.101 92.1107 108.22C91.3391 108.339 91.4578 108.637 90.6863 108.339C89.9147 108.041 90.5676 108.041 90.5082 108.101C90.0334 108.22 89.5586 108.279 89.0245 108.339C88.3123 108.458 87.6595 108.16 86.9473 108.16C86.2351 108.16 85.3448 108.339 84.692 108.339C84.0391 108.339 84.0985 108.041 83.8611 108.041C83.6237 108.041 83.8611 108.339 83.683 108.339C83.1489 108.458 81.8432 108.339 81.131 108.339C80.0034 108.339 79.2318 108.16 78.1635 108.22C77.0952 108.279 77.7481 108.398 77.5107 108.339C77.2733 108.279 76.6798 107.862 76.5017 107.862C76.3237 107.862 75.4928 107.862 75.3741 107.922C75.2554 107.981 75.3147 108.16 75.2554 108.16C74.8993 108.458 74.0684 107.862 73.9497 107.922C73.831 107.981 73.7717 108.398 73.653 108.339C73.5343 108.279 73.3562 108.101 73.0595 108.041C72.466 107.922 71.6944 108.101 71.1009 108.041C69.4391 107.803 68.4302 107.922 66.8278 107.922C65.2253 107.922 66.1749 107.386 65.2847 107.803C64.3944 108.22 64.7505 108.398 63.9196 108.16C63.0887 107.922 63.3855 107.624 63.2668 107.386C63.1481 107.147 63.3855 106.968 63.3855 106.73C63.3855 106.492 63.1481 106.73 63.0887 106.671C62.9107 106.551 63.4448 106.432 63.5635 106.373C64.2757 105.896 63.7416 105.598 63.8009 105.181C63.8603 104.764 63.979 104.943 64.0383 104.823C64.0383 104.645 64.0383 104.287 64.0383 104.228C64.0977 104.228 64.3351 104.287 64.4538 104.108C64.5725 103.93 64.9286 103.036 64.9879 102.797C65.166 102.261 65.2847 100.891 65.6408 100.593C65.9969 100.295 66.0562 100.354 66.1749 100.474L66.0562 100.414ZM86.7099 102.142V102.261C86.8286 102.261 86.8286 102.142 86.7099 102.142ZM86.4725 102.321V102.44C86.5912 102.44 86.5912 102.321 86.4725 102.321Z" fill="#D28360"/>
<path d="M48.6667 71.3958C48.6667 71.3958 48.6667 71.1574 48.7854 71.1574C49.0228 71.1574 49.3789 71.3362 49.3789 71.2766C49.3789 71.217 49.3789 71.0383 49.4976 70.9787C49.8537 70.9787 50.9219 71.3362 51.3374 71.3958C51.7528 71.4554 51.9309 71.3958 51.9902 71.3958C51.9902 71.4554 51.9902 71.7533 51.9902 71.8129C51.9902 71.8725 52.7618 71.6341 53.1179 71.8725C53.474 72.1108 53.2366 72.23 53.3553 72.23C53.652 72.2896 53.9488 72.1108 54.1862 72.1108C54.4236 72.1108 55.0764 72.5279 55.2545 72.7662C55.6106 73.3025 55.2545 73.5409 55.3138 74.0175C55.3138 74.7921 55.4919 75.6859 55.5512 76.4605C55.6106 77.2352 55.4325 77.9502 55.6699 78.6056C55.5512 78.7248 55.4325 78.546 55.3732 78.546C55.3732 78.546 55.4325 79.7973 55.3732 79.8569C55.3138 79.9165 55.0764 79.4994 55.0764 79.9165C55.0764 80.3336 55.3732 79.9165 55.3732 80.0953C55.3732 80.3932 54.9577 80.8699 54.9577 81.2274L55.3138 80.989C55.4325 81.1082 55.1358 81.287 55.3138 81.4061C55.4919 81.5253 55.5512 81.4061 55.5512 81.4657C55.4919 81.9424 55.6106 82.3595 55.5512 82.5978C55.4919 82.8362 55.2545 82.8362 55.2545 83.4916C55.2545 84.1471 55.5512 83.9683 55.4919 84.1471C55.4325 84.3258 55.3732 84.5046 55.3732 84.5046C55.3732 84.5046 55.1358 84.2662 55.0764 84.445C55.0764 84.6238 55.2545 84.7429 55.3138 84.9217C55.4325 85.2792 55.3138 85.8155 55.4919 86.2326H55.1951C55.3732 86.5901 55.4919 86.9476 55.3138 87.4243C55.1358 87.901 54.7203 87.603 55.0171 87.7818C55.3138 87.9605 55.4919 87.7818 55.3138 87.901C55.1358 88.0201 55.0171 87.8414 55.0171 87.9605C55.0171 88.0797 55.3138 87.9605 55.3138 88.1393C55.3138 88.3181 55.1951 88.3776 55.1951 88.5564C55.3732 90.6419 55.4325 92.9061 55.4325 94.9916C55.4325 97.0771 55.4325 97.0175 55.4325 97.9709C55.4325 98.9243 55.4325 99.7585 55.3138 100.354C55.1951 100.95 55.0764 100.414 55.0171 100.533C54.9577 100.891 55.1358 101.367 54.7203 101.665L55.1358 101.784C54.8984 102.082 54.5423 101.963 54.2455 102.142C53.9488 102.321 53.9488 102.499 53.7707 102.559C53.2366 102.678 53.1772 101.904 53.1772 101.486C53.0585 99.103 52.9398 96.6004 52.8805 94.217C52.3463 94.0979 52.8211 92.9061 52.7618 92.489C52.7024 92.0719 52.465 92.1315 52.465 91.774C52.465 91.1186 52.9398 90.9994 53.2959 90.6419C53.652 90.2844 53.2959 90.344 53.474 90.1652C53.652 89.9864 54.1862 89.6885 54.5423 89.331C54.8984 88.9735 54.9577 88.9735 54.7797 88.7947C54.6016 88.616 53.474 89.3906 53.4146 89.5694C53.3553 89.7481 53.4146 89.8077 53.2959 89.9864C53.1772 90.1652 52.7618 90.344 52.7024 90.2844C52.6431 90.2248 52.465 88.7352 52.465 88.4968C52.2276 86.0538 52.7618 82.6574 52.2276 80.4528C51.6935 78.2481 52.3463 78.7844 52.3463 78.1885C52.3463 77.5927 52.0496 78.1885 52.0496 78.0098C51.9902 77.5331 52.287 76.6989 52.0496 76.0434C51.8122 75.388 51.8122 75.9243 51.7528 75.8647C51.6935 75.8051 51.6935 75.5072 51.5748 75.4476C51.4561 75.388 51.278 75.388 51.1 75.2688C50.9219 75.1497 50.9813 75.0305 50.9813 74.9709C50.9813 74.9709 50.6845 75.0901 50.5065 75.0901C50.3285 75.0901 50.1504 74.8517 49.913 74.7921C48.3699 74.4346 46.352 74.0771 44.8089 73.958C43.2659 73.8388 42.8504 73.958 41.9008 73.7792C41.7821 73.1238 42.1976 73.3621 42.5537 73.1833C42.9098 73.0046 42.5537 73.0046 42.6724 72.945C42.9691 72.7067 43.3846 72.6471 43.5626 72.1108C43.7406 71.5745 43.2659 70.8595 43.3252 70.7999C43.3846 70.7403 44.3341 70.7999 44.5122 70.7999C45.165 70.9191 45.6992 70.9787 46.4114 71.0383C47.1236 71.0978 48.6667 71.217 48.726 71.1574L48.6667 71.3958ZM48.9634 72.4087C48.9634 72.4087 48.548 72.23 48.548 72.2896C48.3106 72.5279 48.726 72.5875 48.9041 72.7067C49.0228 72.7067 48.9634 72.4087 48.9634 72.4087Z" fill="#D28360"/>
<path d="M118.106 87.4119C117.512 86.5777 117.156 85.5052 116.622 84.671C115.613 83.2409 114.901 81.6917 114.01 80.1425C113.12 78.5933 113.892 79.6658 113.832 79.5466C113.773 79.4275 113.358 79.3679 113.298 79.1295C113.239 78.8912 113.654 79.1295 113.595 78.8912C113.18 79.0103 113.298 78.3549 113.18 78.1762C113.061 77.9974 113.002 78.2953 112.824 78.1762C112.052 77.6399 112.467 76.7461 112.171 76.2694C111.874 75.7927 111.815 76.2694 111.755 76.0907C111.696 75.9119 111.577 75.4948 111.518 75.3756C111.34 74.8394 111.162 74.4223 111.102 73.8264C111.043 73.2306 111.221 73.5285 111.221 73.4689C111.162 73.4093 110.865 73.5881 110.924 73.2901C111.696 73.0518 111.221 73.1114 111.102 72.9326C110.984 72.7539 110.924 72.5751 110.924 72.3964C111.162 72.3964 110.924 72.6347 111.162 72.6943C111.458 72.7539 111.28 72.5751 111.458 72.3964C111.874 72.5751 112.052 72.3964 111.993 72.9922C111.933 73.5881 111.755 73.0518 111.696 73.0518C111.518 73.171 111.993 73.2306 112.111 73.2901C112.586 73.5285 112.289 73.7668 112.23 74.0052C112.171 74.2435 112.467 74.0052 112.527 74.1839C112.764 75.1969 113.061 75.1969 113.417 75.9715C113.773 76.7461 113.832 77.1632 114.307 77.9378C114.782 78.7124 115.316 79.5466 115.91 80.3212C116.503 81.0958 116.206 81.215 116.206 81.215C116.206 81.215 116.503 81.215 116.622 81.4534C116.8 81.9896 116.622 81.8109 116.919 82.3471C117.215 82.8834 117.69 84.4326 117.928 84.7901C118.165 85.1477 119.174 86.2798 119.589 86.6969C120.005 87.114 120.242 87.829 120.48 88.1269C120.717 88.4249 120.717 88.6632 120.895 88.842C121.963 89.7953 124.515 89.6166 125.88 89.6762C127.245 89.7357 128.61 89.9145 129.797 89.7357C130.984 89.557 130.806 89.4378 131.281 89.3782C131.756 89.3186 133.952 89.1399 134.071 89.1995C134.189 89.2591 134.071 89.6166 134.071 89.6166C134.011 89.6166 133.774 89.6166 133.596 89.6166C133.418 89.6166 132.884 90.1528 132.824 90.2124C132.587 90.2124 131.815 90.5103 131.697 90.5103C131.578 90.5103 130.925 90.5104 130.925 90.4508C130.806 90.3316 130.925 90.0337 130.628 90.0933C130.747 90.9274 129.56 90.7487 128.967 90.7487C128.373 90.7487 128.432 90.987 128.492 90.5103C128.076 90.8679 128.076 90.8679 127.661 90.5103C127.661 91.0466 127.364 90.6891 127.067 90.6891C126.415 90.6891 125.702 90.8679 125.05 90.8083C124.397 90.7487 124.871 90.1528 124.634 90.8083C123.922 90.5103 123.091 90.6295 122.379 90.5103C121.667 90.3912 122.082 90.3316 121.904 90.272C121.132 90.0933 120.48 90.2124 119.886 89.6166C119.293 89.0207 119.649 89.0803 119.53 88.842C119.115 88.2461 118.58 87.829 118.165 87.2331L118.106 87.4119Z" fill="#D28360"/>
<path d="M91.8138 84.0885C91.6951 83.9693 90.9829 82.7776 90.9829 82.5989C90.9829 82.4201 91.1016 82.1818 91.1016 81.8838C91.1016 79.56 91.4577 78.7258 92.7634 76.8191C94.0691 74.9123 93.4162 75.8657 94.0097 75.9849C94.6032 76.104 94.6626 76.7595 94.9593 77.1766C95.2561 77.5937 96.1463 78.7854 96.3244 79.3812C96.5024 79.9771 96.7992 80.9305 96.7992 80.99C96.7992 81.3476 96.5024 82.003 96.4431 82.4797C96.3837 82.9564 96.5618 83.9693 95.8496 84.3268C95.1374 84.6843 95.3748 84.2077 95.078 84.2673C94.7813 84.3268 94.4252 84.6248 94.0691 84.6843C93.713 84.7439 92.1105 84.2672 91.9325 84.0885H91.8138ZM94.3658 83.3139C94.5439 83.0755 94.3658 82.1222 94.3658 81.8242C94.3658 81.5263 94.6626 81.0496 94.2471 80.6921C93.8317 80.3346 93.5349 80.8113 93.4756 81.2284C93.4162 81.6455 93.3569 82.3605 93.3569 82.6584C93.3569 83.3139 94.1878 83.4926 94.3065 83.3139H94.3658Z" fill="#897A33"/>
<path d="M72.6439 83.7906C72.5845 83.9097 72.6439 84.0885 72.4658 84.2672C71.9317 84.8035 70.9821 84.6247 70.4479 84.2672C68.6674 83.2543 68.1333 81.1688 69.2609 79.4408C70.3886 77.7128 69.9731 78.7854 70.2699 78.4279C70.804 77.6532 71.0414 76.0444 72.1691 75.9848C73.2967 75.9253 72.8219 76.1636 72.9999 76.4019C73.178 76.6403 74.1869 79.2025 74.1869 79.5004C74.0682 80.275 74.365 81.288 74.1869 82.003C74.0089 82.718 73.7715 82.6584 73.5934 82.8372C73.4154 83.0159 72.9406 83.4926 72.7032 83.731L72.6439 83.7906ZM72.1691 80.5729C72.1691 80.5729 71.813 80.5729 71.6943 80.5729C71.2788 80.6921 71.3975 81.8242 71.3975 82.1222C71.3975 82.4201 71.1601 83.3735 71.2195 83.3735C71.2788 83.3735 71.5756 83.3735 71.6943 83.3735C71.813 83.3735 72.0504 83.5522 72.0504 83.4926C72.0504 83.4926 72.1691 82.8968 72.1691 82.8372C72.1691 82.5988 71.8723 82.4797 71.9317 82.3009C71.991 82.1222 72.1691 81.9434 72.1691 81.7051C72.1691 81.4667 72.1691 80.5133 72.1691 80.5133V80.5729Z" fill="#897A33"/>
<path d="M130.332 87.1736C130.391 86.9352 130.51 86.6373 130.569 86.4585C130.569 86.1606 130.391 85.8031 130.628 85.386C130.866 84.9689 130.925 85.3264 130.925 85.2072C130.925 85.0285 130.747 84.9093 130.806 84.671C130.806 84.1943 131.578 82.7642 131.875 82.2876C133.062 80.1425 135.08 77.5207 136.979 76.0311C138.878 74.5414 137.928 75.4948 137.988 75.4352C138.106 75.316 138.166 74.7798 138.344 74.6606C138.522 74.5414 138.759 74.601 138.937 74.4818C139.531 74.0647 139.828 73.5285 140.243 72.9326C140.658 72.3368 141.074 71.6813 141.727 71.8005L141.311 71.5026C141.667 71.5026 141.549 71.1451 141.786 70.9067C142.439 70.2513 142.202 70.3109 142.617 69.5958C143.032 68.8808 143.507 68.285 144.101 67.6295C144.457 67.6295 144.279 67.6891 144.279 67.9274C143.923 69.4171 143.032 71.0259 142.261 72.2772C140.421 75.1969 137.869 76.8057 135.673 79.3083C133.477 81.8109 133.833 81.93 133.062 83.2409C132.29 84.5518 132.29 84.4326 132.171 84.9689C132.053 85.8627 131.697 86.2202 131.519 87.2331C131.341 88.2461 131.4 87.3523 131.4 87.4715C131.4 87.7098 131.341 88.7824 130.747 88.6632C130.154 88.544 130.45 88.3057 130.332 88.1269C130.213 87.9482 130.094 88.1269 130.094 88.0078C130.094 87.8886 130.332 87.4715 130.391 87.2331L130.332 87.1736ZM138.878 75.5544C138.997 75.316 138.819 74.9585 138.759 75.1373C138.7 75.316 138.819 75.7331 138.878 75.5544Z" fill="#D28360"/>
<path d="M124.1 86.6969C123.862 86.1606 122.557 84.1943 122.557 84.0156C122.26 82.5855 121.37 82.4068 120.836 81.3342C120.302 80.2617 120.717 80.7384 120.658 80.6788C120.598 80.6192 120.302 80.6788 120.242 80.6788C120.183 80.6788 120.361 80.4404 120.302 80.3213C120.242 80.2021 120.183 80.1425 120.123 80.0233C120.064 79.9042 120.123 79.5467 120.123 79.5467C120.123 79.5467 119.886 79.7254 119.827 79.6658C119.827 79.6658 119.886 79.1296 119.827 78.9508C119.767 78.772 119.589 78.8912 119.471 78.772C118.996 78.3549 119.233 77.7591 119.115 77.2824C118.996 76.8057 118.699 76.8653 118.521 76.5674C117.928 75.4948 117.868 74.2435 117.215 73.2902C116.562 72.3368 115.732 69.715 115.85 68.6425C115.969 67.57 115.969 68.285 116.147 68.285C116.147 68.7021 116.919 69 116.978 69.2384C117.156 69.5363 116.741 69.4171 116.681 69.4767C116.562 69.5959 116.919 69.5959 116.978 69.715C117.393 70.1917 117.097 70.8472 117.156 70.9068C117.156 70.9663 117.987 71.6814 118.106 71.8005C118.284 72.158 118.343 72.7539 118.462 72.9922C118.58 73.2306 118.64 72.9922 118.699 73.1114C119.233 74.2435 119.589 75.1969 120.064 76.329C120.539 77.4612 120.598 77.1036 120.717 77.4016C120.836 77.6995 120.242 77.342 120.302 77.6399C120.776 77.5207 120.48 78.1166 120.598 78.1762C120.717 78.2358 120.954 78.1762 121.073 78.3549C121.192 78.5337 121.251 79.2487 121.31 79.3679C121.37 79.4871 121.607 79.3679 121.726 79.4871C121.845 79.6062 121.963 80.0233 122.082 80.2617C123.091 81.8705 124.041 83.5389 124.693 85.2073C125.346 86.8757 125.643 86.6373 125.702 86.8161C125.762 86.9948 125.702 87.1736 125.702 87.2928C125.88 87.7694 126.355 88.4249 125.999 88.9016C125.643 89.3783 125.465 88.6036 125.406 88.5441C125.346 88.4845 124.99 88.6632 124.931 88.6632C124.693 88.6632 124.515 87.4119 124.397 87.114C124.278 86.8161 124.219 86.8757 124.159 86.6969H124.1Z" fill="#D28360"/>
<path d="M127.483 87.1736C127.127 86.5777 127.483 85.8031 127.483 85.2669C127.483 84.7306 127.245 84.3135 127.186 83.8368C127.127 82.3472 127.364 80.0829 127.483 78.5337C127.602 76.9845 127.72 76.8057 127.78 75.9715C127.78 75.7928 128.136 75.9715 128.195 75.9119C128.254 75.8523 128.195 75.614 128.136 75.614C128.076 75.614 127.839 75.7928 127.78 75.7332C127.602 75.5544 127.898 73.6477 127.958 73.2902C128.017 72.9327 128.136 72.9327 128.195 72.6943C128.314 71.8601 128.314 70.8472 128.492 70.013C128.67 69.1788 128.789 69.9534 128.789 69.8342C128.789 69.715 128.611 69.6555 128.551 69.4767C128.373 68.9404 128.729 68.5829 128.848 68.0466C128.967 67.5104 129.026 66.2591 129.085 65.5441C129.145 64.829 129.323 64.0544 129.441 63.2798C129.679 63.0415 129.976 62.8627 130.094 63.2798C130.272 63.9352 130.272 64.6503 130.45 65.3653C130.154 66.0207 130.154 66.6166 129.976 67.3316C129.501 69.3575 129.441 71.0259 129.323 73.1114C129.204 75.1969 128.551 78.8912 128.611 81.8109C128.67 84.7306 128.611 84.2539 128.611 85.5052C128.611 86.7565 128.254 86.5182 128.907 86.8757C127.958 86.8757 128.314 87.5907 128.195 87.7099C128.076 87.829 127.602 87.4715 127.542 87.4119C127.483 87.3523 127.542 87.1736 127.542 87.1736H127.483Z" fill="#D28360"/>
<path d="M42.3757 72.1708C42.0196 72.2899 41.7822 72.6474 41.3668 72.8262C40.9513 73.005 39.1708 73.6008 38.696 73.72C38.2212 73.8392 37.9245 73.6008 37.509 73.72C37.509 73.5412 37.509 73.3625 37.6871 73.2433C38.0432 72.7666 39.8237 71.992 40.4172 71.8132C41.0107 71.6345 41.9009 71.277 42.3757 72.1112V72.1708Z" fill="#D28360"/>
<path d="M34.5414 72.1713C34.6008 72.2309 34.5414 72.4097 34.6008 72.5288C34.7195 72.7076 35.9658 73.2438 34.8975 73.5418L31.3959 72.4097C31.3959 72.0521 30.9805 71.8734 30.9805 71.8138C31.1585 71.4563 31.9894 71.4563 32.3455 71.5159C32.7016 71.5755 34.4227 72.1117 34.5414 72.2309V72.1713Z" fill="#D28360"/>
<path d="M134.783 90.4508C134.783 91.3445 134.546 91.3445 134.486 91.5233C134.427 91.9404 134.427 92.715 134.368 93.1917C134.308 93.6684 134.546 93.7875 134.071 93.6684C134.071 92.7746 134.308 91.8808 134.486 91.0466C134.664 90.2124 134.486 90.5699 134.783 90.3912V90.4508Z" fill="#D28360"/>
<path d="M134.19 95.158C134.19 94.8601 133.952 94.443 133.952 94.2047C133.952 93.9663 134.071 94.0259 134.071 94.0259C134.427 94.2642 134.368 94.6813 134.308 95.0984C134.249 95.5155 134.19 95.158 134.19 95.2176V95.158Z" fill="#D28360"/>
<path d="M133.774 100.282C133.774 99.7461 133.774 99.2098 133.893 98.7332C134.071 99.3886 133.952 99.6865 133.774 100.282Z" fill="#D28360"/>
<path d="M134.19 96.4093H134.071C134.071 96.3497 134.19 95.8135 134.19 95.8135C134.19 95.8135 134.308 95.9326 134.368 96.0518C134.368 96.2902 134.249 96.3497 134.19 96.4093Z" fill="#D28360"/>
<path d="M134.071 98.0182C134.071 97.8394 133.952 97.6011 134.071 97.4223C134.071 97.4223 134.19 97.5415 134.249 97.6606C134.249 97.899 134.13 97.9586 134.071 98.0182Z" fill="#D28360"/>
<path d="M75.2552 102.725C75.4333 102.904 75.1365 103.142 74.9585 103.023C74.7804 102.904 75.0772 102.606 75.2552 102.725Z" fill="#D28360"/>
<path d="M55.4918 101.712L55.1951 102.01C55.1951 101.712 55.1951 101.712 55.4918 101.712Z" fill="#D28360"/>
<path d="M134.071 98.316C134.071 98.316 134.249 98.316 134.189 98.4352C134.13 98.4352 133.952 98.4352 133.893 98.4352L134.011 98.316H134.071Z" fill="#D28360"/>
<path d="M134.071 97.1244L134.19 97.0052C134.19 97.1244 134.071 97.1244 134.071 97.1244Z" fill="#D28360"/>
<path d="M134.783 89.736H134.664C134.664 89.6764 134.783 89.6168 134.783 89.6168V89.736Z" fill="#D28360"/>
<path d="M75.6113 103.024C75.73 103.024 75.73 103.143 75.6113 103.143V103.024Z" fill="#D28360"/>
<path d="M141.549 12.93C141.786 13.1683 141.964 13.7046 142.083 14.0621C142.439 15.2538 142.677 17.1606 142.617 18.4119C142.558 19.6631 142.499 19.7227 142.38 19.9015C142.261 20.0802 141.727 20.7357 141.668 20.7953C141.252 21.0336 140.599 20.9144 140.243 20.6761C139.887 20.4378 139.412 19.8419 139.412 19.7823C138.7 18.7098 138.344 15.4922 138.7 14.2409C139.056 12.9896 138.938 13.5258 139.175 13.2875C139.709 12.6916 140.896 12.3341 141.549 12.9896V12.93ZM140.421 20.0207C140.421 20.0207 140.243 19.6036 140.184 19.6036C139.709 19.8419 140.184 20.259 140.421 20.0207ZM140.896 20.5569C141.015 20.3782 140.777 20.1994 140.777 20.259C140.659 20.4378 140.896 20.6165 140.896 20.5569Z" fill="#897A33"/>
<path d="M133.596 27.5881C133.121 28.0647 133.477 26.9326 133.596 27.171C133.715 27.4093 133.596 27.5881 133.596 27.5881Z" fill="#FDFDFD"/>
<path d="M140.421 56.1295C140.599 56.3083 140.362 56.6062 140.125 56.1891C140.125 56.0699 140.421 56.1295 140.421 56.1295Z" fill="#FDFDFD"/>
<path d="M140.184 48.2642C139.887 48.2642 139.887 48.2642 139.887 47.9663L140.184 48.2642Z" fill="#FDFDFD"/>
<path d="M137.869 41.293C138.047 41.4717 137.81 41.7697 137.572 41.3526C137.572 41.2334 137.869 41.293 137.869 41.293Z" fill="#FDFDFD"/>
<path d="M120.717 11.4404C120.836 11.4404 120.836 11.5596 120.717 11.5596V11.4404Z" fill="#FDFDFD"/>
<path d="M2.55201 66.7358C2.73005 66.7953 2.37396 66.9741 2.13656 66.8549C1.89916 66.7358 2.31461 66.6166 2.55201 66.7358Z" fill="#FDFDFD"/>
<path d="M0.652832 71.9792C0.771531 71.9792 0.771531 72.0984 0.652832 72.0984V71.9792Z" fill="#FDFDFD"/>
<path d="M31.9302 104.692C32.0489 104.692 32.0489 104.811 31.9302 104.811V104.692Z" fill="#FDFDFD"/>
<path d="M99.4697 53.15C99.4104 53.2096 99.0543 52.8521 99.173 52.5542C99.2917 52.2562 99.5291 53.0308 99.4697 53.15Z" fill="#FDFDFD"/>
<path d="M101.606 48.8601C101.784 48.9197 101.428 49.0984 101.191 48.9793C100.954 48.8601 101.369 48.7409 101.606 48.8601Z" fill="#FDFDFD"/>
<path d="M122.794 93.1918C122.794 93.1918 122.794 93.3706 122.913 93.4302C123.031 93.4898 123.803 93.7281 123.862 93.7281C123.922 93.7281 123.862 93.4898 123.981 93.4898C124.218 93.311 125.227 93.6685 125.584 93.7281C127.601 93.9069 129.857 93.4898 131.934 93.7281C134.011 93.9665 132.527 93.9665 132.705 93.9665C132.884 93.9665 133.774 93.3706 133.596 94.2048C133.418 95.039 133.18 94.4431 132.884 94.5027C132.587 94.5623 132.587 94.6815 132.409 94.6815C132.112 94.6815 131.281 94.7411 130.984 94.6815C130.688 94.6219 130.866 94.2048 130.747 94.3835C130.628 94.5623 130.806 94.6219 130.688 94.6815C130.45 94.6815 130.153 94.5623 129.975 94.5623C129.797 94.5623 129.679 94.7411 129.441 94.7411C129.204 94.7411 128.67 94.5027 128.432 94.5623C128.195 94.6219 128.076 94.9794 127.601 94.6219C127.127 94.2644 127.601 94.324 127.423 94.324C127.245 94.324 127.423 94.5623 127.186 94.6815C126.949 94.8006 126.355 94.8007 126.296 94.8007C126.177 94.8007 126.236 94.5027 126.177 94.5027C125.109 94.6815 122.675 94.324 121.607 93.9665C120.539 93.6089 121.429 93.6685 121.31 93.6685C121.073 93.6685 120.836 93.8473 120.539 93.7281C120.242 93.6089 118.64 92.6556 118.462 92.5364C118.284 92.4172 118.105 91.8214 118.105 91.8214C118.224 91.7022 120.301 92.6556 120.658 92.7747C121.014 92.8939 122.438 93.0131 122.735 93.1918H122.794Z" fill="#D28360"/>
<path d="M133.774 98.8523C133.774 98.8523 132.706 99.1502 132.587 99.1502C131.994 99.1502 131.222 99.0311 130.629 99.0311C130.035 99.0311 128.611 99.2098 128.314 99.1502C128.017 99.0906 128.255 98.8523 128.195 98.8523C127.958 98.8523 127.78 99.0906 127.483 98.9715C127.186 98.8523 127.483 98.6735 127.305 98.6735C127.068 98.6735 127.008 98.8523 126.83 98.9119C126.474 99.0311 124.812 98.614 124.278 98.5544C123.744 98.4948 123.685 98.5544 123.447 98.5544C123.21 98.5544 123.388 98.2564 123.329 98.2564C122.438 98.4352 122.676 98.1373 122.023 98.0181C120.598 97.7202 119.827 97.601 118.462 97.1839C117.097 96.7668 117.987 97.3031 117.69 96.9456C117.394 96.5881 117.394 96.4689 117.453 96.4093C117.69 96.2305 119.115 96.8264 119.411 96.886C121.311 97.3031 123.507 97.5414 125.406 97.8393C127.305 98.1373 129.263 98.1373 131.281 98.2564C133.299 98.3756 133.537 98.1373 133.715 98.3756C133.893 98.614 133.833 98.7927 133.774 98.7927V98.8523Z" fill="#D28360"/>
<path d="M127.78 88.1267C127.542 88.365 127.364 87.8288 127.483 87.7096C127.602 87.5904 127.899 88.0075 127.78 88.1267Z" fill="#D28360"/>
<path d="M86.71 103.142C86.8287 103.142 86.8287 103.261 86.71 103.261V103.142Z" fill="#FDFDFD"/>
<path d="M86.4722 103.321C86.5909 103.321 86.5909 103.441 86.4722 103.441V103.321Z" fill="#FDFDFD"/>
<path d="M48.9635 73.4094C48.9635 73.4094 48.9635 73.7073 48.9041 73.7073C48.7261 73.5881 48.3106 73.5285 48.548 73.2902C48.7854 73.0518 48.9635 73.4094 48.9635 73.4094Z" fill="#FDFDFD"/>
<path d="M60.3585 39.2671C60.3585 39.2671 60.0618 39.2671 60.0618 39.2075C60.2992 38.7904 60.5366 39.0883 60.3585 39.2671Z" fill="#FDFDFD"/>
<path d="M94.3656 83.3129C94.2469 83.4321 93.416 83.3129 93.416 82.6574C93.416 82.002 93.416 81.5253 93.5347 81.2274C93.5941 80.8103 93.8908 80.3336 94.3063 80.6911C94.7217 81.0486 94.425 81.4657 94.425 81.8233C94.425 82.1808 94.5437 83.015 94.425 83.3129H94.3656Z" fill="#D28360"/>
<path d="M72.1691 80.5732C72.1691 80.5732 72.1691 81.5862 72.1691 81.765C72.1691 82.0033 71.9317 82.1821 71.9317 82.3608C71.9317 82.5396 72.1691 82.6587 72.1691 82.8971C72.1691 83.1354 72.0504 83.4929 72.0504 83.5525C72.0504 83.6121 71.813 83.4333 71.6943 83.4333C71.5756 83.4333 71.2195 83.4333 71.2195 83.4333C71.2195 83.4333 71.3975 82.4204 71.3975 82.1821C71.3975 81.9437 71.2788 80.752 71.6943 80.6328C72.1097 80.5137 72.1691 80.6328 72.1691 80.6328V80.5732Z" fill="#D28360"/>
<path d="M138.878 75.5544C138.819 75.7332 138.64 75.3757 138.759 75.1373C138.878 74.899 138.997 75.3161 138.878 75.5544Z" fill="#FDFDFD"/>
<path d="M140.421 20.0207C140.124 20.2591 139.709 19.842 140.184 19.6036C140.659 19.3653 140.421 20.0207 140.421 20.0207Z" fill="#FDFDFD"/>
<path d="M140.896 20.5568C140.896 20.6759 140.659 20.4972 140.777 20.2588C140.896 20.0205 141.015 20.3184 140.896 20.5568Z" fill="#FDFDFD"/>
<path d="M158.377 48.2347C158.972 49.2033 159.686 51.1967 159.871 52.5515C160.057 53.9064 159.483 57.5474 158.701 59.2281C157.918 60.9088 157.587 61.2605 157.232 61.6742C156.877 62.0879 156.294 62.7568 155.813 63.3291C155.157 64.1838 154.158 65.0877 153.286 65.8329C152.414 66.5782 151.385 67.3927 150.363 67.6911C149.341 67.9895 148.872 68.1971 148.168 68.5085C147.465 68.8199 147.417 68.9439 147.393 69.0059C147.116 69.385 148.054 69.6371 147.969 70.1878C147.885 70.7384 146.904 71.4289 146.285 71.1896C145.666 70.9504 145.841 70.6679 145.57 70.531C144.975 70.2298 145.21 70.126 145.047 70.0439C144.723 69.8796 144.29 69.6605 144.02 69.5236C143.749 69.3867 143.04 69.5467 143.148 68.9341C141.868 69.3984 143.107 67.8747 143.197 67.4755C143.288 67.0762 143.108 66.54 143.078 66.4507C142.934 66.1552 142.285 65.8266 142.111 65.4418C141.51 64.3219 140.544 61.9783 140.069 60.6998C139.595 59.4213 138.678 55.619 138.739 53.7957C138.8 51.9724 138.98 53.1759 139.125 52.804C139.269 52.4321 138.854 52.6671 138.926 52.4811C139.415 50.0582 139.669 47.739 141.179 45.6849C142.689 43.6308 143.778 42.995 144.589 42.7384C145.401 42.4818 145.78 42.6735 146.038 42.5077C146.297 42.3419 146.093 41.8677 146.484 41.6947C146.875 41.5217 146.989 41.7278 147.253 41.7134C148.305 41.5043 148.835 41.4754 150.091 41.7405C151.347 42.0057 151.612 41.9912 152.417 42.2506C153.222 42.51 153.782 42.5705 154.382 43.023C154.983 43.4756 154.773 43.5174 154.935 43.5995C155.097 43.6817 155.308 43.6399 155.446 43.784C155.584 43.9281 155.734 44.3749 155.902 44.6084C157.014 45.9128 157.506 46.9779 158.407 48.3241L158.377 48.2347ZM145.058 43.1982C144.89 42.9647 144.493 42.9863 144.631 43.1305C144.769 43.2746 145.196 43.3423 145.058 43.1982ZM141.377 46.6751C141.479 46.5785 141.449 45.8218 141.347 45.9184C141.119 46.1735 141.299 46.7097 141.377 46.6751Z" fill="#D28360"/>
</g>
<defs>
<clipPath id="clip0_625_1630">
<rect width="146" height="115" fill="white"/>
</clipPath>
</defs>
</svg>
