<svg width="166" height="118" viewBox="0 0 166 118" fill="none" xmlns="http://www.w3.org/2000/svg">
<path d="M166 39.6053V90.1562C165.52 90.3002 164.944 89.9642 164.56 89.9162C164.176 89.8682 164.512 90.2522 164.128 90.2042C163.744 90.1562 162.256 89.6281 161.872 89.4841C161.488 89.3401 160.96 88.908 160.527 88.668C159.663 88.2359 158.703 88.0439 157.839 87.6599C154.623 86.3637 152.798 83.0512 151.262 80.2189C149.726 77.3865 151.07 79.8348 150.926 79.5948C150.35 78.5866 150.206 75.4662 150.11 74.218C149.678 69.3214 149.774 63.6086 150.446 58.7599C151.118 53.9113 151.214 52.039 152.894 49.1106C154.575 46.1822 153.567 48.5826 153.759 48.2465C153.951 47.9105 153.999 47.0464 154.287 46.6143C154.575 46.1822 154.863 46.0862 155.007 45.8462C155.343 45.3661 156.303 43.6859 156.687 43.3979C157.071 43.1098 157.071 43.3979 157.119 43.3018C157.167 43.2058 157.167 43.0138 157.311 42.8698C157.455 42.7258 158.511 41.9097 158.655 41.8136C159.519 41.2376 160.287 41.0455 161.152 40.6615C162.016 40.2774 161.488 40.2294 161.728 40.1334C162.208 39.9894 163.36 39.8454 163.888 39.7974C164.416 39.7494 165.328 39.7494 166 39.6534V39.6053ZM160.912 51.703V53.4312C161.824 53.5272 161.584 52.6631 161.584 52.039L161.104 52.135L160.864 51.655L160.912 51.703ZM157.599 56.6477C156.879 56.8877 157.263 58.0398 157.263 58.6159C157.503 58.6159 157.455 58.6159 157.503 58.4239C157.551 57.8478 157.551 57.2237 157.599 56.6477ZM155.151 62.8405H154.671C154.911 63.1285 154.527 63.5126 154.575 63.5126C154.623 63.5126 154.671 63.5126 154.719 63.5126C154.815 63.6086 154.911 63.9446 155.055 63.6566C155.199 63.3686 155.199 62.8405 155.151 62.7925V62.8405ZM155.055 65.8169C155.055 65.8169 154.767 65.8169 154.719 65.9129C154.575 66.1049 154.719 66.489 154.719 66.777C154.719 67.0651 154.287 67.7852 154.527 68.0252C154.767 68.2652 154.767 67.4971 154.863 67.4011C154.959 67.3051 155.391 67.2571 155.199 67.0171C155.007 66.777 155.007 67.0651 154.959 66.825C154.911 66.585 155.199 65.9129 155.103 65.8649L155.055 65.8169ZM156.447 68.5053C156.543 68.6013 157.167 68.5053 157.215 68.1692C157.263 67.8332 157.215 67.2091 157.215 67.0651C157.215 66.729 157.119 66.393 157.023 66.0569L156.591 66.825C156.879 67.3531 155.919 67.3051 156.495 67.8812L156.783 67.6411C156.975 67.9292 156.159 68.2172 156.447 68.4573V68.5053ZM162.544 68.5053C163.312 68.6013 162.976 67.2571 162.88 66.777C162.736 66.777 162.688 66.9691 162.688 67.1131C162.64 67.5931 162.64 68.0732 162.544 68.5053ZM164.464 70.5695C164.416 70.1855 164.56 69.8494 164.608 69.4654C164.656 69.0813 164.512 68.8893 164.512 68.6493C164.512 68.2172 164.944 67.4011 164.176 67.4491L164.08 70.6656L164.176 70.3295L164.512 70.5695H164.464ZM164.464 70.6656C164.032 70.5695 164.32 71.3857 164.224 71.5777L164.464 70.6656ZM164.128 71.4817C164.224 71.3376 164.032 71.1936 164.032 71.2416C163.936 71.3857 164.128 71.5297 164.128 71.4817ZM158.751 75.0342C158.223 74.8421 158.223 75.8983 158.559 76.0903C158.895 76.2823 158.703 75.1782 158.751 75.0342ZM157.023 75.1782C156.879 75.1782 156.735 75.1782 156.687 75.3702C156.543 75.8983 156.495 77.8665 156.543 78.4426C156.591 79.0187 156.639 79.0187 156.687 79.0667C156.735 79.1147 157.071 78.8747 157.119 78.7787C157.167 78.6826 157.023 77.9625 157.023 77.7705C157.023 77.5785 157.359 77.2425 157.359 76.9544C157.359 76.6664 157.119 76.6664 157.023 76.4743C156.927 76.2823 157.023 75.2742 157.023 75.1782ZM158.607 80.5549C158.175 80.4589 158.463 81.323 158.367 81.611C158.751 81.419 158.559 80.8909 158.607 80.5549ZM164.464 85.8836C164.176 85.6436 164.032 86.2677 164.032 86.5077C164.032 86.7477 164.128 86.9398 164.128 87.1798C164.128 87.7559 163.744 88.764 164.512 88.956C164.656 88.956 164.512 88.1399 164.56 87.9959C164.608 87.8519 164.8 87.9479 164.8 87.8519C164.8 87.5638 164.32 86.9878 164.32 86.9398C164.32 86.7957 164.464 85.8836 164.416 85.8836H164.464Z" fill="#897A33"/>
<path d="M142.285 89.5321C140.509 89.5321 138.732 89.5321 137.004 89.1481C135.276 88.764 134.46 88.62 133.164 88.38C131.867 88.14 131.387 88.0919 131.819 87.7079C132.491 87.6119 133.164 87.5639 133.836 87.6119C134.508 87.6599 135.372 87.8039 135.804 87.7559C136.236 87.7079 135.852 87.5159 135.852 87.4199L136.14 87.6599C136.284 87.7079 135.996 87.3718 136.428 87.5639C136.476 88.476 136.908 88.0439 137.34 88.14C139.308 88.524 140.461 88.812 142.525 88.62C144.589 88.428 144.925 88.0919 145.741 88.0919C146.557 88.0919 146.413 88.332 146.701 88.38C149.294 88.764 151.79 89.1961 154.334 89.6762C154.286 89.8682 153.902 89.8682 153.854 89.9162C153.806 89.9642 153.998 90.2522 153.998 90.2522C154.142 90.3483 154.766 90.2042 154.958 90.4923L154.574 89.6762C157.311 90.1562 159.519 90.6843 161.967 92.0285C164.416 93.3727 164.56 97.3092 165.952 99.9496V106.718C165.568 106.43 165.76 105.662 165.616 105.326C165.472 104.99 165.328 105.47 165.376 104.702C165.424 103.934 164.704 103.118 164.608 102.686C164.512 102.254 164.512 101.438 164.368 101.054C164.224 100.67 163.696 99.9015 163.552 99.4695C163.408 99.0374 163.552 98.8934 163.456 98.6534C163.36 98.4133 163.408 98.3653 163.36 98.1733C163.312 97.9813 163.264 98.0773 163.264 98.0773C163.216 97.9333 163.264 97.5492 163.024 97.4052C162.88 97.1172 162.976 96.7331 162.928 96.4451C162.88 96.157 162.736 96.3491 162.736 96.3011C162.399 95.0529 162.159 94.8129 161.439 93.8527C160.719 92.8926 161.247 93.9487 161.103 93.7567C160.959 93.5647 161.103 93.0366 160.815 93.7087C160.095 92.9406 159.087 92.7486 158.223 92.2685C157.359 91.7884 158.127 92.0285 158.079 92.0285C158.079 92.0285 157.839 92.1725 157.695 92.1245C157.551 92.0765 157.647 91.9325 157.551 91.8845C157.023 91.6924 155.967 91.5964 155.391 91.4044C154.814 91.2124 154.622 90.9723 154.574 90.9723C154.43 90.9723 154.19 91.1164 153.95 90.9723C153.71 90.8283 153.854 90.7323 153.854 90.7323C153.806 90.7323 153.662 90.9723 153.47 90.9243C153.278 90.8763 152.318 90.5883 152.174 90.4923C150.35 89.7242 147.469 89.4361 145.405 89.4841C143.341 89.5321 143.437 89.6762 142.381 89.6762L142.285 89.5321Z" fill="#92511B"/>
<path d="M121.786 86.4597C122.506 83.2433 124.33 78.9707 126.011 76.1383C126.443 75.4182 126.827 74.7942 127.163 74.0741C127.499 73.354 128.267 72.7779 128.699 72.4898C129.131 72.2018 130.907 71.3377 130.955 71.0977C131.003 70.8576 129.083 70.2335 128.747 69.8975C128.411 69.5615 127.787 68.2173 127.787 67.6412C127.787 66.537 128.651 64.9048 129.419 64.1367C130.187 63.3686 130.571 63.3686 131.003 63.1286C131.435 62.8885 131.531 63.2726 131.435 62.7445C132.155 62.9846 132.827 62.1204 133.452 61.9764C134.076 61.8324 136.428 61.5444 137.34 61.5924C138.252 61.6404 139.644 62.0244 139.98 62.1684C140.316 62.3125 141.565 63.4646 141.757 63.7527C142.141 64.2327 142.669 65.0488 142.669 65.6729C142.429 65.913 141.949 65.7689 142.093 66.201C142.237 66.633 142.381 66.249 142.573 66.153C142.525 67.3051 142.573 67.4012 141.997 68.4573C141.421 69.5134 141.997 68.6973 141.997 68.7933C141.997 68.8894 141.805 68.7933 141.805 68.7933C141.805 68.7933 142.237 69.0814 141.757 69.4654C141.277 69.8495 141.373 69.4654 141.373 69.4654C141.373 69.4654 141.277 69.9455 141.085 70.1375C140.893 70.3296 140.22 70.7616 140.076 70.8576C139.644 71.0977 138.3 71.4337 138.204 71.9618C138.108 72.4898 138.54 72.1538 138.78 72.2978C139.02 72.4418 139.452 73.1619 139.644 73.354C139.836 73.546 139.884 73.354 139.98 73.45C140.412 73.978 141.469 77.0985 141.709 77.9146C142.093 79.3068 142.141 80.699 142.285 82.1872C142.429 83.6754 142.477 83.4353 142.525 84.0114C142.573 85.4996 142.477 87.0358 142.525 88.572C140.46 88.8121 139.308 88.524 137.34 88.092C137.916 86.9878 136.908 87.8999 136.812 87.8519C136.716 87.8039 136.764 87.6119 136.428 87.5159C136.092 87.4199 136.284 87.6599 136.14 87.6119L135.852 87.3719C135.852 87.4679 135.9 87.7079 135.804 87.7079C135.42 87.8039 134.364 87.5639 133.836 87.5639C133.307 87.5639 132.491 87.5639 131.819 87.6599C131.387 88.044 132.971 88.284 133.163 88.332C134.46 88.572 135.756 88.8121 137.004 89.1001C138.252 89.3881 140.508 89.4841 142.285 89.4841C142.285 89.9642 142.045 89.8682 141.853 90.0122C141.565 90.2523 141.565 90.4443 140.989 90.3963C139.02 90.3003 136.428 89.2921 134.364 89.0521C132.299 88.8121 133.932 89.1481 133.692 89.1001C129.755 88.716 125.722 88.8601 121.786 88.428L122.026 88.092C121.882 88.092 121.738 88.092 121.546 88.092C121.642 87.5159 121.642 86.9398 121.786 86.3637V86.4597ZM134.076 73.306C133.884 73.1139 133.884 73.306 133.836 73.45C133.74 73.738 133.74 74.0261 133.596 74.3141C133.98 74.6021 134.268 73.45 134.076 73.258V73.306ZM132.347 76.9064C132.155 76.7144 132.107 77.0505 132.059 77.1465C131.915 77.4345 131.195 78.9707 131.291 79.1147C131.483 79.4028 131.483 78.8267 131.627 78.8747C131.627 79.3548 131.771 79.6428 131.291 79.8348L131.579 80.1229C131.915 79.4988 131.867 78.7787 132.011 78.1066C132.155 77.4345 132.395 76.9545 132.347 76.9064ZM137.1 79.2108C136.812 78.8747 136.668 80.2189 136.668 80.3629C136.668 80.6509 136.812 80.747 136.86 80.939C137.052 80.939 137.004 80.651 137.052 80.5069C137.1 80.0269 136.956 79.6428 137.1 79.2108ZM134.892 80.2189C134.748 80.0269 134.268 80.651 134.412 80.891C134.604 80.891 135.036 80.3629 134.892 80.2189ZM128.123 80.699C127.739 80.699 127.739 81.131 127.595 81.371C127.451 81.6111 127.259 81.4671 127.307 82.0431C127.739 82.0431 127.691 81.6591 127.787 81.4671C127.883 81.275 128.171 81.083 128.123 80.699ZM132.011 84.7315C131.867 84.7795 131.723 84.5875 131.675 84.6355C131.579 84.7315 131.387 86.0277 131.435 86.2677L132.011 84.7795V84.7315ZM134.22 85.4036C134.316 85.2596 134.124 85.1156 134.124 85.1636C134.028 85.3076 134.22 85.4516 134.22 85.4036ZM131.195 85.3076C130.955 85.2116 130.763 85.7877 130.763 85.8357C130.763 86.0277 130.811 86.1717 130.859 86.3157L131.195 85.2596V85.3076ZM134.076 85.4996C133.404 85.4996 133.452 86.0757 133.5 86.5558C133.98 86.6518 133.548 86.1237 133.596 85.8837C133.788 85.8837 133.692 86.0757 133.74 86.1237C133.836 86.2197 134.268 85.8357 134.076 85.5476V85.4996ZM128.123 87.7079C128.123 86.9398 127.691 87.2278 127.067 87.0838C125.866 86.7958 126.011 86.7478 124.762 86.8918C123.514 87.0358 123.85 86.7478 123.562 86.7958C123.466 87.1318 123.754 86.9878 123.802 87.1318C123.85 87.2759 123.802 87.4679 123.802 87.5159C123.898 87.6119 125.674 87.4199 126.011 87.4199L125.914 87.7559C126.155 87.6599 126.491 87.9479 126.683 87.9479C126.875 87.9479 127.547 87.8999 127.595 87.8999C127.643 87.8999 127.691 87.4679 128.267 87.8039L128.123 87.7079Z" fill="#D28360"/>
<path d="M62.8339 87.4678L63.17 87.3718C63.266 86.9878 62.978 87.0358 62.93 86.9398C62.8339 86.4117 63.074 86.2677 63.122 86.0276C63.266 84.8275 63.266 83.3393 63.602 82.1391C63.9381 80.9389 63.7461 82.0431 63.8421 82.0431C63.8901 81.8511 63.602 81.9951 63.602 81.8511C63.602 81.659 63.9381 80.5549 64.0341 80.1708C64.1301 79.7868 63.9381 79.7868 63.9861 79.6428C64.0341 79.4987 64.2741 79.4987 64.3221 79.3547C64.3701 79.1147 64.3221 78.5866 64.3221 78.2506C64.5142 76.6184 65.7143 72.9219 67.1065 71.9617C68.4987 71.0016 67.3946 71.9617 67.3946 71.9617C67.3946 71.9137 67.3946 71.7217 67.3946 71.6737C67.3946 71.6257 67.6826 71.6737 67.8266 71.5777C67.9706 71.4817 68.3067 71.0016 68.4987 70.8576C68.9308 70.5695 69.4588 70.5215 69.7949 70.0895C68.6907 69.3214 67.7306 68.7453 67.1545 67.4011C66.2904 65.2408 67.2025 63.0805 68.7387 61.5443C70.2749 60.0081 68.8828 61.1603 68.9788 61.0642C69.3628 60.7282 71.4751 59.7201 71.9072 59.528C72.3392 59.336 74.3555 59.048 74.4995 59.048C74.9796 59.048 76.7078 59.432 77.1399 59.6241C77.5719 59.8161 77.3799 60.0561 77.5719 60.1041C77.956 60.2961 77.812 60.0561 78.244 60.4402C79.2042 61.3043 79.9723 62.0244 80.3083 63.3205C80.6444 64.6167 80.5963 64.3767 80.5003 64.6647C80.3563 65.1928 80.0683 65.9609 79.7322 66.441C79.3962 66.921 79.1562 67.0651 78.6761 67.4491C78.196 67.8332 77.6199 68.6493 77.0439 69.0333C76.4678 69.4174 75.5557 69.4174 75.5557 70.0895C75.5557 70.7616 76.0357 70.6655 76.0837 70.7136C76.4678 70.9536 76.9959 71.0976 77.3799 71.3856C78.1 71.9137 78.4361 72.5378 78.9161 73.1139C79.3962 73.69 79.1562 72.8739 79.3482 73.738C79.5402 74.6021 79.5882 73.882 79.6842 74.026C80.9804 76.3783 80.8364 82.3791 81.2204 85.3075C81.6045 88.2359 81.2204 85.9316 81.6525 85.8356C81.3164 85.9796 80.9804 86.9878 80.9804 87.3238C80.6444 87.5158 80.3083 87.4198 79.9243 87.4198C79.5402 87.4198 79.4922 87.5158 79.3482 87.5158C78.8201 87.5638 78.292 87.5158 77.716 87.6118C77.3799 87.4678 76.8038 87.6118 76.4678 87.7079C76.1317 87.8039 76.1797 87.8039 75.9877 87.8039C75.7957 87.5158 75.4116 87.8039 75.1236 87.8039C74.8356 87.8039 74.7876 87.7079 74.5955 87.7079C74.5955 87.2758 74.6915 87.6118 74.8836 87.5638C75.6997 87.5638 76.4678 87.3238 77.2839 87.3238C77.5239 87.2278 77.5239 86.6997 77.5719 86.6517C77.6199 86.6037 78.388 86.8437 78.5801 86.6997C78.4361 86.6037 78.388 86.2677 78.292 86.1717C78.196 86.0756 77.0439 85.9316 76.8038 85.9316C73.9234 85.9316 71.0431 86.7477 68.1627 86.6037L64.2741 86.9878C63.6981 87.2758 64.5142 87.3238 64.2741 87.5158C64.0341 87.7079 63.8901 87.5158 63.9381 87.8039C64.4662 88.716 65.1382 87.8999 65.9064 88.3319C64.8982 88.476 63.6981 88.572 62.6899 88.812L62.7859 87.1798C62.6899 87.1798 62.6419 87.1798 62.5459 87.1798L62.8339 87.4678ZM74.1155 62.6005C74.9796 62.6965 74.8356 60.8242 74.3555 61.9764C73.8754 63.1285 74.3555 62.3604 74.3555 62.4084C74.3555 62.5044 74.1155 62.4084 74.1635 62.5525L74.1155 62.6005ZM77.716 63.8966C77.2359 63.7526 77.3319 65.0968 77.3799 65.1448C77.4279 65.1928 77.764 65.1448 77.812 65.0008C77.86 64.8568 77.6199 64.1847 77.716 63.8966ZM75.4116 65.0488C75.0276 64.7607 74.9316 66.441 75.2196 66.441C75.5077 66.441 75.5557 65.5769 75.5077 65.3848C75.4596 65.1928 75.3636 65.2888 75.3636 65.2888C75.3636 65.1448 75.4596 65.0968 75.3636 65.0488H75.4116ZM72.5313 73.4499C72.6273 73.3539 72.7233 72.5858 72.7713 72.3458C72.8673 72.0097 73.1553 71.8657 72.8673 71.3376C72.3392 71.5777 72.7233 72.2018 72.5313 72.6338C72.3392 73.0659 72.0512 72.9699 72.0992 73.2579C72.1472 73.5459 72.4832 73.4979 72.5313 73.4499ZM69.0748 72.2978C68.8828 72.1057 68.6907 72.5378 68.6427 72.5378C68.4987 72.5378 68.3067 72.3938 68.1147 72.4418C67.9226 72.4898 67.9706 72.7778 67.8266 72.8258C67.6826 72.8738 67.5386 72.8258 67.5386 72.8258C67.4906 72.8738 67.6346 73.2099 67.6346 73.3059C67.6346 73.5459 66.9145 73.978 67.7306 74.17C68.5467 74.362 68.5947 73.2099 68.7867 72.7778C68.9788 72.3458 69.2188 72.4418 69.0268 72.2018L69.0748 72.2978ZM73.2994 74.122C72.9633 74.074 73.1073 74.218 73.0593 74.4101C73.0113 74.6021 72.9633 74.8901 73.0593 75.1782L73.2994 74.122ZM70.2269 77.0984C69.4588 77.1944 69.9389 77.8665 69.8909 78.3466C70.2269 78.1066 70.0829 77.4345 70.2269 77.0984ZM77.812 81.035C77.908 80.9389 77.764 78.3466 77.2359 78.2506L77.5719 80.8429L77.3319 81.035C77.4279 81.035 77.764 81.035 77.812 81.035ZM70.0829 78.4906C69.8429 78.4906 69.7469 78.3466 69.7469 78.6826C69.7469 79.0187 69.6029 79.4987 69.6509 79.5468C69.6989 79.5948 70.0349 79.5468 70.1309 79.7388C69.6989 79.8828 69.9869 79.9788 69.9869 80.2188C69.9869 80.4589 69.6509 80.2188 69.7469 80.5069C70.851 80.0748 69.8429 79.2107 69.8429 78.7306C69.8429 78.2506 70.1309 78.7306 70.0829 78.5386V78.4906ZM74.9316 81.035C74.5955 81.035 74.7396 81.035 74.6915 81.227C74.4995 81.9471 74.7876 81.659 74.7876 81.8031C74.8356 82.0911 74.7876 82.5712 74.7876 82.9072C74.7876 83.2433 74.8356 83.3393 75.0276 83.3393C75.0276 83.0032 75.3636 82.5232 75.3636 82.2351C75.3636 81.9471 75.1716 82.2351 75.1716 82.0911C75.0756 81.8031 74.9796 81.323 74.9316 81.035Z" fill="#D28360"/>
<path d="M88.8535 85.74C88.8535 84.6838 88.6615 83.4837 88.8055 82.4755C89.0936 80.3152 89.8137 77.4828 90.6778 75.5626C91.5419 73.6423 92.07 72.7782 93.6062 71.6741C95.1424 70.5699 94.3743 71.53 94.3743 71.098C94.3743 70.5219 93.4621 70.6179 93.1261 70.5219C92.7901 70.4259 91.4939 69.4658 91.1578 69.0337C90.2937 68.0256 90.1497 66.1533 90.6778 65.0012C92.166 61.6887 95.6224 58.9523 99.3189 60.9206C103.015 62.8889 100.423 61.5927 100.471 61.6407C100.663 61.8327 100.567 62.0728 100.663 62.2168C100.759 62.3608 101.047 62.3608 101.191 62.5048C101.335 62.6488 101.911 63.609 101.959 63.753C102.727 65.1932 101.959 68.3616 100.615 69.3697C99.2709 70.3779 100.327 69.3697 100.327 69.3697C100.327 69.3697 100.423 69.5138 100.375 69.6098C100.375 69.8978 100.135 70.5219 100.183 70.7619C100.231 71.002 102.199 71.8181 102.535 72.1061C102.871 72.3942 103.207 72.6822 103.447 72.9222C105.656 74.9865 107.096 79.3071 107.912 82.1395C108.344 83.5797 108.44 84.4438 108.68 85.932C108.92 87.4202 108.68 86.268 108.872 86.4121C107.48 86.6041 106.28 86.6041 104.84 86.4121C104.744 86.076 104.744 85.644 104.456 85.3559V86.268C104.264 86.22 103.736 86.028 103.832 86.364H103.736C103.832 86.028 102.727 86.172 102.439 86.124C101.239 86.028 99.847 85.884 98.5988 85.836C96.2465 85.74 93.8462 86.028 91.5419 86.028C89.2376 86.028 89.8137 85.788 88.9495 85.788L88.8535 85.74Z" fill="#897A33"/>
<path d="M88.8535 85.7396C89.7177 85.7396 90.5338 85.9797 91.4459 85.9797C93.7982 85.9797 96.1985 85.7396 98.5028 85.7876C100.807 85.8356 101.143 85.9797 102.343 86.0757C103.544 86.1717 103.736 85.9797 103.64 86.3157H103.736C103.64 85.9797 104.216 86.1237 104.408 86.2197C104.6 86.3157 104.408 86.2677 104.744 86.3157C106.184 86.5077 107.384 86.5077 108.776 86.3157C110.168 86.1237 110.168 86.3157 110.793 86.3157C112.761 86.3157 114.777 86.4117 116.745 86.2677L121.642 86.4597C121.498 87.0358 121.498 87.6119 121.402 88.188C120.298 88.188 119.146 88.0919 118.041 88.0919C116.937 88.0919 117.945 87.9959 117.705 87.9959C117.273 87.9959 116.985 88.0439 116.553 88.0919C116.457 87.8999 116.169 87.9479 115.977 87.9959C115.785 88.0439 115.737 87.9959 115.641 87.9959C115.065 87.9959 114.633 87.7559 114.201 87.7559C113.769 87.7559 114.057 87.9479 113.961 87.9959C113.481 88.188 112.473 87.9479 111.897 87.9959C107.528 88.0919 103.255 87.8519 98.9349 87.7079C98.8389 87.7079 98.6949 87.7079 98.5989 87.7079C98.5509 87.5159 98.3108 87.3238 98.2628 87.6119C98.1188 87.6119 97.9748 87.6119 97.7827 87.6119C96.1025 87.4198 94.9024 87.3238 93.1261 87.4199C91.3499 87.5159 91.6859 87.8519 91.2539 87.4199C91.1578 87.8999 90.4858 87.4679 90.1017 87.4199C89.7177 87.3718 88.3735 87.6119 88.2775 87.6119C87.6534 87.4198 87.7494 87.6119 87.1253 87.6119C86.5012 87.6119 87.1253 87.4199 87.0293 87.4199C85.9251 87.4199 84.773 87.8519 83.7168 87.6599C82.6607 87.4679 83.5728 87.6599 83.4768 87.6599C83.3808 87.4679 82.9007 87.4679 82.8047 87.6599C82.7087 87.6599 82.5647 87.6599 82.4687 87.6599V87.5639C82.4207 87.5639 82.2286 87.6599 82.2286 87.6599C82.0846 87.6599 81.9406 87.6599 81.7486 87.6599V87.5639C81.7006 87.5639 81.6526 87.6599 81.6526 87.6599C81.5565 87.6599 81.4125 87.6599 81.3165 87.6599C81.2205 87.6599 81.1245 87.4199 81.0765 87.8999C81.0765 87.8999 80.9805 87.8039 80.9805 87.6599C80.9805 87.3238 81.3645 86.3157 81.6526 86.1717C81.9406 86.0277 83.0928 86.1717 83.5728 86.1237C85.205 86.1237 87.0293 85.9316 88.7095 85.9316L88.8535 85.7396Z" fill="#92511B"/>
<path d="M61.9871 87.0029C62.3923 87.0029 62.5949 87.0029 63 87.0029L62.5949 88.7022C61.9871 88.7022 61.3794 88.7022 61.1768 88.9521C57.328 88.7522 49.0225 89.302 44.9711 89.5019C40.9196 89.7018 38.8939 89.7018 36.0579 89.8517C33.2219 90.0017 32.4116 90.2516 31.3987 90.2516C30.3859 90.2516 29.5756 90.1016 29.1704 90.1516C28.7653 90.2016 29.7781 90.4015 29.1704 90.4515C28.1576 90.6014 26.7395 90.5015 25.7267 90.6014C19.2444 91.1512 11.3441 92.0008 5.8746 92.9005C0.405145 93.8001 2.2283 93.0004 2.83601 93.6501H2.43087C1.41801 93.6501 1.01286 93.7001 1.01286 94C0.810289 94 0.405145 94 0 94C0 93.1004 0 92.1508 0 91.2512C2.2283 90.9513 4.65916 90.6014 7.09003 90.4015C9.5209 90.2016 9.72347 90.2016 11.9518 89.9017C17.4212 89.202 25.5241 88.6023 31.3987 88.2024C37.2733 87.8026 35.2476 87.9525 37.2733 87.8526C43.3505 87.5527 56.3151 86.953 61.9871 87.0029Z" fill="#92511B"/>
<path d="M154.575 89.5321L154.959 90.3482C154.767 90.0122 154.143 90.2042 153.999 90.1082C153.854 90.0122 153.854 89.8201 153.854 89.7721C153.854 89.7721 154.287 89.7721 154.335 89.5321C154.335 89.5321 154.335 89.5321 154.575 89.5321Z" fill="white"/>
<path d="M142.621 66.057C142.429 66.201 142.285 66.393 142.141 66.105C141.997 65.8169 142.477 65.8649 142.717 65.5769C142.717 65.7689 142.621 65.961 142.621 66.057Z" fill="white"/>
<path d="M120.538 93.5647L124.715 93.1326C125.099 93.1326 125.339 93.3727 125.627 93.5167C125.915 93.6607 126.107 93.5167 126.155 93.5647C126.203 93.6127 126.059 93.8047 126.107 93.9007C126.155 93.9967 126.395 93.9967 126.491 94.1888C127.019 95.1969 126.875 96.6851 127.211 97.5012C127.787 98.9894 128.267 100.814 128.603 102.398C128.939 103.982 128.843 104.078 128.939 104.942C129.035 105.806 129.275 106.478 129.179 107.199C129.083 107.919 128.699 108.111 128.411 108.255C128.123 108.399 127.595 108.495 127.307 108.543C119.386 110.031 110.793 110.127 102.776 110.463C94.7585 110.799 95.5746 110.655 91.9741 110.799C90.0539 110.895 87.2215 111.519 85.4453 110.943C83.669 110.367 84.9172 110.511 84.6292 110.031L84.8692 109.839C84.4371 109.935 84.4851 109.599 84.3891 109.263C84.2931 108.927 84.5331 108.591 84.1491 108.447C83.9091 107.007 83.285 105.662 83.1409 104.222C82.9969 102.782 82.9969 102.158 82.9009 101.198C82.8049 100.238 82.7089 100.094 82.6609 99.5655C82.6129 99.0374 82.7089 99.3255 82.6609 99.2295C82.6609 98.7494 82.4208 97.5492 82.6609 97.1652C82.9009 96.7811 83.621 96.5891 83.717 96.5891C84.0531 96.5891 84.9652 96.7331 85.3012 96.6851C85.6373 96.6371 85.3973 96.4931 85.4933 96.4931C85.6373 96.4931 85.7333 96.7811 85.8293 96.7331C85.9253 96.6851 85.9733 96.3491 86.0693 96.3011C86.1654 96.2531 86.5494 96.3011 86.8374 96.157L87.8936 100.91C87.9896 101.246 88.3256 101.678 88.4217 101.918C88.7577 102.734 88.9497 103.742 89.2378 104.51C89.5258 105.278 89.5258 106.238 89.5738 106.286C89.6218 106.334 89.9099 106.286 90.0539 106.43C90.1979 106.574 90.1979 106.718 90.3419 106.766C90.678 106.862 91.014 106.766 91.206 106.766C91.3981 106.766 91.5901 107.055 91.9261 107.055C92.4542 107.055 93.2703 106.766 93.7504 106.959C94.2305 107.151 93.7504 107.247 93.9424 107.199C93.7984 106.43 94.5185 107.199 94.6145 107.103C94.7105 107.007 94.5185 106.718 94.7105 106.766C94.7105 106.91 94.7105 107.199 94.9025 107.199C95.0946 107.199 96.0067 106.911 96.2947 106.862C98.8871 106.622 101.815 106.574 104.36 106.959C106.904 107.343 106.76 106.622 108.728 106.382C110.697 106.142 115.065 105.854 117.802 105.95C120.538 106.046 120.25 106.19 121.45 106.238C121.45 105.47 121.546 104.654 121.498 103.886C121.354 100.43 120.874 96.9251 120.394 93.5647H120.538Z" fill="#92511B"/>
<path d="M116.025 89.5321C116.265 89.5321 116.553 89.7241 116.793 89.7241C117.561 89.7721 118.473 89.6761 119.29 89.8681C120.106 90.0602 119.386 90.0122 119.386 90.0602C119.434 90.0602 119.578 90.0602 119.626 90.0602C119.818 90.3002 119.674 90.5402 119.77 90.6363C120.346 91.5484 120.346 92.3645 120.49 93.5166C120.922 96.8771 121.45 100.334 121.594 103.838C121.738 107.343 121.498 105.422 121.546 106.19C120.346 106.19 119.098 105.902 117.897 105.902C115.161 105.806 111.561 105.998 108.824 106.334C106.088 106.67 106.856 107.247 104.456 106.91C102.055 106.574 98.9828 106.574 96.3905 106.814C93.7981 107.054 95.0943 107.15 94.9983 107.15C94.8543 107.15 94.8063 106.814 94.8063 106.718C94.5662 106.718 94.7583 107.006 94.7103 107.054C94.6142 107.15 93.8942 106.382 94.0382 107.15C93.8461 107.15 93.9902 107.006 93.8461 106.91C93.4141 106.67 92.55 107.006 92.0219 107.006C91.4938 107.006 91.3498 106.718 91.3018 106.718C91.1098 106.718 90.7257 106.814 90.4377 106.718C90.1496 106.622 90.2937 106.478 90.1496 106.382C90.0056 106.286 89.6696 106.286 89.6696 106.238C89.6216 106.19 89.4295 104.702 89.3335 104.462C89.0455 103.694 88.8535 102.686 88.5174 101.87L87.4613 95.869C87.1732 95.7729 87.0292 96.061 86.8852 96.109C86.5972 96.205 86.2131 96.205 86.1171 96.253C86.0211 96.301 85.8771 96.6851 85.8771 96.6851C85.7811 96.6851 85.685 96.445 85.541 96.445C85.541 96.205 85.637 95.821 85.781 95.6289C86.3571 94.7168 87.5093 94.0927 88.5654 93.7087C90.1496 93.1326 92.2139 92.5085 93.8461 92.1725C95.4784 91.8364 97.2066 91.4044 98.2147 91.5964C99.7509 91.8844 101.623 91.8844 103.063 92.6045C104.504 93.3246 103.207 92.8926 103.303 92.8926C103.399 92.8926 104.072 92.8926 104.072 92.8926C104.312 92.8926 104.6 92.5085 104.84 92.4125C108.488 90.5882 111.753 89.3881 115.977 89.5801L116.025 89.5321ZM118.858 91.4524C118.185 90.3962 117.177 90.8763 116.121 90.7803C113.241 90.5883 111.705 90.6363 109.016 91.6444C106.328 92.6525 106.328 93.1806 104.84 93.6607C103.351 94.1407 104.744 93.8527 104.6 93.9007C104.456 93.9487 104.312 93.9007 104.312 93.9007C104.264 93.9967 104.168 94.5728 104.216 94.7168C104.216 94.9568 104.408 95.1969 104.504 95.5329C104.984 97.5492 105.56 99.6135 105.944 101.726C106.328 103.838 106.376 103.838 106.52 103.982C106.664 104.126 106.76 104.03 106.904 104.126C107.048 104.222 107.192 104.462 107.24 104.462C107.288 104.462 107.72 104.03 107.864 103.982C110.216 103.022 115.305 102.734 117.897 102.83C120.49 102.926 119.05 103.166 119.53 103.262C120.01 103.358 120.442 103.166 120.826 103.358C121.018 102.014 120.682 100.67 120.394 99.3734C120.106 98.0773 120.058 98.7494 120.202 98.5573C120.346 98.3653 120.538 98.6053 120.25 98.0293C119.962 97.4532 120.154 97.7412 120.106 97.1171C120.058 96.493 119.674 95.965 119.578 95.5809C119.386 94.7168 119.338 93.7087 119.194 92.8446C119.05 91.9804 118.954 91.7404 118.81 91.4524H118.858ZM100.231 92.9406C100.135 92.9406 98.9828 93.0366 98.5988 93.0366C96.1024 92.8926 93.3661 93.4686 90.8697 94.1887C88.3734 94.9088 89.3335 94.8128 88.5174 95.0048C88.2294 95.2929 88.8535 97.0691 88.9015 97.5012C89.1895 98.8934 89.3335 100.19 89.6696 101.582C90.0056 102.974 90.4857 104.318 90.5817 105.71C90.7257 105.854 92.3099 104.99 92.646 104.846C94.2302 104.222 95.4784 104.03 97.0626 103.838C98.6468 103.646 101.863 103.502 103.687 103.742C105.512 103.982 104.12 104.03 104.408 104.03C104.696 104.03 104.648 103.838 104.744 103.79C104.84 103.742 104.984 103.79 105.032 103.79C105.224 103.598 104.792 102.782 104.792 102.59C104.792 102.398 105.08 102.59 105.032 102.494C104.84 102.014 104.696 101.726 104.6 101.198C104.216 99.3734 103.735 97.3572 103.255 95.4849C102.775 93.6127 103.207 93.9487 102.919 93.7087C102.631 93.4686 101.767 93.4686 101.623 93.4686C101.191 93.4206 101.431 93.5166 101.047 93.3726C100.663 93.2286 100.519 93.2286 100.183 93.0366L100.231 92.9406ZM120.538 104.27C120.49 104.222 119.77 104.27 119.578 104.27C115.545 103.646 112.089 104.03 108.2 105.278C104.312 106.526 107.768 105.278 107.576 105.326C107.384 105.374 107.336 105.71 107.384 105.758C107.624 105.998 110.216 105.086 110.696 104.99C112.329 104.654 114.489 104.942 116.169 104.942C117.849 104.942 117.369 104.798 117.897 104.798C118.666 104.798 119.578 104.99 120.394 105.086L120.49 104.27H120.538ZM104.072 104.99C103.207 104.99 102.295 104.798 101.479 104.798C99.1749 104.75 96.1025 104.99 93.9902 105.566C91.8779 106.142 93.078 105.806 93.03 105.806C92.982 105.806 92.454 106.382 92.3099 106.478C92.742 106.382 93.3661 106.43 93.7501 106.286C94.1342 106.142 95.3824 105.854 96.0544 105.806C97.7827 105.662 99.943 105.614 101.719 105.566C103.495 105.518 103.351 105.806 103.88 105.662C104.408 105.518 104.072 105.134 104.072 104.99ZM106.328 105.854C106.664 105.47 106.376 104.75 105.848 104.75C105.32 104.75 105.128 104.942 105.08 104.942C104.744 105.47 105.752 106.478 106.28 105.806L106.328 105.854Z" fill="#D28360"/>
<path d="M65.2823 102.926H65.3783C65.4743 103.262 65.5223 103.31 65.8583 103.406C66.1944 103.502 65.9544 103.406 65.9544 103.406C65.9544 103.55 66.0024 103.694 66.1944 103.742C66.1944 103.838 66.1944 103.886 66.1944 103.982C66.1944 104.462 66.1944 104.702 65.9544 105.134C66.2424 105.23 66.3864 104.894 66.5304 104.846C66.8185 104.702 67.2985 104.942 67.2025 104.558C68.0186 104.51 69.1708 104.702 69.8909 105.134C70.611 105.566 69.9869 105.326 70.0349 105.374C70.1789 105.47 70.419 105.47 70.515 105.566C70.611 105.662 70.803 106.382 70.851 106.526C70.899 106.67 70.371 107.487 70.2749 107.583C69.6509 108.303 67.9706 108.207 67.1545 107.919C66.3384 107.631 65.9544 107.343 65.8583 106.862C66.0504 106.862 66.2424 106.862 66.4344 106.862C66.5304 106.286 65.9063 105.902 65.4263 105.854C64.4181 105.758 62.5459 105.854 61.4897 105.902C61.5858 105.422 61.7778 104.702 61.9698 104.27C62.1618 103.838 62.4979 103.742 62.6419 103.502C62.7859 103.262 62.6419 103.406 62.6419 103.406H62.7379C62.8339 103.406 62.9299 103.406 62.9779 103.31L63.314 103.07C63.554 103.07 63.65 102.974 63.7941 102.974L63.8901 102.878C64.0341 102.878 64.2261 102.878 64.3701 102.878C64.5142 102.878 64.7062 102.782 64.7062 102.782H64.8022C64.8982 102.974 65.0902 102.974 65.2823 103.022V102.926Z" fill="#897A33"/>
<path d="M58.1294 103.838C57.8414 103.982 56.6892 105.614 56.4012 105.998C56.1131 106.382 55.7771 106.814 55.6331 107.295C57.5053 106.67 59.4736 105.998 61.4419 105.902C63.4101 105.806 64.3703 105.758 65.3784 105.854C66.3865 105.95 66.5305 106.238 66.3865 106.862C66.1945 106.862 66.0025 106.862 65.8104 106.862C65.3784 106.862 65.3784 106.958 65.1864 106.958C64.8023 106.958 64.4183 106.718 63.9862 106.958C63.0261 106.814 62.0659 106.862 61.1058 106.958C59.3296 107.103 58.1774 107.391 56.4972 108.015C54.817 108.639 55.057 108.495 54.2889 109.167C53.5208 109.839 53.9048 109.263 53.7128 109.359C52.3686 110.175 50.8804 111.375 49.5362 112.095C48.1921 112.815 48.3841 112.431 48.5281 111.807C48.6721 111.183 50.2083 110.703 50.4004 110.223C51.5045 109.359 53.6648 108.687 54.3849 107.535C55.105 106.382 54.4809 107.247 54.5289 107.151C54.6729 106.862 55.057 106.238 55.297 105.854C55.5371 105.47 56.0171 104.894 56.3532 104.366C56.6892 103.838 56.5932 103.742 56.8332 103.454C57.4573 102.494 58.1294 102.782 58.0814 103.934L58.1294 103.838Z" fill="#D28360"/>
<path d="M56.881 103.358C56.1129 103.358 56.2569 102.11 56.4489 101.582C56.6409 101.054 56.881 100.142 57.361 99.5175C57.8411 98.8934 59.5693 97.2612 60.5775 97.5492C61.5856 97.8372 61.0095 98.2693 61.0575 98.3173C61.1055 98.3653 61.5376 98.2693 61.6336 98.3173C61.7296 98.3653 61.7296 99.1334 61.7776 99.3254L61.8737 99.4215V99.5175C61.8737 99.6615 61.7296 99.8535 61.6336 99.9975C61.5376 100.142 61.4416 100.094 61.3936 100.238H61.2976C61.2976 100.286 61.3936 100.334 61.3936 100.334C60.8655 101.438 60.6735 101.582 60.0014 102.542C59.7614 102.542 59.7614 102.542 59.7614 102.782L59.6654 102.878C59.4253 102.878 59.2813 103.022 59.1853 103.214H59.0893C58.7052 103.454 58.5132 103.598 58.1771 103.79C58.1771 102.686 57.5531 102.398 56.929 103.31L56.881 103.358ZM61.1055 100.382C60.9615 100.286 60.8175 100.478 60.8655 100.478C61.0095 100.574 61.1536 100.382 61.1055 100.382Z" fill="#897A33"/>
<path d="M56.4974 107.967C57.3615 107.967 59.3297 109.935 59.1377 110.751C58.9457 111.567 58.9457 110.799 58.8977 110.895C58.8017 111.279 58.9937 111.423 58.4176 111.663C57.1214 112.095 54.4331 110.655 54.2891 109.119C55.0092 108.447 55.4892 108.351 56.4974 107.967Z" fill="#897A33"/>
<path d="M63.986 106.911C64.2741 107.199 64.6101 107.439 64.8982 107.727C65.1862 108.015 65.0422 107.871 65.1382 107.967C65.3302 108.159 65.3782 108.303 65.4742 108.447L65.5702 108.927C65.5702 109.023 65.5702 109.167 65.5702 109.263C65.3302 109.983 65.1382 110.127 64.4181 110.319C63.698 110.511 64.2741 110.319 64.1781 110.319H64.082C63.986 110.319 63.938 110.319 63.842 110.319C63.746 110.127 63.458 110.223 63.2659 110.223C63.0259 109.887 62.8819 110.031 62.5938 109.887L62.4978 109.791C61.4897 109.215 61.0576 108.159 61.1056 107.007C62.0658 106.911 63.0259 106.863 63.986 107.007V106.911Z" fill="#897A33"/>
<path d="M82.2768 107.871C83.0449 107.631 82.8529 108.975 82.1808 108.735C81.5087 108.495 81.9407 108.303 81.3647 108.735C80.7886 109.167 81.1246 109.359 80.7886 108.927C80.7886 108.255 81.4607 108.399 81.7967 108.255C82.1328 108.111 82.0367 107.919 82.2288 107.871H82.2768Z" fill="white"/>
<path d="M81.7004 97.4532H81.2684C81.2684 97.4532 81.2204 96.6851 81.1724 96.5411C81.7484 96.3971 82.0365 97.1652 81.7484 97.4532H81.7004Z" fill="white"/>
<path d="M83.6689 107.487L83.5248 108.159C82.6127 108.255 82.9008 107.439 83.6689 107.487Z" fill="white"/>
<path d="M83.8127 113.967C83.8127 114.159 83.9567 114.304 83.9567 114.496C83.9087 115.264 82.7086 114.063 83.8127 113.967Z" fill="white"/>
<path d="M66.1946 103.934C66.7227 103.838 66.1946 104.654 66.2906 104.75C66.5787 104.75 66.9147 104.558 67.2028 104.51C67.2508 104.894 66.8187 104.654 66.5307 104.798C66.2426 104.942 66.2426 105.182 65.9546 105.086C66.1946 104.654 66.1946 104.414 66.1946 103.934Z" fill="white"/>
<path d="M84.389 109.215C84.0529 109.311 84.1969 108.783 84.1489 108.399C84.533 108.495 84.341 108.927 84.389 109.215Z" fill="white"/>
<path d="M63.8904 110.271C63.7944 110.271 63.6503 110.463 63.3623 110.415C63.0743 110.367 63.3623 110.223 63.3143 110.175C63.5063 110.175 63.7944 110.127 63.8904 110.271Z" fill="white"/>
<path d="M65.8585 103.358C65.5704 103.262 65.5224 103.214 65.3784 102.878C65.6185 102.974 65.8585 103.07 65.8585 103.358Z" fill="white"/>
<path d="M64.8022 102.686C65.0903 102.686 65.3303 102.59 65.2823 102.926C65.1383 102.878 64.9463 102.926 64.8022 102.686Z" fill="white"/>
<path d="M64.7062 102.686C64.7062 102.686 64.5141 102.782 64.3701 102.782C64.3701 102.494 64.3701 102.542 64.6582 102.542V102.638L64.7062 102.686Z" fill="white"/>
<path d="M65.4746 108.447C65.6186 108.591 65.7626 108.159 65.5706 108.927L65.4746 108.447Z" fill="white"/>
<path d="M63.3141 103.022L62.978 103.262C62.978 103.262 62.978 103.07 62.978 103.022C62.978 102.974 63.2181 103.022 63.3141 103.022Z" fill="white"/>
<path d="M162.063 106.478C162.159 106.574 162.304 106.286 162.304 106.814C162.159 106.766 162.063 106.622 162.063 106.478Z" fill="white"/>
<path d="M161.487 105.998C161.583 105.998 161.727 105.95 161.823 105.998C161.919 106.046 161.823 106.19 161.823 106.19C161.679 106.19 161.535 106.142 161.487 105.95V105.998Z" fill="white"/>
<path d="M65.9546 103.358C66.0026 103.358 66.1466 103.358 66.1946 103.358C66.2426 103.358 66.1946 103.598 66.1946 103.694C66.0506 103.646 65.9546 103.502 65.9546 103.358Z" fill="white"/>
<path d="M117.417 111.519C117.561 111.663 117.321 111.855 117.177 111.759C117.033 111.663 117.273 111.423 117.417 111.519Z" fill="white"/>
<path d="M59.9534 102.542C59.7614 102.83 59.8574 102.686 59.7134 102.782C59.7134 102.542 59.7134 102.542 59.9534 102.542Z" fill="white"/>
<path d="M64.8984 107.727C65.0905 107.727 65.1385 107.727 65.1385 107.967C65.0425 107.871 64.9945 107.823 64.8984 107.727Z" fill="white"/>
<path d="M59.6178 102.926C59.4737 103.022 59.3297 103.166 59.1377 103.262C59.2337 103.07 59.3777 102.926 59.6178 102.926Z" fill="white"/>
<path d="M161.727 107.727C161.631 107.775 161.631 107.823 161.487 107.823L161.727 107.727Z" fill="white"/>
<path d="M62.7381 103.358H62.6421C62.7381 103.166 62.7381 103.358 62.7381 103.358Z" fill="white"/>
<path d="M63.7461 102.926C63.7461 102.926 63.7461 102.83 63.8421 102.83L63.7461 102.926Z" fill="white"/>
<path d="M61.346 100.382H61.25C61.25 100.334 61.346 100.286 61.346 100.286V100.382Z" fill="white"/>
<path d="M61.826 99.4695L61.73 99.3735C61.73 99.3735 61.826 99.3735 61.826 99.4695Z" fill="white"/>
<path d="M157.023 75.1782C157.071 75.2742 157.023 76.2824 157.023 76.4744C157.023 76.6664 157.311 76.7144 157.359 76.9545C157.407 77.1945 157.071 77.5305 157.023 77.7706C156.975 78.0106 157.167 78.6347 157.119 78.7787C157.071 78.9227 156.686 79.1147 156.686 79.0667C156.686 79.0667 156.59 78.5387 156.542 78.4426C156.542 77.8666 156.542 75.8983 156.686 75.3702C156.831 74.8422 156.831 75.1302 157.023 75.1782Z" fill="white"/>
<path d="M164.464 85.8836C164.464 85.8836 164.32 86.8437 164.368 86.9398C164.416 87.0358 164.848 87.6118 164.848 87.8519C164.848 88.0919 164.656 87.8519 164.608 87.9959C164.608 88.1399 164.704 88.956 164.56 88.956C163.792 88.764 164.176 87.7559 164.176 87.1798C164.176 86.6037 164.08 86.7477 164.08 86.5077C164.08 86.2677 164.224 85.5956 164.512 85.8836H164.464Z" fill="white"/>
<path d="M164.464 70.5696L164.128 70.3296L164.032 70.6656L164.128 67.4492C164.944 67.4012 164.464 68.2173 164.464 68.6493C164.464 69.0814 164.608 69.1294 164.56 69.4654C164.512 69.8015 164.368 70.1855 164.416 70.5696H164.464Z" fill="white"/>
<path d="M156.447 68.5053C156.207 68.2653 156.975 67.9772 156.783 67.6892L156.495 67.9292C155.919 67.3532 156.879 67.4012 156.591 66.8731L157.023 66.105C157.119 66.441 157.167 66.7771 157.215 67.1131C157.263 67.4492 157.215 68.1693 157.215 68.2173C157.119 68.5053 156.543 68.6493 156.447 68.5533V68.5053Z" fill="white"/>
<path d="M160.911 51.703L161.151 52.1831L161.631 52.0871C161.631 52.7111 161.871 53.5753 160.959 53.4792V51.751L160.911 51.703Z" fill="white"/>
<path d="M155.055 65.8169C155.151 65.9129 154.911 66.585 154.911 66.7771C154.911 66.9691 155.103 66.9211 155.151 66.9691C155.343 67.2091 154.911 67.2091 154.815 67.3531C154.719 67.4972 154.719 68.2653 154.479 67.9772C154.239 67.6892 154.623 67.0171 154.671 66.7291C154.719 66.441 154.575 66.105 154.671 65.8649C154.767 65.6249 155.007 65.7689 155.007 65.7689L155.055 65.8169Z" fill="white"/>
<path d="M157.599 56.6477C157.551 57.2238 157.551 57.8959 157.503 58.4239C157.455 58.952 157.503 58.616 157.263 58.616C157.263 58.0399 156.879 56.8877 157.599 56.6477Z" fill="white"/>
<path d="M162.543 68.5053C162.639 68.0252 162.639 67.5451 162.687 67.1131C162.735 66.681 162.735 66.777 162.88 66.777C162.976 67.2571 163.312 68.6013 162.543 68.5053Z" fill="white"/>
<path d="M158.751 75.0342C158.703 75.1302 158.895 76.2344 158.559 76.0903C158.223 75.9463 158.223 74.8422 158.751 75.0342Z" fill="white"/>
<path d="M155.15 62.8405C155.198 62.8885 155.102 63.6086 155.054 63.7046C154.91 63.9927 154.814 63.6566 154.718 63.5606C154.622 63.4646 154.574 63.5606 154.574 63.5606C154.574 63.5606 154.958 63.1766 154.67 62.8885H155.15V62.8405Z" fill="white"/>
<path d="M158.607 80.5549C158.607 80.8909 158.751 81.419 158.367 81.611C158.463 81.371 158.127 80.5069 158.607 80.5549Z" fill="white"/>
<path d="M164.464 70.6656L164.224 71.5777C164.32 71.3377 163.984 70.5696 164.464 70.6656Z" fill="white"/>
<path d="M164.128 71.4817C164.128 71.5777 163.936 71.4337 164.032 71.2417C164.128 71.0497 164.224 71.2897 164.128 71.4817Z" fill="white"/>
<path d="M136.38 87.4679C136.716 87.6119 136.716 87.8039 136.764 87.8039C136.812 87.8039 137.82 86.9398 137.292 88.044C136.86 87.948 136.428 88.38 136.38 87.4679Z" fill="white"/>
<path d="M163.456 98.5094L163.36 98.0293C163.408 98.2213 163.456 98.3653 163.456 98.5094Z" fill="white"/>
<path d="M128.123 87.7079C127.547 87.4199 127.547 87.8039 127.451 87.8039C127.355 87.8039 126.635 87.8519 126.539 87.8519C126.395 87.8519 126.058 87.5639 125.77 87.6599L125.866 87.3238C125.53 87.3238 123.754 87.5159 123.658 87.4199C123.562 87.3239 123.658 87.1798 123.658 87.0358C123.658 86.8918 123.322 87.0358 123.418 86.6998C123.754 86.6998 124.378 86.8438 124.618 86.7958C125.866 86.6998 125.722 86.6998 126.923 86.9878C128.123 87.2758 128.027 86.8438 127.979 87.6119L128.123 87.7079Z" fill="#92511B"/>
<path d="M132.347 76.9064C132.347 76.9544 132.059 77.9625 132.011 78.1066C131.867 78.7787 131.963 79.4988 131.579 80.1228L131.291 79.8348C131.771 79.6428 131.627 79.3067 131.627 78.8747C131.483 78.8267 131.483 79.3547 131.291 79.1147C131.099 78.8747 131.867 77.4345 132.059 77.1464C132.251 76.8584 132.155 76.7144 132.347 76.9064Z" fill="white"/>
<path d="M137.1 79.2107C136.956 79.6428 137.1 80.0268 137.052 80.5069C137.004 80.987 137.052 80.939 136.86 80.939C136.812 80.6989 136.668 80.6029 136.668 80.3629C136.668 80.1229 136.812 78.8747 137.1 79.2107Z" fill="white"/>
<path d="M128.123 80.6989C128.123 81.083 127.883 81.275 127.787 81.467C127.691 81.6591 127.787 82.0911 127.307 82.0431C127.211 81.467 127.451 81.515 127.595 81.371C127.739 81.227 127.739 80.6509 128.123 80.6989Z" fill="white"/>
<path d="M132.011 84.7315L131.435 86.2197C131.387 85.9797 131.531 84.6835 131.675 84.5875C131.819 84.4915 131.867 84.7315 132.011 84.6835V84.7315Z" fill="white"/>
<path d="M134.075 85.4996C134.267 85.7876 133.883 86.1717 133.739 86.0757C133.595 85.9797 133.835 85.7876 133.595 85.8356C133.547 86.0757 133.931 86.6037 133.499 86.5077C133.499 86.0277 133.403 85.4036 134.075 85.4516V85.4996Z" fill="white"/>
<path d="M134.076 73.3059C134.268 73.4979 133.98 74.6021 133.596 74.3621C133.74 74.074 133.74 73.786 133.836 73.4979C133.932 73.2099 133.836 73.1619 134.076 73.3539V73.3059Z" fill="white"/>
<path d="M131.195 85.3076L130.859 86.3637C130.859 86.1717 130.715 86.0757 130.763 85.8836C130.811 85.6916 131.003 85.2115 131.195 85.3556V85.3076Z" fill="white"/>
<path d="M134.892 80.2189C135.036 80.3629 134.604 80.843 134.412 80.891C134.268 80.6509 134.7 80.0269 134.892 80.2189Z" fill="white"/>
<path d="M134.22 85.4036C134.22 85.4996 134.028 85.3556 134.124 85.1636C134.22 84.9715 134.316 85.2116 134.22 85.4036Z" fill="white"/>
<path d="M69.0748 72.2978C69.2668 72.5378 68.8828 72.7779 68.8348 72.8739C68.6428 73.3059 68.3547 74.3621 67.7786 74.2661C66.9625 74.122 67.6346 73.642 67.6826 73.4019C67.7306 73.1619 67.5386 72.9699 67.5866 72.9219C67.6346 72.8739 67.7786 72.9219 67.8747 72.9219C67.9707 72.9219 68.0187 72.6338 68.1627 72.5378C68.3067 72.4418 68.4987 72.6338 68.6908 72.6338C68.8828 72.6338 68.8828 72.2018 69.1228 72.3938L69.0748 72.2978ZM68.0187 74.122C68.0667 73.642 67.8266 73.642 67.9227 74.122H68.0187Z" fill="white"/>
<path d="M81.2685 87.7079C81.2685 87.9479 81.4605 88.428 81.3645 88.668C81.2685 88.9081 80.6444 89.2441 80.5004 89.1961C79.2522 88.332 80.2604 88.524 80.3084 88.332C80.4044 87.8999 79.9723 87.9959 80.0683 87.6119C80.4044 87.6119 80.7884 87.7079 81.1245 87.5159C81.1245 87.6599 81.2205 87.7559 81.2205 87.7559L81.2685 87.7079Z" fill="white"/>
<path d="M77.8119 81.035C77.8119 81.035 77.4759 81.035 77.3319 81.035L77.5719 80.843L77.2358 78.2506C77.7639 78.3466 77.9079 80.891 77.8119 81.035Z" fill="white"/>
<path d="M74.9316 81.035C74.9796 81.323 75.0756 81.8031 75.1716 82.0911C75.2676 82.3791 75.3636 82.1871 75.3636 82.2351C75.3636 82.5232 75.0276 83.0032 75.0276 83.3393C74.8836 83.3393 74.8356 83.0512 74.7876 82.9072C74.7876 82.5712 74.8356 82.0911 74.7876 81.8031C74.7396 81.515 74.4995 81.9471 74.6915 81.227C74.8836 80.5069 74.5955 81.035 74.9316 81.035Z" fill="white"/>
<path d="M72.5312 73.4499C72.4352 73.4979 72.0991 73.4499 72.0991 73.2579C72.0991 73.0179 72.4832 72.7778 72.5312 72.6338C72.7232 72.2018 72.3392 71.5777 72.8672 71.3376C73.1553 71.8177 72.8672 72.0097 72.7712 72.3458C72.6752 72.6818 72.6272 73.3539 72.5312 73.4499Z" fill="white"/>
<path d="M70.083 78.4906C70.131 78.6827 69.8429 78.5386 69.8429 78.6827C69.8429 79.1627 70.8511 80.0268 69.7469 80.4589C69.6029 80.1709 69.987 80.2669 69.987 80.1709C69.987 79.9308 69.6989 79.8348 70.131 79.6908C70.035 79.4988 69.6989 79.5468 69.6509 79.4988C69.6029 79.4508 69.7469 78.8267 69.7469 78.6347C69.7469 78.4426 69.8429 78.4906 70.083 78.4426V78.4906Z" fill="white"/>
<path d="M75.4115 65.0488C75.4115 65.0488 75.3155 65.1449 75.4115 65.2889C75.5075 65.4329 75.5555 65.2889 75.5555 65.3849C75.5555 65.5769 75.4115 66.441 75.2675 66.441C74.9795 66.441 75.0275 64.7608 75.4595 65.0488H75.4115Z" fill="white"/>
<path d="M77.7158 63.8967C77.6198 64.1847 77.8118 64.8088 77.8118 65.0008C77.8118 65.1928 77.4278 65.2408 77.3798 65.1448C77.3318 65.0488 77.2358 63.7526 77.7158 63.8967Z" fill="white"/>
<path d="M70.2269 77.0984C70.0349 77.4825 70.2269 78.1066 69.8909 78.3466C69.8909 77.8665 69.5068 77.1945 70.2269 77.0984Z" fill="white"/>
<path d="M74.1154 62.6005C74.1154 62.4085 74.2594 62.5525 74.3074 62.4565C74.3554 62.3605 74.3074 62.2165 74.3074 62.0244C74.7875 60.8723 74.9315 62.7445 74.0674 62.6485L74.1154 62.6005Z" fill="white"/>
<path d="M77.9078 87.8039C77.9078 87.8039 77.7638 87.996 77.5238 88.044C77.2838 88.092 76.8037 88.14 76.6597 87.948C76.9957 87.9 77.5718 87.7079 77.9078 87.852V87.8039Z" fill="white"/>
<path d="M73.2994 74.1221L73.0593 75.1782C72.9633 74.8902 73.0113 74.6981 73.0593 74.4101C73.1073 74.1221 72.9633 74.074 73.2994 74.1221Z" fill="white"/>
<path d="M66.1946 88.6201C65.4265 88.188 64.8024 89.0041 64.2264 88.092C64.1784 87.8519 64.5144 87.8519 64.5624 87.8039C64.7544 87.6119 63.9863 87.5159 64.5624 87.2759L68.4509 86.8918C71.3313 87.0358 74.2117 86.2197 77.0921 86.2197C79.9725 86.2197 78.4843 86.3637 78.5803 86.4598C78.6763 86.5558 78.7243 86.8438 78.8683 86.9878C78.6763 87.0838 77.8602 86.8918 77.8602 86.9398C77.8602 86.9878 77.8602 87.5159 77.5722 87.6119C76.7561 87.6119 75.988 87.8039 75.1718 87.8519C74.3557 87.9 74.8358 87.5639 74.8838 87.996C72.0994 87.996 69.075 88.332 66.2426 88.6681L66.1946 88.6201Z" fill="#92511B"/>
<path d="M104.839 86.3157C104.503 86.2677 104.551 86.2197 104.503 86.2197V85.3076C104.743 85.5476 104.743 85.9796 104.839 86.3637V86.3157Z" fill="white"/>
<path d="M81.8446 87.4679H81.9406C82.0847 87.4679 82.2287 87.4679 82.4207 87.4679C82.6127 87.4679 82.6127 87.4679 82.6607 87.4679C82.7568 87.4679 82.9008 87.4679 82.9968 87.4679C83.2368 87.4679 83.4288 87.4679 83.6689 87.4679C83.9089 87.4679 83.8129 87.4679 83.9089 87.4679C83.9089 88.284 83.4769 87.7559 83.2848 87.7559C82.7568 87.7559 82.4687 87.996 81.7486 87.8519C81.0285 87.7079 81.4606 87.9 81.4606 87.4679C81.5566 87.4679 81.7006 87.4679 81.7966 87.4679H81.8446Z" fill="white"/>
<path d="M98.407 87.4679C98.407 87.4679 98.5511 87.5639 98.7431 87.5639C98.9351 87.5639 98.9831 87.5639 99.0791 87.5639C99.0791 88.044 97.735 88.044 97.927 87.4679C98.071 87.4679 98.215 87.4679 98.407 87.4679Z" fill="white"/>
<path d="M83.6687 87.4679C83.3806 87.4679 83.2366 87.4679 82.9966 87.4679C83.0926 87.2758 83.5727 87.2758 83.6687 87.4679Z" fill="white"/>
<path d="M116.697 88.0439C116.505 88.0439 116.265 88.332 116.121 87.9479C116.313 87.9479 116.601 87.8999 116.697 88.0439Z" fill="white"/>
<path d="M98.7428 87.6119C98.5508 87.6119 98.4547 87.5159 98.4067 87.5159C98.4547 87.2758 98.6948 87.4678 98.7428 87.6119Z" fill="white"/>
<path d="M82.6609 87.4678C82.6129 87.4678 82.5169 87.4678 82.4209 87.4678L82.6129 87.3718V87.4678H82.6609Z" fill="white"/>
<path d="M118.234 88.0439L117.897 87.9479C118.185 87.9479 118.234 88.0439 118.234 88.0439Z" fill="white"/>
<path d="M81.9407 87.4678H81.8447V87.3718C81.8927 87.3718 81.9407 87.4678 81.9407 87.4678Z" fill="white"/>
<path d="M86.8853 96.109C87.0293 96.061 87.1733 95.821 87.4613 95.869L88.5175 101.87C88.4215 101.63 88.0854 101.198 87.9894 100.862L86.9333 96.109H86.8853Z" fill="white"/>
<path d="M118.857 91.4524C119.049 91.7405 119.193 92.4125 119.241 92.8446C119.386 93.7087 119.434 94.7169 119.626 95.581C119.818 96.4451 120.154 96.8291 120.154 97.1172C120.154 97.7413 120.01 97.4532 120.298 98.0293C120.586 98.6054 120.298 98.5094 120.25 98.5574C120.154 98.7494 120.394 99.1335 120.442 99.3735C120.73 100.67 121.066 102.014 120.874 103.358C120.49 103.118 119.962 103.358 119.578 103.262C119.193 103.166 118.761 102.878 117.945 102.83C115.305 102.782 110.264 103.07 107.912 103.982C105.56 104.894 107.384 104.462 107.288 104.462C107.192 104.462 107.048 104.222 106.952 104.126C106.856 104.03 106.664 104.03 106.568 103.982C106.424 103.886 106.04 102.014 105.992 101.726C105.56 99.6135 104.984 97.5972 104.552 95.533C104.119 93.4687 104.311 94.9089 104.263 94.7169C104.215 94.5248 104.263 93.9488 104.359 93.9007C104.455 93.8527 104.552 93.9968 104.648 93.9007C104.744 93.8047 104.744 93.6607 104.888 93.6607C106.376 93.1807 107.576 92.2205 109.064 91.6444C111.704 90.6363 113.289 90.5883 116.169 90.7803C119.049 90.9724 118.281 90.3483 118.905 91.4524H118.857ZM116.553 93.3727C116.361 93.1806 115.785 93.0846 115.497 93.0846C114.729 93.1806 113.769 93.6607 112.953 93.7567C112.137 93.8527 111.272 93.5167 110.312 93.7567C109.352 93.9968 109.496 94.1888 109.112 94.2848C108.536 94.4288 107.768 94.4288 107.384 94.6208C107 94.8129 106.616 95.0049 106.712 95.3889C106.856 96.1571 107.912 95.3409 108.2 95.2929C108.488 95.2449 108.92 95.2929 109.448 95.1489C109.976 95.0049 111.272 94.3328 111.464 94.3328C111.896 94.3328 112.329 94.7169 113.049 94.6208C113.769 94.5248 114.201 94.1888 114.585 94.0928C114.969 93.9968 116.553 93.9007 116.697 93.7087C116.841 93.5167 116.601 93.3727 116.553 93.2767V93.3727ZM117.273 96.013C116.505 95.725 115.929 96.2051 115.257 96.3491C114.585 96.4931 113.145 96.3971 112.281 96.4931C111.416 96.5891 110.84 97.3092 109.16 97.2612C107.48 97.2132 107.24 97.7413 107.288 98.2213C107.384 99.2295 108.968 98.1253 109.256 98.0773C109.544 98.0293 109.832 98.3173 110.072 98.2693C110.552 98.1733 112.089 97.1652 112.521 97.1652C112.953 97.1652 112.809 97.3572 112.953 97.3572C113.097 97.3572 114.249 97.2132 114.441 97.1652C114.633 97.1172 114.489 96.8771 114.585 96.9252C115.353 97.2612 115.929 97.0692 116.745 96.7811C117.561 96.4931 117.129 96.5411 117.273 95.965V96.013ZM117.945 99.1335C117.753 98.8454 116.745 99.1815 116.409 99.2295C115.785 99.2295 115.065 99.1335 114.489 99.1335C113.433 99.1335 111.848 100.046 110.84 100.094C109.832 100.142 110.36 99.9016 109.88 99.9496C109.4 99.9976 108.008 100.526 107.96 100.622C107.912 100.718 107.96 101.102 107.96 101.15C108.296 101.87 109.544 101.006 110.024 100.91C110.504 100.814 110.888 101.006 111.32 100.91C112.137 100.766 113.337 100.094 114.201 99.9976C115.065 99.9016 116.073 100.334 117.273 99.8055C118.473 99.2775 117.609 100.046 117.849 99.7095C118.089 99.3735 118.041 99.2295 117.945 99.0854V99.1335Z" fill="white"/>
<path d="M100.231 92.9406C100.519 93.0846 100.663 93.0846 101.095 93.2767C101.527 93.4687 101.287 93.2767 101.671 93.3727C102.055 93.4687 102.919 93.6127 102.967 93.6127C103.255 93.8047 103.207 94.9569 103.303 95.389C103.783 97.2612 104.264 99.2775 104.648 101.102C105.032 102.926 104.888 101.966 105.08 102.398C105.272 102.83 104.84 102.398 104.84 102.494C104.84 102.686 105.224 103.502 105.08 103.694C104.936 103.886 104.888 103.694 104.792 103.694C104.696 103.694 104.696 103.934 104.456 103.934C104.216 103.934 103.975 103.694 103.735 103.646C101.911 103.358 98.9828 103.55 97.1106 103.742C95.2383 103.934 94.2302 104.126 92.694 104.75C91.1577 105.374 90.7737 105.758 90.6297 105.614C90.5337 104.222 90.0536 102.878 89.7175 101.486C89.3815 100.094 89.2375 98.7974 88.9494 97.4052C88.6614 96.013 88.2774 95.1969 88.5654 94.9089C89.3335 94.7169 90.1496 94.2848 90.9177 94.0928C93.4141 93.3727 96.1024 92.7966 98.6468 92.9406C101.191 93.0846 100.231 92.8446 100.279 92.8446L100.231 92.9406ZM101.239 95.2449C101.239 95.2449 101.239 95.1009 101.143 95.1009C100.999 95.1009 100.759 95.2449 100.519 95.2449C100.039 95.2449 99.5589 95.1489 99.0788 95.2449C98.5988 95.3409 98.0227 95.677 97.4466 95.725C96.8705 95.773 96.5345 95.389 96.0544 95.389C95.1903 95.389 94.1822 96.013 93.366 96.3011C92.886 96.3491 91.5898 96.5411 91.2538 96.7811C90.9177 97.0212 91.1097 97.3092 90.9177 97.4532C91.3498 97.4532 91.8778 97.5973 92.3099 97.5012C93.7021 97.3092 95.0943 96.1571 96.4865 96.3011C97.8787 96.4451 97.6386 96.3011 98.9348 96.061C100.231 95.821 101.479 96.3011 101.623 95.773C101.767 95.2449 101.431 95.437 101.191 95.3409L101.239 95.2449ZM101.527 98.7494C101.767 98.4614 101.143 98.1733 100.903 98.1733C100.279 98.1733 98.5027 98.1733 97.8307 98.2693C97.1586 98.3654 96.0064 98.9894 95.3823 99.0374C94.7582 99.0855 94.8062 98.8454 94.4702 98.8454C93.9421 98.8454 93.126 99.1815 92.6459 99.3255C92.1659 99.4695 92.1659 99.3255 92.1659 99.3255C91.9258 99.5175 91.7818 99.9496 92.1659 100.142C93.03 100.526 93.9421 99.6615 94.6622 99.6135C95.3823 99.5655 95.3823 99.8536 95.8624 99.7575C96.3424 99.6615 97.1586 99.2295 97.8307 99.0855C98.5027 98.9414 99.2708 99.0855 99.9909 99.0855C100.711 99.0855 101.479 98.8454 101.575 98.7974L101.527 98.7494ZM101.719 100.862C101.527 100.574 99.5109 100.814 99.0788 100.862C98.6468 100.91 98.6468 101.102 98.4547 101.102C97.9747 101.15 97.3026 100.958 96.7745 101.102C96.2464 101.246 95.4303 101.678 94.9503 101.582C94.4702 101.486 94.9503 101.294 94.7102 101.342C94.4702 101.39 93.5101 101.822 93.126 101.966C92.742 102.11 92.742 102.062 92.3579 102.254C91.9739 102.446 91.8298 102.158 91.8778 102.638C91.9258 103.118 92.0219 102.686 92.0699 102.734C92.1179 102.83 92.0699 103.022 92.1179 103.022C92.3099 103.214 93.9421 102.59 94.2302 102.446C94.5182 102.302 94.4222 102.254 94.4222 102.11H94.5182C94.3742 102.35 95.1903 102.35 95.3823 102.35C95.9104 102.302 96.4385 101.966 96.9185 101.918C97.3986 101.87 98.1667 102.014 98.7428 101.918C99.3188 101.822 99.8949 101.678 100.711 101.582C101.527 101.486 102.151 101.438 101.767 100.91L101.719 100.862Z" fill="white"/>
<path d="M120.538 104.27L120.442 105.086C119.674 104.99 118.762 104.798 117.946 104.798C117.129 104.798 116.793 104.942 116.217 104.942C114.537 104.942 112.377 104.702 110.745 104.99C109.112 105.278 107.624 105.95 107.432 105.758C107.24 105.566 107.432 105.374 107.624 105.326C107.816 105.278 108.056 105.326 108.248 105.278C112.089 104.03 115.593 103.646 119.626 104.27C123.658 104.894 120.49 104.27 120.586 104.27H120.538Z" fill="white"/>
<path d="M104.072 104.99C104.072 105.134 104.072 105.662 103.88 105.662C103.352 105.806 102.295 105.566 101.719 105.566C99.9911 105.566 97.7828 105.614 96.0546 105.806C94.3263 105.998 94.2783 106.094 93.7503 106.286C93.2222 106.478 92.7421 106.382 92.3101 106.478C92.4061 106.382 92.9821 105.854 93.0302 105.806C93.0782 105.758 93.7983 105.614 93.9903 105.566C96.1026 104.942 99.175 104.702 101.479 104.798C103.784 104.894 103.208 104.99 104.072 104.99Z" fill="white"/>
<path d="M106.328 105.854C105.752 106.526 104.792 105.47 105.128 104.99C105.464 104.51 105.8 104.798 105.896 104.798C106.424 104.798 106.712 105.47 106.376 105.902L106.328 105.854Z" fill="white"/>
<path d="M61.1056 100.382C61.2016 100.382 61.0575 100.574 60.8655 100.478C60.6735 100.382 60.9135 100.286 61.1056 100.382Z" fill="white"/>
<path d="M128.795 94.6209C128.795 94.6689 128.651 94.9089 128.747 95.1009C128.891 95.341 129.467 95.437 129.515 95.437C129.563 95.533 129.323 96.0611 129.275 96.1091C129.227 96.1571 128.219 96.3971 128.123 96.3491C128.027 96.3011 127.835 96.0611 127.835 96.013C127.643 95.0049 128.411 95.389 128.507 95.293C128.603 95.1969 128.555 94.2848 128.843 94.6209H128.795Z" fill="white"/>
<path d="M130.091 95.533H129.611V96.109H130.091V95.533Z" fill="white"/>
<path d="M68.0189 74.122H67.9229C67.8749 73.6419 68.115 73.6419 68.0189 74.122Z" fill="#D28360"/>
<path d="M117.945 99.1335C118.041 99.2775 117.945 99.6135 117.849 99.7575C117.609 100.046 117.369 99.7575 117.273 99.8536C116.121 100.382 115.353 99.9016 114.201 100.046C113.049 100.19 112.136 100.814 111.32 100.958C110.504 101.102 110.408 100.862 110.024 100.958C109.64 101.054 108.296 101.87 107.96 101.198C107.624 100.526 107.912 100.718 107.96 100.67C108.008 100.574 109.688 99.9976 109.88 99.9976C110.36 99.9976 110.456 100.19 110.84 100.142C111.848 100.094 113.433 99.1815 114.489 99.1815C115.545 99.1815 115.833 99.2775 116.409 99.2775C116.985 99.2775 117.753 98.8934 117.945 99.1815V99.1335Z" fill="#D28360"/>
<path d="M116.553 93.3727C116.649 93.4687 116.745 93.7567 116.697 93.8047C116.553 93.9487 114.969 94.0928 114.585 94.1888C114.201 94.2848 113.577 94.6208 113.049 94.7169C112.521 94.8129 111.896 94.4768 111.464 94.4288C111.032 94.3808 109.832 95.1009 109.448 95.2449C109.064 95.3889 108.536 95.2929 108.2 95.3889C107.864 95.485 106.904 96.2531 106.712 95.485C106.52 94.7169 107.096 94.8609 107.384 94.7169C107.672 94.5728 108.536 94.5728 109.112 94.3808C109.688 94.1888 109.928 93.9487 110.312 93.8527C111.272 93.5647 112.04 93.9487 112.953 93.8527C113.865 93.7567 114.729 93.2767 115.497 93.1806C116.265 93.0846 116.361 93.2287 116.553 93.4687V93.3727Z" fill="#D28360"/>
<path d="M117.274 96.013C117.13 96.5891 117.418 96.5891 116.746 96.8292C116.073 97.0692 115.305 97.3092 114.585 96.9732C113.865 96.6371 114.585 97.1652 114.441 97.2132C114.249 97.2612 113.193 97.4532 112.953 97.4052C112.713 97.3572 112.665 97.2132 112.521 97.2132C112.089 97.2132 110.553 98.2213 110.073 98.3174C109.593 98.4134 109.545 98.1253 109.257 98.1253C108.968 98.1253 107.336 99.2775 107.288 98.2694C107.24 97.2612 108.728 97.3092 109.16 97.3092C110.841 97.3092 111.129 96.6851 112.281 96.5411C113.433 96.3971 114.393 96.5411 115.257 96.3971C116.121 96.2531 116.505 95.773 117.274 96.0611V96.013Z" fill="#D28360"/>
<path d="M101.239 95.2449C101.431 95.3409 101.767 95.3409 101.671 95.677C101.527 96.205 99.415 95.917 98.9829 95.965C97.6867 96.205 98.0708 96.3491 96.5346 96.205C94.9984 96.061 93.7502 97.2132 92.358 97.4052C90.9658 97.5972 91.4459 97.3092 90.9658 97.3572C91.1098 97.1652 91.1098 96.7811 91.3019 96.6851C91.6379 96.3971 92.9821 96.2531 93.4142 96.205C94.1823 95.917 95.2384 95.2929 96.1025 95.2929C96.9666 95.2929 96.9186 95.677 97.4947 95.629C98.0708 95.581 98.5989 95.2449 99.1269 95.1489C99.655 95.0529 100.087 95.1489 100.567 95.1489C101.047 95.1489 101.047 95.0049 101.191 95.0049C101.335 95.0049 101.191 95.1489 101.287 95.1489L101.239 95.2449Z" fill="#D28360"/>
<path d="M101.719 100.862C102.055 101.39 100.999 101.486 100.663 101.534C99.8472 101.63 99.4151 101.774 98.695 101.87C97.9749 101.966 97.4948 101.774 96.8708 101.87C96.2467 101.966 95.8626 102.254 95.3346 102.302C94.8065 102.35 94.3264 102.302 94.4704 102.062H94.3744C94.3744 102.206 94.3264 102.302 94.1824 102.398C93.9424 102.542 92.2621 103.166 92.0701 102.974C91.8781 102.782 92.0701 102.782 92.0221 102.686C91.9741 102.59 91.8301 102.638 91.8301 102.59C91.8301 102.11 92.2141 102.254 92.3101 102.206C92.6942 102.014 92.6942 102.062 93.0782 101.918C93.4623 101.774 94.3744 101.342 94.6625 101.294C94.9505 101.246 94.8065 101.486 94.9025 101.534C95.3826 101.63 96.2947 101.15 96.7267 101.054C97.1588 100.958 97.9269 101.15 98.407 101.054C98.887 100.958 98.839 100.814 99.0311 100.814C99.4631 100.766 101.479 100.478 101.671 100.814L101.719 100.862Z" fill="#D28360"/>
<path d="M101.527 98.7494C101.431 98.8454 100.183 99.0374 99.9431 99.0374C99.223 99.0854 98.5029 98.9414 97.7828 99.0374C97.0627 99.1334 96.3906 99.6135 95.8145 99.7095C95.2384 99.8055 94.9984 99.5175 94.6143 99.5655C93.8942 99.6135 92.9821 100.478 92.118 100.094C91.2539 99.7095 91.83 99.4695 92.118 99.2774C92.406 99.0854 92.4541 99.3254 92.5981 99.2774C93.1261 99.1334 93.9423 98.8454 94.4223 98.7974C94.9024 98.7494 95.0944 98.9894 95.3344 98.9894C95.9105 98.9894 97.0147 98.3173 97.7828 98.2213C98.5509 98.1253 100.231 98.0773 100.855 98.1253C101.479 98.1733 101.719 98.4133 101.479 98.7014L101.527 98.7494Z" fill="#D28360"/>
<path d="M48.8704 87.5134C48.8704 86.3116 49.0619 84.9459 48.9183 83.7987C48.6311 81.3404 47.9132 78.1174 47.0517 75.9322C46.1902 73.7471 45.6637 72.7638 44.1321 71.5074C42.6006 70.2509 43.3664 71.3435 43.3664 70.8518C43.3664 70.1963 44.2757 70.3055 44.6107 70.1963C44.9458 70.087 46.238 68.9945 46.5731 68.5028C47.4346 67.3556 47.5782 65.2251 47.0517 63.9141C45.568 60.1447 42.122 57.0309 38.4366 59.2707C34.7513 61.5104 37.3358 60.0355 37.2879 60.0901C37.0965 60.3086 37.1922 60.5818 37.0965 60.7456C37.0008 60.9095 36.7136 60.9095 36.57 61.0734C36.4264 61.2373 35.8521 62.3298 35.8042 62.4937C35.0385 64.1326 35.8042 67.738 37.1444 68.8852C38.4845 70.0324 37.4315 68.8852 37.4315 68.8852C37.4315 68.8852 37.3358 69.0491 37.3837 69.1584C37.3837 69.4861 37.623 70.1963 37.5751 70.4694C37.5273 70.7426 35.5649 71.6713 35.2299 71.999C34.8949 72.3268 34.5598 72.6546 34.3205 72.9277C32.1189 75.2767 30.6831 80.1932 29.8694 83.4163C29.4387 85.0551 29.3429 86.0384 29.1036 87.7319C28.8643 89.4254 29.1036 88.1143 28.9122 88.2782C30.3002 88.4967 31.4967 88.4967 32.9325 88.2782C33.0283 87.8958 33.0283 87.4041 33.3154 87.0764V88.1143C33.5069 88.0597 34.0334 87.8412 33.9376 88.2236H34.0334C33.9376 87.8412 35.0385 88.0051 35.3256 87.9504C36.5222 87.8412 37.9101 87.6773 39.1545 87.6227C41.4998 87.5134 43.8928 87.8412 46.1902 87.8412C48.4875 87.8412 47.9132 87.568 48.7747 87.568L48.8704 87.5134Z" fill="#897A33"/>
</svg>
