<svg width="50" height="152" viewBox="0 0 50 152" fill="none" xmlns="http://www.w3.org/2000/svg">
<path d="M5.3875 0C6.43239 1.30611 7.65142 2.78636 8.34801 4.26662C9.0446 5.74688 8.87046 6.18224 9.3929 7.14006C9.91534 8.09787 10.5249 9.14276 11.1344 10.4489C11.7439 11.755 12.3534 13.0611 12.5276 13.1482C12.7888 13.3223 13.5724 12.8869 14.0078 12.974C14.9656 13.0611 19.2322 14.9767 20.0159 15.5862C24.7179 19.4175 29.0716 27.7766 30.726 33.6976C32.3804 39.6186 31.1614 37.4418 31.6838 39.0091C32.6416 41.9696 35.6892 43.3628 36.4729 45.975C37.2565 48.5872 36.4729 46.6716 36.5599 47.0199C36.5599 48.2389 37.1695 48.4131 37.5178 49.2838C37.8661 50.1545 38.0402 53.028 38.2144 53.2892C38.7368 53.3763 38.8239 52.7668 39.1722 52.6797C39.8688 52.5055 40.7395 53.6375 40.6524 52.6797C40.9136 52.7668 41.2619 52.7668 41.5232 52.8538C41.7844 52.9409 41.5232 53.2021 41.9585 53.028C42.3939 52.8538 42.1327 53.028 42.1327 53.028C42.481 53.2892 43.1776 53.2021 43.4388 53.4634C43.7 53.7246 43.4388 53.9858 43.6129 54.0729C43.7871 54.1599 44.0483 54.0729 44.2224 54.0729C44.2224 54.0729 44.2224 54.3341 44.3095 54.5082C44.4837 54.7695 44.7449 54.6824 44.832 54.6824C45.6156 55.1178 46.2251 55.5531 46.7476 56.4239C48.3149 58.8619 49.0115 65.1313 49.1857 68.1788C49.3598 71.2264 48.2278 73.4903 46.9217 76.1896L42.481 81.2399C42.7422 83.5038 43.7 85.7678 43.8742 88.1188C44.2224 91.6888 43.7 96.3037 42.481 99.6996C41.2619 103.095 41.0007 102.312 40.8266 103.618C40.6524 104.924 41.0878 107.101 41.0007 108.581C40.8266 112.674 40.0429 117.463 37.2565 120.684C34.4702 123.906 33.8607 123.122 32.6416 124.429C30.9001 126.431 29.9423 128.869 27.5913 130.872C25.2403 132.875 22.6281 133.484 19.7547 134.703C16.8813 135.922 16.7942 138.447 15.6622 139.754C12.7888 142.975 9.65412 144.891 6.17117 147.416C2.68821 149.941 2.42699 150.725 0.0759957 151.683V146.632C0.511365 146.632 0.685513 146.458 0.946734 146.284C2.42699 145.326 6.69361 142.714 7.56435 141.321C8.43509 139.928 8.08679 139.579 8.43509 138.883C7.65142 138.535 7.04191 139.492 6.34531 139.928C4.25554 141.234 2.86236 142.54 1.12088 144.107C-0.620595 145.675 0.250143 144.368 0.0759957 144.891V124.167C1.46918 124.341 0.85966 123.732 1.03381 123.21C1.20796 122.687 1.81747 121.99 1.90455 121.294C1.99162 120.597 1.90455 121.033 2.07869 120.336C2.60114 119.03 3.03651 115.895 3.03651 114.241C3.03651 112.587 3.21065 113.631 2.60114 113.718C2.60114 114.676 1.29503 115.025 1.55625 115.982H1.12088C1.46918 116.679 0.772587 117.376 0.0759957 117.637V80.195C0.946734 80.6304 1.7304 81.5011 2.25284 82.2848C2.68821 82.459 3.99432 80.8916 3.99432 80.7175C3.99432 79.7597 3.47188 79.8467 3.21065 79.4114C2.33992 78.0182 1.64333 76.2767 0.0759957 75.5801V70.1815C0.598439 70.2686 1.03381 70.704 1.46918 70.9652C4.25554 72.8808 6.60654 74.1869 9.82827 75.3189C13.05 76.4509 11.3085 76.2767 11.3085 75.493C11.3085 74.7094 10.4378 74.274 10.2636 74.0128C9.21875 72.7938 5.3875 69.4849 3.99432 68.9625C2.60114 68.4401 1.55625 68.7013 0.598439 68.4401C-0.359374 68.1788 0.424291 67.9176 0.0759957 68.0047V65.4795C2.33992 65.3925 4.42969 66.7857 6.78068 66.6115C6.78068 66.2632 6.60654 66.0891 6.43239 65.9149C4.77798 64.4347 3.64602 63.5639 1.55625 62.519C-0.533522 61.4742 0.946734 61.6483 0.16307 61.9095V46.8457C0.946734 47.7165 2.07869 48.8484 2.77529 49.8063C3.7331 51.1994 4.25554 53.2892 5.56165 54.247C6.86776 55.2048 5.56165 54.5082 5.64872 54.5953C5.7358 54.5953 7.0419 53.9858 7.99972 54.1599C8.95753 54.3341 7.91264 55.2048 8.52216 54.6824C7.91264 53.9858 7.7385 52.8538 7.30313 52.2443C6.51946 51.2865 4.86506 50.5028 4.25554 49.1967L0.16307 45.1913V42.0567C0.511365 42.2308 1.03381 42.3179 1.3821 42.5791C2.42699 43.3628 3.55895 45.1043 4.51676 45.8879C5.47458 46.6716 6.51946 47.2811 6.25824 46.4104C5.99702 45.5396 5.90995 46.4104 5.82287 46.1492C5.3875 45.3655 5.30043 44.9301 4.69091 43.9723C4.08139 43.0145 4.25554 42.7533 4.16847 42.6662C3.21065 41.8825 1.29503 41.7084 0.16307 40.8376V33.9588C2.16577 34.6554 3.55895 36.6581 5.21335 38.0513C6.86776 39.4445 7.12898 39.3574 8.08679 40.1411C9.0446 40.9247 8.69631 41.0118 9.3929 40.9247C9.3929 39.5315 8.52216 38.3996 8.34801 37.1805L7.7385 37.3547C7.99972 36.3098 7.21605 36.9193 6.95483 36.6581C6.69361 36.3969 6.95483 36.2227 6.69361 35.9615C6.08409 35.2649 4.34262 34.5683 3.47188 34.133C2.60114 33.6976 3.03651 34.0459 2.51406 33.8717C1.99162 33.6976 0.946734 33.2622 0.250143 32.9139V27.8636C1.20796 27.8636 2.25284 28.4732 2.33992 27.167C2.42699 25.8609 1.20796 23.4229 0.250143 23.3358V16.1957C0.946734 16.1957 0.424291 16.9794 1.12088 17.3277C1.81747 17.676 1.7304 17.3277 1.99162 17.5889C2.25284 17.8501 2.16577 18.0243 2.33992 18.1984C2.51406 18.3726 4.77798 20.2011 4.77798 19.5916C4.42969 19.1563 4.42969 18.1984 4.25554 17.8501C3.90725 17.2406 1.99162 14.3672 1.46918 13.7577C0.946734 13.1482 0.598439 13.1482 0.250143 12.7999V2.26392C0.85966 2.26392 0.85966 2.78636 1.12088 3.04759C1.3821 3.30881 1.55625 3.04759 1.64333 3.13466C1.90455 3.30881 1.64333 3.91832 1.90455 4.17955C2.77529 5.31151 4.25554 6.26932 4.95213 7.6625L8.95753 11.6679C8.95753 11.1455 8.95753 10.7101 8.78338 10.2747C7.99972 7.92372 5.12628 4.0054 3.3848 2.17685C1.64333 0.348296 1.81747 0.870739 1.20796 0H5.3875ZM5.30043 12.7999C5.12628 12.6257 4.51676 11.9291 4.42969 11.842C3.99432 11.5808 4.25554 12.5386 3.7331 12.5386C3.90725 13.3223 4.51676 13.8447 4.86506 14.5413C5.21335 15.2379 4.86506 15.0638 5.03921 15.325C5.21335 15.5862 5.99702 16.2828 5.99702 16.3699C5.99702 16.544 5.7358 17.0665 5.82287 17.0665C5.90995 17.0665 6.25824 16.9794 6.43239 17.0665C6.60654 17.1536 6.43239 17.5018 6.60654 17.5889C7.21605 18.2855 7.99972 18.895 8.34801 19.7658L10.2636 21.3331C10.0895 20.7236 10.2636 20.2011 10.0895 19.5045C9.91534 18.808 9.65412 19.1563 9.47997 18.895C8.26094 16.3699 7.56435 14.8026 5.3875 12.6257L5.30043 12.7999ZM19.7547 19.3304C17.9261 17.7631 15.8364 16.1957 13.4854 15.4991C13.7466 16.457 14.269 17.676 14.8786 18.4597C15.8364 19.8528 17.4908 20.7236 18.7098 21.9426C19.9288 23.1616 18.7098 22.9004 19.8418 22.9004C22.1057 24.9902 24.4567 27.3412 26.4594 29.8663C27.3301 30.8241 27.0689 29.518 26.8077 28.9085C26.5465 28.299 25.1533 26.4705 24.9791 25.948C24.805 25.4256 24.9791 25.4256 25.0662 25.1643C24.0213 25.4256 24.6308 24.5548 24.3696 24.3807C24.1084 24.2065 23.7601 24.3807 23.2376 23.5099C22.7152 22.6392 22.1928 21.9426 21.5832 21.246C20.9737 20.5494 20.1901 19.9399 19.7547 19.5045V19.3304ZM15.2268 23.3358C14.6173 22.7263 14.0949 21.246 12.8759 22.2909C11.6568 23.3358 13.05 23.9453 13.3112 24.3807C13.5724 24.8161 14.6173 25.948 15.1398 26.5575C16.1847 27.9507 16.7942 28.4732 18.1003 29.6051C19.4064 30.7371 18.6227 31.0854 19.4064 30.9983C19.5805 30.8241 19.0581 28.6473 18.884 28.2119C18.0132 25.948 16.7071 24.8161 15.2268 23.4229V23.3358ZM8.34801 30.1276C7.82557 29.6051 7.82557 28.2119 7.65142 27.8636C7.47727 27.5153 5.21335 25.6868 4.86506 25.4256C4.51676 25.1643 4.60384 24.9902 4.25554 25.0773C4.08139 25.3385 4.86506 28.2119 5.21335 28.6473C5.56165 29.0827 6.34531 28.9956 6.95483 29.2568C7.56435 29.518 8.26094 30.3017 8.43509 30.1276H8.34801ZM11.831 31.782C11.831 31.782 11.2215 31.782 10.9602 31.6949C10.699 31.6078 10.699 30.65 10.0895 30.5629C9.47997 31.869 10.4378 33.3493 11.7439 33.6976C11.4827 33.3493 11.7439 31.869 11.7439 31.782H11.831ZM5.99702 31.6078C5.7358 31.4337 5.3875 31.4337 5.3875 31.869C5.3875 32.3044 6.08409 33.5234 6.08409 33.6105C6.17117 33.7847 7.56435 34.3071 7.65142 34.22C7.7385 32.4786 7.3902 32.7398 6.34531 32.1303C5.30043 31.5207 6.08409 31.6078 5.99702 31.6078ZM24.7179 35.0037C24.1084 34.6554 22.9764 34.3942 23.1506 35.4391C23.3247 36.484 23.9342 37.3547 24.2825 38.0513C25.1533 40.3152 26.1111 42.6662 26.8077 44.9301C27.5043 47.194 27.0689 46.9328 27.4172 47.7165C27.7655 48.5001 30.1165 51.0253 29.9423 49.3709C29.7682 47.7165 29.507 47.7165 29.3328 47.107C28.8104 45.1043 27.5043 42.2308 27.5043 40.2281C27.5043 38.2254 26.7206 39.4445 26.6335 39.0962C26.5465 38.7479 26.8077 38.5737 26.7206 38.3996C26.6335 38.2254 26.2852 38.2254 26.1111 37.9642C25.9369 37.703 26.1111 37.1805 25.9369 36.6581C25.7628 36.1357 24.9791 35.1778 24.7179 35.0037ZM18.884 35.1778C18.7098 35.0908 18.3615 35.0037 18.1003 34.9166C17.8391 35.7003 18.3615 36.1357 18.5357 36.7452C19.1452 39.1832 19.6676 41.0118 20.4513 43.2757C21.2349 45.5396 20.4513 45.0172 20.8866 45.3655C21.322 45.7138 21.322 45.2784 21.4962 45.3655C21.6703 45.4526 21.4962 45.6267 21.8445 45.7138C22.3669 45.8879 22.8893 46.1492 23.4118 46.0621C24.0213 44.3206 22.6281 42.7533 22.3669 41.1859C22.1057 39.6186 22.8893 41.1859 22.8023 40.7506C22.6281 40.4023 21.9315 40.054 21.8445 39.7928C21.4962 38.922 22.0186 39.5315 21.1479 38.3996C20.2771 37.2676 19.9288 36.0486 18.971 35.2649L18.884 35.1778ZM17.2295 39.0962C16.3588 39.1832 15.4881 38.8349 14.5303 38.8349C14.269 39.0962 15.5751 42.0567 15.7493 42.405C15.9234 42.7533 16.1847 42.5791 16.2717 42.7533C16.7071 43.5369 16.9683 44.4077 17.5778 45.1913C18.1874 45.975 17.5778 45.5396 18.0132 45.4526C18.3615 44.6689 17.4037 39.1832 17.1425 39.0091L17.2295 39.0962ZM13.9207 42.492C13.8337 42.492 12.3534 42.5791 12.2663 42.6662C12.1793 42.7533 12.1793 44.0594 12.1793 44.3206C13.3983 45.8879 14.8786 48.7614 16.533 49.8063C18.1874 50.8511 17.2295 49.8063 17.6649 49.8063C17.0554 48.1518 16.4459 46.3233 15.5751 44.756C14.7044 43.1886 14.7915 43.624 14.182 43.1016C13.5724 42.5791 13.9207 42.5791 13.8337 42.492H13.9207ZM33.1641 45.5396C32.5546 45.1913 32.7287 47.107 32.7287 47.5423C33.077 49.8933 33.5124 53.8987 34.5572 55.9885C34.9055 56.1626 35.1668 57.6429 35.6021 57.4688C36.0375 57.2946 36.0375 57.0334 36.1246 56.7722C36.2117 56.1626 36.2117 53.7246 36.1246 53.028C35.8634 51.3736 34.9055 48.4131 34.1219 47.107C33.3382 45.8009 33.7736 46.9328 33.6865 46.8457C33.5994 46.7587 33.4253 45.8009 33.2511 45.6267L33.1641 45.5396ZM12.0051 48.5001C11.831 48.326 11.3085 48.2389 10.9602 47.9777C10.3507 47.5423 8.52216 45.5396 9.0446 47.6294C9.56705 49.7192 12.7888 52.7668 14.3561 53.6375C15.9234 54.5082 15.5751 53.9858 15.2268 53.1151C14.8786 52.2443 14.0078 50.9382 13.8337 50.677C13.6595 50.4158 13.3112 50.5899 13.2241 50.4158C12.9629 49.9804 12.3534 48.7614 12.0922 48.5001H12.0051ZM22.9764 49.8933C22.7152 49.6321 22.6281 48.9355 21.8445 49.1097C21.0608 52.1572 22.8893 52.6797 24.9791 54.0729C27.0689 55.4661 25.4145 54.9436 26.024 54.7695C26.3723 53.8987 25.5886 53.4634 25.5886 53.3763C25.5886 53.028 25.5886 52.6797 25.5886 52.3314C25.3274 51.6348 23.5859 50.3287 22.9764 49.8933ZM30.5519 54.247C30.0294 53.6375 29.4199 53.1151 28.8974 52.4185C28.375 52.3314 28.5492 52.8538 28.6362 53.1151C29.3328 55.8143 30.4648 58.3395 31.5097 60.8646H32.3804C32.2933 58.4266 32.3804 56.2497 30.5519 54.247ZM20.5384 53.9858C20.1901 53.8117 19.4064 53.8987 19.7547 54.3341C20.103 54.7695 20.103 54.3341 20.1901 54.5082C20.8867 55.6402 21.7574 57.2946 22.6281 58.3395C23.4989 59.3844 24.7179 60.081 25.4145 61.2129H26.024C25.6757 60.6905 25.7628 59.9939 25.5886 59.5585C25.4145 59.1232 25.1533 59.3844 25.1533 59.2973C25.1533 59.0361 25.5016 58.5136 25.3274 58.4266C25.1533 58.3395 24.4567 58.0783 24.3696 57.9041C24.1955 57.6429 24.3696 57.2946 24.2825 56.9463C24.1955 56.598 23.2376 56.1626 23.0635 55.9885C22.8023 55.7273 22.7152 55.2048 22.454 54.9436C22.1928 54.6824 20.8866 54.247 20.5384 54.0729V53.9858ZM4.51676 58.0783C4.34262 57.73 4.16847 57.5558 3.82017 57.3817C3.29773 57.1205 1.20796 55.9885 0.859661 55.9885C0.511365 55.9885 0.424291 56.2497 0.511365 56.4239C0.598439 56.598 0.85966 56.4239 1.03381 56.598C1.29503 56.9463 1.46918 57.2075 1.81747 57.5558C2.16577 57.9041 2.51406 57.9041 2.86236 58.0783C3.21065 58.2524 3.03651 58.0783 3.03651 58.0783C3.03651 58.0783 3.12358 58.2524 3.21065 58.2524C3.29773 58.2524 3.3848 58.2524 3.3848 58.2524C3.3848 58.2524 3.3848 58.6007 3.82017 58.8619C4.25554 59.1232 4.16847 58.8619 4.25554 58.8619C4.34262 58.8619 4.42969 59.1232 4.69091 59.2973C4.95213 59.4715 4.86506 59.2973 4.86506 59.2973C4.86506 59.2973 4.95213 59.4715 5.03921 59.4715C5.21335 59.6456 5.21335 59.9068 5.21335 59.9068C5.47458 60.081 5.64872 60.168 5.82287 60.3422C5.99702 60.5163 5.90994 60.5163 5.99702 60.5163C6.08409 60.5163 6.08409 60.6905 6.17117 60.6905C6.25824 60.6905 6.60654 60.6905 6.78068 60.8646C6.95483 61.0388 6.86776 61.0388 6.95483 61.0388C7.65142 61.4741 8.43509 62.3449 9.13168 62.6932C9.82827 63.0415 10.3507 63.0415 10.9602 63.3027L9.91534 61.1259C9.0446 60.2551 8.78338 59.8197 7.65142 59.2973C7.47727 58.4266 7.21605 58.7749 6.60654 58.6878C5.99702 58.6007 5.99702 58.6878 5.99702 58.6878C5.82287 58.6007 6.34531 58.4266 5.56165 58.2524C4.77798 58.0783 5.12628 58.2524 4.95213 58.2524C4.77798 58.2524 4.86506 58.0783 4.77798 58.0783C4.60384 58.0783 4.51676 57.9041 4.34262 57.9041L4.51676 58.0783ZM10.4378 57.6429C11.1344 58.6007 11.0473 58.3395 11.6568 58.949C12.2663 59.5585 13.3983 61.3871 13.4854 61.3871C14.0949 61.5612 14.0949 60.168 13.9207 59.7327C13.7466 59.2973 12.3534 58.1653 12.1793 58.0783C12.0051 57.9912 11.3085 57.6429 11.0473 57.6429C10.7861 57.6429 10.4378 56.8592 10.3507 56.7722C9.0446 56.3368 10.3507 57.5558 10.4378 57.6429ZM41.0878 57.2946C40.9136 57.1205 39.9558 57.6429 39.8688 57.9041C39.6075 58.7749 39.4334 62.2578 39.4334 63.3027C39.4334 64.3476 39.7817 65.5666 39.8688 66.6986H40.4783C40.217 65.8278 41.0878 65.0442 41.1749 64.2605C41.2619 63.4769 41.2619 58.949 41.1749 58.1653C41.0878 57.3817 41.1749 57.5558 41.1749 57.2075L41.0878 57.2946ZM45.5286 70.6169C45.5286 69.9203 46.051 69.3108 46.1381 68.7884C46.3122 67.7435 46.3122 65.9149 46.3993 64.87C46.3993 62.3449 46.7476 58.6878 44.3095 57.2075C43.7871 58.7749 44.0483 60.168 44.0483 61.7354C44.0483 64.6088 44.3966 67.6564 44.1354 70.4428C43.8742 73.2291 43.5259 72.7067 43.7871 73.3162C44.2224 74.4482 44.4837 72.5325 44.4837 72.5325C44.4837 72.5325 44.7449 72.2713 44.919 71.923C45.5286 71.923 45.2673 71.6618 45.3544 71.3135C45.4415 70.9652 45.3544 71.1393 45.3544 71.1393C46.1381 71.1393 45.5286 70.7911 45.5286 70.704V70.6169ZM21.0608 59.3844C20.7996 59.2102 20.6254 59.3844 20.6254 59.7327C20.6254 60.081 21.1479 61.5612 21.2349 61.7354C21.7574 62.9544 24.1955 64.4347 23.0635 61.9966C21.9315 59.5585 21.9315 60.3422 21.2349 59.9068C20.5384 59.4715 21.0608 59.5585 21.0608 59.4715V59.3844ZM21.4962 70.1815C21.4962 70.0074 21.6703 69.7462 21.5832 69.572C21.322 68.8754 20.103 65.7408 19.7547 65.3925C19.4064 65.0442 17.4908 63.3898 17.0554 63.8251C17.0554 64.9571 17.5778 65.9149 17.8391 66.8727C18.884 70.3557 19.1452 70.0074 21.2349 72.7067C23.3247 75.406 21.4091 73.4033 21.4962 73.4033C21.5832 73.4033 21.8445 73.3162 22.0186 73.3162C22.454 73.4033 22.8023 74.0128 22.9764 73.142C22.454 72.3584 22.2798 71.3135 21.9315 70.4428C21.5832 69.572 21.5832 70.2686 21.5832 70.2686L21.4962 70.1815ZM23.673 66.0891C23.4118 65.9149 23.1506 65.7408 23.1506 65.3925C22.1928 65.8278 23.2376 66.9598 23.4989 67.6564C23.7601 68.353 23.8472 68.8754 24.0213 69.6591C24.1955 70.4428 24.892 70.704 25.0662 71.6618C25.2403 72.6196 24.892 72.3584 24.892 72.3584C24.892 72.3584 25.6757 72.4455 26.024 72.7938C26.3723 73.142 26.1982 73.4033 26.5465 73.6645C26.8947 73.9257 27.9396 74.1869 28.1138 74.0999C27.9396 73.3162 28.375 72.5325 28.375 71.7489C28.2009 68.353 26.024 68.0918 23.8472 66.2632L23.673 66.0891ZM33.1641 67.4822C32.8158 67.134 32.4675 68.1788 32.4675 68.353C32.2933 69.1367 32.0321 70.7911 31.945 71.5747C31.858 72.3584 31.858 75.5801 32.1192 75.9284C32.3804 76.2767 33.2511 76.5379 33.4253 76.4509C33.7736 76.4509 33.8607 74.4482 33.9477 74.0999C34.0348 73.7516 34.3831 73.9257 34.3831 73.9257C34.4702 73.8386 33.9477 73.5774 33.9477 73.2291C33.9477 72.8808 34.4702 73.2291 34.296 72.0101C34.1219 70.7911 33.7736 69.9203 33.3382 68.7884C32.9028 67.6564 33.077 67.5693 33.077 67.4822H33.1641ZM11.2215 67.7435C11.2215 67.7435 11.0473 67.7435 10.9602 67.7435L9.82827 68.8754C9.91534 69.2237 11.4827 70.9652 11.918 71.2264C13.3112 72.1842 14.9656 73.142 16.533 73.7516C18.1003 74.3611 17.4037 74.7094 17.9261 73.8386C18.4486 72.9679 17.5778 72.3584 17.4908 72.2713C17.4037 72.0972 14.5303 69.7462 14.182 69.572C13.5724 69.1367 12.3534 68.8754 11.5697 68.353C10.7861 67.8305 11.2215 67.7435 11.2215 67.7435ZM38.2144 68.9625C37.779 68.7884 37.6048 69.3108 37.5178 69.572C36.9953 70.8781 36.647 72.7067 36.7341 74.0128C36.8212 75.3189 36.9082 76.1896 38.0402 75.493C39.1722 74.7965 38.8239 74.274 38.8239 74.1869C38.998 73.4033 38.8239 70.704 38.6497 69.9203C38.4756 69.1367 38.2144 69.3108 38.3014 68.8754L38.2144 68.9625ZM7.91264 77.9311C7.91264 77.9311 7.12898 77.1474 6.60654 76.7991C5.90995 76.2767 5.7358 75.5801 4.51676 75.8413C4.34262 76.625 4.95213 76.4509 5.30043 76.8862C5.64872 77.3216 6.34531 78.7148 6.95483 78.8019C7.56435 78.8889 7.65142 78.5406 7.7385 78.6277C7.82557 78.7148 7.7385 79.0631 7.91264 79.3243C8.08679 79.5855 10.699 82.1107 10.8732 82.1977C11.0473 82.2848 12.7017 82.6331 12.7017 82.546C12.6146 81.8494 12.9629 80.2821 12.5276 79.6726C12.0922 79.0631 11.6568 79.2372 11.3085 79.0631C10.5249 78.5406 9.82827 78.2794 9.30583 77.9311C8.78338 77.5828 8.26094 78.0182 7.99972 77.9311H7.91264ZM24.0213 81.5011C24.1955 79.7597 23.2376 77.844 21.322 77.757C21.322 79.6726 21.9315 81.327 24.0213 81.5011ZM31.2484 77.757C30.9001 77.5828 29.8553 78.0182 29.594 78.2794C29.2457 78.6277 28.8974 80.8045 28.9845 81.4141C28.9845 82.2848 29.3328 83.1555 29.4199 84.0263C29.6811 84.2004 31.1614 83.5909 31.3355 83.3297C31.5097 83.0685 31.858 81.9365 31.858 81.7624C32.0321 80.8916 31.7709 79.9338 32.1192 79.1501C32.4675 78.3665 32.8158 78.976 32.5546 78.1923C32.2063 78.1923 32.3804 78.4536 32.2933 78.5406C31.858 78.976 31.3355 77.844 31.2484 77.757ZM15.9234 82.6331C15.4881 82.459 15.0527 82.1107 14.5303 82.1107C14.3561 82.2848 14.7044 84.2004 14.9656 84.5487C15.3139 85.0712 17.9261 85.6807 18.3615 85.4195C18.7969 85.1582 18.2744 83.7651 18.1003 83.5038C17.9261 83.2426 17.0554 82.9814 16.8813 82.8943C16.4459 82.7202 16.62 82.9814 15.9234 82.7202V82.6331ZM40.4783 83.8521C40.4783 83.8521 39.2592 82.8073 39.0851 82.546C38.9109 83.3297 39.0851 83.9392 38.6497 84.7229C38.2144 88.8153 38.9109 93.9527 39.5205 98.1322C40.13 102.312 39.9558 100.135 40.4783 99.1771C40.4783 97.784 41.0007 95.9554 41.0878 94.5622C41.1749 93.169 40.8266 93.7786 40.8266 93.3432C40.8266 91.3405 41.0007 89.3378 40.8266 87.5092C40.6524 85.6807 40.8266 84.2875 40.4783 83.8521ZM23.4989 84.1134C23.0635 83.7651 22.1057 83.678 21.6703 82.9814C22.0186 84.5487 22.8023 87.9446 23.9342 88.9895C25.0662 90.0344 26.1111 90.2956 26.024 89.1636C25.9369 88.0317 25.4145 87.3351 25.3274 87.1609C25.0662 86.6385 23.7601 84.3746 23.4118 84.1134H23.4989ZM34.6443 87.4222C34.6443 87.4222 33.5994 86.7256 33.5124 86.8126C33.3382 86.8126 32.6416 87.5963 32.5546 87.7705C32.2933 88.6412 33.077 91.2534 33.1641 92.2112L33.8607 90.731C33.8607 90.1215 34.7314 87.6834 34.5572 87.4222H34.6443ZM5.21335 89.4249C5.03921 89.1636 4.25554 89.4249 3.99432 89.5119C3.7331 89.599 2.60114 90.9051 2.51406 90.9922C2.25284 91.4276 1.55625 94.1269 1.55625 94.7364C1.55625 95.3459 1.55625 96.1296 1.55625 96.9132L2.86236 95.6942C3.21065 94.8234 5.56165 89.8602 5.30043 89.4249H5.21335ZM28.9845 89.4249C28.9845 90.6439 28.9845 91.8629 28.7233 93.082C28.4621 94.9105 27.6784 96.2166 27.5913 98.1322C27.4172 102.834 28.0267 107.623 27.9396 112.325C27.8526 117.027 27.3301 114.589 28.0267 114.676C28.7233 114.763 28.4621 114.415 28.5492 114.154C29.594 112.412 31.7709 105.969 31.5967 103.966C31.2484 100.919 30.1165 103.618 29.2457 101.702C29.3328 100.396 29.2457 99.0901 29.4199 97.784C29.6811 95.6942 30.5519 93.082 30.2036 90.9051C29.8553 88.7283 29.594 89.2507 28.9845 89.3378V89.4249ZM13.9207 92.1242C13.6595 92.1242 13.2241 92.1242 13.1371 92.1242C13.05 92.1242 12.4405 93.7786 12.3534 93.9527C12.0922 94.8234 13.1371 94.8234 13.5724 93.9527C14.0078 93.082 13.7466 92.7337 13.9207 92.1242ZM20.6254 92.8207C20.6254 92.8207 19.0581 93.2561 18.971 93.3432C18.7969 93.5173 17.4037 97.0874 17.3166 97.5227C17.2295 98.3064 17.3166 98.9159 17.8391 99.5254C18.7098 99.6996 19.2322 98.0452 19.4935 97.4357C20.1901 95.8683 20.2771 94.4751 20.6254 92.8207ZM35.8634 94.0398C35.1668 93.3432 34.3831 96.2166 34.3831 96.652C34.209 97.5227 34.4702 98.6547 34.3831 99.6125C34.296 100.57 33.9477 102.138 34.0348 103.008C34.1219 103.879 33.8607 103.705 34.296 103.879C34.7314 104.053 35.0797 102.399 35.1668 102.225C36.3858 99.5254 36.3858 96.9132 35.8634 94.0398ZM6.86776 95.0847C5.64872 95.0847 5.90995 96.4778 5.64872 97.3486C5.3875 98.2193 4.95213 98.9159 5.03921 99.6125C5.12628 100.309 5.3875 100.048 5.47458 100.222C5.56165 100.396 4.42969 100.744 5.3875 100.919C6.34531 101.093 6.69361 98.9159 6.78068 98.3064C6.95483 97.2615 6.95483 96.1295 6.95483 95.0847H6.86776ZM24.1084 98.3064C23.0635 97.0874 21.9315 99.003 21.4962 99.8737C21.0608 100.744 20.5384 103.008 20.4513 103.792C20.3642 104.576 20.9737 105.011 21.0608 105.534C21.4962 105.359 21.7574 105.359 22.1928 105.098C22.6281 104.837 24.2825 101.528 24.3696 100.832C24.4567 100.135 24.4567 98.7418 24.1084 98.3064ZM38.2144 99.0901C37.8661 98.7418 37.8661 99.0901 37.779 99.4384C37.5178 100.309 36.5599 102.312 37.8661 102.486C39.1722 102.66 38.3885 101.528 38.3885 101.267C38.3885 101.006 38.3885 99.2642 38.2144 99.0901ZM2.86236 104.314C2.33992 103.792 1.46918 105.185 1.3821 105.708C1.20796 106.665 2.16577 108.407 1.81747 109.539C2.51406 109.278 3.03651 108.407 3.21065 107.797C3.3848 107.188 3.03651 104.489 2.86236 104.314ZM18.1003 109.104C17.752 109.104 17.6649 109.191 17.4908 109.452C16.7942 110.236 15.1398 115.721 15.0527 116.853C14.9656 117.985 15.0527 117.55 15.2268 117.898L17.3166 115.895C18.1874 113.806 19.1452 111.367 18.1003 109.191V109.104ZM25.5886 112.325C26.2852 110.845 26.1982 110.584 25.6757 109.104C25.1533 109.8 24.0213 110.41 23.5859 110.932C22.8023 111.89 21.1479 116.244 20.6254 117.55C20.103 118.856 20.1901 119.465 20.1901 120.423C20.6254 120.946 22.7152 118.072 22.9764 117.724C24.0213 116.157 24.7179 114.067 25.5016 112.412L25.5886 112.325ZM12.5276 111.193C12.0922 111.193 11.831 111.629 11.6568 111.89C11.2215 112.674 10.0895 115.721 10.1766 116.505C10.2636 117.289 10.1766 117.114 10.5249 117.201C11.2215 117.463 10.9602 116.766 11.1344 116.418C11.5697 115.547 11.4827 115.373 11.7439 114.502C12.0051 113.631 12.6146 112.325 12.4405 111.193H12.5276ZM38.2144 111.193C37.9531 111.106 37.3436 111.803 37.2565 111.977C36.3858 113.718 35.8634 115.46 35.2538 117.288C34.6443 119.117 34.6443 117.985 35.6021 118.333C36.5599 118.682 35.7763 117.811 35.9504 117.637C36.5599 116.766 37.0824 115.808 37.4307 114.763C37.779 113.718 38.3014 112.499 38.2144 111.193ZM7.30313 113.718C5.99702 113.893 6.34531 114.589 5.99702 115.199C5.64872 115.808 5.64872 115.373 5.56165 115.46C5.3875 116.069 5.82287 116.679 5.82287 117.027C5.82287 117.376 5.3875 117.114 5.3875 117.288C5.3875 117.985 5.64872 118.769 5.3875 119.465C5.7358 119.465 5.82287 119.378 5.99702 119.117C6.86776 118.072 6.86776 117.463 7.30313 116.244C7.7385 115.025 7.65142 116.069 7.65142 115.982C7.65142 115.634 7.3902 113.718 7.21605 113.631L7.30313 113.718ZM27.7655 121.207C27.7655 121.468 27.7655 121.381 27.7655 121.381C27.7655 121.555 27.6784 121.816 27.5913 121.99C27.5043 122.165 27.4172 121.99 27.4172 122.165C27.4172 122.339 27.4172 122.339 27.4172 122.339C27.4172 122.339 27.156 122.339 26.9818 122.948C26.8077 123.558 26.9818 123.122 26.9818 123.122C26.2852 122.948 26.6335 123.471 26.5465 123.993C26.4594 124.516 26.5465 124.167 26.5465 124.167C26.5465 124.167 25.9369 123.993 26.1111 124.777C26.6335 124.777 27.0689 124.951 26.9818 124.341H27.156C27.3301 124.341 27.3301 124.167 27.3301 124.167C27.4172 124.167 27.6784 123.993 27.7655 123.993C27.8526 123.993 27.9396 123.819 27.9396 123.819C27.9396 123.819 28.0267 123.384 28.1138 123.297C28.7233 122.687 29.9423 122.252 30.2906 121.294C30.6389 120.336 31.6838 115.46 31.4226 115.286C30.6389 115.286 30.3777 116.331 29.9423 116.853C28.4621 118.682 28.4621 118.943 27.6784 121.12L27.7655 121.207ZM24.0213 123.732C24.0213 123.732 23.4118 123.732 23.1506 123.906C22.8023 124.167 22.454 125.909 22.3669 126.518C22.8023 127.041 24.1955 123.993 24.0213 123.819V123.732ZM14.3561 124.341L13.2241 125.822C12.9629 126.257 13.3983 126.867 12.5276 126.605C12.8759 127.476 12.7017 127.215 12.5276 127.476C11.918 128.173 13.9207 127.912 14.0078 127.824C14.4432 127.389 14.3561 125.909 14.4432 125.473C14.5303 125.038 15.2268 125.473 14.4432 124.254L14.3561 124.341ZM7.65142 125.386C7.56435 125.386 7.12898 125.386 7.04191 125.473C6.95483 125.561 6.43239 127.302 6.34531 127.65C6.25824 127.999 5.99702 129.653 5.99702 130.001C5.99702 130.35 6.17117 130.872 6.25824 131.307C8.17387 130.611 8.26094 129.305 8.17387 127.476C8.08679 125.648 7.82557 125.386 7.7385 125.299L7.65142 125.386ZM3.90725 126.431C3.82017 126.431 3.3848 126.431 3.29773 126.518C2.94943 126.954 2.51406 127.999 2.25284 128.521C1.99162 129.043 1.81747 129.566 1.3821 129.74L0.685513 133.049C1.29503 133.136 1.20796 132.526 1.64333 132.178C2.07869 131.83 3.82017 131.307 4.08139 130.698C4.34262 130.088 4.25554 126.605 4.08139 126.344L3.90725 126.431ZM25.6757 128.695C24.6308 128.521 24.2825 129.218 23.673 129.74C23.0635 130.263 23.1506 129.914 22.9764 130.088C22.8023 130.263 21.7574 131.482 21.9315 131.656C22.2798 132.004 22.9764 130.872 23.4118 130.698C24.3696 130.35 23.9342 130.35 24.4567 130.088C24.9791 129.827 25.7628 130.088 25.6757 128.695ZM14.9656 130.001C14.7915 130.001 13.5724 130.001 13.5724 130.001C13.3983 130.175 13.1371 132.004 13.5724 132.265C14.182 132.265 15.1398 131.743 15.3139 131.22C15.4881 130.698 15.0527 130.088 14.9656 130.001ZM11.0473 136.706C9.21875 136.793 10.5249 138.796 10.1766 140.015C11.3956 139.144 11.1344 138.012 11.0473 136.706Z" fill="#FBD209"/>
<path d="M0.162589 68.0918C0.597958 67.9176 0.510884 68.4401 0.685032 68.5271C1.72992 68.7884 3.03603 68.7013 4.08091 69.0496C5.1258 69.3979 9.30535 72.7938 10.3502 74.0999C11.3951 75.406 11.3951 75.493 11.3951 75.5801C11.3951 76.3638 10.0019 75.406 9.91486 75.406C6.69313 74.274 4.34213 72.9679 1.55577 71.0523C-1.23059 69.1367 0.685032 70.4428 0.162589 70.2686V68.1788V68.0918Z" fill="#FDF8EE"/>
<path d="M1.20781 0C1.81733 0.870739 2.68807 1.39318 3.38466 2.17685C5.12614 4.0054 7.99957 7.92372 8.78324 10.2747C9.5669 12.6257 9.04446 11.1455 8.95739 11.6679L4.95199 7.6625C4.2554 6.26932 2.77514 5.31151 1.9044 4.17955C1.03366 3.04759 1.9044 3.30881 1.64318 3.13466C1.38196 2.96051 1.20781 3.13466 1.12074 3.04759C0.859517 2.78636 0.859517 2.26392 0.25 2.26392V0H1.29489H1.20781Z" fill="#FDF8EE"/>
<path d="M0.162757 33.001C0.946422 33.3493 1.73009 33.6976 2.42668 33.9588C3.12327 34.22 2.77497 33.9588 3.38449 34.22C3.99401 34.4812 5.99671 35.352 6.60622 36.0486C7.21574 36.7452 6.78037 36.6581 6.86745 36.7452C7.12867 36.9193 7.91233 36.3969 7.65111 37.4418L8.26063 37.2676C8.43478 38.5737 9.39259 39.6186 9.30551 41.0118C8.52185 41.0118 8.3477 40.5764 7.99941 40.2281C7.12867 39.5315 6.17085 39.0091 5.12597 38.1383C3.47156 36.8322 2.16546 34.7425 0.0756836 34.0459V33.001H0.162757Z" fill="#FDF8EE"/>
<path d="M0.162598 144.804C0.336745 144.281 0.946263 144.281 1.20748 144.02C2.94896 142.453 4.34214 141.147 6.43192 139.841C8.52169 138.535 7.73802 138.447 8.52169 138.796C8.08632 139.492 7.99925 140.537 7.65095 141.234C6.78021 142.627 2.42652 145.326 1.03334 146.197C-0.359846 147.068 0.597967 146.632 0.162598 146.545V144.63V144.804Z" fill="#FDF8EE"/>
<path d="M0.162598 45.3655L4.25507 49.3709C4.77751 50.677 6.51899 51.4607 7.30265 52.4185C8.08632 53.3763 7.99925 54.1599 8.52169 54.8565C7.91217 55.2919 8.26047 54.4212 7.99925 54.3341C7.04143 54.0729 5.73533 54.8565 5.64825 54.7695C5.56118 54.6824 5.64825 54.5082 5.56118 54.4212C4.25507 53.3763 3.73263 51.3736 2.77481 49.9804C1.817 48.5872 1.03334 47.8906 0.162598 47.0199V45.3655Z" fill="#FDF8EE"/>
<path d="M0.162757 62.0837C1.0335 61.8225 1.20764 62.519 1.55594 62.6932C3.64571 63.7381 4.77767 64.6088 6.43208 66.0891C8.08648 67.5693 6.86745 66.4374 6.78037 66.7857C4.51645 66.8727 2.42668 65.4796 0.0756836 65.6537V62.0837H0.162757Z" fill="#FDF8EE"/>
<path d="M0.162598 75.6672C1.72993 76.3638 2.42652 78.1053 3.29726 79.4985C4.168 80.8916 4.08092 79.8468 4.08092 80.8046C4.08092 81.7624 2.68774 82.546 2.33944 82.3719C1.817 81.5882 0.946262 80.7175 0.162598 80.2821V75.6672Z" fill="#FDF8EE"/>
<path d="M0.162598 12.974C0.597967 13.2352 1.12041 13.4964 1.38163 13.9318C1.90408 14.5413 3.8197 17.4148 4.168 18.0243C4.51629 18.6338 4.34214 19.3304 4.69044 19.7658C4.69044 20.2882 2.42652 18.4597 2.25237 18.3726C2.07822 18.2855 2.07822 17.9372 1.90408 17.7631C1.64285 17.5889 1.29456 17.676 1.03334 17.5018C0.336745 17.0665 0.859189 16.2828 0.162598 16.3699V13.0611L0.162598 12.974Z" fill="#FDF8EE"/>
<path d="M0.162598 40.9247C1.20748 41.7955 3.12311 41.8825 4.168 42.7533C5.21288 43.624 4.51629 43.7981 4.69044 44.0594C5.29996 45.0172 5.38703 45.4526 5.8224 46.2362C6.25777 47.0199 6.17069 46.2362 6.25777 46.4974C6.51899 47.3682 4.69044 46.0621 4.51629 45.975C3.4714 45.1913 2.33944 43.4499 1.38163 42.6662C0.423819 41.8825 0.510893 42.3179 0.162598 42.1437L0.162598 40.9247Z" fill="#FDF8EE"/>
<path d="M0.162598 28.0378V23.4229C1.12041 23.51 2.33944 26.5575 2.25237 27.2541C2.25237 28.6473 1.03334 28.0378 0.162598 27.9507V28.0378Z" fill="#FDF8EE"/>
<path d="M36.5596 47.0199C37.082 46.9328 36.9949 47.2811 37.1691 47.6294C37.8657 49.1967 38.301 50.677 38.5623 52.3314C38.8235 52.6797 39.2589 52.3314 39.7813 52.3314C40.3037 52.3314 40.4779 52.5926 40.7391 52.6797C40.7391 53.6375 39.8684 52.5055 39.2589 52.6797C38.6493 52.8538 38.7364 53.3763 38.301 53.2892C38.1269 53.028 37.7786 49.9804 37.6045 49.2838C37.4303 48.5872 36.7337 48.2389 36.6466 47.0199H36.5596Z" fill="#FD937D"/>
<path d="M42.1325 53.115C42.4808 53.028 42.3937 52.7668 43.0903 53.115C43.7869 53.4633 44.1352 53.8116 44.1352 53.8116C44.2223 53.9858 44.1352 54.1599 44.1352 54.1599C44.5706 54.247 44.7447 54.1599 44.7447 54.7695C44.6576 54.7695 44.3964 54.7695 44.2223 54.5953C44.0481 54.4212 44.2223 54.247 44.1352 54.1599C43.961 54.1599 43.6127 54.247 43.5257 54.1599C43.4386 54.0729 43.5257 53.7246 43.3515 53.5504C43.1774 53.3763 42.3066 53.3763 42.0454 53.115H42.1325Z" fill="#FD937D"/>
<path d="M41.9583 53.1151C41.4359 53.2892 41.6971 52.9409 41.5229 52.9409L41.9583 53.1151Z" fill="#FD937D"/>
<path d="M28.9843 89.4249C29.6809 89.4249 30.1162 90.4698 30.2033 90.9922C30.5516 93.169 29.6809 95.7813 29.4196 97.871C29.1584 99.9608 29.4196 100.483 29.2455 101.789C30.1162 103.618 31.2482 101.006 31.5965 104.053C31.9448 107.101 29.5938 112.412 28.5489 114.241C27.504 116.069 28.3748 114.85 28.0265 114.763C27.3299 114.589 27.9394 112.848 27.9394 112.412C28.1135 107.71 27.504 102.921 27.5911 98.2193C27.6782 93.5173 28.3747 94.9976 28.723 93.169C29.0713 91.3405 29.0713 90.731 28.9843 89.5119V89.4249Z" fill="#FDF8EE"/>
<path d="M19.7547 19.3304C20.2771 19.7657 21.1479 20.6365 21.5832 21.0719C22.1927 21.7684 22.8023 22.6392 23.2376 23.3358C23.673 24.0324 24.2825 24.1194 24.3696 24.2065C24.5437 24.4677 24.0213 25.2514 25.0662 24.9902C25.0662 25.2514 24.892 25.5126 24.9791 25.7738C25.1532 26.2963 26.5464 27.9507 26.8077 28.7344C27.0689 29.518 27.3301 30.65 26.4594 29.6922C24.4567 27.2541 22.1057 24.9031 19.8417 22.7263C18.7969 22.7263 19.0581 22.2038 18.7098 21.7684C17.4907 20.5494 15.8363 19.6787 14.8785 18.2855C13.9207 16.8923 13.7466 16.2828 13.4854 15.325C15.8363 16.0216 17.9261 17.5889 19.7547 19.1562V19.3304Z" fill="#FDF8EE"/>
<path d="M40.4783 83.8521C40.7395 84.2875 40.7395 86.8126 40.8266 87.5092C41.0878 89.3378 40.8266 91.3405 40.8266 93.3432C40.8266 95.3459 41.0878 94.1268 41.0878 94.5622C41.0878 95.8683 40.4783 97.6969 40.4783 99.1771C39.9558 100.135 39.6075 98.7418 39.5205 98.1322C38.911 93.9527 38.1273 88.8153 38.6497 84.7229C39.1722 84.0263 38.911 83.3297 39.0851 82.546C39.2592 82.8072 40.4783 83.7651 40.4783 83.8521Z" fill="#FDF8EE"/>
<path d="M44.919 71.923C44.7448 72.1842 44.5707 72.4455 44.4836 72.5325C44.3965 72.6196 44.2224 74.5352 43.787 73.3162C43.3516 72.0972 44.0482 71.2264 44.1353 70.4428C44.3965 67.6564 44.0482 64.6088 44.0482 61.7354C44.0482 58.8619 43.787 58.7749 44.3095 57.2075C46.7475 58.6007 46.4863 62.3449 46.3992 64.87C46.3122 67.3952 46.3992 67.7435 46.138 68.7884C45.8768 69.8332 45.5285 69.9203 45.5285 70.6169C45.3543 70.6169 45.3544 70.8781 45.3544 71.0523C45.3544 71.2264 45.3544 71.2264 45.3544 71.2264C44.919 71.2264 45.0061 71.6618 44.919 71.8359V71.923Z" fill="#FDF8EE"/>
<path d="M24.7177 35.0037C24.9789 35.1779 25.7625 36.3098 25.9367 36.6581C26.1979 37.2676 26.0238 37.7901 26.1108 37.9642C26.1979 38.2254 26.6333 38.2254 26.7204 38.3996C26.8074 38.5737 26.5462 38.835 26.6333 39.0962C26.7204 39.3574 27.504 40.1411 27.504 40.2281C27.504 42.1438 28.7231 45.1043 29.3326 47.107C29.9421 49.1097 29.855 48.7614 29.9421 49.3709C30.1162 51.0253 27.6782 48.2389 27.4169 47.7165C27.1557 47.194 27.0686 45.7138 26.8074 44.9301C26.1979 42.5791 25.153 40.3152 24.2823 38.0513C23.4115 35.7874 23.3245 36.1357 23.1503 35.4391C22.9762 34.7425 24.1081 34.6554 24.7177 35.0037Z" fill="#FDF8EE"/>
<path d="M18.8835 35.1778C19.8413 35.9615 20.2767 37.2676 21.0604 38.3125C21.844 39.3574 21.4087 38.8349 21.757 39.7057C22.1053 40.5764 22.5406 40.3152 22.7148 40.6635C22.8889 41.0989 22.2794 40.9247 22.2794 41.0989C22.5406 42.6662 23.9338 44.2335 23.3243 45.975C22.7148 45.975 22.2794 45.8009 21.757 45.6267C21.2345 45.4526 21.4957 45.2784 21.4087 45.2784C21.3216 45.2784 20.9733 45.4526 20.7992 45.2784C20.3638 45.0172 20.5379 43.7111 20.3638 43.1886C19.6672 40.9247 19.0577 39.1832 18.4482 36.6581C17.8386 34.133 17.8386 35.6132 18.0128 34.8295C18.274 35.0037 18.6223 35.0037 18.7965 35.0908L18.8835 35.1778Z" fill="#FDF8EE"/>
<path d="M25.5884 112.325C24.8047 113.98 24.1081 115.982 23.0632 117.637C22.0183 119.291 20.7122 120.859 20.2769 120.336C20.2769 119.465 20.3639 118.333 20.7122 117.463C21.2347 116.069 22.802 111.803 23.6727 110.845C24.5435 109.887 25.3271 109.713 25.7625 109.016C26.285 110.584 26.372 110.845 25.6754 112.238L25.5884 112.325Z" fill="#FDF8EE"/>
<path d="M21.4961 70.1815C21.4961 70.1815 21.8444 70.1815 21.8444 70.3557C22.1927 71.2264 22.3668 72.2713 22.8893 73.055C22.7151 73.9257 22.3668 73.3162 21.9315 73.2291C21.4961 73.1421 21.4961 73.4033 21.409 73.3162C21.3219 73.2291 21.409 72.7938 21.1478 72.6196C19.058 69.9203 18.7097 70.3557 17.7519 66.7857C16.7941 63.2156 16.8812 64.783 16.9682 63.7381C17.4036 63.3027 19.4063 64.87 19.6675 65.3054C19.9288 65.7408 21.1478 68.7884 21.4961 69.485C21.8444 70.1815 21.3219 69.9203 21.409 70.0945L21.4961 70.1815Z" fill="#FDF8EE"/>
<path d="M33.1638 45.5396C33.425 45.7138 33.5992 46.6716 33.5992 46.7587C33.5992 46.8457 33.9475 46.9328 34.0346 47.0199C34.8182 48.326 35.776 51.3736 36.0373 52.9409C36.2985 54.5082 36.1243 56.0756 36.0373 56.6851C35.9502 57.2946 35.776 57.2946 35.5148 57.3817C35.1665 57.5558 34.8182 56.0756 34.4699 55.9014C33.425 53.8116 32.9897 49.8933 32.6414 47.4553C32.2931 45.0172 32.4672 45.1043 33.0768 45.4526L33.1638 45.5396Z" fill="#FDF8EE"/>
<path d="M23.6729 66.0891C25.7627 67.9176 28.0266 68.0918 28.2008 71.5747C28.3749 75.0577 27.8525 73.142 27.9395 73.9257C27.7654 74.0999 26.6334 73.6645 26.3722 73.4903C26.111 73.3162 26.1981 72.8808 25.8498 72.6196C25.5015 72.3584 24.8049 72.2713 24.7178 72.1842C24.6307 72.0972 24.892 71.8359 24.892 71.4876C24.7178 70.5298 23.9341 69.6591 23.8471 69.4849C23.6729 68.7013 23.6729 68.2659 23.3246 67.4822C22.9763 66.6986 22.0185 65.6537 22.9763 65.2183C22.9763 65.5666 23.2375 65.7408 23.4988 65.9149L23.6729 66.0891Z" fill="#FDF8EE"/>
<path d="M15.2265 23.3358C16.7068 24.8161 18.0129 25.8609 18.8836 28.1249C19.7544 30.3888 19.5802 30.65 19.4061 30.9112C18.6224 30.9112 18.4483 29.8663 18.1 29.518C16.7938 28.4732 16.2714 27.8636 15.1394 26.4705C14.0075 25.0773 13.5721 24.8161 13.3109 24.2936C13.0497 23.7712 12.4402 22.5521 12.8755 22.2038C14.0946 21.246 14.617 22.6392 15.2265 23.2487V23.3358Z" fill="#FDF8EE"/>
<path d="M11.2213 67.7435C11.2213 67.7435 11.2213 68.1788 11.5696 68.353C12.2662 68.7884 13.4852 69.1366 14.1818 69.572C14.8784 70.0074 17.3165 72.0972 17.4906 72.2713C17.6648 72.4455 18.0131 73.7516 17.926 73.8386C17.4036 74.7094 16.794 73.8386 16.5328 73.7516C15.0526 73.142 13.3111 72.1842 11.9179 71.2264C10.5247 70.2686 10.0023 69.2237 9.82812 68.8754L10.9601 67.7435C11.0472 67.7435 11.2213 67.7435 11.2213 67.7435Z" fill="#FDF8EE"/>
<path d="M24.1083 98.3064C24.4566 98.7418 24.4566 100.222 24.3695 100.832C24.2824 101.441 22.7151 104.75 22.1926 105.098C21.6702 105.446 21.4961 105.359 21.0607 105.534C21.0607 105.011 20.4512 104.314 20.4512 103.792C20.4512 103.008 21.1478 100.657 21.4961 99.8737C21.8444 99.09 23.0634 97.0873 24.1083 98.3064Z" fill="#FDF8EE"/>
<path d="M7.91235 77.9311C8.17357 78.1053 8.69601 77.5828 9.21845 77.9311C9.7409 78.2794 10.4375 78.5406 11.2212 79.0631C12.0048 79.5855 12.266 79.4114 12.4402 79.6726C12.8756 80.195 12.4402 81.7624 12.6143 82.546C12.6143 82.546 10.9599 82.3719 10.7858 82.1977C10.6116 82.0236 8.08649 79.5855 7.82527 79.3243C7.56405 79.0631 7.65113 78.6277 7.65113 78.6277C7.65113 78.6277 7.12868 78.8019 6.86746 78.8019C6.25794 78.8019 5.64843 77.4087 5.21306 76.8862C4.77769 76.3638 4.25524 76.625 4.42939 75.8413C5.64843 75.5801 5.82257 76.1896 6.51916 76.7992C7.21576 77.4087 7.7382 77.9311 7.82527 77.9311H7.91235Z" fill="#FDF8EE"/>
<path d="M13.9205 42.4921C13.9205 42.4921 14.0947 42.9274 14.2688 43.1016C14.7913 43.624 15.3137 44.0594 15.662 44.756C16.5327 46.3233 17.1423 48.1519 17.7518 49.8063C17.3164 49.8063 17.0552 50.0675 16.6198 49.8063C14.9654 48.7614 13.3981 45.8879 12.2661 44.3206C12.2661 44.0594 12.2661 42.7533 12.3532 42.6662C12.4403 42.5791 13.8334 42.405 14.0076 42.4921H13.9205Z" fill="#FDF8EE"/>
<path d="M5.29991 12.7998C7.47676 14.8896 8.17335 16.4569 9.39238 19.0692C10.6114 21.6814 9.82775 19.3304 10.0019 19.6787C10.2631 20.2882 10.0019 20.8977 10.176 21.5072L8.26042 19.9399C7.82505 19.0692 7.12846 18.3726 6.51895 17.7631C5.90943 17.1535 6.51895 17.3277 6.3448 17.2406C6.17065 17.1535 5.90943 17.2406 5.73528 17.2406C5.56113 17.2406 5.90943 16.6311 5.90943 16.544C5.90943 16.4569 5.03869 15.6733 4.95162 15.4991C4.86454 15.2379 4.95162 14.9767 4.77747 14.7155C4.42917 14.0189 3.90673 13.4964 3.64551 12.7128C4.16795 12.7128 3.90673 11.755 4.3421 12.0162C4.77747 12.2774 4.95162 12.7128 5.21284 12.974L5.29991 12.7998Z" fill="#FDF8EE"/>
<path d="M27.7653 121.207C28.636 119.03 28.5489 118.682 30.0292 116.94C31.5094 115.199 30.7258 115.46 31.5094 115.373C31.6836 115.634 30.5516 120.859 30.3775 121.381C29.9421 122.339 28.8101 122.861 28.2006 123.384C27.5911 123.906 28.1136 123.819 28.0265 123.906L27.8523 124.08C27.8523 124.08 27.5911 124.254 27.417 124.254L27.2428 124.429H27.0687C26.8945 124.429 26.7204 124.429 26.6333 124.254V124.08C27.3299 124.254 26.9816 123.732 27.0687 123.21C27.1557 122.687 27.0687 123.035 27.0687 123.035C27.5911 123.122 27.504 122.861 27.504 122.426V122.252L27.6782 122.078C27.6782 121.903 27.8523 121.642 27.8523 121.468V121.294L27.7653 121.207Z" fill="#FDF8EE"/>
<path d="M33.1639 67.4823C33.1639 67.4823 33.3381 68.4401 33.4252 68.7884C33.8605 69.9203 34.2088 70.704 34.383 72.0101C34.5571 73.3162 34.0347 73.1421 34.0347 73.2291C34.0347 73.5774 34.5571 73.8386 34.4701 73.9257C34.383 74.0128 34.1218 73.9257 34.0347 74.0999C33.9476 74.4482 33.8605 76.4509 33.5122 76.4509C33.1639 76.4509 32.2932 76.1026 32.2061 75.9284C31.8578 75.5801 31.9449 72.2713 32.032 71.5747C32.1191 70.8781 32.3803 69.2237 32.5544 68.353C32.7286 67.4823 32.9027 67.134 33.251 67.4823H33.1639Z" fill="#FDF8EE"/>
<path d="M31.2483 77.757C31.2483 77.757 31.8578 78.8889 32.2932 78.5406C32.7286 78.1923 32.2061 78.1053 32.5544 78.1924C32.8156 78.976 32.2061 78.976 32.119 79.1502C31.6837 79.9338 32.032 80.8916 31.8578 81.7624C31.6837 82.6331 31.3354 83.2426 31.3354 83.3297C31.1612 83.5909 29.681 84.2004 29.4197 84.0263C29.4197 83.1556 28.9844 82.2848 28.9844 81.4141C28.9844 80.5433 29.2456 78.6277 29.5939 78.2794C29.9422 77.9311 30.9 77.5828 31.2483 77.757Z" fill="#FDF8EE"/>
<path d="M18.1003 109.104C19.0581 111.28 18.1003 113.806 17.3167 115.808L15.2269 117.811C15.1398 117.376 15.0527 117.114 15.0527 116.766C15.0527 115.634 16.8813 110.148 17.4908 109.365C18.1003 108.581 17.752 109.016 18.1003 109.016V109.104Z" fill="#FDF8EE"/>
<path d="M12.0046 48.5001C12.2658 48.6743 12.7883 49.9804 13.1366 50.4158C13.4849 50.8511 13.5719 50.4158 13.7461 50.677C13.9202 50.9382 15.0522 52.8538 15.1393 53.1151C15.4876 53.9858 15.0522 54.0729 14.2685 53.6375C12.7012 52.7668 9.39239 49.3709 8.95702 47.6294C8.52165 45.8879 10.3502 47.4553 10.8726 47.9777C11.3951 48.5001 11.7434 48.326 11.9175 48.5001H12.0046Z" fill="#FDF8EE"/>
<path d="M41.0877 57.2946C41.0877 57.5558 41.0877 57.9041 41.0877 58.2524C41.2618 58.949 41.3489 63.5639 41.0877 64.3476C40.8264 65.1313 40.1298 65.8279 40.3911 66.7857H39.7816C39.7816 65.5666 39.4333 64.6088 39.3462 63.3027C39.2591 61.9966 39.5203 58.7749 39.7816 57.9041C40.0428 57.0334 40.9135 57.2075 41.0006 57.2946H41.0877Z" fill="#FDF8EE"/>
<path d="M30.5518 54.247C32.2933 56.3368 32.2062 58.4266 32.3803 61.0388H31.5096C30.4647 58.3395 29.3327 55.8144 28.6362 53.1151C27.9396 50.4158 28.3749 52.3314 28.8974 52.4185C29.4198 53.028 30.0293 53.5504 30.5518 54.247Z" fill="#FDF8EE"/>
<path d="M35.8629 94.0398C36.3854 96.9132 36.3854 99.5254 35.1664 102.225C33.9473 104.924 34.3827 103.879 34.2956 103.879C33.8603 103.705 34.0344 103.27 34.0344 103.008C34.0344 102.138 34.2956 100.57 34.3827 99.6125C34.4698 98.6547 34.2085 97.5227 34.3827 96.652C34.5568 95.7813 35.2534 93.3432 35.8629 94.0398Z" fill="#FDF8EE"/>
<path d="M20.5379 53.9858C20.8862 54.1599 22.2794 54.7695 22.4535 54.8565C22.8018 55.1178 22.8018 55.6402 23.0631 55.9014C23.3243 56.1626 24.195 56.7722 24.2821 56.8592C24.4562 57.2075 24.2821 57.5558 24.3692 57.8171C24.4562 58.0783 25.327 58.1653 25.327 58.3395C25.327 58.5136 25.0658 58.949 25.1528 59.2102C25.2399 59.4715 25.5011 59.2973 25.5882 59.4715C25.7623 59.8198 25.6753 60.5163 26.0236 60.9517H25.414C24.7175 59.9939 23.4113 59.1232 22.6277 58.2524C21.844 57.3817 20.8862 55.5531 20.1896 54.4212C19.493 53.2892 19.7542 54.3341 19.7542 54.247C19.406 53.8117 20.1896 53.7246 20.5379 53.8987V53.9858Z" fill="#FDF8EE"/>
<path d="M5.21293 89.4249C5.56122 89.8602 3.12315 94.8234 2.77486 95.6942L1.46875 96.9132C1.46875 96.2166 1.46875 95.52 1.46875 94.7364C1.46875 93.9527 2.25241 91.4276 2.42656 90.9922C2.60071 90.5568 3.73267 89.599 3.90682 89.5119C4.16804 89.3378 4.9517 89.1636 5.12585 89.4249H5.21293Z" fill="#FDF8EE"/>
<path d="M4.51645 58.0783C4.6906 58.0783 4.77767 58.2524 4.95182 58.2524L5.12597 58.4266C5.30012 58.4266 5.56134 58.4266 5.73549 58.4266C5.73549 58.8619 5.73549 58.8619 6.17086 58.8619C6.17086 58.8619 6.60623 58.8619 6.78037 58.8619C6.60623 59.4715 7.30282 59.2102 7.82526 59.4715C8.95722 59.9939 9.21844 60.4293 10.0892 61.3L11.1341 63.4769C10.6116 63.2156 9.82796 63.1286 9.30552 62.8673C8.60893 62.519 7.82526 61.6483 7.12867 61.2129L6.95452 61.0388C6.78037 60.8646 6.43208 60.8646 6.345 60.8646L6.17086 60.6905L5.99671 60.5163C5.90963 60.2551 5.64841 60.081 5.38719 60.081C5.38719 60.081 5.38719 59.8197 5.21304 59.6456L5.0389 59.4715H4.86475L4.42938 59.0361C4.42938 59.0361 4.08108 59.0361 3.99401 59.0361L3.55864 58.4266H3.38449L3.21034 58.2524H3.0362C3.21034 57.9041 2.25253 57.8171 2.60083 57.3817C2.94912 56.9463 4.42938 58.0783 4.6906 58.2524L4.51645 58.0783Z" fill="#FDF8EE"/>
<path d="M17.2292 39.0962C17.4905 39.2703 18.4483 44.756 18.1 45.5396C17.5775 45.6267 17.7517 45.4526 17.6646 45.2784C17.0551 44.4947 16.7939 43.624 16.3585 42.8403C15.9231 42.0567 15.9231 42.6662 15.8361 42.492C15.5748 42.0567 14.3558 39.0962 14.617 38.922C15.5748 38.922 16.4456 39.2703 17.3163 39.1832L17.2292 39.0962Z" fill="#FDF8EE"/>
<path d="M23.4988 84.1134C23.8471 84.3746 25.1532 86.5514 25.4144 87.1609C25.6756 87.7705 26.111 89.0766 26.111 89.1636C26.111 90.2085 24.3695 89.2507 24.0212 88.9895C22.8022 87.9446 22.1056 84.5487 21.7573 82.9814C22.1927 83.678 23.1505 83.7651 23.5859 84.1134H23.4988Z" fill="#FDF8EE"/>
<path d="M3.90711 126.431C4.16833 126.605 4.25541 130.263 3.90711 130.785C3.55882 131.307 1.99149 131.917 1.46904 132.265C0.9466 132.613 1.12075 133.223 0.51123 133.136L1.20782 129.827C1.64319 129.566 1.81734 129.043 2.07856 128.608C2.33978 128.173 2.77515 127.041 3.12345 126.605C3.47174 126.17 3.64589 126.431 3.73296 126.518L3.90711 126.431Z" fill="#FDF8EE"/>
<path d="M20.6253 92.8207C20.19 94.4751 20.1029 95.8683 19.4934 97.4357C18.8839 99.003 18.7097 99.6996 17.839 99.5254C17.3165 98.9159 17.2295 98.3064 17.3165 97.5227C17.4036 96.7391 18.7968 93.5173 18.9709 93.3432C19.1451 93.169 20.5383 92.7337 20.6253 92.8207Z" fill="#FDF8EE"/>
<path d="M22.9758 49.8933C23.5854 50.3287 25.3268 51.6348 25.5881 52.3314C25.8493 53.028 25.5881 53.028 25.5881 53.3763C25.5881 53.7246 26.3717 53.8987 26.0234 54.7695C25.4139 54.9436 25.2398 54.247 24.9785 54.0729C22.8888 52.7668 21.0602 52.1572 21.8439 49.1097C22.6275 48.9355 22.6275 49.6321 22.9758 49.8933Z" fill="#FDF8EE"/>
<path d="M38.2138 68.9625C38.1267 69.3979 38.5621 69.6591 38.5621 70.0074C38.7363 70.7911 38.9104 73.5774 38.7363 74.274C38.5621 74.9706 38.0397 75.4931 37.9526 75.5801C36.8206 76.3638 36.7336 74.9706 36.6465 74.0999C36.6465 72.7067 36.9077 70.8781 37.4301 69.6591C37.9526 68.4401 37.6914 68.8754 38.1267 69.0496L38.2138 68.9625Z" fill="#FDF8EE"/>
<path d="M7.65115 125.386C7.73822 125.386 8.08651 127.389 8.08651 127.563C8.17359 129.392 8.08651 130.698 6.17089 131.394C6.17089 130.959 5.90967 130.524 5.90967 130.088C5.90967 129.653 6.17089 128.173 6.25796 127.737C6.34504 127.302 6.78041 125.735 6.95455 125.561C7.1287 125.386 7.477 125.386 7.56407 125.473L7.65115 125.386Z" fill="#FDF8EE"/>
<path d="M8.34755 30.1276C8.1734 30.3017 7.12852 29.3439 6.8673 29.2568C6.25778 28.9956 5.56119 29.1698 5.12582 28.6473C4.69045 28.1249 3.99386 25.3385 4.16801 25.0773C4.5163 24.9902 4.60338 25.2514 4.77752 25.4256C5.12582 25.6868 7.47681 27.6895 7.56389 27.8636C7.82511 28.299 7.73804 29.6051 8.26048 30.1276H8.34755Z" fill="#FDF8EE"/>
<path d="M15.9235 82.6331C16.6201 82.9814 16.446 82.6331 16.8813 82.8073C17.3167 82.9814 18.0133 83.3297 18.1004 83.4168C18.2745 83.678 18.7099 85.0712 18.3616 85.3324C18.0133 85.5936 15.4011 85.0712 14.9657 84.4617C14.5303 83.8521 14.4433 82.1977 14.5303 82.0236C15.0528 82.0236 15.4882 82.3719 15.9235 82.546V82.6331Z" fill="#FDF8EE"/>
<path d="M7.30267 113.718C7.47682 113.893 7.73804 115.808 7.73804 116.069C7.73804 116.331 7.38975 116.244 7.38975 116.331C7.04145 117.55 6.95438 118.159 6.08364 119.204C5.2129 120.249 5.73534 119.552 5.47412 119.552C5.73534 118.856 5.47412 117.985 5.47412 117.376C5.47412 116.766 5.82242 117.376 5.90949 117.114C5.90949 116.766 5.5612 116.157 5.64827 115.547C5.73534 114.938 5.99656 115.46 6.08364 115.286C6.34486 114.676 6.08364 113.98 7.38975 113.806L7.30267 113.718Z" fill="#FDF8EE"/>
<path d="M38.214 111.193C38.3011 112.499 37.8657 113.544 37.4303 114.763C36.995 115.982 36.4725 116.766 35.9501 117.637C35.4276 118.508 35.7759 118.333 35.6018 118.333C34.5569 118.072 35.0794 117.724 35.2535 117.289C35.863 115.46 36.4725 113.718 37.2562 111.977C38.0399 110.236 37.9528 111.106 38.214 111.193Z" fill="#FDF8EE"/>
<path d="M34.6441 87.4222C34.8183 87.6834 33.8605 90.1214 33.9475 90.731L33.251 92.2112C33.1639 91.1663 32.3802 88.6412 32.6414 87.7705C32.9027 86.8997 33.4251 86.8126 33.5993 86.8126C33.7734 86.8126 34.6441 87.4222 34.7312 87.4222H34.6441Z" fill="#FDF8EE"/>
<path d="M2.86185 104.314C2.94893 104.402 3.29722 107.362 3.21015 107.797C3.036 108.494 2.51356 109.365 1.81697 109.539C2.25234 108.407 1.20745 106.578 1.3816 105.708C1.55575 104.837 2.25234 103.792 2.86185 104.314Z" fill="#FDF8EE"/>
<path d="M24.0209 81.5011C21.9311 81.327 21.2345 79.6726 21.3216 77.757C23.2372 77.757 24.195 79.7597 24.0209 81.5011Z" fill="#FDF8EE"/>
<path d="M6.86777 95.0847C6.86777 96.1295 6.86777 97.3486 6.69363 98.3064C6.51948 99.2642 5.99703 101.006 5.30044 100.919C4.60385 100.832 5.38752 100.222 5.38752 100.222C5.38752 100.048 5.03922 99.9608 4.95215 99.6125C4.95215 98.9159 5.38752 97.9581 5.56167 97.3486C5.73581 96.7391 5.56167 95.0847 6.7807 95.0847H6.86777Z" fill="#FDF8EE"/>
<path d="M12.5276 111.193C12.7017 112.325 12.0922 113.457 11.831 114.502C11.5698 115.547 11.6568 115.547 11.2215 116.418C10.7861 117.289 11.2215 117.55 10.6119 117.201C10.0024 116.853 10.2637 116.766 10.2637 116.505C10.2637 115.721 11.3085 112.674 11.7439 111.89C12.1793 111.106 12.1793 111.106 12.6146 111.193H12.5276Z" fill="#FDF8EE"/>
<path d="M11.047 57.6429C11.3082 57.6429 12.0048 57.9912 12.179 58.0783C12.3531 58.1653 13.8334 59.6456 13.9205 59.7327C14.0946 60.168 14.1817 61.5612 13.4851 61.3871C12.7885 61.2129 12.0048 59.3844 11.6565 58.949C11.1341 58.3395 11.1341 58.6007 10.4375 57.6429C10.6116 57.6429 10.8729 57.6429 11.047 57.6429Z" fill="#FDF8EE"/>
<path d="M21.0604 59.3844C21.0604 59.3844 21.0604 59.5585 21.2345 59.8197C21.844 60.3422 22.6277 61.1258 23.0631 61.9095C24.195 64.4347 21.757 62.9544 21.2345 61.6483C20.7121 60.3422 20.7121 59.7327 20.625 59.6456C20.625 59.2973 20.7991 59.1231 21.0604 59.2973V59.3844Z" fill="#FDF8EE"/>
<path d="M14.356 124.341C15.1397 125.561 14.356 125.299 14.356 125.561C14.2689 125.996 14.356 127.476 13.9206 127.912C13.4853 128.347 11.8309 128.26 12.4404 127.563C13.0499 126.867 12.7887 127.563 12.4404 126.692C13.3982 126.867 12.9628 126.344 13.137 125.909L14.2689 124.429L14.356 124.341Z" fill="#FDF8EE"/>
<path d="M14.9654 130.001C15.0525 130.001 15.4008 130.959 15.3137 131.22C15.0525 131.743 14.0947 132.265 13.5722 132.265C13.1369 131.917 13.3981 130.175 13.5722 130.001C13.7464 129.827 14.8784 130.001 14.9654 130.001Z" fill="#FDF8EE"/>
<path d="M25.6756 128.695C25.6756 130.001 24.979 129.74 24.4565 130.088C23.9341 130.437 24.3695 130.35 23.4116 130.698C22.4538 131.046 22.2797 132.004 21.9314 131.656C21.5831 131.307 22.8021 130.262 22.9763 130.088C23.1504 129.914 23.4987 129.914 23.6729 129.74C24.2824 129.218 24.6307 128.521 25.6756 128.695Z" fill="#FDF8EE"/>
<path d="M11.831 31.782C11.831 31.782 11.5697 33.3493 11.831 33.6976C10.4378 33.4364 9.56705 31.869 10.1766 30.5629C10.699 30.5629 10.7861 31.5207 11.0473 31.6949C11.3085 31.869 11.831 31.6949 11.918 31.782H11.831Z" fill="#FD937D"/>
<path d="M5.99672 31.6078C5.99672 31.6078 6.17087 32.0432 6.34502 32.1303C7.38991 32.8268 7.82528 32.4785 7.65113 34.22C7.65113 34.22 6.17087 33.6976 6.0838 33.6105C5.99672 33.5234 5.38721 31.9561 5.38721 31.869C5.38721 31.4337 5.7355 31.4337 5.99672 31.6078Z" fill="#FDF8EE"/>
<path d="M38.2144 99.0901C38.3886 99.2642 38.4756 100.919 38.3886 101.267C38.3015 101.615 38.3885 102.486 37.8661 102.486C36.56 102.312 37.5178 100.309 37.779 99.4384C38.0403 98.5676 37.779 98.8289 38.2144 99.0901Z" fill="#FDF8EE"/>
<path d="M11.0469 136.706C11.2211 138.012 11.4823 139.144 10.1762 140.015C10.5245 138.796 9.21838 136.793 11.0469 136.706Z" fill="#FDF8EE"/>
<path d="M4.51659 58.0783C4.25537 57.9912 2.51389 57.1205 2.42682 57.2075C2.07852 57.5558 3.03633 57.6429 2.86218 58.0783C2.60096 57.9041 2.16559 57.8171 1.8173 57.5558C1.469 57.2946 1.38193 56.9463 1.03363 56.598C0.685338 56.2497 0.51119 56.4239 0.51119 56.4239C0.337042 56.2497 0.51119 55.9014 0.859486 55.9885C1.20778 56.0756 3.29755 57.1205 3.82 57.3817C4.34244 57.6429 4.34244 57.73 4.51659 58.0783Z" fill="#FD937D"/>
<path d="M13.9205 92.1241C13.7464 92.7337 13.7464 93.4303 13.5722 93.9527C13.224 94.8234 12.092 94.8234 12.3532 93.9527C12.6144 93.082 13.0498 92.1241 13.1369 92.1241C13.311 92.0371 13.7464 92.1241 13.9205 92.1241Z" fill="#FDF8EE"/>
<path d="M24.0211 123.732C24.1953 123.906 22.8021 126.954 22.3667 126.431C22.5408 125.909 22.8021 124.167 23.1504 123.819C23.4987 123.471 23.934 123.645 24.0211 123.645V123.732Z" fill="#FD937D"/>
<path d="M10.4378 57.6429C10.4378 57.6429 9.04463 56.3368 10.3507 56.7722C11.6568 57.2075 10.7861 57.5558 11.0473 57.6429C10.8732 57.6429 10.612 57.6429 10.4378 57.6429Z" fill="#FD937D"/>
<path d="M26.4589 124.341C26.4589 124.516 26.7202 124.603 26.8943 124.516C26.9814 125.125 26.6331 124.951 26.0236 124.951C25.8494 124.167 26.3719 124.341 26.4589 124.341Z" fill="#FD937D"/>
<path d="M26.8945 123.297C26.8945 123.819 27.1557 124.254 26.4591 124.167C26.4591 123.645 26.1979 123.21 26.8945 123.297Z" fill="#FD937D"/>
<path d="M6.86761 58.949C7.47712 58.949 7.73834 58.6878 7.91249 59.5585C7.39005 59.2973 6.69346 59.5585 6.86761 58.949Z" fill="#FD937D"/>
<path d="M45.2669 71.2264C45.2669 71.5747 45.4411 71.923 44.8315 71.8359C44.9186 71.6618 44.8315 71.3135 45.2669 71.2264Z" fill="#FD937D"/>
<path d="M27.3299 122.426C27.3299 122.948 27.504 123.122 26.8945 123.035C26.9816 122.426 27.2428 122.513 27.3299 122.426Z" fill="#FD937D"/>
<path d="M5.82275 58.5136C6.60642 58.6007 6.08398 58.7749 6.25812 58.949C5.82275 58.949 5.82275 58.949 5.82275 58.5136Z" fill="#FD937D"/>
<path d="M45.5286 70.6169C45.5286 70.704 46.1382 71.1394 45.3545 71.0523C45.3545 70.8781 45.3545 70.704 45.5286 70.6169Z" fill="#FD937D"/>
<path d="M5.99672 60.4293C5.82258 60.2551 5.56135 60.1681 5.38721 59.9939C5.7355 59.9939 5.90965 60.081 5.99672 60.4293Z" fill="#FD937D"/>
<path d="M3.90705 58.949C3.38461 58.6878 3.55875 58.3395 3.47168 58.3395L3.90705 58.949Z" fill="#FD937D"/>
<path d="M0.162598 117.637C0.859189 117.289 1.55578 116.592 1.20748 115.895H1.64285C1.38163 115.025 2.68774 114.589 2.68774 113.718C3.21018 113.718 3.12311 113.806 3.12311 114.241C3.12311 115.895 2.77481 119.03 2.1653 120.336C1.55578 121.642 2.1653 120.597 1.99115 121.294C1.817 121.99 1.38163 122.513 1.12041 123.21C0.859189 123.906 1.55578 124.341 0.162598 124.167V117.724L0.162598 117.637Z" fill="#FDF8EE"/>
<path d="M27.3301 122.252C27.3301 122.078 27.5042 122.078 27.5042 122.078L27.3301 122.252Z" fill="#FD937D"/>
<path d="M27.1558 124.516L27.3299 124.341C27.3299 124.341 27.3299 124.516 27.1558 124.516Z" fill="#FD937D"/>
<path d="M4.77765 59.3844C4.51643 59.2102 4.42936 59.0361 4.34229 58.949L4.77765 59.3844Z" fill="#FD937D"/>
<path d="M5.21321 58.5136L5.03906 58.3395C5.12614 58.3395 5.21321 58.5136 5.21321 58.5136Z" fill="#FD937D"/>
<path d="M3.29768 58.3395C3.21061 58.3395 3.12354 58.1653 3.12354 58.1653L3.29768 58.3395Z" fill="#FD937D"/>
<path d="M5.3875 0C6.43239 1.30611 7.65142 2.78636 8.34801 4.26662C9.0446 5.74688 8.87046 6.18224 9.3929 7.14006C9.91534 8.09787 10.5249 9.14276 11.1344 10.4489C11.7439 11.755 12.3534 13.0611 12.5276 13.1482C12.7888 13.3223 13.5724 12.8869 14.0078 12.974C14.9656 13.0611 19.2322 14.9767 20.0159 15.5862C24.7179 19.4175 29.0716 27.7766 30.726 33.6976C32.3804 39.6186 31.1614 37.4418 31.6838 39.0091C32.6416 41.9696 35.6892 43.3628 36.4729 45.975C37.2565 48.5872 36.4729 46.6716 36.5599 47.0199C36.5599 48.2389 37.1695 48.4131 37.5178 49.2838C37.8661 50.1545 38.0402 53.028 38.2144 53.2892C38.7368 53.3763 38.8239 52.7668 39.1722 52.6797C39.8688 52.5055 40.7395 53.6375 40.6524 52.6797C40.9136 52.7668 41.2619 52.7668 41.5232 52.8538C41.7844 52.9409 41.5232 53.2021 41.9585 53.028C42.3939 52.8538 42.1327 53.028 42.1327 53.028C42.481 53.2892 43.1776 53.2021 43.4388 53.4634C43.7 53.7246 43.4388 53.9858 43.6129 54.0729C43.7871 54.1599 44.0483 54.0729 44.2224 54.0729C44.2224 54.0729 44.2224 54.3341 44.3095 54.5082C44.4837 54.7695 44.7449 54.6824 44.832 54.6824C45.6156 55.1178 46.2251 55.5531 46.7476 56.4239C48.3149 58.8619 49.0115 65.1313 49.1857 68.1788C49.3598 71.2264 48.2278 73.4903 46.9217 76.1896L42.481 81.2399C42.7422 83.5038 43.7 85.7678 43.8742 88.1188C44.2224 91.6888 43.7 96.3037 42.481 99.6996C41.2619 103.095 41.0007 102.312 40.8266 103.618C40.6524 104.924 41.0878 107.101 41.0007 108.581C40.8266 112.674 40.0429 117.463 37.2565 120.684C34.4702 123.906 33.8607 123.122 32.6416 124.429C30.9001 126.431 29.9423 128.869 27.5913 130.872C25.2403 132.875 22.6281 133.484 19.7547 134.703C16.8813 135.922 16.7942 138.447 15.6622 139.754C12.7888 142.975 9.65412 144.891 6.17117 147.416C2.68821 149.941 2.42699 150.725 0.0759957 151.683V146.632C0.511365 146.632 0.685513 146.458 0.946734 146.284C2.42699 145.326 6.69361 142.714 7.56435 141.321C8.43509 139.928 8.08679 139.579 8.43509 138.883C7.65142 138.535 7.04191 139.492 6.34531 139.928C4.25554 141.234 2.86236 142.54 1.12088 144.107C-0.620595 145.675 0.250143 144.368 0.0759957 144.891V124.167C1.46918 124.341 0.85966 123.732 1.03381 123.21C1.20796 122.687 1.81747 121.99 1.90455 121.294C1.99162 120.597 1.90455 121.033 2.07869 120.336C2.60114 119.03 3.03651 115.895 3.03651 114.241C3.03651 112.587 3.21065 113.631 2.60114 113.718C2.60114 114.676 1.29503 115.025 1.55625 115.982H1.12088C1.46918 116.679 0.772587 117.376 0.0759957 117.637V80.195C0.946734 80.6304 1.7304 81.5011 2.25284 82.2848C2.68821 82.459 3.99432 80.8916 3.99432 80.7175C3.99432 79.7597 3.47188 79.8467 3.21065 79.4114C2.33992 78.0182 1.64333 76.2767 0.0759957 75.5801V70.1815C0.598439 70.2686 1.03381 70.704 1.46918 70.9652C4.25554 72.8808 6.60654 74.1869 9.82827 75.3189C13.05 76.4509 11.3085 76.2767 11.3085 75.493C11.3085 74.7094 10.4378 74.274 10.2636 74.0128C9.21875 72.7938 5.3875 69.4849 3.99432 68.9625C2.60114 68.4401 1.55625 68.7013 0.598439 68.4401C-0.359374 68.1788 0.424291 67.9176 0.0759957 68.0047V65.4795C2.33992 65.3925 4.42969 66.7857 6.78068 66.6115C6.78068 66.2632 6.60654 66.0891 6.43239 65.9149C4.77798 64.4347 3.64602 63.5639 1.55625 62.519C-0.533522 61.4742 0.946734 61.6483 0.16307 61.9095V46.8457C0.946734 47.7165 2.07869 48.8484 2.77529 49.8063C3.7331 51.1994 4.25554 53.2892 5.56165 54.247C6.86776 55.2048 5.56165 54.5082 5.64872 54.5953C5.7358 54.5953 7.0419 53.9858 7.99972 54.1599C8.95753 54.3341 7.91264 55.2048 8.52216 54.6824C7.91264 53.9858 7.7385 52.8538 7.30313 52.2443C6.51946 51.2865 4.86506 50.5028 4.25554 49.1967L0.16307 45.1913V42.0567C0.511365 42.2308 1.03381 42.3179 1.3821 42.5791C2.42699 43.3628 3.55895 45.1043 4.51676 45.8879C5.47458 46.6716 6.51946 47.2811 6.25824 46.4104C5.99702 45.5396 5.90995 46.4104 5.82287 46.1492C5.3875 45.3655 5.30043 44.9301 4.69091 43.9723C4.08139 43.0145 4.25554 42.7533 4.16847 42.6662C3.21065 41.8825 1.29503 41.7084 0.16307 40.8376V33.9588C2.16577 34.6554 3.55895 36.6581 5.21335 38.0513C6.86776 39.4445 7.12898 39.3574 8.08679 40.1411C9.0446 40.9247 8.69631 41.0118 9.3929 40.9247C9.3929 39.5315 8.52216 38.3996 8.34801 37.1805L7.7385 37.3547C7.99972 36.3098 7.21605 36.9193 6.95483 36.6581C6.69361 36.3969 6.95483 36.2227 6.69361 35.9615C6.08409 35.2649 4.34262 34.5683 3.47188 34.133C2.60114 33.6976 3.03651 34.0459 2.51406 33.8717C1.99162 33.6976 0.946734 33.2622 0.250143 32.9139V27.8636C1.20796 27.8636 2.25284 28.4732 2.33992 27.167C2.42699 25.8609 1.20796 23.4229 0.250143 23.3358V16.1957C0.946734 16.1957 0.424291 16.9794 1.12088 17.3277C1.81747 17.676 1.7304 17.3277 1.99162 17.5889C2.25284 17.8501 2.16577 18.0243 2.33992 18.1984C2.51406 18.3726 4.77798 20.2011 4.77798 19.5916C4.42969 19.1563 4.42969 18.1984 4.25554 17.8501C3.90725 17.2406 1.99162 14.3672 1.46918 13.7577C0.946734 13.1482 0.598439 13.1482 0.250143 12.7999V2.26392C0.85966 2.26392 0.85966 2.78636 1.12088 3.04759C1.3821 3.30881 1.55625 3.04759 1.64333 3.13466C1.90455 3.30881 1.64333 3.91832 1.90455 4.17955C2.77529 5.31151 4.25554 6.26932 4.95213 7.6625L8.95753 11.6679C8.95753 11.1455 8.95753 10.7101 8.78338 10.2747C7.99972 7.92372 5.12628 4.0054 3.3848 2.17685C1.64333 0.348296 1.81747 0.870739 1.20796 0H5.3875ZM5.30043 12.7999C5.12628 12.6257 4.51676 11.9291 4.42969 11.842C3.99432 11.5808 4.25554 12.5386 3.7331 12.5386C3.90725 13.3223 4.51676 13.8447 4.86506 14.5413C5.21335 15.2379 4.86506 15.0638 5.03921 15.325C5.21335 15.5862 5.99702 16.2828 5.99702 16.3699C5.99702 16.544 5.7358 17.0665 5.82287 17.0665C5.90995 17.0665 6.25824 16.9794 6.43239 17.0665C6.60654 17.1536 6.43239 17.5018 6.60654 17.5889C7.21605 18.2855 7.99972 18.895 8.34801 19.7658L10.2636 21.3331C10.0895 20.7236 10.2636 20.2011 10.0895 19.5045C9.91534 18.808 9.65412 19.1563 9.47997 18.895C8.26094 16.3699 7.56435 14.8026 5.3875 12.6257L5.30043 12.7999ZM19.7547 19.3304C17.9261 17.7631 15.8364 16.1957 13.4854 15.4991C13.7466 16.457 14.269 17.676 14.8786 18.4597C15.8364 19.8528 17.4908 20.7236 18.7098 21.9426C19.9288 23.1616 18.7098 22.9004 19.8418 22.9004C22.1057 24.9902 24.4567 27.3412 26.4594 29.8663C27.3301 30.8241 27.0689 29.518 26.8077 28.9085C26.5465 28.299 25.1533 26.4705 24.9791 25.948C24.805 25.4256 24.9791 25.4256 25.0662 25.1643C24.0213 25.4256 24.6308 24.5548 24.3696 24.3807C24.1084 24.2065 23.7601 24.3807 23.2376 23.5099C22.7152 22.6392 22.1928 21.9426 21.5832 21.246C20.9737 20.5494 20.1901 19.9399 19.7547 19.5045V19.3304ZM15.2268 23.3358C14.6173 22.7263 14.0949 21.246 12.8759 22.2909C11.6568 23.3358 13.05 23.9453 13.3112 24.3807C13.5724 24.8161 14.6173 25.948 15.1398 26.5575C16.1847 27.9507 16.7942 28.4732 18.1003 29.6051C19.4064 30.7371 18.6227 31.0854 19.4064 30.9983C19.5805 30.8241 19.0581 28.6473 18.884 28.2119C18.0132 25.948 16.7071 24.8161 15.2268 23.4229V23.3358ZM8.34801 30.1276C7.82557 29.6051 7.82557 28.2119 7.65142 27.8636C7.47727 27.5153 5.21335 25.6868 4.86506 25.4256C4.51676 25.1643 4.60384 24.9902 4.25554 25.0773C4.08139 25.3385 4.86506 28.2119 5.21335 28.6473C5.56165 29.0827 6.34531 28.9956 6.95483 29.2568C7.56435 29.518 8.26094 30.3017 8.43509 30.1276H8.34801ZM11.831 31.782C11.831 31.782 11.2215 31.782 10.9602 31.6949C10.699 31.6078 10.699 30.65 10.0895 30.5629C9.47997 31.869 10.4378 33.3493 11.7439 33.6976C11.4827 33.3493 11.7439 31.869 11.7439 31.782H11.831ZM5.99702 31.6078C5.7358 31.4337 5.3875 31.4337 5.3875 31.869C5.3875 32.3044 6.08409 33.5234 6.08409 33.6105C6.17117 33.7847 7.56435 34.3071 7.65142 34.22C7.7385 32.4786 7.3902 32.7398 6.34531 32.1303C5.30043 31.5207 6.08409 31.6078 5.99702 31.6078ZM24.7179 35.0037C24.1084 34.6554 22.9764 34.3942 23.1506 35.4391C23.3247 36.484 23.9342 37.3547 24.2825 38.0513C25.1533 40.3152 26.1111 42.6662 26.8077 44.9301C27.5043 47.194 27.0689 46.9328 27.4172 47.7165C27.7655 48.5001 30.1165 51.0253 29.9423 49.3709C29.7682 47.7165 29.507 47.7165 29.3328 47.107C28.8104 45.1043 27.5043 42.2308 27.5043 40.2281C27.5043 38.2254 26.7206 39.4445 26.6335 39.0962C26.5465 38.7479 26.8077 38.5737 26.7206 38.3996C26.6335 38.2254 26.2852 38.2254 26.1111 37.9642C25.9369 37.703 26.1111 37.1805 25.9369 36.6581C25.7628 36.1357 24.9791 35.1778 24.7179 35.0037ZM18.884 35.1778C18.7098 35.0908 18.3615 35.0037 18.1003 34.9166C17.8391 35.7003 18.3615 36.1357 18.5357 36.7452C19.1452 39.1832 19.6676 41.0118 20.4513 43.2757C21.2349 45.5396 20.4513 45.0172 20.8866 45.3655C21.322 45.7138 21.322 45.2784 21.4962 45.3655C21.6703 45.4526 21.4962 45.6267 21.8445 45.7138C22.3669 45.8879 22.8893 46.1492 23.4118 46.0621C24.0213 44.3206 22.6281 42.7533 22.3669 41.1859C22.1057 39.6186 22.8893 41.1859 22.8023 40.7506C22.6281 40.4023 21.9315 40.054 21.8445 39.7928C21.4962 38.922 22.0186 39.5315 21.1479 38.3996C20.2771 37.2676 19.9288 36.0486 18.971 35.2649L18.884 35.1778ZM17.2295 39.0962C16.3588 39.1832 15.4881 38.8349 14.5303 38.8349C14.269 39.0962 15.5751 42.0567 15.7493 42.405C15.9234 42.7533 16.1847 42.5791 16.2717 42.7533C16.7071 43.5369 16.9683 44.4077 17.5778 45.1913C18.1874 45.975 17.5778 45.5396 18.0132 45.4526C18.3615 44.6689 17.4037 39.1832 17.1425 39.0091L17.2295 39.0962ZM13.9207 42.492C13.8337 42.492 12.3534 42.5791 12.2663 42.6662C12.1793 42.7533 12.1793 44.0594 12.1793 44.3206C13.3983 45.8879 14.8786 48.7614 16.533 49.8063C18.1874 50.8511 17.2295 49.8063 17.6649 49.8063C17.0554 48.1518 16.4459 46.3233 15.5751 44.756C14.7044 43.1886 14.7915 43.624 14.182 43.1016C13.5724 42.5791 13.9207 42.5791 13.8337 42.492H13.9207ZM33.1641 45.5396C32.5546 45.1913 32.7287 47.107 32.7287 47.5423C33.077 49.8933 33.5124 53.8987 34.5572 55.9885C34.9055 56.1626 35.1668 57.6429 35.6021 57.4688C36.0375 57.2946 36.0375 57.0334 36.1246 56.7722C36.2117 56.1626 36.2117 53.7246 36.1246 53.028C35.8634 51.3736 34.9055 48.4131 34.1219 47.107C33.3382 45.8009 33.7736 46.9328 33.6865 46.8457C33.5994 46.7587 33.4253 45.8009 33.2511 45.6267L33.1641 45.5396ZM12.0051 48.5001C11.831 48.326 11.3085 48.2389 10.9602 47.9777C10.3507 47.5423 8.52216 45.5396 9.0446 47.6294C9.56705 49.7192 12.7888 52.7668 14.3561 53.6375C15.9234 54.5082 15.5751 53.9858 15.2268 53.1151C14.8786 52.2443 14.0078 50.9382 13.8337 50.677C13.6595 50.4158 13.3112 50.5899 13.2241 50.4158C12.9629 49.9804 12.3534 48.7614 12.0922 48.5001H12.0051ZM22.9764 49.8933C22.7152 49.6321 22.6281 48.9355 21.8445 49.1097C21.0608 52.1572 22.8893 52.6797 24.9791 54.0729C27.0689 55.4661 25.4145 54.9436 26.024 54.7695C26.3723 53.8987 25.5886 53.4634 25.5886 53.3763C25.5886 53.028 25.5886 52.6797 25.5886 52.3314C25.3274 51.6348 23.5859 50.3287 22.9764 49.8933ZM30.5519 54.247C30.0294 53.6375 29.4199 53.1151 28.8974 52.4185C28.375 52.3314 28.5492 52.8538 28.6362 53.1151C29.3328 55.8143 30.4648 58.3395 31.5097 60.8646H32.3804C32.2933 58.4266 32.3804 56.2497 30.5519 54.247ZM20.5384 53.9858C20.1901 53.8117 19.4064 53.8987 19.7547 54.3341C20.103 54.7695 20.103 54.3341 20.1901 54.5082C20.8867 55.6402 21.7574 57.2946 22.6281 58.3395C23.4989 59.3844 24.7179 60.081 25.4145 61.2129H26.024C25.6757 60.6905 25.7628 59.9939 25.5886 59.5585C25.4145 59.1232 25.1533 59.3844 25.1533 59.2973C25.1533 59.0361 25.5016 58.5136 25.3274 58.4266C25.1533 58.3395 24.4567 58.0783 24.3696 57.9041C24.1955 57.6429 24.3696 57.2946 24.2825 56.9463C24.1955 56.598 23.2376 56.1626 23.0635 55.9885C22.8023 55.7273 22.7152 55.2048 22.454 54.9436C22.1928 54.6824 20.8866 54.247 20.5384 54.0729V53.9858ZM4.51676 58.0783C4.34262 57.73 4.16847 57.5558 3.82017 57.3817C3.29773 57.1205 1.20796 55.9885 0.859661 55.9885C0.511365 55.9885 0.424291 56.2497 0.511365 56.4239C0.598439 56.598 0.85966 56.4239 1.03381 56.598C1.29503 56.9463 1.46918 57.2075 1.81747 57.5558C2.16577 57.9041 2.51406 57.9041 2.86236 58.0783C3.21065 58.2524 3.03651 58.0783 3.03651 58.0783C3.03651 58.0783 3.12358 58.2524 3.21065 58.2524C3.29773 58.2524 3.3848 58.2524 3.3848 58.2524C3.3848 58.2524 3.3848 58.6007 3.82017 58.8619C4.25554 59.1232 4.16847 58.8619 4.25554 58.8619C4.34262 58.8619 4.42969 59.1232 4.69091 59.2973C4.95213 59.4715 4.86506 59.2973 4.86506 59.2973C4.86506 59.2973 4.95213 59.4715 5.03921 59.4715C5.21335 59.6456 5.21335 59.9068 5.21335 59.9068C5.47458 60.081 5.64872 60.168 5.82287 60.3422C5.99702 60.5163 5.90994 60.5163 5.99702 60.5163C6.08409 60.5163 6.08409 60.6905 6.17117 60.6905C6.25824 60.6905 6.60654 60.6905 6.78068 60.8646C6.95483 61.0388 6.86776 61.0388 6.95483 61.0388C7.65142 61.4741 8.43509 62.3449 9.13168 62.6932C9.82827 63.0415 10.3507 63.0415 10.9602 63.3027L9.91534 61.1259C9.0446 60.2551 8.78338 59.8197 7.65142 59.2973C7.47727 58.4266 7.21605 58.7749 6.60654 58.6878C5.99702 58.6007 5.99702 58.6878 5.99702 58.6878C5.82287 58.6007 6.34531 58.4266 5.56165 58.2524C4.77798 58.0783 5.12628 58.2524 4.95213 58.2524C4.77798 58.2524 4.86506 58.0783 4.77798 58.0783C4.60384 58.0783 4.51676 57.9041 4.34262 57.9041L4.51676 58.0783ZM10.4378 57.6429C11.1344 58.6007 11.0473 58.3395 11.6568 58.949C12.2663 59.5585 13.3983 61.3871 13.4854 61.3871C14.0949 61.5612 14.0949 60.168 13.9207 59.7327C13.7466 59.2973 12.3534 58.1653 12.1793 58.0783C12.0051 57.9912 11.3085 57.6429 11.0473 57.6429C10.7861 57.6429 10.4378 56.8592 10.3507 56.7722C9.0446 56.3368 10.3507 57.5558 10.4378 57.6429ZM41.0878 57.2946C40.9136 57.1205 39.9558 57.6429 39.8688 57.9041C39.6075 58.7749 39.4334 62.2578 39.4334 63.3027C39.4334 64.3476 39.7817 65.5666 39.8688 66.6986H40.4783C40.217 65.8278 41.0878 65.0442 41.1749 64.2605C41.2619 63.4769 41.2619 58.949 41.1749 58.1653C41.0878 57.3817 41.1749 57.5558 41.1749 57.2075L41.0878 57.2946ZM45.5286 70.6169C45.5286 69.9203 46.051 69.3108 46.1381 68.7884C46.3122 67.7435 46.3122 65.9149 46.3993 64.87C46.3993 62.3449 46.7476 58.6878 44.3095 57.2075C43.7871 58.7749 44.0483 60.168 44.0483 61.7354C44.0483 64.6088 44.3966 67.6564 44.1354 70.4428C43.8742 73.2291 43.5259 72.7067 43.7871 73.3162C44.2224 74.4482 44.4837 72.5325 44.4837 72.5325C44.4837 72.5325 44.7449 72.2713 44.919 71.923C45.5286 71.923 45.2673 71.6618 45.3544 71.3135C45.4415 70.9652 45.3544 71.1393 45.3544 71.1393C46.1381 71.1393 45.5286 70.7911 45.5286 70.704V70.6169ZM21.0608 59.3844C20.7996 59.2102 20.6254 59.3844 20.6254 59.7327C20.6254 60.081 21.1479 61.5612 21.2349 61.7354C21.7574 62.9544 24.1955 64.4347 23.0635 61.9966C21.9315 59.5585 21.9315 60.3422 21.2349 59.9068C20.5384 59.4715 21.0608 59.5585 21.0608 59.4715V59.3844ZM21.4962 70.1815C21.4962 70.0074 21.6703 69.7462 21.5832 69.572C21.322 68.8754 20.103 65.7408 19.7547 65.3925C19.4064 65.0442 17.4908 63.3898 17.0554 63.8251C17.0554 64.9571 17.5778 65.9149 17.8391 66.8727C18.884 70.3557 19.1452 70.0074 21.2349 72.7067C23.3247 75.406 21.4091 73.4033 21.4962 73.4033C21.5832 73.4033 21.8445 73.3162 22.0186 73.3162C22.454 73.4033 22.8023 74.0128 22.9764 73.142C22.454 72.3584 22.2798 71.3135 21.9315 70.4428C21.5832 69.572 21.5832 70.2686 21.5832 70.2686L21.4962 70.1815ZM23.673 66.0891C23.4118 65.9149 23.1506 65.7408 23.1506 65.3925C22.1928 65.8278 23.2376 66.9598 23.4989 67.6564C23.7601 68.353 23.8472 68.8754 24.0213 69.6591C24.1955 70.4428 24.892 70.704 25.0662 71.6618C25.2403 72.6196 24.892 72.3584 24.892 72.3584C24.892 72.3584 25.6757 72.4455 26.024 72.7938C26.3723 73.142 26.1982 73.4033 26.5465 73.6645C26.8947 73.9257 27.9396 74.1869 28.1138 74.0999C27.9396 73.3162 28.375 72.5325 28.375 71.7489C28.2009 68.353 26.024 68.0918 23.8472 66.2632L23.673 66.0891ZM33.1641 67.4822C32.8158 67.134 32.4675 68.1788 32.4675 68.353C32.2933 69.1367 32.0321 70.7911 31.945 71.5747C31.858 72.3584 31.858 75.5801 32.1192 75.9284C32.3804 76.2767 33.2511 76.5379 33.4253 76.4509C33.7736 76.4509 33.8607 74.4482 33.9477 74.0999C34.0348 73.7516 34.3831 73.9257 34.3831 73.9257C34.4702 73.8386 33.9477 73.5774 33.9477 73.2291C33.9477 72.8808 34.4702 73.2291 34.296 72.0101C34.1219 70.7911 33.7736 69.9203 33.3382 68.7884C32.9028 67.6564 33.077 67.5693 33.077 67.4822H33.1641ZM11.2215 67.7435C11.2215 67.7435 11.0473 67.7435 10.9602 67.7435L9.82827 68.8754C9.91534 69.2237 11.4827 70.9652 11.918 71.2264C13.3112 72.1842 14.9656 73.142 16.533 73.7516C18.1003 74.3611 17.4037 74.7094 17.9261 73.8386C18.4486 72.9679 17.5778 72.3584 17.4908 72.2713C17.4037 72.0972 14.5303 69.7462 14.182 69.572C13.5724 69.1367 12.3534 68.8754 11.5697 68.353C10.7861 67.8305 11.2215 67.7435 11.2215 67.7435ZM38.2144 68.9625C37.779 68.7884 37.6048 69.3108 37.5178 69.572C36.9953 70.8781 36.647 72.7067 36.7341 74.0128C36.8212 75.3189 36.9082 76.1896 38.0402 75.493C39.1722 74.7965 38.8239 74.274 38.8239 74.1869C38.998 73.4033 38.8239 70.704 38.6497 69.9203C38.4756 69.1367 38.2144 69.3108 38.3014 68.8754L38.2144 68.9625ZM7.91264 77.9311C7.91264 77.9311 7.12898 77.1474 6.60654 76.7991C5.90995 76.2767 5.7358 75.5801 4.51676 75.8413C4.34262 76.625 4.95213 76.4509 5.30043 76.8862C5.64872 77.3216 6.34531 78.7148 6.95483 78.8019C7.56435 78.8889 7.65142 78.5406 7.7385 78.6277C7.82557 78.7148 7.7385 79.0631 7.91264 79.3243C8.08679 79.5855 10.699 82.1107 10.8732 82.1977C11.0473 82.2848 12.7017 82.6331 12.7017 82.546C12.6146 81.8494 12.9629 80.2821 12.5276 79.6726C12.0922 79.0631 11.6568 79.2372 11.3085 79.0631C10.5249 78.5406 9.82827 78.2794 9.30583 77.9311C8.78338 77.5828 8.26094 78.0182 7.99972 77.9311H7.91264ZM24.0213 81.5011C24.1955 79.7597 23.2376 77.844 21.322 77.757C21.322 79.6726 21.9315 81.327 24.0213 81.5011ZM31.2484 77.757C30.9001 77.5828 29.8553 78.0182 29.594 78.2794C29.2457 78.6277 28.8974 80.8045 28.9845 81.4141C28.9845 82.2848 29.3328 83.1555 29.4199 84.0263C29.6811 84.2004 31.1614 83.5909 31.3355 83.3297C31.5097 83.0685 31.858 81.9365 31.858 81.7624C32.0321 80.8916 31.7709 79.9338 32.1192 79.1501C32.4675 78.3665 32.8158 78.976 32.5546 78.1923C32.2063 78.1923 32.3804 78.4536 32.2933 78.5406C31.858 78.976 31.3355 77.844 31.2484 77.757ZM15.9234 82.6331C15.4881 82.459 15.0527 82.1107 14.5303 82.1107C14.3561 82.2848 14.7044 84.2004 14.9656 84.5487C15.3139 85.0712 17.9261 85.6807 18.3615 85.4195C18.7969 85.1582 18.2744 83.7651 18.1003 83.5038C17.9261 83.2426 17.0554 82.9814 16.8813 82.8943C16.4459 82.7202 16.62 82.9814 15.9234 82.7202V82.6331ZM40.4783 83.8521C40.4783 83.8521 39.2592 82.8073 39.0851 82.546C38.9109 83.3297 39.0851 83.9392 38.6497 84.7229C38.2144 88.8153 38.9109 93.9527 39.5205 98.1322C40.13 102.312 39.9558 100.135 40.4783 99.1771C40.4783 97.784 41.0007 95.9554 41.0878 94.5622C41.1749 93.169 40.8266 93.7786 40.8266 93.3432C40.8266 91.3405 41.0007 89.3378 40.8266 87.5092C40.6524 85.6807 40.8266 84.2875 40.4783 83.8521ZM23.4989 84.1134C23.0635 83.7651 22.1057 83.678 21.6703 82.9814C22.0186 84.5487 22.8023 87.9446 23.9342 88.9895C25.0662 90.0344 26.1111 90.2956 26.024 89.1636C25.9369 88.0317 25.4145 87.3351 25.3274 87.1609C25.0662 86.6385 23.7601 84.3746 23.4118 84.1134H23.4989ZM34.6443 87.4222C34.6443 87.4222 33.5994 86.7256 33.5124 86.8126C33.3382 86.8126 32.6416 87.5963 32.5546 87.7705C32.2933 88.6412 33.077 91.2534 33.1641 92.2112L33.8607 90.731C33.8607 90.1215 34.7314 87.6834 34.5572 87.4222H34.6443ZM5.21335 89.4249C5.03921 89.1636 4.25554 89.4249 3.99432 89.5119C3.7331 89.599 2.60114 90.9051 2.51406 90.9922C2.25284 91.4276 1.55625 94.1269 1.55625 94.7364C1.55625 95.3459 1.55625 96.1296 1.55625 96.9132L2.86236 95.6942C3.21065 94.8234 5.56165 89.8602 5.30043 89.4249H5.21335ZM28.9845 89.4249C28.9845 90.6439 28.9845 91.8629 28.7233 93.082C28.4621 94.9105 27.6784 96.2166 27.5913 98.1322C27.4172 102.834 28.0267 107.623 27.9396 112.325C27.8526 117.027 27.3301 114.589 28.0267 114.676C28.7233 114.763 28.4621 114.415 28.5492 114.154C29.594 112.412 31.7709 105.969 31.5967 103.966C31.2484 100.919 30.1165 103.618 29.2457 101.702C29.3328 100.396 29.2457 99.0901 29.4199 97.784C29.6811 95.6942 30.5519 93.082 30.2036 90.9051C29.8553 88.7283 29.594 89.2507 28.9845 89.3378V89.4249ZM13.9207 92.1242C13.6595 92.1242 13.2241 92.1242 13.1371 92.1242C13.05 92.1242 12.4405 93.7786 12.3534 93.9527C12.0922 94.8234 13.1371 94.8234 13.5724 93.9527C14.0078 93.082 13.7466 92.7337 13.9207 92.1242ZM20.6254 92.8207C20.6254 92.8207 19.0581 93.2561 18.971 93.3432C18.7969 93.5173 17.4037 97.0874 17.3166 97.5227C17.2295 98.3064 17.3166 98.9159 17.8391 99.5254C18.7098 99.6996 19.2322 98.0452 19.4935 97.4357C20.1901 95.8683 20.2771 94.4751 20.6254 92.8207ZM35.8634 94.0398C35.1668 93.3432 34.3831 96.2166 34.3831 96.652C34.209 97.5227 34.4702 98.6547 34.3831 99.6125C34.296 100.57 33.9477 102.138 34.0348 103.008C34.1219 103.879 33.8607 103.705 34.296 103.879C34.7314 104.053 35.0797 102.399 35.1668 102.225C36.3858 99.5254 36.3858 96.9132 35.8634 94.0398ZM6.86776 95.0847C5.64872 95.0847 5.90995 96.4778 5.64872 97.3486C5.3875 98.2193 4.95213 98.9159 5.03921 99.6125C5.12628 100.309 5.3875 100.048 5.47458 100.222C5.56165 100.396 4.42969 100.744 5.3875 100.919C6.34531 101.093 6.69361 98.9159 6.78068 98.3064C6.95483 97.2615 6.95483 96.1295 6.95483 95.0847H6.86776ZM24.1084 98.3064C23.0635 97.0874 21.9315 99.003 21.4962 99.8737C21.0608 100.744 20.5384 103.008 20.4513 103.792C20.3642 104.576 20.9737 105.011 21.0608 105.534C21.4962 105.359 21.7574 105.359 22.1928 105.098C22.6281 104.837 24.2825 101.528 24.3696 100.832C24.4567 100.135 24.4567 98.7418 24.1084 98.3064ZM38.2144 99.0901C37.8661 98.7418 37.8661 99.0901 37.779 99.4384C37.5178 100.309 36.5599 102.312 37.8661 102.486C39.1722 102.66 38.3885 101.528 38.3885 101.267C38.3885 101.006 38.3885 99.2642 38.2144 99.0901ZM2.86236 104.314C2.33992 103.792 1.46918 105.185 1.3821 105.708C1.20796 106.665 2.16577 108.407 1.81747 109.539C2.51406 109.278 3.03651 108.407 3.21065 107.797C3.3848 107.188 3.03651 104.489 2.86236 104.314ZM18.1003 109.104C17.752 109.104 17.6649 109.191 17.4908 109.452C16.7942 110.236 15.1398 115.721 15.0527 116.853C14.9656 117.985 15.0527 117.55 15.2268 117.898L17.3166 115.895C18.1874 113.806 19.1452 111.367 18.1003 109.191V109.104ZM25.5886 112.325C26.2852 110.845 26.1982 110.584 25.6757 109.104C25.1533 109.8 24.0213 110.41 23.5859 110.932C22.8023 111.89 21.1479 116.244 20.6254 117.55C20.103 118.856 20.1901 119.465 20.1901 120.423C20.6254 120.946 22.7152 118.072 22.9764 117.724C24.0213 116.157 24.7179 114.067 25.5016 112.412L25.5886 112.325ZM12.5276 111.193C12.0922 111.193 11.831 111.629 11.6568 111.89C11.2215 112.674 10.0895 115.721 10.1766 116.505C10.2636 117.289 10.1766 117.114 10.5249 117.201C11.2215 117.463 10.9602 116.766 11.1344 116.418C11.5697 115.547 11.4827 115.373 11.7439 114.502C12.0051 113.631 12.6146 112.325 12.4405 111.193H12.5276ZM38.2144 111.193C37.9531 111.106 37.3436 111.803 37.2565 111.977C36.3858 113.718 35.8634 115.46 35.2538 117.288C34.6443 119.117 34.6443 117.985 35.6021 118.333C36.5599 118.682 35.7763 117.811 35.9504 117.637C36.5599 116.766 37.0824 115.808 37.4307 114.763C37.779 113.718 38.3014 112.499 38.2144 111.193ZM7.30313 113.718C5.99702 113.893 6.34531 114.589 5.99702 115.199C5.64872 115.808 5.64872 115.373 5.56165 115.46C5.3875 116.069 5.82287 116.679 5.82287 117.027C5.82287 117.376 5.3875 117.114 5.3875 117.288C5.3875 117.985 5.64872 118.769 5.3875 119.465C5.7358 119.465 5.82287 119.378 5.99702 119.117C6.86776 118.072 6.86776 117.463 7.30313 116.244C7.7385 115.025 7.65142 116.069 7.65142 115.982C7.65142 115.634 7.3902 113.718 7.21605 113.631L7.30313 113.718ZM27.7655 121.207C27.7655 121.468 27.7655 121.381 27.7655 121.381C27.7655 121.555 27.6784 121.816 27.5913 121.99C27.5043 122.165 27.4172 121.99 27.4172 122.165C27.4172 122.339 27.4172 122.339 27.4172 122.339C27.4172 122.339 27.156 122.339 26.9818 122.948C26.8077 123.558 26.9818 123.122 26.9818 123.122C26.2852 122.948 26.6335 123.471 26.5465 123.993C26.4594 124.516 26.5465 124.167 26.5465 124.167C26.5465 124.167 25.9369 123.993 26.1111 124.777C26.6335 124.777 27.0689 124.951 26.9818 124.341H27.156C27.3301 124.341 27.3301 124.167 27.3301 124.167C27.4172 124.167 27.6784 123.993 27.7655 123.993C27.8526 123.993 27.9396 123.819 27.9396 123.819C27.9396 123.819 28.0267 123.384 28.1138 123.297C28.7233 122.687 29.9423 122.252 30.2906 121.294C30.6389 120.336 31.6838 115.46 31.4226 115.286C30.6389 115.286 30.3777 116.331 29.9423 116.853C28.4621 118.682 28.4621 118.943 27.6784 121.12L27.7655 121.207ZM24.0213 123.732C24.0213 123.732 23.4118 123.732 23.1506 123.906C22.8023 124.167 22.454 125.909 22.3669 126.518C22.8023 127.041 24.1955 123.993 24.0213 123.819V123.732ZM14.3561 124.341L13.2241 125.822C12.9629 126.257 13.3983 126.867 12.5276 126.605C12.8759 127.476 12.7017 127.215 12.5276 127.476C11.918 128.173 13.9207 127.912 14.0078 127.824C14.4432 127.389 14.3561 125.909 14.4432 125.473C14.5303 125.038 15.2268 125.473 14.4432 124.254L14.3561 124.341ZM7.65142 125.386C7.56435 125.386 7.12898 125.386 7.04191 125.473C6.95483 125.561 6.43239 127.302 6.34531 127.65C6.25824 127.999 5.99702 129.653 5.99702 130.001C5.99702 130.35 6.17117 130.872 6.25824 131.307C8.17387 130.611 8.26094 129.305 8.17387 127.476C8.08679 125.648 7.82557 125.386 7.7385 125.299L7.65142 125.386ZM3.90725 126.431C3.82017 126.431 3.3848 126.431 3.29773 126.518C2.94943 126.954 2.51406 127.999 2.25284 128.521C1.99162 129.043 1.81747 129.566 1.3821 129.74L0.685513 133.049C1.29503 133.136 1.20796 132.526 1.64333 132.178C2.07869 131.83 3.82017 131.307 4.08139 130.698C4.34262 130.088 4.25554 126.605 4.08139 126.344L3.90725 126.431ZM25.6757 128.695C24.6308 128.521 24.2825 129.218 23.673 129.74C23.0635 130.263 23.1506 129.914 22.9764 130.088C22.8023 130.263 21.7574 131.482 21.9315 131.656C22.2798 132.004 22.9764 130.872 23.4118 130.698C24.3696 130.35 23.9342 130.35 24.4567 130.088C24.9791 129.827 25.7628 130.088 25.6757 128.695ZM14.9656 130.001C14.7915 130.001 13.5724 130.001 13.5724 130.001C13.3983 130.175 13.1371 132.004 13.5724 132.265C14.182 132.265 15.1398 131.743 15.3139 131.22C15.4881 130.698 15.0527 130.088 14.9656 130.001ZM11.0473 136.706C9.21875 136.793 10.5249 138.796 10.1766 140.015C11.3956 139.144 11.1344 138.012 11.0473 136.706Z" fill="#FBD209"/>
<path d="M42.1325 53.115C42.4808 53.028 42.3937 52.7668 43.0903 53.115C43.7869 53.4633 44.1352 53.8116 44.1352 53.8116C44.2223 53.9858 44.1352 54.1599 44.1352 54.1599C44.5706 54.247 44.7447 54.1599 44.7447 54.7695C44.6576 54.7695 44.3964 54.7695 44.2223 54.5953C44.0481 54.4212 44.2223 54.247 44.1352 54.1599C43.961 54.1599 43.6127 54.247 43.5257 54.1599C43.4386 54.0729 43.5257 53.7246 43.3515 53.5504C43.1774 53.3763 42.3066 53.3763 42.0454 53.115H42.1325Z" fill="#FD937D"/>
<path d="M44.919 71.923C44.7448 72.1842 44.5707 72.4455 44.4836 72.5325C44.3965 72.6196 44.2224 74.5352 43.787 73.3162C43.3516 72.0972 44.0482 71.2264 44.1353 70.4428C44.3965 67.6564 44.0482 64.6088 44.0482 61.7354C44.0482 58.8619 43.787 58.7749 44.3095 57.2075C46.7475 58.6007 46.4863 62.3449 46.3992 64.87C46.3122 67.3952 46.3992 67.7435 46.138 68.7884C45.8768 69.8332 45.5285 69.9203 45.5285 70.6169C45.3543 70.6169 45.3544 70.8781 45.3544 71.0523C45.3544 71.2264 45.3544 71.2264 45.3544 71.2264C44.919 71.2264 45.0061 71.6618 44.919 71.8359V71.923Z" fill="#FDF8EE"/>
<path d="M45.2669 71.2264C45.2669 71.5747 45.4411 71.923 44.8315 71.8359C44.9186 71.6618 44.8315 71.3135 45.2669 71.2264Z" fill="#FD937D"/>
<path d="M45.5286 70.6169C45.5286 70.704 46.1382 71.1394 45.3545 71.0523C45.3545 70.8781 45.3545 70.704 45.5286 70.6169Z" fill="#FD937D"/>
</svg>
