<svg width="62" height="190" viewBox="0 0 62 190" fill="none" xmlns="http://www.w3.org/2000/svg">
<path d="M54.7928 0C53.4862 1.63332 51.9618 3.48441 51.0907 5.33551C50.2195 7.1866 50.4373 7.73104 49.784 8.92881C49.1307 10.1266 48.3685 11.4332 47.6062 13.0665C46.844 14.6999 46.0818 16.3332 45.864 16.4421C45.5374 16.6598 44.5574 16.1154 44.0129 16.2243C42.8152 16.3332 37.4797 18.7287 36.4997 19.4909C30.6197 24.282 25.1753 34.7352 23.1065 42.1396C21.0376 49.544 22.562 46.8218 21.9087 48.7818C20.7109 52.484 16.8999 54.2262 15.9199 57.4928C14.9399 60.7594 15.9199 58.3639 15.811 58.7995C15.811 60.3239 15.0488 60.5417 14.6132 61.6305C14.1777 62.7194 13.9599 66.3127 13.7421 66.6394C13.0888 66.7483 12.9799 65.9861 12.5443 65.8772C11.6732 65.6594 10.5844 67.0749 10.6932 65.8772C10.3666 65.9861 9.93103 65.9861 9.60437 66.0949C9.27771 66.2038 9.60437 66.5305 9.05993 66.3127C8.51549 66.0949 8.84215 66.3127 8.84215 66.3127C8.4066 66.6394 7.5355 66.5305 7.20884 66.8572C6.88217 67.1838 7.20883 67.5105 6.99106 67.6194C6.77328 67.7283 6.44662 67.6194 6.22885 67.6194C6.22885 67.6194 6.22884 67.946 6.11996 68.1638C5.90218 68.4905 5.57552 68.3816 5.46663 68.3816C4.48664 68.926 3.72442 69.4705 3.0711 70.5593C1.11112 73.6082 0.240013 81.4481 0.0222371 85.2592C-0.195539 89.0703 1.22 91.9014 2.85332 95.2769L8.4066 101.592C8.07994 104.423 6.88217 107.255 6.6644 110.195C6.22884 114.659 6.88217 120.43 8.4066 124.677C9.93103 128.923 10.2577 127.943 10.4755 129.577C10.6932 131.21 10.1488 133.932 10.2577 135.783C10.4755 140.901 11.4555 146.89 14.9399 150.919C18.4243 154.947 19.1865 153.967 20.7109 155.601C22.8887 158.105 24.0865 161.154 27.0264 163.658C29.9664 166.163 33.233 166.925 36.8263 168.45C40.4196 169.974 40.5285 173.132 41.9441 174.765C45.5374 178.794 49.4573 181.189 53.8128 184.347C58.1684 187.505 58.495 188.485 61.435 189.683V183.367C60.8906 183.367 60.6728 183.149 60.3461 182.932C58.495 181.734 53.1595 178.467 52.0706 176.725C50.9818 174.983 51.4173 174.547 50.9818 173.676C51.9618 173.241 52.724 174.438 53.5951 174.983C56.2084 176.616 57.9506 178.249 60.1283 180.209C62.3061 182.169 61.2172 180.536 61.435 181.189V155.274C59.6928 155.492 60.455 154.73 60.2372 154.076C60.0195 153.423 59.2572 152.552 59.1484 151.681C59.0395 150.81 59.1484 151.354 58.9306 150.483C58.2773 148.85 57.7328 144.93 57.7328 142.861C57.7328 140.792 57.515 142.099 58.2773 142.208C58.2773 143.405 59.9106 143.841 59.5839 145.039H60.1283C59.6928 145.91 60.5639 146.781 61.435 147.108V100.286C60.3461 100.83 59.3661 101.919 58.7128 102.899C58.1684 103.117 56.535 101.157 56.535 100.939C56.535 99.7413 57.1884 99.8502 57.515 99.3057C58.6039 97.5635 59.475 95.3858 61.435 94.5147V87.7636C60.7817 87.8725 60.2372 88.417 59.6928 88.7436C56.2084 91.1392 53.2684 92.7725 49.2396 94.188C45.2107 95.6036 47.3885 95.3858 47.3885 94.4058C47.3885 93.4258 48.4773 92.8814 48.6951 92.5547C50.0018 91.0303 54.7928 86.8925 56.535 86.2392C58.2773 85.5859 59.5839 85.9125 60.7817 85.5859C61.9794 85.2592 60.9994 84.9325 61.435 85.0414V81.8837C58.6039 81.7748 55.9906 83.517 53.0506 83.2992C53.0506 82.8637 53.2684 82.6459 53.4862 82.4281C55.5551 80.577 56.9706 79.4882 59.5839 78.1815C62.1972 76.8748 60.3461 77.0926 61.3261 77.4193V58.5817C60.3461 59.6706 58.9306 61.0861 58.0595 62.2839C56.8617 64.0261 56.2084 66.6394 54.5751 67.8371C52.9417 69.0349 54.5751 68.1638 54.4662 68.2727C54.3573 68.2727 52.724 67.5105 51.5262 67.7283C50.3284 67.946 51.6351 69.0349 50.8729 68.3816C51.6351 67.5105 51.8529 66.0949 52.3973 65.3327C53.3773 64.135 55.4462 63.155 56.2084 61.5216L61.3261 56.5128V52.5928C60.8906 52.8106 60.2372 52.9195 59.8017 53.2462C58.495 54.2262 57.0795 56.4039 55.8817 57.3839C54.684 58.3639 53.3773 59.1261 53.704 58.0372C54.0306 56.9484 54.1395 58.0372 54.2484 57.7106C54.7928 56.7306 54.9017 56.1861 55.6639 54.9884C56.4262 53.7906 56.2084 53.4639 56.3173 53.3551C57.515 52.3751 59.9106 52.1573 61.3261 51.0684V42.4663C58.8217 43.3374 57.0795 45.8418 55.0106 47.584C52.9417 49.3262 52.6151 49.2173 51.4173 50.1973C50.2195 51.1773 50.6551 51.2862 49.784 51.1773C49.784 49.4351 50.8729 48.0196 51.0907 46.4951L51.8529 46.7129C51.5262 45.4062 52.5062 46.1685 52.8329 45.8418C53.1595 45.5151 52.8329 45.2974 53.1595 44.9707C53.9217 44.0996 56.0995 43.2285 57.1884 42.684C58.2773 42.1396 57.7328 42.5752 58.3861 42.3574C59.0395 42.1396 60.3461 41.5952 61.2172 41.1596V34.8441C60.0195 34.8441 58.7128 35.6063 58.6039 33.973C58.495 32.3397 60.0195 29.2908 61.2172 29.1819V20.2531C60.3461 20.2531 60.9994 21.2331 60.1283 21.6687C59.2572 22.1042 59.3661 21.6687 59.0395 21.9954C58.7128 22.322 58.8217 22.5398 58.6039 22.7576C58.3861 22.9753 55.5551 25.262 55.5551 24.4998C55.9906 23.9553 55.9906 22.7576 56.2084 22.322C56.6439 21.5598 59.0395 17.9665 59.6928 17.2043C60.3461 16.4421 60.7817 16.4421 61.2172 16.0065V2.83108C60.455 2.83108 60.455 3.48441 60.1283 3.81108C59.8017 4.13774 59.5839 3.81108 59.475 3.91996C59.1484 4.13774 59.475 4.89995 59.1484 5.22662C58.0595 6.64216 56.2084 7.83993 55.3373 9.58213L50.3284 14.591C50.3284 13.9376 50.3284 13.3932 50.5462 12.8488C51.5262 9.9088 55.1195 5.00884 57.2973 2.7222C59.475 0.435552 59.2572 1.08888 60.0195 0H54.7928ZM54.9017 16.0065C55.1195 15.7887 55.8817 14.9176 55.9906 14.8088C56.535 14.4821 56.2084 15.6799 56.8617 15.6799C56.6439 16.6598 55.8817 17.3132 55.4462 18.1843C55.0106 19.0554 55.4462 18.8376 55.2284 19.1643C55.0106 19.4909 54.0306 20.362 54.0306 20.4709C54.0306 20.6887 54.3573 21.342 54.2484 21.342C54.1395 21.342 53.704 21.2331 53.4862 21.342C53.2684 21.4509 53.4862 21.8865 53.2684 21.9954C52.5062 22.8665 51.5262 23.6287 51.0907 24.7175L48.6951 26.6775C48.9129 25.9153 48.6951 25.262 48.9129 24.3909C49.1307 23.5198 49.4573 23.9553 49.6751 23.6287C51.1995 20.4709 52.0706 18.5109 54.7928 15.7887L54.9017 16.0065ZM36.8263 24.1731C39.113 22.2131 41.7263 20.2531 44.6663 19.382C44.3396 20.5798 43.6863 22.1042 42.9241 23.0842C41.7263 24.8264 39.6574 25.9153 38.133 27.4397C36.6086 28.9642 38.133 28.6375 36.7175 28.6375C33.8864 31.2508 30.9464 34.1908 28.442 37.3485C27.3531 38.5463 27.6798 36.913 28.0064 36.1508C28.3331 35.3886 30.0753 33.1019 30.2931 32.4486C30.5108 31.7953 30.2931 31.7953 30.1842 31.4686C31.4908 31.7953 30.7286 30.7064 31.0553 30.4886C31.3819 30.2708 31.8175 30.4886 32.4708 29.3997C33.1242 28.3108 33.7775 27.4397 34.5397 26.5686C35.3019 25.6975 36.2819 24.9353 36.8263 24.3909V24.1731ZM42.4885 29.1819C43.2507 28.4197 43.9041 26.5686 45.4285 27.8753C46.9529 29.182 45.2107 29.9442 44.884 30.4886C44.5574 31.033 43.2507 32.4486 42.5974 33.2108C41.2907 34.953 40.5285 35.6063 38.8952 37.0219C37.2619 38.4374 38.2419 38.873 37.2619 38.7641C37.0441 38.5463 37.6974 35.8241 37.9152 35.2797C39.0041 32.4486 40.6374 31.033 42.4885 29.2908V29.1819ZM51.0907 37.6752C51.744 37.0219 51.744 35.2797 51.9618 34.8441C52.1795 34.4086 55.0106 32.1219 55.4462 31.7953C55.8817 31.4686 55.7728 31.2508 56.2084 31.3597C56.4262 31.6864 55.4462 35.2797 55.0106 35.8241C54.5751 36.3686 53.5951 36.2597 52.8329 36.5863C52.0706 36.913 51.1995 37.893 50.9818 37.6752H51.0907ZM46.7351 39.7441C46.7351 39.7441 47.4974 39.7441 47.824 39.6352C48.1507 39.5263 48.1507 38.3285 48.9129 38.2196C49.6751 39.853 48.4773 41.7041 46.844 42.1396C47.1707 41.7041 46.844 39.853 46.844 39.7441H46.7351ZM54.0306 39.5263C54.3573 39.3085 54.7928 39.3085 54.7928 39.853C54.7928 40.3974 53.9217 41.9218 53.9217 42.0307C53.8128 42.2485 52.0706 42.9018 51.9618 42.7929C51.8529 40.6152 52.2884 40.9418 53.5951 40.1796C54.9017 39.4174 53.9217 39.5263 54.0306 39.5263ZM30.6197 43.7729C31.3819 43.3374 32.7975 43.0107 32.5797 44.3174C32.3619 45.624 31.5997 46.7129 31.1642 47.584C30.0753 50.4151 28.8775 53.3551 28.0064 56.1861C27.1353 59.0172 27.6798 58.6906 27.2442 59.6706C26.8087 60.6505 23.8687 63.8083 24.0865 61.7394C24.3042 59.6706 24.6309 59.6706 24.8487 58.9083C25.502 56.4039 27.1353 52.8106 27.1353 50.3062C27.1353 47.8018 28.1153 49.3262 28.2242 48.8907C28.3331 48.4551 28.0064 48.2373 28.1153 48.0196C28.2242 47.8018 28.6598 47.8018 28.8775 47.4751C29.0953 47.1484 28.8775 46.4951 29.0953 45.8418C29.3131 45.1885 30.2931 43.9907 30.6197 43.7729ZM37.9152 43.9907C38.133 43.8818 38.5685 43.7729 38.8952 43.664C39.2219 44.644 38.5685 45.1885 38.3508 45.9507C37.5886 48.9995 36.9352 51.2862 35.9552 54.1173C34.9752 56.9484 35.9552 56.295 35.4108 56.7306C34.8664 57.1661 34.8664 56.6217 34.6486 56.7306C34.4308 56.8395 34.6486 57.0572 34.213 57.1661C33.5597 57.3839 32.9064 57.7106 32.253 57.6017C31.4908 55.4239 33.233 53.4639 33.5597 51.504C33.8864 49.544 32.9064 51.504 33.0153 50.9595C33.233 50.524 34.1041 50.0884 34.213 49.7618C34.6486 48.6729 33.9953 49.4351 35.0841 48.0196C36.173 46.604 36.6086 45.0796 37.8063 44.0996L37.9152 43.9907ZM39.9841 48.8907C41.073 48.9995 42.1618 48.564 43.3596 48.564C43.6863 48.8907 42.053 52.5928 41.8352 53.0284C41.6174 53.4639 41.2907 53.2462 41.1819 53.4639C40.6374 54.4439 40.3108 55.5328 39.5485 56.5128C38.7863 57.4928 39.5485 56.9484 39.0041 56.8395C38.5685 55.8595 39.7663 48.9995 40.093 48.7818L39.9841 48.8907ZM44.1218 53.1373C44.2307 53.1373 46.0818 53.2462 46.1907 53.3551C46.2996 53.4639 46.2996 55.0973 46.2996 55.4239C44.7752 57.3839 42.9241 60.9772 40.8552 62.2839C38.7863 63.5905 39.9841 62.2839 39.4396 62.2839C40.2019 60.215 40.9641 57.9284 42.053 55.9684C43.1418 54.0084 43.0329 54.5528 43.7952 53.8995C44.5574 53.2462 44.1218 53.2462 44.2307 53.1373H44.1218ZM20.0576 56.9484C20.8198 56.5128 20.602 58.9083 20.602 59.4528C20.1665 62.3928 19.6221 67.4016 18.3154 70.0149C17.8798 70.2327 17.5532 72.0838 17.0087 71.866C16.4643 71.6482 16.4643 71.3216 16.3554 70.9949C16.2465 70.2327 16.2465 67.1838 16.3554 66.3127C16.6821 64.2438 17.8798 60.5417 18.8598 58.9083C19.8398 57.275 19.2954 58.6906 19.4043 58.5817C19.5132 58.4728 19.7309 57.275 19.9487 57.0572L20.0576 56.9484ZM46.5174 60.6505C46.7351 60.4328 47.3885 60.3239 47.824 59.9972C48.5862 59.4528 50.8729 56.9484 50.2195 59.5617C49.5662 62.175 45.5374 65.9861 43.5774 67.0749C41.6174 68.1638 42.053 67.5105 42.4885 66.4216C42.9241 65.3327 44.0129 63.6994 44.2307 63.3727C44.4485 63.0461 44.884 63.2639 44.9929 63.0461C45.3196 62.5016 46.0818 60.9772 46.4085 60.6505H46.5174ZM32.7975 62.3928C33.1242 62.0661 33.233 61.195 34.213 61.4128C35.193 65.2238 32.9064 65.8772 30.2931 67.6194C27.6798 69.3616 29.7486 68.7083 28.9864 68.4905C28.5509 67.4016 29.5309 66.8572 29.5309 66.7483C29.5309 66.3127 29.5309 65.8772 29.5309 65.4416C29.8575 64.5705 32.0353 62.9372 32.7975 62.3928ZM23.3242 67.8371C23.9776 67.0749 24.7398 66.4216 25.3931 65.5505C26.0464 65.4416 25.8287 66.0949 25.7198 66.4216C24.8487 69.7971 23.4331 72.9549 22.1265 76.1126H21.0376C21.1465 73.0638 21.0376 70.3416 23.3242 67.8371ZM35.8463 67.5105C36.2819 67.2927 37.2619 67.4016 36.8263 67.946C36.3908 68.4905 36.3908 67.946 36.2819 68.1638C35.4108 69.5794 34.3219 71.6482 33.233 72.9549C32.1442 74.2615 30.6197 75.1326 29.7486 76.5482H28.9864C29.422 75.8949 29.3131 75.0237 29.5309 74.4793C29.7486 73.9349 30.0753 74.2615 30.0753 74.1526C30.0753 73.826 29.6397 73.1727 29.8575 73.0638C30.0753 72.9549 30.9464 72.6282 31.0553 72.4104C31.2731 72.0838 31.0553 71.6482 31.1642 71.2127C31.2731 70.7771 32.4708 70.2327 32.6886 70.0149C33.0153 69.6882 33.1242 69.0349 33.4508 68.7082C33.7775 68.3816 35.4108 67.8371 35.8463 67.6194V67.5105ZM55.8817 72.6282C56.0995 72.1927 56.3173 71.9749 56.7528 71.7571C57.4061 71.4304 60.0195 70.0149 60.455 70.0149C60.8906 70.0149 60.9994 70.3416 60.8906 70.5593C60.7817 70.7771 60.455 70.5593 60.2372 70.7771C59.9106 71.2127 59.6928 71.5393 59.2572 71.9749C58.8217 72.4104 58.3861 72.4104 57.9506 72.6282C57.515 72.846 57.7328 72.6282 57.7328 72.6282C57.7328 72.6282 57.6239 72.846 57.515 72.846C57.4061 72.846 57.2973 72.846 57.2973 72.846C57.2973 72.846 57.2973 73.2815 56.7528 73.6082C56.2084 73.9349 56.3173 73.6082 56.2084 73.6082C56.0995 73.6082 55.9906 73.9349 55.6639 74.1526C55.3373 74.3704 55.4462 74.1526 55.4462 74.1526C55.4462 74.1526 55.3373 74.3704 55.2284 74.3704C55.0106 74.5882 55.0106 74.9149 55.0106 74.9149C54.684 75.1326 54.4662 75.2415 54.2484 75.4593C54.0306 75.6771 54.1395 75.6771 54.0306 75.6771C53.9217 75.6771 53.9217 75.8948 53.8128 75.8948C53.704 75.8948 53.2684 75.8949 53.0506 76.1126C52.8329 76.3304 52.9417 76.3304 52.8329 76.3304C51.9618 76.8748 50.9818 77.9637 50.1107 78.3993C49.2396 78.8348 48.5862 78.8348 47.824 79.1615L49.1307 76.4393C50.2195 75.3504 50.5462 74.806 51.9618 74.1526C52.1795 73.0638 52.5062 73.4993 53.2684 73.3904C54.0306 73.2815 54.0306 73.3904 54.0306 73.3904C54.2484 73.2815 53.5951 73.0638 54.5751 72.846C55.5551 72.6282 55.1195 72.846 55.3373 72.846C55.5551 72.846 55.4462 72.6282 55.5551 72.6282C55.7728 72.6282 55.8817 72.4104 56.0995 72.4104L55.8817 72.6282ZM48.4773 72.0838C47.6062 73.2815 47.7151 72.9549 46.9529 73.7171C46.1907 74.4793 44.7752 76.766 44.6663 76.766C43.9041 76.9837 43.9041 75.2415 44.1218 74.6971C44.3396 74.1526 46.0818 72.7371 46.2996 72.6282C46.5174 72.5193 47.3885 72.0838 47.7151 72.0838C48.0418 72.0838 48.4773 71.1038 48.5862 70.9949C50.2195 70.4505 48.5862 71.9749 48.4773 72.0838ZM10.1488 71.6482C10.3666 71.4304 11.5644 72.0838 11.6732 72.4104C11.9999 73.4993 12.2177 77.8548 12.2177 79.1615C12.2177 80.4681 11.7821 81.9926 11.6732 83.4081H10.911C11.2377 82.3192 10.1488 81.3392 10.0399 80.3593C9.93103 79.3793 9.93103 73.7171 10.0399 72.7371C10.1488 71.7571 10.0399 71.9749 10.0399 71.5393L10.1488 71.6482ZM4.59553 88.3081C4.59553 87.437 3.9422 86.6747 3.83331 86.0214C3.61554 84.7148 3.61554 82.4281 3.50665 81.1215C3.50665 77.9637 3.0711 73.3904 6.11996 71.5393C6.77328 73.4993 6.44662 75.2415 6.44662 77.2015C6.44662 80.7948 6.01107 84.6059 6.33773 88.0903C6.6644 91.5747 7.09995 90.9214 6.77329 91.6836C6.22885 93.0991 5.90218 90.7036 5.90218 90.7036C5.90218 90.7036 5.57552 90.3769 5.35774 89.9414C4.59553 89.9414 4.92219 89.6147 4.8133 89.1792C4.70441 88.7436 4.8133 88.9614 4.8133 88.9614C3.83331 88.9614 4.59553 88.5258 4.59553 88.417V88.3081ZM35.193 74.2615C35.5197 74.0438 35.7375 74.2615 35.7375 74.6971C35.7375 75.1326 35.0841 76.9837 34.9752 77.2015C34.3219 78.7259 31.2731 80.577 32.6886 77.5282C34.1041 74.4793 34.1041 75.4593 34.9752 74.9149C35.8463 74.3704 35.193 74.4793 35.193 74.3704V74.2615ZM34.6486 87.7636C34.6486 87.5458 34.4308 87.2192 34.5397 87.0014C34.8664 86.1303 36.3908 82.2103 36.8263 81.7748C37.2619 81.3392 39.6574 79.2704 40.2019 79.8148C40.2019 81.2304 39.5485 82.4281 39.2219 83.6259C37.9152 87.9814 37.5886 87.5459 34.9752 90.9214C32.3619 94.2969 34.7575 91.7925 34.6486 91.7925C34.5397 91.7925 34.213 91.6836 33.9953 91.6836C33.4508 91.7925 33.0153 92.5547 32.7975 91.4658C33.4508 90.4858 33.6686 89.1792 34.1041 88.0903C34.5397 87.0014 34.5397 87.8725 34.5397 87.8725L34.6486 87.7636ZM31.9264 82.6459C32.253 82.4281 32.5797 82.2103 32.5797 81.7748C33.7775 82.3192 32.4708 83.7348 32.1442 84.6059C31.8175 85.477 31.7086 86.1303 31.4908 87.1103C31.2731 88.0903 30.402 88.417 30.1842 89.6147C29.9664 90.8125 30.402 90.4858 30.402 90.4858C30.402 90.4858 29.422 90.5947 28.9864 91.0303C28.5509 91.4658 28.7686 91.7925 28.3331 92.1191C27.8975 92.4458 26.5909 92.7725 26.3731 92.6636C26.5909 91.6836 26.0464 90.7036 26.0464 89.7236C26.2642 85.477 28.9864 85.1503 31.7086 82.8637L31.9264 82.6459ZM20.0576 84.3881C20.4932 83.9526 20.9287 85.2592 20.9287 85.477C21.1465 86.457 21.4731 88.5258 21.582 89.5058C21.6909 90.4858 21.6909 94.5147 21.3643 94.9502C21.0376 95.3858 19.9487 95.7124 19.7309 95.6036C19.2954 95.6036 19.1865 93.0991 19.0776 92.6636C18.9687 92.228 18.5332 92.4458 18.5332 92.4458C18.4243 92.3369 19.0776 92.0103 19.0776 91.5747C19.0776 91.1391 18.4243 91.5747 18.6421 90.0503C18.8598 88.5258 19.2954 87.437 19.8398 86.0214C20.3843 84.6059 20.1665 84.497 20.1665 84.3881H20.0576ZM47.4974 84.7148C47.4974 84.7148 47.7151 84.7148 47.824 84.7148L49.2396 86.1303C49.1307 86.5659 47.1707 88.7436 46.6262 89.0703C44.884 90.2681 42.8152 91.4658 40.8552 92.228C38.8952 92.9902 39.7663 93.4258 39.113 92.3369C38.4597 91.248 39.5485 90.4858 39.6574 90.3769C39.7663 90.1592 43.3596 87.2192 43.7952 87.0014C44.5574 86.457 46.0818 86.1303 47.0618 85.477C48.0418 84.8237 47.4974 84.7148 47.4974 84.7148ZM13.7421 86.2392C14.2865 86.0214 14.5043 86.6748 14.6132 87.0014C15.2665 88.6347 15.7021 90.9214 15.5932 92.5547C15.4843 94.188 15.3754 95.2769 13.9599 94.4058C12.5443 93.5347 12.9799 92.8814 12.9799 92.7725C12.7621 91.7925 12.9799 88.417 13.1977 87.437C13.4154 86.457 13.7421 86.6747 13.6332 86.1303L13.7421 86.2392ZM51.6351 97.4546C51.6351 97.4546 52.6151 96.4747 53.2684 96.0391C54.1395 95.3858 54.3573 94.5147 55.8817 94.8413C56.0995 95.8213 55.3373 95.6036 54.9017 96.148C54.4662 96.6924 53.5951 98.4346 52.8329 98.5435C52.0706 98.6524 51.9618 98.2169 51.8529 98.3258C51.744 98.4346 51.8529 98.8702 51.6351 99.1969C51.4173 99.5235 48.1507 102.681 47.9329 102.79C47.7151 102.899 45.6463 103.335 45.6463 103.226C45.7551 102.355 45.3196 100.395 45.864 99.6324C46.4085 98.8702 46.9529 99.088 47.3885 98.8702C48.3685 98.2169 49.2396 97.8902 49.8929 97.4546C50.5462 97.0191 51.1995 97.5635 51.5262 97.4546H51.6351ZM31.4908 101.919C31.2731 99.7413 32.4708 97.3458 34.8664 97.2369C34.8664 99.6324 34.1041 101.701 31.4908 101.919ZM22.4531 97.2369C22.8887 97.0191 24.1953 97.5635 24.522 97.8902C24.9576 98.3258 25.3931 101.048 25.2842 101.81C25.2842 102.899 24.8487 103.988 24.7398 105.077C24.4131 105.295 22.562 104.532 22.3443 104.206C22.1265 103.879 21.6909 102.463 21.6909 102.246C21.4731 101.157 21.7998 99.9591 21.3643 98.9791C20.9287 97.9991 20.4932 98.7613 20.8198 97.7813C21.2554 97.7813 21.0376 98.108 21.1465 98.2169C21.6909 98.7613 22.3442 97.3458 22.4531 97.2369ZM41.6174 103.335C42.1618 103.117 42.7063 102.681 43.3596 102.681C43.5774 102.899 43.1418 105.295 42.8152 105.73C42.3796 106.383 39.113 107.146 38.5685 106.819C38.0241 106.492 38.6774 104.75 38.8952 104.423C39.113 104.097 40.2019 103.77 40.4196 103.661C40.9641 103.443 40.7463 103.77 41.6174 103.443V103.335ZM10.911 104.859C10.911 104.859 12.4355 103.552 12.6532 103.226C12.871 104.206 12.6532 104.968 13.1977 105.948C13.7421 111.066 12.871 117.49 12.1088 122.717C11.3466 127.943 11.5644 125.221 10.911 124.023C10.911 122.281 10.2577 119.994 10.1488 118.252C10.0399 116.51 10.4755 117.272 10.4755 116.728C10.4755 114.223 10.2577 111.719 10.4755 109.432C10.6932 107.146 10.4755 105.403 10.911 104.859ZM32.1442 105.186C32.6886 104.75 33.8864 104.641 34.4308 103.77C33.9953 105.73 33.0153 109.977 31.5997 111.283C30.1842 112.59 28.8775 112.917 28.9864 111.501C29.0953 110.086 29.7486 109.215 29.8575 108.997C30.1842 108.343 31.8175 105.512 32.253 105.186H32.1442ZM18.2065 109.323C18.2065 109.323 19.5132 108.452 19.6221 108.561C19.8398 108.561 20.7109 109.541 20.8198 109.759C21.1465 110.848 20.1665 114.114 20.0576 115.312L19.1865 113.461C19.1865 112.699 18.0976 109.65 18.3154 109.323H18.2065ZM55.0106 111.828C55.2284 111.501 56.2084 111.828 56.535 111.937C56.8617 112.046 58.2773 113.679 58.3861 113.788C58.7128 114.332 59.5839 117.708 59.5839 118.47C59.5839 119.232 59.5839 120.212 59.5839 121.192L57.9506 119.668C57.515 118.579 54.5751 112.372 54.9017 111.828H55.0106ZM25.2842 111.828C25.2842 113.352 25.2842 114.877 25.6109 116.401C25.9376 118.688 26.9175 120.321 27.0264 122.717C27.2442 128.597 26.482 134.585 26.5909 140.465C26.6998 146.345 27.3531 143.296 26.482 143.405C25.6109 143.514 25.9376 143.079 25.8287 142.752C24.522 140.574 21.7998 132.517 22.0176 130.012C22.4531 126.201 23.8687 129.577 24.9576 127.181C24.8487 125.548 24.9576 123.914 24.7398 122.281C24.4131 119.668 23.3242 116.401 23.7598 113.679C24.1953 110.957 24.522 111.61 25.2842 111.719V111.828ZM44.1218 115.203C44.4485 115.203 44.9929 115.203 45.1018 115.203C45.2107 115.203 45.9729 117.272 46.0818 117.49C46.4085 118.579 45.1018 118.579 44.5574 117.49C44.0129 116.401 44.3396 115.966 44.1218 115.203ZM35.7375 116.074C35.7375 116.074 37.6974 116.619 37.8063 116.728C38.0241 116.946 39.7663 121.41 39.8752 121.954C39.9841 122.934 39.8752 123.697 39.2219 124.459C38.133 124.677 37.4797 122.608 37.153 121.846C36.2819 119.886 36.173 118.143 35.7375 116.074ZM16.6821 117.599C17.5532 116.728 18.5332 120.321 18.5332 120.866C18.751 121.954 18.4243 123.37 18.5332 124.568C18.6421 125.765 19.0776 127.725 18.9687 128.814C18.8598 129.903 19.1865 129.685 18.6421 129.903C18.0976 130.121 17.6621 128.052 17.5532 127.834C16.0288 124.459 16.0288 121.192 16.6821 117.599ZM52.9417 118.906C54.4662 118.906 54.1395 120.648 54.4662 121.737C54.7928 122.826 55.3373 123.697 55.2284 124.568C55.1195 125.439 54.7928 125.112 54.684 125.33C54.5751 125.548 55.9906 125.983 54.7928 126.201C53.5951 126.419 53.1595 123.697 53.0506 122.934C52.8329 121.628 52.8329 120.212 52.8329 118.906H52.9417ZM31.3819 122.934C32.6886 121.41 34.1041 123.806 34.6486 124.894C35.193 125.983 35.8464 128.814 35.9552 129.794C36.0641 130.774 35.3019 131.319 35.193 131.972C34.6486 131.754 34.3219 131.754 33.7775 131.428C33.233 131.101 31.1642 126.963 31.0553 126.092C30.9464 125.221 30.9464 123.479 31.3819 122.934ZM13.7421 123.914C14.1777 123.479 14.1777 123.914 14.2865 124.35C14.6132 125.439 15.811 127.943 14.1777 128.161C12.5443 128.379 13.5243 126.963 13.5243 126.637C13.5243 126.31 13.5243 124.132 13.7421 123.914ZM57.9506 130.448C58.6039 129.794 59.6928 131.537 59.8017 132.19C60.0195 133.388 58.8217 135.565 59.2572 136.981C58.3861 136.654 57.7328 135.565 57.515 134.803C57.2973 134.041 57.7328 130.665 57.9506 130.448ZM38.8952 136.437C39.3308 136.437 39.4396 136.545 39.6574 136.872C40.5285 137.852 42.5974 144.712 42.7063 146.128C42.8152 147.543 42.7063 146.999 42.4885 147.434L39.8752 144.93C38.7863 142.316 37.5886 139.268 38.8952 136.545V136.437ZM29.5309 140.465C28.6597 138.614 28.7686 138.288 29.422 136.437C30.0753 137.308 31.4908 138.07 32.0353 138.723C33.0153 139.921 35.0841 145.365 35.7375 146.999C36.3908 148.632 36.2819 149.394 36.2819 150.592C35.7375 151.245 33.1242 147.652 32.7975 147.216C31.4908 145.256 30.6197 142.643 29.6397 140.574L29.5309 140.465ZM45.864 139.05C46.4085 139.05 46.7351 139.594 46.9529 139.921C47.4974 140.901 48.9129 144.712 48.804 145.692C48.6951 146.672 48.804 146.454 48.3685 146.563C47.4974 146.89 47.824 146.019 47.6062 145.583C47.0618 144.494 47.1707 144.276 46.844 143.188C46.5174 142.099 45.7551 140.465 45.9729 139.05H45.864ZM13.7421 139.05C14.0688 138.941 14.831 139.812 14.9399 140.03C16.0288 142.208 16.6821 144.385 17.4443 146.672C18.2065 148.959 18.2065 147.543 17.0087 147.979C15.811 148.414 16.791 147.325 16.5732 147.108C15.811 146.019 15.1577 144.821 14.7221 143.514C14.2865 142.208 13.6332 140.683 13.7421 139.05ZM52.3973 142.208C54.0306 142.425 53.5951 143.296 54.0306 144.059C54.4662 144.821 54.4662 144.276 54.5751 144.385C54.7928 145.148 54.2484 145.91 54.2484 146.345C54.2484 146.781 54.7928 146.454 54.7928 146.672C54.7928 147.543 54.4662 148.523 54.7928 149.394C54.3573 149.394 54.2484 149.285 54.0306 148.959C52.9417 147.652 52.9417 146.89 52.3973 145.365C51.8529 143.841 51.9618 145.148 51.9618 145.039C51.9618 144.603 52.2884 142.208 52.5062 142.099L52.3973 142.208ZM26.8087 151.572C26.8087 151.899 26.8087 151.79 26.8087 151.79C26.8087 152.007 26.9175 152.334 27.0264 152.552C27.1353 152.77 27.2442 152.552 27.2442 152.77C27.2442 152.987 27.2442 152.987 27.2442 152.987C27.2442 152.987 27.5709 152.987 27.7886 153.75C28.0064 154.512 27.7886 153.967 27.7886 153.967C28.6598 153.75 28.2242 154.403 28.3331 155.056C28.442 155.71 28.3331 155.274 28.3331 155.274C28.3331 155.274 29.0953 155.056 28.8775 156.036C28.2242 156.036 27.6798 156.254 27.7886 155.492H27.5709C27.3531 155.492 27.3531 155.274 27.3531 155.274C27.2442 155.274 26.9175 155.056 26.8087 155.056C26.6998 155.056 26.5909 154.839 26.5909 154.839C26.5909 154.839 26.482 154.294 26.3731 154.185C25.6109 153.423 24.0865 152.879 23.6509 151.681C23.2154 150.483 21.9087 144.385 22.2354 144.168C23.2154 144.168 23.542 145.474 24.0865 146.128C25.9375 148.414 25.9376 148.741 26.9175 151.463L26.8087 151.572ZM31.4908 154.73C31.4908 154.73 32.253 154.73 32.5797 154.947C33.0153 155.274 33.4508 157.452 33.5597 158.214C33.0153 158.867 31.2731 155.056 31.4908 154.839V154.73ZM43.5774 155.492L44.9929 157.343C45.3196 157.887 44.7752 158.65 45.864 158.323C45.4285 159.412 45.6463 159.085 45.864 159.412C46.6262 160.283 44.1218 159.956 44.0129 159.847C43.4685 159.303 43.5774 157.452 43.4685 156.907C43.3596 156.363 42.4885 156.907 43.4685 155.383L43.5774 155.492ZM51.9618 156.799C52.0706 156.799 52.6151 156.799 52.724 156.907C52.8329 157.016 53.4862 159.194 53.5951 159.63C53.704 160.065 54.0306 162.134 54.0306 162.57C54.0306 163.005 53.8128 163.658 53.704 164.203C51.3084 163.332 51.1995 161.698 51.3084 159.412C51.4173 157.125 51.744 156.799 51.8529 156.69L51.9618 156.799ZM56.6439 158.105C56.7528 158.105 57.2973 158.105 57.4061 158.214C57.8417 158.759 58.3861 160.065 58.7128 160.719C59.0395 161.372 59.2572 162.025 59.8017 162.243L60.6728 166.381C59.9106 166.49 60.0195 165.727 59.475 165.292C58.9306 164.856 56.7528 164.203 56.4262 163.441C56.0995 162.678 56.2084 158.323 56.4262 157.996L56.6439 158.105ZM29.422 160.936C30.7286 160.719 31.1642 161.59 31.9264 162.243C32.6886 162.896 32.5797 162.461 32.7975 162.678C33.0153 162.896 34.3219 164.421 34.1041 164.638C33.6686 165.074 32.7975 163.658 32.253 163.441C31.0553 163.005 31.5997 163.005 30.9464 162.678C30.2931 162.352 29.3131 162.678 29.422 160.936ZM42.8152 162.57C43.0329 162.57 44.5574 162.57 44.5574 162.57C44.7752 162.787 45.1018 165.074 44.5574 165.401C43.7952 165.401 42.5974 164.747 42.3796 164.094C42.1618 163.441 42.7063 162.678 42.8152 162.57ZM47.7151 170.954C50.0018 171.063 48.3685 173.567 48.804 175.092C47.2796 174.003 47.6062 172.587 47.7151 170.954Z" fill="#FD937D"/>
<path d="M61.3265 85.1503C60.782 84.9325 60.8909 85.5859 60.6731 85.6947C59.3665 86.0214 57.7332 85.9125 56.4265 86.3481C55.1199 86.7836 49.8932 91.0302 48.5866 92.6636C47.2799 94.2969 47.2799 94.4058 47.2799 94.5147C47.2799 95.4947 49.0221 94.2969 49.131 94.2969C53.1599 92.8813 56.0998 91.248 59.5843 88.8525C63.0687 86.457 60.6731 88.0903 61.3265 87.8725V85.2592V85.1503Z" fill="#FDF8EE"/>
<path d="M60.0195 0C59.2573 1.08888 58.1684 1.74221 57.2973 2.7222C55.1196 5.00884 51.5263 9.9088 50.5463 12.8488C49.5663 15.7887 50.2196 13.9376 50.3285 14.591L55.3373 9.58213C56.2084 7.83993 58.0595 6.64216 59.1484 5.22662C60.2373 3.81108 59.1484 4.13774 59.4751 3.91996C59.8017 3.70219 60.0195 3.91996 60.1284 3.81108C60.4551 3.48441 60.4551 2.83108 61.2173 2.83108V0H59.9106H60.0195Z" fill="#FDF8EE"/>
<path d="M61.3267 41.2685C60.3467 41.704 59.3667 42.1396 58.4956 42.4663C57.6245 42.7929 58.06 42.4663 57.2978 42.7929C56.5356 43.1196 54.0312 44.2085 53.269 45.0796C52.5067 45.9507 53.0512 45.8418 52.9423 45.9507C52.6156 46.1684 51.6356 45.5151 51.9623 46.8218L51.2001 46.604C50.9823 48.2373 49.7845 49.544 49.8934 51.2862C50.8734 51.2862 51.0912 50.7417 51.5267 50.3062C52.6156 49.4351 53.8134 48.7818 55.1201 47.6929C57.1889 46.0596 58.8222 43.4462 61.4355 42.5751V41.2685H61.3267Z" fill="#FDF8EE"/>
<path d="M61.3267 181.081C61.1089 180.427 60.3467 180.427 60.02 180.101C57.8422 178.141 56.1 176.507 53.4867 174.874C50.8734 173.241 51.8534 173.132 50.8734 173.567C51.4179 174.438 51.5268 175.745 51.9623 176.616C53.0512 178.358 58.4956 181.734 60.2378 182.823C61.98 183.912 60.7822 183.367 61.3267 183.258V180.863V181.081Z" fill="#FDF8EE"/>
<path d="M61.3267 56.7306L56.2089 61.7394C55.5556 63.3728 53.3778 64.3527 52.3979 65.5505C51.4179 66.7483 51.5268 67.7283 50.8734 68.5994C51.6356 69.1438 51.2001 68.0549 51.5268 67.946C52.7245 67.6194 54.3578 68.5994 54.4667 68.4905C54.5756 68.3816 54.4667 68.1638 54.5756 68.0549C56.2089 66.7483 56.8623 64.2439 58.06 62.5017C59.2578 60.7594 60.2378 59.8883 61.3267 58.7995V56.7306Z" fill="#FDF8EE"/>
<path d="M61.3267 77.637C60.2378 77.3104 60.02 78.1815 59.5845 78.3993C56.9711 79.7059 55.5556 80.7948 53.4867 82.6459C51.4179 84.497 52.9423 83.0814 53.0512 83.517C55.8823 83.6259 58.4956 81.8837 61.4355 82.1014V77.637H61.3267Z" fill="#FDF8EE"/>
<path d="M61.3267 94.6235C59.3667 95.4946 58.4956 97.6724 57.4067 99.4146C56.3178 101.157 56.4267 99.8502 56.4267 101.048C56.4267 102.246 58.1689 103.226 58.6045 103.008C59.2578 102.028 60.3467 100.939 61.3267 100.395V94.6235Z" fill="#FDF8EE"/>
<path d="M61.3267 16.2243C60.7822 16.551 60.1289 16.8776 59.8022 17.4221C59.1489 18.1843 56.7534 21.7776 56.3178 22.5398C55.8823 23.302 56.1 24.1731 55.6645 24.7175C55.6645 25.3709 58.4956 23.0842 58.7134 22.9753C58.9311 22.8665 58.9311 22.4309 59.1489 22.2131C59.4756 21.9953 59.9111 22.1042 60.2378 21.8865C61.1089 21.342 60.4556 20.362 61.3267 20.4709V16.3332V16.2243Z" fill="#FDF8EE"/>
<path d="M61.3267 51.1772C60.02 52.2661 57.6245 52.375 56.3178 53.4639C55.0112 54.5528 55.8823 54.7705 55.6645 55.0972C54.9023 56.295 54.7934 56.8394 54.2489 57.8194C53.7045 58.7994 53.8134 57.8194 53.7045 58.1461C53.3778 59.235 55.6645 57.6016 55.8823 57.4927C57.1889 56.5128 58.6045 54.335 59.8022 53.355C61 52.375 60.8911 52.9195 61.3267 52.7017V51.1772Z" fill="#FDF8EE"/>
<path d="M61.3267 35.0619V29.2908C60.1289 29.3997 58.6045 33.2108 58.7134 34.0819C58.7134 35.8241 60.2378 35.0619 61.3267 34.953V35.0619Z" fill="#FDF8EE"/>
<path d="M15.8115 58.7995C15.1582 58.6906 15.2671 59.1261 15.0493 59.5617C14.1782 61.5217 13.6338 63.3727 13.3071 65.4416C12.9804 65.8772 12.436 65.4416 11.7827 65.4416C11.1293 65.4416 10.9116 65.7683 10.5849 65.8772C10.5849 67.0749 11.6738 65.6594 12.436 65.8772C13.1982 66.0949 13.0893 66.7483 13.6338 66.6394C13.8515 66.3127 14.2871 62.5016 14.5049 61.6305C14.7226 60.7594 15.5937 60.3239 15.7026 58.7995H15.8115Z" fill="#FD937D"/>
<path d="M8.84228 66.4216C8.40673 66.3127 8.51562 65.986 7.64452 66.4216C6.77341 66.8571 6.33786 67.2927 6.33786 67.2927C6.22897 67.5105 6.33786 67.7283 6.33786 67.7283C5.79342 67.8371 5.57565 67.7283 5.57565 68.4905C5.68453 68.4905 6.0112 68.4905 6.22897 68.2727C6.44675 68.0549 6.22897 67.8371 6.33786 67.7283C6.55564 67.7283 6.99119 67.8371 7.10008 67.7283C7.20897 67.6194 7.10008 67.1838 7.31785 66.966C7.53563 66.7483 8.62451 66.7483 8.95117 66.4216H8.84228Z" fill="#FD937D"/>
<path d="M9.06005 66.4216C9.71338 66.6394 9.38672 66.2038 9.60449 66.2038L9.06005 66.4216Z" fill="#FD937D"/>
<path d="M25.2847 111.828C24.4136 111.828 23.8691 113.135 23.7602 113.788C23.3247 116.51 24.4136 119.777 24.7402 122.39C25.0669 125.003 24.7402 125.657 24.958 127.29C23.8691 129.577 22.4536 126.31 22.018 130.121C21.5825 133.932 24.5225 140.574 25.8291 142.861C27.1358 145.148 26.0469 143.623 26.4824 143.514C27.3535 143.296 26.5913 141.119 26.5913 140.574C26.3736 134.694 27.1358 128.705 27.0269 122.826C26.918 116.946 26.0469 118.797 25.6113 116.51C25.1758 114.223 25.1758 113.461 25.2847 111.937V111.828Z" fill="#FDF8EE"/>
<path d="M36.8261 24.1731C36.1728 24.7176 35.0839 25.8064 34.5394 26.3509C33.7772 27.222 33.015 28.3109 32.4706 29.182C31.9261 30.0531 31.1639 30.162 31.055 30.2708C30.8373 30.5975 31.4906 31.5775 30.1839 31.2508C30.1839 31.5775 30.4017 31.9042 30.2928 32.2308C30.075 32.8841 28.3328 34.953 28.0062 35.933C27.6795 36.913 27.3528 38.3285 28.4417 37.1308C30.9461 34.0819 33.8861 31.1419 36.7172 28.4197C38.0239 28.4197 37.6972 27.7664 38.1327 27.222C39.6572 25.6975 41.726 24.6087 42.9238 22.8665C44.1216 21.1243 44.3394 20.362 44.666 19.1643C41.726 20.0354 39.1127 21.9954 36.8261 23.9553V24.1731Z" fill="#FDF8EE"/>
<path d="M10.9109 104.859C10.5842 105.403 10.5842 108.561 10.4753 109.432C10.1487 111.719 10.4753 114.223 10.4753 116.728C10.4753 119.232 10.1487 117.708 10.1487 118.252C10.1487 119.886 10.9109 122.172 10.9109 124.023C11.5642 125.221 11.9997 123.479 12.1086 122.717C12.8708 117.49 13.8508 111.066 13.1975 105.948C12.5442 105.077 12.8708 104.206 12.6531 103.226C12.4353 103.552 10.9109 104.75 10.9109 104.859Z" fill="#FDF8EE"/>
<path d="M5.35757 89.9414C5.57534 90.268 5.79312 90.5947 5.902 90.7036C6.01089 90.8125 6.22867 93.208 6.77311 91.6836C7.31755 90.1591 6.44645 89.0703 6.33756 88.0903C6.01089 84.6059 6.44644 80.7948 6.44644 77.2015C6.44644 73.6082 6.77311 73.4993 6.11978 71.5393C3.07092 73.2815 3.39759 77.9637 3.50647 81.1214C3.61536 84.2792 3.50647 84.7147 3.83314 86.0214C4.1598 87.3281 4.59535 87.4369 4.59535 88.308C4.81313 88.308 4.81313 88.6347 4.81313 88.8525C4.81313 89.0703 4.81313 89.0703 4.81313 89.0703C5.35757 89.0703 5.24868 89.6147 5.35757 89.8325V89.9414Z" fill="#FDF8EE"/>
<path d="M30.62 43.7729C30.2934 43.9907 29.3134 45.4062 29.0956 45.8418C28.769 46.604 28.9867 47.2573 28.8778 47.4751C28.769 47.8017 28.2245 47.8017 28.1156 48.0195C28.0067 48.2373 28.3334 48.564 28.2245 48.8906C28.1156 49.2173 27.1356 50.1973 27.1356 50.3062C27.1356 52.7017 25.6112 56.4039 24.849 58.9083C24.0868 61.4127 24.1957 60.9772 24.0868 61.7394C23.869 63.8083 26.9179 60.3238 27.2445 59.6705C27.5712 59.0172 27.6801 57.1661 28.0067 56.1861C28.769 53.2461 30.0756 50.415 31.1645 47.584C32.2534 44.7529 32.3623 45.1884 32.58 44.3173C32.7978 43.4462 31.3823 43.3373 30.62 43.7729Z" fill="#FDF8EE"/>
<path d="M37.9157 43.9907C36.7179 44.9707 36.1735 46.604 35.1935 47.9106C34.2135 49.2173 34.758 48.564 34.3224 49.6528C33.8869 50.7417 33.3424 50.4151 33.1246 50.8506C32.9069 51.395 33.6691 51.1773 33.6691 51.395C33.3424 53.355 31.6002 55.315 32.3624 57.4928C33.1246 57.4928 33.6691 57.275 34.3224 57.0572C34.9757 56.8394 34.6491 56.6217 34.758 56.6217C34.8669 56.6217 35.3024 56.8394 35.5202 56.6217C36.0646 56.295 35.8468 54.6617 36.0646 54.0083C36.9357 51.1773 37.6979 48.9995 38.4602 45.8418C39.2224 42.684 39.2224 44.5351 39.0046 43.5551C38.6779 43.7729 38.2424 43.7729 38.0246 43.8818L37.9157 43.9907Z" fill="#FDF8EE"/>
<path d="M29.5312 140.465C30.5112 142.534 31.3823 145.039 32.6889 147.108C33.9956 149.176 35.6289 151.136 36.1733 150.483C36.1733 149.394 36.0645 147.979 35.6289 146.89C34.9756 145.148 33.0156 139.812 31.9267 138.614C30.8378 137.417 29.8578 137.199 29.3134 136.328C28.6601 138.288 28.5512 138.614 29.4223 140.356L29.5312 140.465Z" fill="#FDF8EE"/>
<path d="M34.6485 87.7636C34.6485 87.7636 34.2129 87.7636 34.2129 87.9814C33.7774 89.0703 33.5596 90.3769 32.9063 91.3569C33.1241 92.4458 33.5596 91.6836 34.1041 91.5747C34.6485 91.4658 34.6485 91.7925 34.7574 91.6836C34.8663 91.5747 34.7574 91.0303 35.0841 90.8125C37.6974 87.437 38.1329 87.9814 39.3307 83.517C40.5284 79.0526 40.4196 81.0126 40.3107 79.7059C39.7662 79.1615 37.2618 81.1215 36.9351 81.6659C36.6085 82.2103 35.0841 86.0214 34.6485 86.8925C34.2129 87.7636 34.8663 87.437 34.7574 87.6547L34.6485 87.7636Z" fill="#FDF8EE"/>
<path d="M20.0578 56.9484C19.7311 57.1661 19.5133 58.3639 19.5133 58.4728C19.5133 58.5817 19.0778 58.6906 18.9689 58.7995C17.9889 60.4328 16.7912 64.2438 16.4645 66.2038C16.1378 68.1638 16.3556 70.1238 16.4645 70.886C16.5734 71.6482 16.7912 71.6482 17.1178 71.7571C17.5534 71.9749 17.9889 70.1238 18.4245 69.906C19.7311 67.2927 20.2756 62.3928 20.7111 59.3439C21.1467 56.295 20.9289 56.4039 20.1667 56.8395L20.0578 56.9484Z" fill="#FDF8EE"/>
<path d="M31.9263 82.6459C29.313 84.9325 26.4819 85.1503 26.2642 89.5058C26.0464 93.8613 26.6997 91.4658 26.5908 92.4458C26.8086 92.6636 28.2242 92.1191 28.5508 91.9014C28.8775 91.6836 28.7686 91.1391 29.2041 90.8125C29.6397 90.4858 30.5108 90.3769 30.6197 90.268C30.7286 90.1591 30.4019 89.8325 30.4019 89.3969C30.6197 88.1992 31.5997 87.1103 31.7086 86.8925C31.9263 85.9125 31.9263 85.3681 32.3619 84.3881C32.7974 83.4081 33.9952 82.1014 32.7974 81.557C32.7974 81.9926 32.4708 82.2103 32.1441 82.4281L31.9263 82.6459Z" fill="#FDF8EE"/>
<path d="M42.4891 29.1819C40.638 31.033 39.0047 32.3397 37.9158 35.1708C36.8269 38.0019 37.0447 38.3285 37.2625 38.6552C38.2425 38.6552 38.4603 37.3485 38.8958 36.913C40.5291 35.6063 41.1824 34.8441 42.598 33.1019C44.0135 31.3597 44.558 31.033 44.8846 30.3797C45.2113 29.7264 45.9735 28.202 45.4291 27.7664C43.9046 26.5686 43.2513 28.3108 42.4891 29.0731V29.1819Z" fill="#FDF8EE"/>
<path d="M47.4975 84.7148C47.4975 84.7148 47.4975 85.2592 47.062 85.477C46.1909 86.0214 44.6665 86.457 43.7954 87.0014C42.9243 87.5459 39.8754 90.1592 39.6576 90.3769C39.4398 90.5947 39.0043 92.228 39.1132 92.3369C39.7665 93.4258 40.5287 92.3369 40.8554 92.228C42.7065 91.4658 44.8842 90.2681 46.6264 89.0703C48.3686 87.8725 49.022 86.5659 49.2397 86.1303L47.8242 84.7148C47.7153 84.7148 47.4975 84.7148 47.4975 84.7148Z" fill="#FDF8EE"/>
<path d="M31.3823 122.934C30.9467 123.479 30.9467 125.33 31.0556 126.092C31.1645 126.854 33.1245 130.992 33.7778 131.428C34.4311 131.863 34.6489 131.754 35.1934 131.972C35.1934 131.319 35.9556 130.448 35.9556 129.794C35.9556 128.814 35.0845 125.874 34.6489 124.894C34.2134 123.914 32.6889 121.41 31.3823 122.934Z" fill="#FDF8EE"/>
<path d="M51.6352 97.4546C51.3085 97.6724 50.6552 97.0191 50.0019 97.4546C49.3485 97.8902 48.4774 98.2169 47.4975 98.8702C46.5175 99.5235 46.1908 99.3057 45.973 99.6324C45.4286 100.286 45.973 102.246 45.7552 103.226C45.7552 103.226 47.8241 103.008 48.0419 102.79C48.2597 102.572 51.4174 99.5235 51.7441 99.1969C52.0707 98.8702 51.9619 98.3258 51.9619 98.3258C51.9619 98.3258 52.6152 98.5435 52.9418 98.5435C53.7041 98.5435 54.4663 96.8013 55.0107 96.148C55.5552 95.4947 56.2085 95.8213 55.9907 94.8413C54.4663 94.5147 54.2485 95.2769 53.3774 96.0391C52.5063 96.8013 51.853 97.4546 51.7441 97.4546H51.6352Z" fill="#FDF8EE"/>
<path d="M44.122 53.1373C44.122 53.1373 43.9043 53.6817 43.6865 53.8995C43.0332 54.5528 42.3798 55.0973 41.9443 55.9684C40.8554 57.9284 40.0932 60.215 39.331 62.2839C39.8754 62.2839 40.2021 62.6105 40.7465 62.2839C42.8154 60.9772 44.7754 57.3839 46.1909 55.4239C46.1909 55.0973 46.1909 53.4639 46.082 53.3551C45.9731 53.2462 44.2309 53.0284 44.0132 53.1373H44.122Z" fill="#FDF8EE"/>
<path d="M54.9023 16.0065C52.1801 18.6198 51.309 20.5797 49.7846 23.8464C48.2602 27.113 49.2402 24.173 49.0224 24.6086C48.6957 25.3708 49.0224 26.133 48.8046 26.8952L51.2001 24.9353C51.7446 23.8464 52.6157 22.9753 53.3779 22.2131C54.1401 21.4508 53.3779 21.6686 53.5957 21.5597C53.8134 21.4508 54.1401 21.5597 54.3579 21.5597C54.5757 21.5597 54.1401 20.7975 54.1401 20.6886C54.1401 20.5797 55.229 19.5998 55.3379 19.382C55.4468 19.0553 55.3379 18.7287 55.5556 18.402C55.9912 17.5309 56.6445 16.8776 56.9712 15.8976C56.3179 15.8976 56.6445 14.6998 56.1001 15.0265C55.5556 15.3531 55.3379 15.8976 55.0112 16.2242L54.9023 16.0065Z" fill="#FDF8EE"/>
<path d="M26.8091 151.572C25.7202 148.85 25.8291 148.414 23.978 146.236C22.1269 144.059 23.1069 144.385 22.1269 144.276C21.9091 144.603 23.3247 151.136 23.5424 151.79C24.0869 152.987 25.5024 153.641 26.2646 154.294C27.0268 154.947 26.3735 154.839 26.4824 154.947L26.7002 155.165C26.7002 155.165 27.0268 155.383 27.2446 155.383L27.4624 155.601H27.6802C27.8979 155.601 28.1157 155.601 28.2246 155.383V155.165C27.3535 155.383 27.7891 154.73 27.6802 154.076C27.5713 153.423 27.6802 153.859 27.6802 153.859C27.0268 153.967 27.1357 153.641 27.1357 153.096V152.879L26.918 152.661C26.918 152.443 26.7002 152.116 26.7002 151.899V151.681L26.8091 151.572Z" fill="#FDF8EE"/>
<path d="M20.0579 84.3881C20.0579 84.3881 19.8401 85.5858 19.7312 86.0214C19.1868 87.4369 18.7512 88.4169 18.5334 90.0502C18.3157 91.6835 18.969 91.4658 18.969 91.5747C18.969 92.0102 18.3157 92.3369 18.4245 92.4458C18.5334 92.5547 18.8601 92.4458 18.969 92.6635C19.0779 93.0991 19.1868 95.6035 19.6223 95.6035C20.0579 95.6035 21.1467 95.168 21.2556 94.9502C21.6912 94.5146 21.5823 90.3769 21.4734 89.5058C21.3645 88.6347 21.0379 86.5658 20.8201 85.4769C20.6023 84.3881 20.3845 83.9525 19.949 84.3881H20.0579Z" fill="#FDF8EE"/>
<path d="M22.4531 97.2369C22.4531 97.2369 21.6909 98.6524 21.1464 98.2168C20.602 97.7813 21.2553 97.6724 20.8198 97.7813C20.4931 98.7613 21.2553 98.7613 21.3642 98.9791C21.9087 99.959 21.4731 101.157 21.6909 102.246C21.9087 103.335 22.3442 104.097 22.3442 104.206C22.562 104.532 24.4131 105.295 24.7397 105.077C24.7397 103.988 25.2842 102.899 25.2842 101.81C25.2842 100.721 24.9575 98.3257 24.522 97.8902C24.0864 97.4546 22.8886 97.0191 22.4531 97.2369Z" fill="#FDF8EE"/>
<path d="M38.895 136.436C37.6972 139.159 38.895 142.316 39.875 144.821L42.4883 147.325C42.5972 146.781 42.7061 146.454 42.7061 146.019C42.7061 144.603 40.4194 137.743 39.6572 136.763C38.895 135.783 39.3305 136.328 38.895 136.328V136.436Z" fill="#FDF8EE"/>
<path d="M46.518 60.6506C46.1913 60.8683 45.538 62.5017 45.1025 63.0461C44.6669 63.5905 44.558 63.0461 44.3402 63.3728C44.1225 63.6994 42.7069 66.095 42.598 66.4216C42.1625 67.5105 42.7069 67.6194 43.6869 67.0749C45.6469 65.9861 49.7846 61.7394 50.3291 59.5617C50.8735 57.3839 48.5869 59.3439 47.9335 59.9972C47.2802 60.6506 46.8447 60.4328 46.6269 60.6506H46.518Z" fill="#FDF8EE"/>
<path d="M10.149 71.6482C10.149 71.9748 10.149 72.4104 10.149 72.8459C9.93125 73.717 9.82236 79.4881 10.149 80.4681C10.4757 81.4481 11.3468 82.3192 11.0201 83.517H11.7823C11.7823 81.9925 12.2179 80.7948 12.3268 79.1614C12.4357 77.5281 12.109 73.4993 11.7823 72.4104C11.4557 71.3215 10.3668 71.5393 10.2579 71.6482H10.149Z" fill="#FDF8EE"/>
<path d="M23.3241 67.8372C21.1463 70.4505 21.2552 73.0638 21.0375 76.3304H22.1263C23.433 72.9549 24.8485 69.7971 25.7196 66.4216C26.5907 63.0461 26.0463 65.4416 25.393 65.5505C24.7396 66.3127 23.9774 66.9661 23.3241 67.8372Z" fill="#FDF8EE"/>
<path d="M16.6825 117.599C16.0292 121.192 16.0292 124.459 17.5536 127.834C19.0781 131.21 18.5336 129.903 18.6425 129.903C19.187 129.685 18.9692 129.141 18.9692 128.814C18.9692 127.726 18.6425 125.766 18.5336 124.568C18.4248 123.37 18.7514 121.954 18.5336 120.866C18.3159 119.777 17.4448 116.728 16.6825 117.599Z" fill="#FDF8EE"/>
<path d="M35.8469 67.5105C35.4114 67.7283 33.6692 68.4905 33.4514 68.5994C33.0158 68.926 33.0158 69.5794 32.6892 69.906C32.3625 70.2327 31.2736 70.9949 31.1647 71.1038C30.947 71.5393 31.1648 71.9749 31.0559 72.3016C30.947 72.6282 29.8581 72.7371 29.8581 72.9549C29.8581 73.1727 30.1848 73.7171 30.0759 74.0438C29.967 74.3704 29.6403 74.1527 29.5314 74.3704C29.3137 74.806 29.4225 75.6771 28.987 76.2215H29.7492C30.6203 75.0238 32.2536 73.9349 33.2336 72.846C34.2136 71.7571 35.4114 69.4705 36.2825 68.0549C37.1536 66.6394 36.8269 67.946 36.8269 67.8372C37.2625 67.2927 36.2825 67.1838 35.8469 67.4016V67.5105Z" fill="#FDF8EE"/>
<path d="M55.0112 111.828C54.5756 112.372 57.6245 118.579 58.06 119.668L59.6934 121.192C59.6934 120.321 59.6934 119.45 59.6934 118.47C59.6934 117.49 58.7134 114.332 58.4956 113.788C58.2778 113.243 56.8623 112.046 56.6445 111.937C56.3178 111.719 55.3378 111.501 55.1201 111.828H55.0112Z" fill="#FDF8EE"/>
<path d="M55.8818 72.6282C55.6641 72.6282 55.5552 72.846 55.3374 72.846L55.1196 73.0638C54.9018 73.0638 54.5752 73.0638 54.3574 73.0638C54.3574 73.6082 54.3574 73.6082 53.813 73.6082C53.813 73.6082 53.2685 73.6082 53.0507 73.6082C53.2685 74.3704 52.3974 74.0437 51.7441 74.3704C50.3286 75.0237 50.0019 75.5682 48.913 76.6571L47.6064 79.3793C48.2597 79.0526 49.2397 78.9437 49.893 78.617C50.7641 78.1815 51.7441 77.0926 52.6152 76.5482L52.833 76.3304C53.0507 76.1126 53.4863 76.1126 53.5952 76.1126L53.813 75.8948L54.0307 75.6771C54.1396 75.3504 54.4663 75.1326 54.793 75.1326C54.793 75.1326 54.793 74.806 55.0107 74.5882L55.2285 74.3704H55.4463L55.9907 73.826C55.9907 73.826 56.4263 73.826 56.5352 73.826L57.0796 73.0638H57.2974L57.5152 72.846H57.7329C57.5152 72.4104 58.7129 72.3015 58.2774 71.7571C57.8418 71.2127 55.9907 72.6282 55.6641 72.846L55.8818 72.6282Z" fill="#FDF8EE"/>
<path d="M39.9846 48.8906C39.658 49.1084 38.4602 55.9683 38.8958 56.9483C39.5491 57.0572 39.3313 56.8394 39.4402 56.6217C40.2024 55.6417 40.5291 54.5528 41.0735 53.5728C41.618 52.5928 41.618 53.355 41.7268 53.1373C42.0535 52.5928 43.5779 48.8906 43.2513 48.6729C42.0535 48.6729 40.9646 49.1084 39.8758 48.9995L39.9846 48.8906Z" fill="#FDF8EE"/>
<path d="M32.144 105.186C31.7085 105.512 30.0751 108.235 29.7485 108.997C29.4218 109.759 28.8774 111.392 28.8774 111.501C28.8774 112.808 31.0551 111.61 31.4907 111.283C33.0151 109.977 33.8862 105.73 34.3218 103.77C33.7773 104.641 32.5796 104.75 32.0351 105.186H32.144Z" fill="#FDF8EE"/>
<path d="M56.644 158.105C56.3173 158.323 56.2084 162.896 56.644 163.55C57.0795 164.203 59.0395 164.965 59.6929 165.401C60.3462 165.836 60.1284 166.598 60.8906 166.49L60.0195 162.352C59.4751 162.025 59.2573 161.372 58.9306 160.827C58.604 160.283 58.0595 158.867 57.624 158.323C57.1884 157.779 56.9707 158.105 56.8618 158.214L56.644 158.105Z" fill="#FDF8EE"/>
<path d="M35.7376 116.075C36.282 118.143 36.3909 119.886 37.1531 121.846C37.9153 123.806 38.1331 124.677 39.222 124.459C39.8753 123.697 39.9842 122.934 39.8753 121.954C39.7664 120.974 38.0242 116.946 37.8065 116.728C37.5887 116.51 35.8465 115.966 35.7376 116.075Z" fill="#FDF8EE"/>
<path d="M32.7982 62.3927C32.036 62.9371 29.8582 64.5705 29.5315 65.4416C29.2049 66.3127 29.5315 66.3127 29.5315 66.7482C29.5315 67.1838 28.5516 67.4016 28.9871 68.4904C29.7493 68.7082 29.9671 67.8371 30.2938 67.6193C32.9071 65.986 35.1937 65.2238 34.2137 61.4127C33.2337 61.1949 33.2337 62.066 32.7982 62.3927Z" fill="#FDF8EE"/>
<path d="M13.7427 86.2392C13.8515 86.7836 13.3071 87.1103 13.3071 87.5458C13.0893 88.5258 12.8716 92.0102 13.0893 92.8813C13.3071 93.7524 13.9604 94.4058 14.0693 94.5147C15.4849 95.4946 15.5937 93.7524 15.7026 92.6636C15.7026 90.9213 15.376 88.6347 14.7226 87.1103C14.0693 85.5858 14.396 86.1303 13.8515 86.3481L13.7427 86.2392Z" fill="#FDF8EE"/>
<path d="M51.9619 156.799C51.853 156.799 51.4175 159.303 51.4175 159.521C51.3086 161.807 51.4175 163.441 53.813 164.312C53.813 163.767 54.1396 163.223 54.1396 162.678C54.1396 162.134 53.813 160.283 53.7041 159.738C53.5952 159.194 53.0508 157.234 52.833 157.016C52.6152 156.799 52.1797 156.799 52.0708 156.907L51.9619 156.799Z" fill="#FDF8EE"/>
<path d="M51.0912 37.6752C51.309 37.893 52.6156 36.6952 52.9423 36.5863C53.7045 36.2597 54.5756 36.4775 55.12 35.8241C55.6645 35.1708 56.5356 31.6864 56.3178 31.3597C55.8823 31.2508 55.7734 31.5775 55.5556 31.7953C55.12 32.1219 52.1801 34.6264 52.0712 34.8441C51.7445 35.3886 51.8534 37.0219 51.2001 37.6752H51.0912Z" fill="#FDF8EE"/>
<path d="M41.6173 103.335C40.7462 103.77 40.964 103.335 40.4195 103.552C39.8751 103.77 39.004 104.206 38.8951 104.315C38.6773 104.641 38.1329 106.383 38.5685 106.71C39.004 107.037 42.2706 106.383 42.8151 105.621C43.3595 104.859 43.4684 102.79 43.3595 102.572C42.7062 102.572 42.1617 103.008 41.6173 103.226V103.335Z" fill="#FDF8EE"/>
<path d="M52.3979 142.208C52.1801 142.425 51.8535 144.821 51.8535 145.148C51.8535 145.474 52.289 145.365 52.289 145.474C52.7246 146.999 52.8335 147.761 53.9224 149.068C55.0112 150.374 54.3579 149.503 54.6846 149.503C54.3579 148.632 54.6846 147.543 54.6846 146.781C54.6846 146.019 54.249 146.781 54.1401 146.454C54.1401 146.019 54.5757 145.256 54.4668 144.494C54.3579 143.732 54.0312 144.385 53.9224 144.168C53.5957 143.405 53.9224 142.534 52.289 142.316L52.3979 142.208Z" fill="#FDF8EE"/>
<path d="M13.7424 139.05C13.6335 140.683 14.1779 141.99 14.7224 143.514C15.2668 145.039 15.9201 146.019 16.5735 147.108C17.2268 148.196 16.7912 147.979 17.009 147.979C18.3157 147.652 17.6623 147.216 17.4446 146.672C16.6824 144.385 15.9201 142.208 14.9401 140.03C13.9602 137.852 14.069 138.941 13.7424 139.05Z" fill="#FDF8EE"/>
<path d="M18.2066 109.323C17.9888 109.65 19.1866 112.699 19.0777 113.461L19.9488 115.312C20.0577 114.006 21.0377 110.848 20.711 109.759C20.3843 108.67 19.731 108.561 19.5132 108.561C19.2954 108.561 18.2066 109.323 18.0977 109.323H18.2066Z" fill="#FDF8EE"/>
<path d="M57.9513 130.448C57.8424 130.557 57.4069 134.259 57.5158 134.803C57.7335 135.674 58.3869 136.763 59.258 136.981C58.7135 135.565 60.0202 133.279 59.8024 132.19C59.5846 131.101 58.7135 129.794 57.9513 130.448Z" fill="#FDF8EE"/>
<path d="M31.4915 101.919C34.1048 101.701 34.9759 99.6324 34.867 97.2369C32.4715 97.2369 31.2737 99.7413 31.4915 101.919Z" fill="#FDF8EE"/>
<path d="M52.9419 118.906C52.9419 120.212 52.9419 121.737 53.1596 122.934C53.3774 124.132 54.0307 126.31 54.9019 126.201C55.773 126.092 54.793 125.33 54.793 125.33C54.793 125.112 55.2285 125.003 55.3374 124.568C55.3374 123.697 54.793 122.499 54.5752 121.737C54.3574 120.974 54.5752 118.906 53.0508 118.906H52.9419Z" fill="#FDF8EE"/>
<path d="M45.864 139.05C45.6462 140.465 46.4084 141.881 46.7351 143.188C47.0617 144.494 46.9529 144.494 47.4973 145.583C48.0417 146.672 47.4973 146.999 48.2595 146.563C49.0217 146.128 48.6951 146.019 48.6951 145.692C48.6951 144.712 47.3884 140.901 46.844 139.921C46.2995 138.941 46.2995 138.941 45.7551 139.05H45.864Z" fill="#FDF8EE"/>
<path d="M47.7153 72.0837C47.3887 72.0837 46.5176 72.5193 46.2998 72.6282C46.082 72.7371 44.2309 74.5882 44.122 74.6971C43.9042 75.2415 43.7954 76.9837 44.6665 76.7659C45.5376 76.5481 46.5176 74.2615 46.9531 73.7171C47.6064 72.9548 47.6064 73.2815 48.4775 72.0837C48.2598 72.0837 47.9331 72.0837 47.7153 72.0837Z" fill="#FDF8EE"/>
<path d="M35.1934 74.2616C35.1934 74.2616 35.1934 74.4793 34.9756 74.806C34.2134 75.4593 33.2334 76.4393 32.6889 77.4193C31.2734 80.577 34.3222 78.726 34.9756 77.0926C35.6289 75.4593 35.6289 74.6971 35.7378 74.5882C35.7378 74.1527 35.52 73.9349 35.1934 74.1527V74.2616Z" fill="#FDF8EE"/>
<path d="M43.5775 155.492C42.5975 157.016 43.5775 156.69 43.5775 157.016C43.6864 157.561 43.5775 159.412 44.1219 159.956C44.6664 160.501 46.7352 160.392 45.973 159.521C45.2108 158.65 45.5375 159.521 45.973 158.432C44.7752 158.65 45.3197 157.996 45.1019 157.452L43.6864 155.601L43.5775 155.492Z" fill="#FDF8EE"/>
<path d="M42.8153 162.57C42.7064 162.57 42.2709 163.767 42.3798 164.094C42.7064 164.747 43.9042 165.401 44.5575 165.401C45.102 164.965 44.7753 162.787 44.5575 162.57C44.3397 162.352 42.9242 162.57 42.8153 162.57Z" fill="#FDF8EE"/>
<path d="M29.4221 160.936C29.4221 162.57 30.2932 162.243 30.9465 162.678C31.5999 163.114 31.0554 163.005 32.2532 163.441C33.451 163.876 33.6687 165.074 34.1043 164.638C34.5398 164.203 33.0154 162.896 32.7976 162.678C32.5799 162.461 32.1443 162.461 31.9265 162.243C31.1643 161.59 30.7288 160.718 29.4221 160.936Z" fill="#FDF8EE"/>
<path d="M46.7349 39.7441C46.7349 39.7441 47.0615 41.704 46.7349 42.1396C48.4771 41.8129 49.5659 39.853 48.8037 38.2196C48.1504 38.2196 48.0415 39.4174 47.7149 39.6352C47.3882 39.853 46.7349 39.6352 46.626 39.7441H46.7349Z" fill="#FD937D"/>
<path d="M54.0308 39.5263C54.0308 39.5263 53.813 40.0708 53.5952 40.1796C52.2885 41.0507 51.7441 40.6152 51.9619 42.793C51.9619 42.793 53.813 42.1396 53.9219 42.0307C54.0308 41.9218 54.793 39.9619 54.793 39.853C54.793 39.3085 54.3574 39.3085 54.0308 39.5263Z" fill="#FDF8EE"/>
<path d="M13.7422 123.914C13.5244 124.132 13.4155 126.201 13.5244 126.637C13.6333 127.072 13.5244 128.161 14.1778 128.161C15.8111 127.943 14.6133 125.439 14.2866 124.35C13.96 123.261 14.2866 123.588 13.7422 123.914Z" fill="#FDF8EE"/>
<path d="M47.7155 170.954C47.4977 172.587 47.171 174.003 48.8043 175.092C48.3688 173.567 50.0021 171.063 47.7155 170.954Z" fill="#FDF8EE"/>
<path d="M55.8818 72.6282C56.2085 72.5193 58.3862 71.4304 58.4951 71.5393C58.9307 71.9748 57.7329 72.0837 57.9507 72.6282C58.2773 72.4104 58.8218 72.3015 59.2573 71.9748C59.6929 71.6482 59.8018 71.2126 60.2373 70.7771C60.6729 70.3415 60.8906 70.5593 60.8906 70.5593C61.1084 70.3415 60.8906 69.906 60.4551 70.0149C60.0195 70.1238 57.4062 71.4304 56.7529 71.7571C56.0996 72.0837 56.0996 72.1926 55.8818 72.6282Z" fill="#FD937D"/>
<path d="M44.1219 115.203C44.3397 115.966 44.3397 116.837 44.5575 117.49C44.993 118.579 46.4086 118.579 46.0819 117.49C45.7552 116.401 45.2108 115.203 45.1019 115.203C44.8841 115.094 44.3397 115.203 44.1219 115.203Z" fill="#FDF8EE"/>
<path d="M31.4912 154.73C31.2734 154.947 33.0156 158.758 33.5601 158.105C33.3423 157.452 33.0156 155.274 32.5801 154.839C32.1445 154.403 31.6001 154.621 31.4912 154.621V154.73Z" fill="#FD937D"/>
<path d="M48.4771 72.0837C48.4771 72.0837 50.2193 70.4504 48.5859 70.9949C46.9526 71.5393 48.0415 71.9749 47.7148 72.0837C47.9326 72.0837 48.2593 72.0837 48.4771 72.0837Z" fill="#FD937D"/>
<path d="M28.4427 155.492C28.4427 155.71 28.116 155.819 27.8982 155.71C27.7894 156.472 28.2249 156.254 28.9871 156.254C29.2049 155.274 28.5516 155.492 28.4427 155.492Z" fill="#FD937D"/>
<path d="M27.898 154.185C27.898 154.839 27.5713 155.383 28.4424 155.274C28.4424 154.621 28.7691 154.076 27.898 154.185Z" fill="#FD937D"/>
<path d="M52.942 73.7171C52.1798 73.7171 51.8531 73.3904 51.6353 74.4793C52.2886 74.1527 53.1597 74.4793 52.942 73.7171Z" fill="#FD937D"/>
<path d="M4.92285 89.0703C4.92285 89.5059 4.70507 89.9414 5.46729 89.8325C5.3584 89.6147 5.46729 89.1792 4.92285 89.0703Z" fill="#FD937D"/>
<path d="M27.3535 153.096C27.3535 153.75 27.1357 153.967 27.8979 153.859C27.7891 153.096 27.4624 153.205 27.3535 153.096Z" fill="#FD937D"/>
<path d="M54.2485 73.1727C53.2685 73.2816 53.9219 73.4994 53.7041 73.7171C54.2485 73.7171 54.2485 73.7171 54.2485 73.1727Z" fill="#FD937D"/>
<path d="M4.59522 88.3081C4.59522 88.417 3.833 88.9614 4.81299 88.8525C4.81299 88.6348 4.81299 88.417 4.59522 88.3081Z" fill="#FD937D"/>
<path d="M54.0308 75.5682C54.2485 75.3504 54.5752 75.2415 54.793 75.0237C54.3574 75.0237 54.1396 75.1326 54.0308 75.5682Z" fill="#FD937D"/>
<path d="M56.644 73.7171C57.2974 73.3904 57.0796 72.9549 57.1885 72.9549L56.644 73.7171Z" fill="#FD937D"/>
<path d="M61.3267 147.108C60.4556 146.672 59.5845 145.801 60.02 144.93H59.4756C59.8022 143.841 58.1689 143.296 58.1689 142.208C57.5156 142.208 57.6245 142.316 57.6245 142.861C57.6245 144.93 58.06 148.85 58.8222 150.483C59.5845 152.116 58.8222 150.81 59.04 151.681C59.2578 152.552 59.8022 153.205 60.1289 154.076C60.4556 154.947 59.5845 155.492 61.3267 155.274V147.216V147.108Z" fill="#FDF8EE"/>
<path d="M27.353 152.879C27.353 152.661 27.1353 152.661 27.1353 152.661L27.353 152.879Z" fill="#FD937D"/>
<path d="M27.5713 155.71L27.3535 155.492C27.3535 155.492 27.3535 155.71 27.5713 155.71Z" fill="#FD937D"/>
<path d="M55.5557 74.2616C55.8823 74.0438 55.9912 73.826 56.1001 73.7171L55.5557 74.2616Z" fill="#FD937D"/>
<path d="M55.0107 73.1726L55.2285 72.9549C55.1196 72.9549 55.0107 73.1726 55.0107 73.1726Z" fill="#FD937D"/>
<path d="M57.4062 72.9549C57.5151 72.9549 57.624 72.7371 57.624 72.7371L57.4062 72.9549Z" fill="#FD937D"/>
<path d="M54.7928 0C53.4862 1.63332 51.9618 3.48441 51.0907 5.33551C50.2195 7.1866 50.4373 7.73104 49.784 8.92881C49.1307 10.1266 48.3685 11.4332 47.6062 13.0665C46.844 14.6999 46.0818 16.3332 45.864 16.4421C45.5374 16.6598 44.5574 16.1154 44.0129 16.2243C42.8152 16.3332 37.4797 18.7287 36.4997 19.4909C30.6197 24.282 25.1753 34.7352 23.1065 42.1396C21.0376 49.544 22.562 46.8218 21.9087 48.7818C20.7109 52.484 16.8999 54.2262 15.9199 57.4928C14.9399 60.7594 15.9199 58.3639 15.811 58.7995C15.811 60.3239 15.0488 60.5417 14.6132 61.6305C14.1777 62.7194 13.9599 66.3127 13.7421 66.6394C13.0888 66.7483 12.9799 65.9861 12.5443 65.8772C11.6732 65.6594 10.5844 67.0749 10.6932 65.8772C10.3666 65.9861 9.93103 65.9861 9.60437 66.0949C9.27771 66.2038 9.60437 66.5305 9.05993 66.3127C8.51549 66.0949 8.84215 66.3127 8.84215 66.3127C8.4066 66.6394 7.5355 66.5305 7.20884 66.8572C6.88217 67.1838 7.20883 67.5105 6.99106 67.6194C6.77328 67.7283 6.44662 67.6194 6.22885 67.6194C6.22885 67.6194 6.22884 67.946 6.11996 68.1638C5.90218 68.4905 5.57552 68.3816 5.46663 68.3816C4.48664 68.926 3.72442 69.4705 3.0711 70.5593C1.11112 73.6082 0.240013 81.4481 0.0222371 85.2592C-0.195539 89.0703 1.22 91.9014 2.85332 95.2769L8.4066 101.592C8.07994 104.423 6.88217 107.255 6.6644 110.195C6.22884 114.659 6.88217 120.43 8.4066 124.677C9.93103 128.923 10.2577 127.943 10.4755 129.577C10.6932 131.21 10.1488 133.932 10.2577 135.783C10.4755 140.901 11.4555 146.89 14.9399 150.919C18.4243 154.947 19.1865 153.967 20.7109 155.601C22.8887 158.105 24.0865 161.154 27.0264 163.658C29.9664 166.163 33.233 166.925 36.8263 168.45C40.4196 169.974 40.5285 173.132 41.9441 174.765C45.5374 178.794 49.4573 181.189 53.8128 184.347C58.1684 187.505 58.495 188.485 61.435 189.683V183.367C60.8906 183.367 60.6728 183.149 60.3461 182.932C58.495 181.734 53.1595 178.467 52.0706 176.725C50.9818 174.983 51.4173 174.547 50.9818 173.676C51.9618 173.241 52.724 174.438 53.5951 174.983C56.2084 176.616 57.9506 178.249 60.1283 180.209C62.3061 182.169 61.2172 180.536 61.435 181.189V155.274C59.6928 155.492 60.455 154.73 60.2372 154.076C60.0195 153.423 59.2572 152.552 59.1484 151.681C59.0395 150.81 59.1484 151.354 58.9306 150.483C58.2773 148.85 57.7328 144.93 57.7328 142.861C57.7328 140.792 57.515 142.099 58.2773 142.208C58.2773 143.405 59.9106 143.841 59.5839 145.039H60.1283C59.6928 145.91 60.5639 146.781 61.435 147.108V100.286C60.3461 100.83 59.3661 101.919 58.7128 102.899C58.1684 103.117 56.535 101.157 56.535 100.939C56.535 99.7413 57.1884 99.8502 57.515 99.3057C58.6039 97.5635 59.475 95.3858 61.435 94.5147V87.7636C60.7817 87.8725 60.2372 88.417 59.6928 88.7436C56.2084 91.1392 53.2684 92.7725 49.2396 94.188C45.2107 95.6036 47.3885 95.3858 47.3885 94.4058C47.3885 93.4258 48.4773 92.8814 48.6951 92.5547C50.0018 91.0303 54.7928 86.8925 56.535 86.2392C58.2773 85.5859 59.5839 85.9125 60.7817 85.5859C61.9794 85.2592 60.9994 84.9325 61.435 85.0414V81.8837C58.6039 81.7748 55.9906 83.517 53.0506 83.2992C53.0506 82.8637 53.2684 82.6459 53.4862 82.4281C55.5551 80.577 56.9706 79.4882 59.5839 78.1815C62.1972 76.8748 60.3461 77.0926 61.3261 77.4193V58.5817C60.3461 59.6706 58.9306 61.0861 58.0595 62.2839C56.8617 64.0261 56.2084 66.6394 54.5751 67.8371C52.9417 69.0349 54.5751 68.1638 54.4662 68.2727C54.3573 68.2727 52.724 67.5105 51.5262 67.7283C50.3284 67.946 51.6351 69.0349 50.8729 68.3816C51.6351 67.5105 51.8529 66.0949 52.3973 65.3327C53.3773 64.135 55.4462 63.155 56.2084 61.5216L61.3261 56.5128V52.5928C60.8906 52.8106 60.2372 52.9195 59.8017 53.2462C58.495 54.2262 57.0795 56.4039 55.8817 57.3839C54.684 58.3639 53.3773 59.1261 53.704 58.0372C54.0306 56.9484 54.1395 58.0372 54.2484 57.7106C54.7928 56.7306 54.9017 56.1861 55.6639 54.9884C56.4262 53.7906 56.2084 53.4639 56.3173 53.3551C57.515 52.3751 59.9106 52.1573 61.3261 51.0684V42.4663C58.8217 43.3374 57.0795 45.8418 55.0106 47.584C52.9417 49.3262 52.6151 49.2173 51.4173 50.1973C50.2195 51.1773 50.6551 51.2862 49.784 51.1773C49.784 49.4351 50.8729 48.0196 51.0907 46.4951L51.8529 46.7129C51.5262 45.4062 52.5062 46.1685 52.8329 45.8418C53.1595 45.5151 52.8329 45.2974 53.1595 44.9707C53.9217 44.0996 56.0995 43.2285 57.1884 42.684C58.2773 42.1396 57.7328 42.5752 58.3861 42.3574C59.0395 42.1396 60.3461 41.5952 61.2172 41.1596V34.8441C60.0195 34.8441 58.7128 35.6063 58.6039 33.973C58.495 32.3397 60.0195 29.2908 61.2172 29.1819V20.2531C60.3461 20.2531 60.9994 21.2331 60.1283 21.6687C59.2572 22.1042 59.3661 21.6687 59.0395 21.9954C58.7128 22.322 58.8217 22.5398 58.6039 22.7576C58.3861 22.9753 55.5551 25.262 55.5551 24.4998C55.9906 23.9553 55.9906 22.7576 56.2084 22.322C56.6439 21.5598 59.0395 17.9665 59.6928 17.2043C60.3461 16.4421 60.7817 16.4421 61.2172 16.0065V2.83108C60.455 2.83108 60.455 3.48441 60.1283 3.81108C59.8017 4.13774 59.5839 3.81108 59.475 3.91996C59.1484 4.13774 59.475 4.89995 59.1484 5.22662C58.0595 6.64216 56.2084 7.83993 55.3373 9.58213L50.3284 14.591C50.3284 13.9376 50.3284 13.3932 50.5462 12.8488C51.5262 9.9088 55.1195 5.00884 57.2973 2.7222C59.475 0.435552 59.2572 1.08888 60.0195 0H54.7928ZM54.9017 16.0065C55.1195 15.7887 55.8817 14.9176 55.9906 14.8088C56.535 14.4821 56.2084 15.6799 56.8617 15.6799C56.6439 16.6598 55.8817 17.3132 55.4462 18.1843C55.0106 19.0554 55.4462 18.8376 55.2284 19.1643C55.0106 19.4909 54.0306 20.362 54.0306 20.4709C54.0306 20.6887 54.3573 21.342 54.2484 21.342C54.1395 21.342 53.704 21.2331 53.4862 21.342C53.2684 21.4509 53.4862 21.8865 53.2684 21.9954C52.5062 22.8665 51.5262 23.6287 51.0907 24.7175L48.6951 26.6775C48.9129 25.9153 48.6951 25.262 48.9129 24.3909C49.1307 23.5198 49.4573 23.9553 49.6751 23.6287C51.1995 20.4709 52.0706 18.5109 54.7928 15.7887L54.9017 16.0065ZM36.8263 24.1731C39.113 22.2131 41.7263 20.2531 44.6663 19.382C44.3396 20.5798 43.6863 22.1042 42.9241 23.0842C41.7263 24.8264 39.6574 25.9153 38.133 27.4397C36.6086 28.9642 38.133 28.6375 36.7175 28.6375C33.8864 31.2508 30.9464 34.1908 28.442 37.3485C27.3531 38.5463 27.6798 36.913 28.0064 36.1508C28.3331 35.3886 30.0753 33.1019 30.2931 32.4486C30.5108 31.7953 30.2931 31.7953 30.1842 31.4686C31.4908 31.7953 30.7286 30.7064 31.0553 30.4886C31.3819 30.2708 31.8175 30.4886 32.4708 29.3997C33.1242 28.3108 33.7775 27.4397 34.5397 26.5686C35.3019 25.6975 36.2819 24.9353 36.8263 24.3909V24.1731ZM42.4885 29.1819C43.2507 28.4197 43.9041 26.5686 45.4285 27.8753C46.9529 29.182 45.2107 29.9442 44.884 30.4886C44.5574 31.033 43.2507 32.4486 42.5974 33.2108C41.2907 34.953 40.5285 35.6063 38.8952 37.0219C37.2619 38.4374 38.2419 38.873 37.2619 38.7641C37.0441 38.5463 37.6974 35.8241 37.9152 35.2797C39.0041 32.4486 40.6374 31.033 42.4885 29.2908V29.1819ZM51.0907 37.6752C51.744 37.0219 51.744 35.2797 51.9618 34.8441C52.1795 34.4086 55.0106 32.1219 55.4462 31.7953C55.8817 31.4686 55.7728 31.2508 56.2084 31.3597C56.4262 31.6864 55.4462 35.2797 55.0106 35.8241C54.5751 36.3686 53.5951 36.2597 52.8329 36.5863C52.0706 36.913 51.1995 37.893 50.9818 37.6752H51.0907ZM46.7351 39.7441C46.7351 39.7441 47.4974 39.7441 47.824 39.6352C48.1507 39.5263 48.1507 38.3285 48.9129 38.2196C49.6751 39.853 48.4773 41.7041 46.844 42.1396C47.1707 41.7041 46.844 39.853 46.844 39.7441H46.7351ZM54.0306 39.5263C54.3573 39.3085 54.7928 39.3085 54.7928 39.853C54.7928 40.3974 53.9217 41.9218 53.9217 42.0307C53.8128 42.2485 52.0706 42.9018 51.9618 42.7929C51.8529 40.6152 52.2884 40.9418 53.5951 40.1796C54.9017 39.4174 53.9217 39.5263 54.0306 39.5263ZM30.6197 43.7729C31.3819 43.3374 32.7975 43.0107 32.5797 44.3174C32.3619 45.624 31.5997 46.7129 31.1642 47.584C30.0753 50.4151 28.8775 53.3551 28.0064 56.1861C27.1353 59.0172 27.6798 58.6906 27.2442 59.6706C26.8087 60.6505 23.8687 63.8083 24.0865 61.7394C24.3042 59.6706 24.6309 59.6706 24.8487 58.9083C25.502 56.4039 27.1353 52.8106 27.1353 50.3062C27.1353 47.8018 28.1153 49.3262 28.2242 48.8907C28.3331 48.4551 28.0064 48.2373 28.1153 48.0196C28.2242 47.8018 28.6598 47.8018 28.8775 47.4751C29.0953 47.1484 28.8775 46.4951 29.0953 45.8418C29.3131 45.1885 30.2931 43.9907 30.6197 43.7729ZM37.9152 43.9907C38.133 43.8818 38.5685 43.7729 38.8952 43.664C39.2219 44.644 38.5685 45.1885 38.3508 45.9507C37.5886 48.9995 36.9352 51.2862 35.9552 54.1173C34.9752 56.9484 35.9552 56.295 35.4108 56.7306C34.8664 57.1661 34.8664 56.6217 34.6486 56.7306C34.4308 56.8395 34.6486 57.0572 34.213 57.1661C33.5597 57.3839 32.9064 57.7106 32.253 57.6017C31.4908 55.4239 33.233 53.4639 33.5597 51.504C33.8864 49.544 32.9064 51.504 33.0153 50.9595C33.233 50.524 34.1041 50.0884 34.213 49.7618C34.6486 48.6729 33.9953 49.4351 35.0841 48.0196C36.173 46.604 36.6086 45.0796 37.8063 44.0996L37.9152 43.9907ZM39.9841 48.8907C41.073 48.9995 42.1618 48.564 43.3596 48.564C43.6863 48.8907 42.053 52.5928 41.8352 53.0284C41.6174 53.4639 41.2907 53.2462 41.1819 53.4639C40.6374 54.4439 40.3108 55.5328 39.5485 56.5128C38.7863 57.4928 39.5485 56.9484 39.0041 56.8395C38.5685 55.8595 39.7663 48.9995 40.093 48.7818L39.9841 48.8907ZM44.1218 53.1373C44.2307 53.1373 46.0818 53.2462 46.1907 53.3551C46.2996 53.4639 46.2996 55.0973 46.2996 55.4239C44.7752 57.3839 42.9241 60.9772 40.8552 62.2839C38.7863 63.5905 39.9841 62.2839 39.4396 62.2839C40.2019 60.215 40.9641 57.9284 42.053 55.9684C43.1418 54.0084 43.0329 54.5528 43.7952 53.8995C44.5574 53.2462 44.1218 53.2462 44.2307 53.1373H44.1218ZM20.0576 56.9484C20.8198 56.5128 20.602 58.9083 20.602 59.4528C20.1665 62.3928 19.6221 67.4016 18.3154 70.0149C17.8798 70.2327 17.5532 72.0838 17.0087 71.866C16.4643 71.6482 16.4643 71.3216 16.3554 70.9949C16.2465 70.2327 16.2465 67.1838 16.3554 66.3127C16.6821 64.2438 17.8798 60.5417 18.8598 58.9083C19.8398 57.275 19.2954 58.6906 19.4043 58.5817C19.5132 58.4728 19.7309 57.275 19.9487 57.0572L20.0576 56.9484ZM46.5174 60.6505C46.7351 60.4328 47.3885 60.3239 47.824 59.9972C48.5862 59.4528 50.8729 56.9484 50.2195 59.5617C49.5662 62.175 45.5374 65.9861 43.5774 67.0749C41.6174 68.1638 42.053 67.5105 42.4885 66.4216C42.9241 65.3327 44.0129 63.6994 44.2307 63.3727C44.4485 63.0461 44.884 63.2639 44.9929 63.0461C45.3196 62.5016 46.0818 60.9772 46.4085 60.6505H46.5174ZM32.7975 62.3928C33.1242 62.0661 33.233 61.195 34.213 61.4128C35.193 65.2238 32.9064 65.8772 30.2931 67.6194C27.6798 69.3616 29.7486 68.7083 28.9864 68.4905C28.5509 67.4016 29.5309 66.8572 29.5309 66.7483C29.5309 66.3127 29.5309 65.8772 29.5309 65.4416C29.8575 64.5705 32.0353 62.9372 32.7975 62.3928ZM23.3242 67.8371C23.9776 67.0749 24.7398 66.4216 25.3931 65.5505C26.0464 65.4416 25.8287 66.0949 25.7198 66.4216C24.8487 69.7971 23.4331 72.9549 22.1265 76.1126H21.0376C21.1465 73.0638 21.0376 70.3416 23.3242 67.8371ZM35.8463 67.5105C36.2819 67.2927 37.2619 67.4016 36.8263 67.946C36.3908 68.4905 36.3908 67.946 36.2819 68.1638C35.4108 69.5794 34.3219 71.6482 33.233 72.9549C32.1442 74.2615 30.6197 75.1326 29.7486 76.5482H28.9864C29.422 75.8949 29.3131 75.0237 29.5309 74.4793C29.7486 73.9349 30.0753 74.2615 30.0753 74.1526C30.0753 73.826 29.6397 73.1727 29.8575 73.0638C30.0753 72.9549 30.9464 72.6282 31.0553 72.4104C31.2731 72.0838 31.0553 71.6482 31.1642 71.2127C31.2731 70.7771 32.4708 70.2327 32.6886 70.0149C33.0153 69.6882 33.1242 69.0349 33.4508 68.7082C33.7775 68.3816 35.4108 67.8371 35.8463 67.6194V67.5105ZM55.8817 72.6282C56.0995 72.1927 56.3173 71.9749 56.7528 71.7571C57.4061 71.4304 60.0195 70.0149 60.455 70.0149C60.8906 70.0149 60.9994 70.3416 60.8906 70.5593C60.7817 70.7771 60.455 70.5593 60.2372 70.7771C59.9106 71.2127 59.6928 71.5393 59.2572 71.9749C58.8217 72.4104 58.3861 72.4104 57.9506 72.6282C57.515 72.846 57.7328 72.6282 57.7328 72.6282C57.7328 72.6282 57.6239 72.846 57.515 72.846C57.4061 72.846 57.2973 72.846 57.2973 72.846C57.2973 72.846 57.2973 73.2815 56.7528 73.6082C56.2084 73.9349 56.3173 73.6082 56.2084 73.6082C56.0995 73.6082 55.9906 73.9349 55.6639 74.1526C55.3373 74.3704 55.4462 74.1526 55.4462 74.1526C55.4462 74.1526 55.3373 74.3704 55.2284 74.3704C55.0106 74.5882 55.0106 74.9149 55.0106 74.9149C54.684 75.1326 54.4662 75.2415 54.2484 75.4593C54.0306 75.6771 54.1395 75.6771 54.0306 75.6771C53.9217 75.6771 53.9217 75.8948 53.8128 75.8948C53.704 75.8948 53.2684 75.8949 53.0506 76.1126C52.8329 76.3304 52.9417 76.3304 52.8329 76.3304C51.9618 76.8748 50.9818 77.9637 50.1107 78.3993C49.2396 78.8348 48.5862 78.8348 47.824 79.1615L49.1307 76.4393C50.2195 75.3504 50.5462 74.806 51.9618 74.1526C52.1795 73.0638 52.5062 73.4993 53.2684 73.3904C54.0306 73.2815 54.0306 73.3904 54.0306 73.3904C54.2484 73.2815 53.5951 73.0638 54.5751 72.846C55.5551 72.6282 55.1195 72.846 55.3373 72.846C55.5551 72.846 55.4462 72.6282 55.5551 72.6282C55.7728 72.6282 55.8817 72.4104 56.0995 72.4104L55.8817 72.6282ZM48.4773 72.0838C47.6062 73.2815 47.7151 72.9549 46.9529 73.7171C46.1907 74.4793 44.7752 76.766 44.6663 76.766C43.9041 76.9837 43.9041 75.2415 44.1218 74.6971C44.3396 74.1526 46.0818 72.7371 46.2996 72.6282C46.5174 72.5193 47.3885 72.0838 47.7151 72.0838C48.0418 72.0838 48.4773 71.1038 48.5862 70.9949C50.2195 70.4505 48.5862 71.9749 48.4773 72.0838ZM10.1488 71.6482C10.3666 71.4304 11.5644 72.0838 11.6732 72.4104C11.9999 73.4993 12.2177 77.8548 12.2177 79.1615C12.2177 80.4681 11.7821 81.9926 11.6732 83.4081H10.911C11.2377 82.3192 10.1488 81.3392 10.0399 80.3593C9.93103 79.3793 9.93103 73.7171 10.0399 72.7371C10.1488 71.7571 10.0399 71.9749 10.0399 71.5393L10.1488 71.6482ZM4.59553 88.3081C4.59553 87.437 3.9422 86.6747 3.83331 86.0214C3.61554 84.7148 3.61554 82.4281 3.50665 81.1215C3.50665 77.9637 3.0711 73.3904 6.11996 71.5393C6.77328 73.4993 6.44662 75.2415 6.44662 77.2015C6.44662 80.7948 6.01107 84.6059 6.33773 88.0903C6.6644 91.5747 7.09995 90.9214 6.77329 91.6836C6.22885 93.0991 5.90218 90.7036 5.90218 90.7036C5.90218 90.7036 5.57552 90.3769 5.35774 89.9414C4.59553 89.9414 4.92219 89.6147 4.8133 89.1792C4.70441 88.7436 4.8133 88.9614 4.8133 88.9614C3.83331 88.9614 4.59553 88.5258 4.59553 88.417V88.3081ZM35.193 74.2615C35.5197 74.0438 35.7375 74.2615 35.7375 74.6971C35.7375 75.1326 35.0841 76.9837 34.9752 77.2015C34.3219 78.7259 31.2731 80.577 32.6886 77.5282C34.1041 74.4793 34.1041 75.4593 34.9752 74.9149C35.8463 74.3704 35.193 74.4793 35.193 74.3704V74.2615ZM34.6486 87.7636C34.6486 87.5458 34.4308 87.2192 34.5397 87.0014C34.8664 86.1303 36.3908 82.2103 36.8263 81.7748C37.2619 81.3392 39.6574 79.2704 40.2019 79.8148C40.2019 81.2304 39.5485 82.4281 39.2219 83.6259C37.9152 87.9814 37.5886 87.5459 34.9752 90.9214C32.3619 94.2969 34.7575 91.7925 34.6486 91.7925C34.5397 91.7925 34.213 91.6836 33.9953 91.6836C33.4508 91.7925 33.0153 92.5547 32.7975 91.4658C33.4508 90.4858 33.6686 89.1792 34.1041 88.0903C34.5397 87.0014 34.5397 87.8725 34.5397 87.8725L34.6486 87.7636ZM31.9264 82.6459C32.253 82.4281 32.5797 82.2103 32.5797 81.7748C33.7775 82.3192 32.4708 83.7348 32.1442 84.6059C31.8175 85.477 31.7086 86.1303 31.4908 87.1103C31.2731 88.0903 30.402 88.417 30.1842 89.6147C29.9664 90.8125 30.402 90.4858 30.402 90.4858C30.402 90.4858 29.422 90.5947 28.9864 91.0303C28.5509 91.4658 28.7686 91.7925 28.3331 92.1191C27.8975 92.4458 26.5909 92.7725 26.3731 92.6636C26.5909 91.6836 26.0464 90.7036 26.0464 89.7236C26.2642 85.477 28.9864 85.1503 31.7086 82.8637L31.9264 82.6459ZM20.0576 84.3881C20.4932 83.9526 20.9287 85.2592 20.9287 85.477C21.1465 86.457 21.4731 88.5258 21.582 89.5058C21.6909 90.4858 21.6909 94.5147 21.3643 94.9502C21.0376 95.3858 19.9487 95.7124 19.7309 95.6036C19.2954 95.6036 19.1865 93.0991 19.0776 92.6636C18.9687 92.228 18.5332 92.4458 18.5332 92.4458C18.4243 92.3369 19.0776 92.0103 19.0776 91.5747C19.0776 91.1391 18.4243 91.5747 18.6421 90.0503C18.8598 88.5258 19.2954 87.437 19.8398 86.0214C20.3843 84.6059 20.1665 84.497 20.1665 84.3881H20.0576ZM47.4974 84.7148C47.4974 84.7148 47.7151 84.7148 47.824 84.7148L49.2396 86.1303C49.1307 86.5659 47.1707 88.7436 46.6262 89.0703C44.884 90.2681 42.8152 91.4658 40.8552 92.228C38.8952 92.9902 39.7663 93.4258 39.113 92.3369C38.4597 91.248 39.5485 90.4858 39.6574 90.3769C39.7663 90.1592 43.3596 87.2192 43.7952 87.0014C44.5574 86.457 46.0818 86.1303 47.0618 85.477C48.0418 84.8237 47.4974 84.7148 47.4974 84.7148ZM13.7421 86.2392C14.2865 86.0214 14.5043 86.6748 14.6132 87.0014C15.2665 88.6347 15.7021 90.9214 15.5932 92.5547C15.4843 94.188 15.3754 95.2769 13.9599 94.4058C12.5443 93.5347 12.9799 92.8814 12.9799 92.7725C12.7621 91.7925 12.9799 88.417 13.1977 87.437C13.4154 86.457 13.7421 86.6747 13.6332 86.1303L13.7421 86.2392ZM51.6351 97.4546C51.6351 97.4546 52.6151 96.4747 53.2684 96.0391C54.1395 95.3858 54.3573 94.5147 55.8817 94.8413C56.0995 95.8213 55.3373 95.6036 54.9017 96.148C54.4662 96.6924 53.5951 98.4346 52.8329 98.5435C52.0706 98.6524 51.9618 98.2169 51.8529 98.3258C51.744 98.4346 51.8529 98.8702 51.6351 99.1969C51.4173 99.5235 48.1507 102.681 47.9329 102.79C47.7151 102.899 45.6463 103.335 45.6463 103.226C45.7551 102.355 45.3196 100.395 45.864 99.6324C46.4085 98.8702 46.9529 99.088 47.3885 98.8702C48.3685 98.2169 49.2396 97.8902 49.8929 97.4546C50.5462 97.0191 51.1995 97.5635 51.5262 97.4546H51.6351ZM31.4908 101.919C31.2731 99.7413 32.4708 97.3458 34.8664 97.2369C34.8664 99.6324 34.1041 101.701 31.4908 101.919ZM22.4531 97.2369C22.8887 97.0191 24.1953 97.5635 24.522 97.8902C24.9576 98.3258 25.3931 101.048 25.2842 101.81C25.2842 102.899 24.8487 103.988 24.7398 105.077C24.4131 105.295 22.562 104.532 22.3443 104.206C22.1265 103.879 21.6909 102.463 21.6909 102.246C21.4731 101.157 21.7998 99.9591 21.3643 98.9791C20.9287 97.9991 20.4932 98.7613 20.8198 97.7813C21.2554 97.7813 21.0376 98.108 21.1465 98.2169C21.6909 98.7613 22.3442 97.3458 22.4531 97.2369ZM41.6174 103.335C42.1618 103.117 42.7063 102.681 43.3596 102.681C43.5774 102.899 43.1418 105.295 42.8152 105.73C42.3796 106.383 39.113 107.146 38.5685 106.819C38.0241 106.492 38.6774 104.75 38.8952 104.423C39.113 104.097 40.2019 103.77 40.4196 103.661C40.9641 103.443 40.7463 103.77 41.6174 103.443V103.335ZM10.911 104.859C10.911 104.859 12.4355 103.552 12.6532 103.226C12.871 104.206 12.6532 104.968 13.1977 105.948C13.7421 111.066 12.871 117.49 12.1088 122.717C11.3466 127.943 11.5644 125.221 10.911 124.023C10.911 122.281 10.2577 119.994 10.1488 118.252C10.0399 116.51 10.4755 117.272 10.4755 116.728C10.4755 114.223 10.2577 111.719 10.4755 109.432C10.6932 107.146 10.4755 105.403 10.911 104.859ZM32.1442 105.186C32.6886 104.75 33.8864 104.641 34.4308 103.77C33.9953 105.73 33.0153 109.977 31.5997 111.283C30.1842 112.59 28.8775 112.917 28.9864 111.501C29.0953 110.086 29.7486 109.215 29.8575 108.997C30.1842 108.343 31.8175 105.512 32.253 105.186H32.1442ZM18.2065 109.323C18.2065 109.323 19.5132 108.452 19.6221 108.561C19.8398 108.561 20.7109 109.541 20.8198 109.759C21.1465 110.848 20.1665 114.114 20.0576 115.312L19.1865 113.461C19.1865 112.699 18.0976 109.65 18.3154 109.323H18.2065ZM55.0106 111.828C55.2284 111.501 56.2084 111.828 56.535 111.937C56.8617 112.046 58.2773 113.679 58.3861 113.788C58.7128 114.332 59.5839 117.708 59.5839 118.47C59.5839 119.232 59.5839 120.212 59.5839 121.192L57.9506 119.668C57.515 118.579 54.5751 112.372 54.9017 111.828H55.0106ZM25.2842 111.828C25.2842 113.352 25.2842 114.877 25.6109 116.401C25.9376 118.688 26.9175 120.321 27.0264 122.717C27.2442 128.597 26.482 134.585 26.5909 140.465C26.6998 146.345 27.3531 143.296 26.482 143.405C25.6109 143.514 25.9376 143.079 25.8287 142.752C24.522 140.574 21.7998 132.517 22.0176 130.012C22.4531 126.201 23.8687 129.577 24.9576 127.181C24.8487 125.548 24.9576 123.914 24.7398 122.281C24.4131 119.668 23.3242 116.401 23.7598 113.679C24.1953 110.957 24.522 111.61 25.2842 111.719V111.828ZM44.1218 115.203C44.4485 115.203 44.9929 115.203 45.1018 115.203C45.2107 115.203 45.9729 117.272 46.0818 117.49C46.4085 118.579 45.1018 118.579 44.5574 117.49C44.0129 116.401 44.3396 115.966 44.1218 115.203ZM35.7375 116.074C35.7375 116.074 37.6974 116.619 37.8063 116.728C38.0241 116.946 39.7663 121.41 39.8752 121.954C39.9841 122.934 39.8752 123.697 39.2219 124.459C38.133 124.677 37.4797 122.608 37.153 121.846C36.2819 119.886 36.173 118.143 35.7375 116.074ZM16.6821 117.599C17.5532 116.728 18.5332 120.321 18.5332 120.866C18.751 121.954 18.4243 123.37 18.5332 124.568C18.6421 125.765 19.0776 127.725 18.9687 128.814C18.8598 129.903 19.1865 129.685 18.6421 129.903C18.0976 130.121 17.6621 128.052 17.5532 127.834C16.0288 124.459 16.0288 121.192 16.6821 117.599ZM52.9417 118.906C54.4662 118.906 54.1395 120.648 54.4662 121.737C54.7928 122.826 55.3373 123.697 55.2284 124.568C55.1195 125.439 54.7928 125.112 54.684 125.33C54.5751 125.548 55.9906 125.983 54.7928 126.201C53.5951 126.419 53.1595 123.697 53.0506 122.934C52.8329 121.628 52.8329 120.212 52.8329 118.906H52.9417ZM31.3819 122.934C32.6886 121.41 34.1041 123.806 34.6486 124.894C35.193 125.983 35.8464 128.814 35.9552 129.794C36.0641 130.774 35.3019 131.319 35.193 131.972C34.6486 131.754 34.3219 131.754 33.7775 131.428C33.233 131.101 31.1642 126.963 31.0553 126.092C30.9464 125.221 30.9464 123.479 31.3819 122.934ZM13.7421 123.914C14.1777 123.479 14.1777 123.914 14.2865 124.35C14.6132 125.439 15.811 127.943 14.1777 128.161C12.5443 128.379 13.5243 126.963 13.5243 126.637C13.5243 126.31 13.5243 124.132 13.7421 123.914ZM57.9506 130.448C58.6039 129.794 59.6928 131.537 59.8017 132.19C60.0195 133.388 58.8217 135.565 59.2572 136.981C58.3861 136.654 57.7328 135.565 57.515 134.803C57.2973 134.041 57.7328 130.665 57.9506 130.448ZM38.8952 136.437C39.3308 136.437 39.4396 136.545 39.6574 136.872C40.5285 137.852 42.5974 144.712 42.7063 146.128C42.8152 147.543 42.7063 146.999 42.4885 147.434L39.8752 144.93C38.7863 142.316 37.5886 139.268 38.8952 136.545V136.437ZM29.5309 140.465C28.6597 138.614 28.7686 138.288 29.422 136.437C30.0753 137.308 31.4908 138.07 32.0353 138.723C33.0153 139.921 35.0841 145.365 35.7375 146.999C36.3908 148.632 36.2819 149.394 36.2819 150.592C35.7375 151.245 33.1242 147.652 32.7975 147.216C31.4908 145.256 30.6197 142.643 29.6397 140.574L29.5309 140.465ZM45.864 139.05C46.4085 139.05 46.7351 139.594 46.9529 139.921C47.4974 140.901 48.9129 144.712 48.804 145.692C48.6951 146.672 48.804 146.454 48.3685 146.563C47.4974 146.89 47.824 146.019 47.6062 145.583C47.0618 144.494 47.1707 144.276 46.844 143.188C46.5174 142.099 45.7551 140.465 45.9729 139.05H45.864ZM13.7421 139.05C14.0688 138.941 14.831 139.812 14.9399 140.03C16.0288 142.208 16.6821 144.385 17.4443 146.672C18.2065 148.959 18.2065 147.543 17.0087 147.979C15.811 148.414 16.791 147.325 16.5732 147.108C15.811 146.019 15.1577 144.821 14.7221 143.514C14.2865 142.208 13.6332 140.683 13.7421 139.05ZM52.3973 142.208C54.0306 142.425 53.5951 143.296 54.0306 144.059C54.4662 144.821 54.4662 144.276 54.5751 144.385C54.7928 145.148 54.2484 145.91 54.2484 146.345C54.2484 146.781 54.7928 146.454 54.7928 146.672C54.7928 147.543 54.4662 148.523 54.7928 149.394C54.3573 149.394 54.2484 149.285 54.0306 148.959C52.9417 147.652 52.9417 146.89 52.3973 145.365C51.8529 143.841 51.9618 145.148 51.9618 145.039C51.9618 144.603 52.2884 142.208 52.5062 142.099L52.3973 142.208ZM26.8087 151.572C26.8087 151.899 26.8087 151.79 26.8087 151.79C26.8087 152.007 26.9175 152.334 27.0264 152.552C27.1353 152.77 27.2442 152.552 27.2442 152.77C27.2442 152.987 27.2442 152.987 27.2442 152.987C27.2442 152.987 27.5709 152.987 27.7886 153.75C28.0064 154.512 27.7886 153.967 27.7886 153.967C28.6598 153.75 28.2242 154.403 28.3331 155.056C28.442 155.71 28.3331 155.274 28.3331 155.274C28.3331 155.274 29.0953 155.056 28.8775 156.036C28.2242 156.036 27.6798 156.254 27.7886 155.492H27.5709C27.3531 155.492 27.3531 155.274 27.3531 155.274C27.2442 155.274 26.9175 155.056 26.8087 155.056C26.6998 155.056 26.5909 154.839 26.5909 154.839C26.5909 154.839 26.482 154.294 26.3731 154.185C25.6109 153.423 24.0865 152.879 23.6509 151.681C23.2154 150.483 21.9087 144.385 22.2354 144.168C23.2154 144.168 23.542 145.474 24.0865 146.128C25.9375 148.414 25.9376 148.741 26.9175 151.463L26.8087 151.572ZM31.4908 154.73C31.4908 154.73 32.253 154.73 32.5797 154.947C33.0153 155.274 33.4508 157.452 33.5597 158.214C33.0153 158.867 31.2731 155.056 31.4908 154.839V154.73ZM43.5774 155.492L44.9929 157.343C45.3196 157.887 44.7752 158.65 45.864 158.323C45.4285 159.412 45.6463 159.085 45.864 159.412C46.6262 160.283 44.1218 159.956 44.0129 159.847C43.4685 159.303 43.5774 157.452 43.4685 156.907C43.3596 156.363 42.4885 156.907 43.4685 155.383L43.5774 155.492ZM51.9618 156.799C52.0706 156.799 52.6151 156.799 52.724 156.907C52.8329 157.016 53.4862 159.194 53.5951 159.63C53.704 160.065 54.0306 162.134 54.0306 162.57C54.0306 163.005 53.8128 163.658 53.704 164.203C51.3084 163.332 51.1995 161.698 51.3084 159.412C51.4173 157.125 51.744 156.799 51.8529 156.69L51.9618 156.799ZM56.6439 158.105C56.7528 158.105 57.2973 158.105 57.4061 158.214C57.8417 158.759 58.3861 160.065 58.7128 160.719C59.0395 161.372 59.2572 162.025 59.8017 162.243L60.6728 166.381C59.9106 166.49 60.0195 165.727 59.475 165.292C58.9306 164.856 56.7528 164.203 56.4262 163.441C56.0995 162.678 56.2084 158.323 56.4262 157.996L56.6439 158.105ZM29.422 160.936C30.7286 160.719 31.1642 161.59 31.9264 162.243C32.6886 162.896 32.5797 162.461 32.7975 162.678C33.0153 162.896 34.3219 164.421 34.1041 164.638C33.6686 165.074 32.7975 163.658 32.253 163.441C31.0553 163.005 31.5997 163.005 30.9464 162.678C30.2931 162.352 29.3131 162.678 29.422 160.936ZM42.8152 162.57C43.0329 162.57 44.5574 162.57 44.5574 162.57C44.7752 162.787 45.1018 165.074 44.5574 165.401C43.7952 165.401 42.5974 164.747 42.3796 164.094C42.1618 163.441 42.7063 162.678 42.8152 162.57ZM47.7151 170.954C50.0018 171.063 48.3685 173.567 48.804 175.092C47.2796 174.003 47.6062 172.587 47.7151 170.954Z" fill="#FD937D"/>
<path d="M8.84228 66.4216C8.40673 66.3127 8.51562 65.986 7.64452 66.4216C6.77341 66.8571 6.33786 67.2927 6.33786 67.2927C6.22897 67.5105 6.33786 67.7283 6.33786 67.7283C5.79342 67.8371 5.57565 67.7283 5.57565 68.4905C5.68453 68.4905 6.0112 68.4905 6.22897 68.2727C6.44675 68.0549 6.22897 67.8371 6.33786 67.7283C6.55564 67.7283 6.99119 67.8371 7.10008 67.7283C7.20897 67.6194 7.10008 67.1838 7.31785 66.966C7.53563 66.7483 8.62451 66.7483 8.95117 66.4216H8.84228Z" fill="#FD937D"/>
<path d="M5.35757 89.9414C5.57534 90.268 5.79312 90.5947 5.902 90.7036C6.01089 90.8125 6.22867 93.208 6.77311 91.6836C7.31755 90.1591 6.44645 89.0703 6.33756 88.0903C6.01089 84.6059 6.44644 80.7948 6.44644 77.2015C6.44644 73.6082 6.77311 73.4993 6.11978 71.5393C3.07092 73.2815 3.39759 77.9637 3.50647 81.1214C3.61536 84.2792 3.50647 84.7147 3.83314 86.0214C4.1598 87.3281 4.59535 87.4369 4.59535 88.308C4.81313 88.308 4.81313 88.6347 4.81313 88.8525C4.81313 89.0703 4.81313 89.0703 4.81313 89.0703C5.35757 89.0703 5.24868 89.6147 5.35757 89.8325V89.9414Z" fill="#FDF8EE"/>
<path d="M4.92285 89.0703C4.92285 89.5059 4.70507 89.9414 5.46729 89.8325C5.3584 89.6147 5.46729 89.1792 4.92285 89.0703Z" fill="#FD937D"/>
<path d="M4.59522 88.3081C4.59522 88.417 3.833 88.9614 4.81299 88.8525C4.81299 88.6348 4.81299 88.417 4.59522 88.3081Z" fill="#FD937D"/>
</svg>
