<svg width="97" height="91" viewBox="0 0 97 91" fill="none" xmlns="http://www.w3.org/2000/svg">
<path d="M12.9357 0C12.9357 0.216495 13.1112 0.391998 13.3277 0.391998H76.9594C87.4969 0.391998 96.0392 8.93433 96.0392 19.4718V74.1306C96.0392 75.0323 95.0042 75.7634 94.5319 76.5315C94.483 76.6111 94.4361 76.6931 94.3891 76.7749C93.9538 77.5321 93.327 78.7225 94.2004 78.7105C95.0871 78.6982 96.0392 79.1817 96.0392 80.0685V80.8538C96.0392 81.9606 95.0339 83.5398 93.9486 83.7569C93.2952 83.8876 91.3353 83.7569 91.2046 83.7569C91.0739 83.7569 91.0739 83.1036 90.8126 83.1036C90.5232 83.1036 89.9489 83.3885 89.4052 83.3272C89.2185 83.3062 88.967 83.504 89.0186 83.6845C89.0602 83.83 88.9217 83.9759 88.7705 83.9807C87.8483 84.0095 86.5704 84.8873 86.1086 84.5409C85.586 84.1489 86.1086 84.0182 85.8473 84.0182C85.3254 84.0182 84.7202 84.6018 84.0316 84.5703C83.8256 84.5609 83.5938 84.7551 83.6505 84.9534C83.6984 85.121 83.5479 85.2836 83.3736 85.2788C82.3029 85.2495 81.1617 85.9782 80.2287 85.9782C78.7503 85.9782 78.61 85.3092 78.4359 84.6098C78.1899 83.6221 77.2767 84.8005 76.2781 84.6034C76.1258 84.5733 76.0003 84.4251 75.9215 84.1741C75.6706 83.3746 75.301 83.0699 74.4794 83.2342C74.1715 83.3112 73.8523 83.3088 73.5284 83.2772C71.9928 83.1272 71.9417 84.8435 70.4287 84.5409C68.4687 84.1489 69.906 83.3649 69.2527 83.8876C68.5994 84.4102 69.6447 85.0636 69.514 85.1942C69.122 85.5862 66.7701 85.7169 66.5087 85.8476C66.1167 86.1089 64.6794 87.6769 64.0261 87.9382C62.7194 88.4609 61.4128 87.9382 60.3674 88.0689C59.3221 88.1995 59.5834 88.5915 59.0608 88.5915C58.3216 88.5915 58.2424 88.3941 57.5418 88.6296C57.1604 88.7577 56.8956 88.5568 56.3168 88.7222C55.4021 88.9835 55.0101 89.5062 54.8795 89.5062H51.0476C50.3796 89.5062 49.4022 90.2164 48.7382 90.2902C47.8363 90.3904 47.0882 89.9527 46.8473 90.2146C46.6727 90.4045 46.5483 90.6822 46.2903 90.6822C46.0535 90.6822 45.8884 90.4869 45.846 90.2539C45.8051 90.0289 45.6681 90.0289 45.2102 90.0289C45.2102 90.0289 43.6473 89.4633 42.915 89.3024C42.3545 89.1791 41.7526 89.1846 41.6822 89.1142C41.5515 88.9835 41.6822 88.4609 41.5515 88.4609C41.0289 88.4609 40.7675 89.1142 40.3755 89.1142C39.9835 89.1142 39.5915 88.0689 39.0689 87.9382C38.9421 87.9065 38.8077 87.9133 38.6693 87.9398C37.8206 88.1024 36.6214 88.2744 36.7169 87.4156C36.8475 86.2396 37.6315 87.0236 37.3702 86.5009C37.1089 85.9782 35.8022 84.5409 35.6716 84.5409C35.3724 84.5409 35.0733 84.8453 34.7741 85.0476C34.6008 85.1647 34.3889 85.1942 34.1797 85.1942C33.7483 85.1942 33.3202 85.1942 32.9093 85.1942C32.3716 85.1942 31.9627 85.677 32.0511 86.2073C32.1074 86.545 31.92 86.7991 31.6079 86.6584C30.7662 86.2787 29.2793 85.1942 28.8769 85.1942C28.4172 85.1942 27.9575 87.115 27.5867 85.2657C27.4916 84.7917 27.4003 84.9329 26.9169 84.9329C26.8279 84.9329 26.7426 84.9063 26.6624 84.8623C26.0843 84.5446 25.6249 84.0524 24.9783 84.183C23.9922 84.3822 23.9659 84.0095 22.9682 84.1378C22.9358 84.142 22.9018 84.1457 22.8663 84.1489C20.253 84.1489 20.9063 82.8422 20.5143 82.4502C20.1223 82.0582 18.9463 82.9729 18.685 82.7116C18.0317 82.1889 19.861 82.0582 19.3383 81.4049C18.8157 80.7516 18.293 81.4049 18.1623 81.0129C18.0316 80.6209 17.901 78.6609 16.8556 79.4449C16.1599 79.9667 16.1762 79.4353 15.3607 79.1332C15.3325 79.1228 15.3039 79.1129 15.2752 79.1034C14.6921 78.9112 14.3408 78.4285 14.0269 77.9009C13.552 77.1027 13.013 77.5356 12.805 77.2236C12.5437 76.8316 13.197 76.1783 13.0663 75.7863C12.9357 75.3943 12.413 75.6556 12.413 75.3943C12.413 74.7409 13.3277 74.3489 12.021 73.565C10.7144 72.781 10.845 73.6956 11.1064 72.6503C11.2478 72.0844 11.619 71.9397 11.8676 71.8017C12.2387 71.5956 11.7376 71.2535 11.3174 71.3135L10.7026 71.4013C10.433 71.4398 10.1917 71.2306 10.1917 70.9582C10.1917 70.6103 9.81545 70.4025 9.50191 70.5533C9.17885 70.7086 8.83564 70.8237 8.44482 70.8436C8.19363 70.8563 8.03193 70.6055 8.10103 70.3636C8.17013 70.1218 8.00984 69.8746 7.76085 69.839L7.51792 69.8043C7.0306 69.7347 6.86653 69.1619 6.9673 68.6801C7.09545 68.0673 6.40237 68.0415 6.40237 67.9463C6.40237 67.8353 6.44428 67.6929 6.49844 67.5338C6.74056 66.8228 6.92282 66.6134 7.61611 66.9025C7.98618 67.0568 7.86407 66.1516 7.51555 65.9534C6.67121 65.4732 5.28754 65.6935 4.96506 64.941C4.73895 64.4134 4.81715 63.9293 4.94891 63.589C5.08169 63.246 5.38754 63.0238 5.74793 62.9504C6.20971 62.8563 6.57951 62.6932 4.9475 61.8621C4.88022 61.8278 4.83438 61.7573 4.83438 61.6818C4.83438 61.5987 4.88816 61.5243 4.96452 61.4915C6.84104 60.6863 4.96222 59.0327 4.83438 57.7544C4.75495 56.96 5.01356 56.2139 4.87625 55.6629C4.69055 54.9178 3.91972 54.341 3.91972 53.5731C3.91972 53.1811 3.91972 52.9197 3.26639 52.6584C1.82907 51.8744 2.35172 53.1811 1.82906 53.3117C0.94481 53.5328 0.371395 52.3488 1.28237 52.3188C1.55286 52.3099 1.78677 52.3087 1.82906 52.2664C2.33666 51.7588 2.50407 51.1373 3.11771 50.7648C3.88258 50.3004 3.13572 49.1367 3.13572 48.3464C3.13572 47.3011 3.91972 46.2558 3.91972 45.6024C3.91972 44.4264 3.13572 42.4664 3.13572 41.4211C3.13572 40.3758 3.78905 39.7225 3.78905 39.1998C3.78905 38.6771 2.0904 38.6771 2.35174 36.7171C2.61307 34.7572 3.52772 33.5812 3.78905 33.0585C4.05038 32.5358 4.31171 33.1892 4.44238 32.7972C5.02907 31.0371 4.96885 29.0227 5.98405 27.4699C6.07756 27.3268 6.17315 27.1859 6.27172 27.0479C6.92505 26.1332 7.57837 26.6559 7.18637 25.4799C6.79438 24.3039 5.61837 25.2185 6.6637 22.9972C7.70903 20.7759 8.36237 22.4746 8.49303 19.7306C8.55907 18.3438 8.35813 17.9249 8.32871 17.6642C8.23114 16.7998 8.10869 16.8024 8.23171 15.9413C8.36237 15.0266 9.79969 13.5893 10.061 12.6746C10.3224 11.7599 10.061 11.3679 10.061 10.8453C10.061 10.3226 10.845 10.4533 10.9757 10.0613C11.1063 9.66928 11.237 7.57863 11.3677 7.05596C11.4357 6.78375 11.3266 6.19256 11.2248 5.65157C11.0903 4.93685 11.5068 4.56489 12.021 4.05065C12.1517 3.91998 11.7597 3.13598 11.7597 2.48265C11.7597 1.30666 12.9357 1.17599 12.9357 0ZM17.5398 3.26665C17.5194 3.26665 17.4995 3.2631 17.4805 3.256C17.4362 3.23952 17.3441 3.20538 17.2303 3.16399C16.7262 2.98071 16.2904 3.27965 16.2342 3.81313C16.1565 4.55182 16.9038 5.16877 17.4419 4.65669C17.784 4.33102 17.9496 3.90207 17.686 3.35582C17.6592 3.30029 17.6014 3.26665 17.5398 3.26665ZM64.5487 31.1368C64.5487 31.1123 64.5595 31.0895 64.5719 31.0683C64.8523 30.5886 62.9718 28.0843 62.5887 27.7012C60.1061 25.4799 57.4928 26.2639 54.6181 26.9172C51.7435 27.5705 51.0901 27.9625 49.2608 28.4852C46.5168 29.2692 43.3808 30.9678 41.0289 32.5358C39.3921 33.627 38.3249 34.6549 37.0786 35.5314C35.9484 36.3262 34.4218 37.2061 34.7569 38.5465C34.8875 39.0691 35.2796 38.5465 35.5409 38.8078C35.8548 39.1217 36.1492 39.4073 36.5927 39.4273C37.4131 39.4642 38.2163 39.1927 38.9382 38.6771C39.8529 38.0238 40.3755 36.9785 40.6369 36.8478C41.0289 36.5865 41.8129 36.5865 42.4662 36.1945C42.6993 36.0546 42.999 35.7816 43.2999 35.4824C44.1364 34.6507 45.1421 34.1625 46.3178 34.0663C46.6455 34.0395 46.9732 33.9829 47.3008 33.8425C48.2155 33.4505 47.8235 33.1892 48.0848 33.0585C48.3462 32.9278 49.2608 33.0585 49.6528 33.0585C50.3844 33.0585 50.3671 31.963 51.0554 31.7152C52.8274 31.077 55.8925 30.3145 56.8394 30.3145C60.4981 30.0532 61.4128 32.0132 59.8448 35.1492C58.2768 38.2851 57.1008 39.0691 56.1861 40.8985C54.7488 43.9038 58.1461 44.5571 59.9754 42.7278C61.8047 40.8985 63.2421 37.3705 63.5034 36.8478C63.7647 36.3251 64.6794 32.9278 64.6794 32.6665C64.6794 32.1396 64.4245 31.8677 64.1888 31.5081C64.1074 31.384 64.2007 31.2292 64.3492 31.2292C64.3884 31.2292 64.4253 31.2292 64.4564 31.2292C64.5074 31.2292 64.5487 31.1878 64.5487 31.1368ZM21.6912 32.6258C21.8246 32.7645 21.9635 32.5086 21.921 32.3209C21.8246 31.8952 21.3719 32.1654 21.6142 32.5284C21.6389 32.5653 21.6647 32.5983 21.6912 32.6258ZM21.037 32.2745C21.037 32.1913 21.0031 32.1087 20.9323 32.065C19.3464 31.0854 13.978 36.3698 13.8503 38.2851C13.8155 38.8079 13.855 39.2006 13.9342 39.4978C14.1666 40.3702 15.2213 40.7482 16.079 40.4661C16.5769 40.3023 17.0547 40.0461 17.2477 39.8531C17.6396 39.4611 21.1676 35.5412 21.2983 35.2798C21.429 35.0185 21.037 34.7572 21.037 34.6265C21.037 34.1029 21.95 33.9146 21.673 33.4702C21.5364 33.251 21.2646 33.1555 21.037 32.9278C20.645 32.5358 21.037 32.4052 21.037 32.2745ZM61.2165 54.0957C61.1763 54.0957 61.1396 54.0732 61.1175 54.0397C60.4002 52.9538 57.4778 53.9736 56.5781 54.4877C55.6635 55.0104 53.8341 57.6237 53.7035 57.885C53.0086 59.1357 53.1267 60.1647 53.7628 60.6773C55.1967 61.8327 57.0516 59.8543 58.349 58.5476C59.8981 56.9874 61.7144 55.1086 61.3107 54.1549C61.2949 54.1176 61.2569 54.0957 61.2165 54.0957ZM12.6015 56.6295C12.4246 56.3112 12.116 55.9862 11.7626 56.074C11.4904 56.1417 11.2538 56.4081 11.0672 56.7661C10.3276 58.185 12.3654 59.5542 12.805 58.0157C12.9609 57.4702 12.7914 56.9712 12.6015 56.6295ZM88.7178 82.6086C88.6543 82.5743 88.5913 82.6394 88.5913 82.7116C88.5913 82.7837 88.6543 82.8489 88.7178 82.8145C88.8105 82.7643 88.8105 82.6589 88.7178 82.6086ZM57.3579 87.574C57.2945 87.5396 57.2315 87.6047 57.2315 87.6769C57.2315 87.7491 57.2945 87.8142 57.3579 87.7798C57.4506 87.7296 57.4506 87.6242 57.3579 87.574Z" fill="#FBD209"/>
<path d="M94.8757 76.0979C95.4206 75.6184 96.0393 76.4221 96.0393 77.148C96.0393 77.7549 95.7045 78.333 95.1296 78.5276C95.077 78.5454 95.0242 78.5623 94.9712 78.5781C93.789 78.9309 93.9472 77.0041 94.8291 76.1412C94.8442 76.1264 94.8598 76.1119 94.8757 76.0979Z" fill="#FD937D"/>
<path d="M14.2059 79.189C14.3677 78.9732 14.3163 78.6638 14.0943 78.5106C13.8998 78.3764 13.714 78.2509 13.5882 78.1855C13.5063 78.1428 13.4137 78.1247 13.3233 78.1062C12.086 77.8531 10.0991 78.4506 10.7307 76.8887C11.0072 76.2053 10.3353 75.6344 10.7146 75.0023C11.0935 74.3708 10.8613 74.3899 10.125 74.4054C9.83074 74.4117 9.59082 74.4012 9.53862 74.349C9.40795 74.2183 9.01596 71.997 8.88529 71.8663C8.75462 71.7356 7.44796 73.173 5.87997 72.1276C4.31198 71.0823 5.22663 70.429 5.09597 69.5143C5.00219 68.8579 4.36365 68.7349 4.66007 68.1417C4.882 67.6977 5.17363 67.261 5.09597 66.6397C4.9653 65.5943 4.5733 65.5943 4.44264 65.0717C4.31197 64.549 4.44264 64.0263 4.44264 63.765C4.44264 63.5037 1.82933 62.589 1.69866 62.4584C1.568 62.3277 2.35199 61.2824 1.95999 60.8904C1.56799 60.4984 1.04532 60.8904 0.783984 60.3677C0.522652 59.845 1.43733 58.1464 1.30666 57.6237C1.17599 56.709 -0.261328 56.5784 0.392002 54.8797C1.04533 53.1811 0.914658 54.6184 0.914658 54.4877C0.914658 53.0243 1.51973 52.0203 0.815943 50.7372C0.749298 50.6157 0.690653 50.4744 0.65333 50.3064C0.563676 49.903 0.550915 49.6687 0.567564 49.5244C0.599505 49.2477 0.671868 49.0092 0.579753 48.7463C0.223786 47.7303 1.56779 48.3711 1.67837 49.4419C1.73518 49.9919 1.75972 50.5494 1.69866 51.2211C1.568 52.6584 1.69866 52.3971 1.69866 52.5277C1.69866 52.6584 -0.391994 52.3971 0.392002 53.1811C1.176 53.9651 1.568 53.5731 1.69866 53.5731C2.77338 53.5731 2.89104 54.0031 1.9371 54.4981C1.8071 54.5656 1.68139 54.5728 1.56799 54.4877C0.957843 54.0301 0.444542 54.5588 1.07382 54.9897C1.36948 55.1922 1.86266 55.0984 2.09064 55.4024C2.48264 55.9251 1.82931 56.317 2.09064 56.9704C2.37263 57.5343 3.12792 57.4222 3.43238 57.8498C3.63469 58.134 3.97322 58.4464 4.28523 58.2904C4.55043 58.1578 4.8831 58.3313 4.99008 58.6078C5.43881 59.7678 6.56182 61.0676 4.96477 61.7528C4.88841 61.7856 4.83464 61.8601 4.83464 61.9432C4.83464 62.0187 4.88048 62.0892 4.94776 62.1234C7.38642 63.3654 5.35537 63.1156 5.22664 63.373C5.09597 63.6343 4.83465 64.941 4.96531 65.2023C5.28377 65.9454 6.6371 65.7399 7.48396 66.1971C7.85713 66.3985 7.96498 67.3633 7.59622 67.1539C6.9473 66.7853 6.78234 67.0641 6.51929 67.7625C6.45555 67.9317 6.40263 68.0829 6.40263 68.2077C6.40263 68.4975 7.04559 68.3587 6.90526 68.9534C6.79114 69.437 6.98136 69.989 7.47325 70.0593L7.79522 70.1053C8.02617 70.1382 8.17485 70.3675 8.11075 70.5918C8.04052 70.8376 8.22603 71.0824 8.47886 71.0447C8.82603 70.993 9.15722 70.8899 9.49955 70.7492C9.82375 70.6159 10.192 70.8414 10.192 71.1919C10.192 71.4789 10.4461 71.6993 10.7302 71.6587L11.3176 71.5748C11.7378 71.5148 12.2023 71.7924 11.9706 72.1481C11.8052 72.4017 11.5104 72.6014 11.3118 72.7373C11.1619 72.8398 11.0761 73 11.0551 73.1803C10.9725 73.8862 11.55 73.5907 12.0213 73.8263C13.1973 74.6103 12.2826 75.0023 12.4133 75.6556C12.5439 76.3089 13.0666 75.7863 13.0666 76.0476C13.0666 76.3089 12.5439 77.0929 12.8053 77.4849C13.0126 77.796 13.549 77.3666 14.0229 78.1551C14.3419 78.6859 14.6979 79.1629 15.2938 79.3315C15.3629 79.351 15.4308 79.3735 15.4965 79.4011C16.2702 79.7265 16.2624 80.2998 16.8559 79.7063C17.9012 78.7916 18.0319 81.0129 18.1626 81.2743C18.5303 82.0097 19.2867 81.9743 18.6595 82.506C18.5207 82.6236 18.4776 82.7652 18.6852 82.9729C19.5904 83.878 20.3261 83.8863 21.5416 84.2875C21.8486 84.3888 22.2734 84.4399 22.8665 84.4102C24.1691 84.3451 24.2849 84.514 25.5735 84.3131C25.7011 84.2932 25.843 84.2796 26.0025 84.2796C27.3092 84.2796 26.3945 85.0636 26.9172 85.1942C27.3673 85.3068 27.5019 85.1275 27.6142 85.5777C28.0541 87.3407 28.7633 85.4556 28.8772 85.4556C29.4008 85.4556 31.0158 86.7148 31.7708 87.0127C32.0092 87.1068 32.1204 86.8829 32.0782 86.6301C31.9758 86.0153 32.4499 85.4556 33.0732 85.4556C33.5732 85.4556 34.0552 85.4556 34.4958 85.4556C35.2798 85.4556 35.4105 84.8022 35.6718 84.8022C35.8024 84.8022 36.2268 85.2592 36.6187 85.7327C37.1545 86.3801 36.7171 86.8365 36.7171 87.6769C36.7171 88.8529 37.2398 88.3302 37.3705 88.4609C37.6239 88.7143 37.0244 89.4524 36.6795 89.5497C36.3087 89.6544 35.9526 89.7675 35.6718 89.7675C35.2357 89.7675 35.2545 89.0397 34.6652 89.0264C34.423 89.021 34.3085 89.2993 34.3985 89.5243C34.5372 89.871 34.194 90.2368 33.8288 90.1589C31.0364 89.5634 27.4316 90.2591 25.0879 88.8529C22.4745 87.2849 24.6959 88.0689 24.4345 87.9382C24.1732 87.8076 23.6505 88.3302 23.2585 88.1995C22.6003 87.9801 22.3542 87.3316 21.6655 87.2476C21.2774 87.2003 20.8458 86.9514 20.5581 86.6868C20.0687 86.2368 19.7427 85.5983 19.3386 85.1942C19.0645 84.9202 18.7546 84.7898 18.5029 84.709C18.1857 84.6071 17.9674 84.3805 17.9479 84.048C17.9027 83.2803 17.9653 82.0104 17.2374 81.8713C16.9518 81.8168 16.7882 82.148 16.8681 82.4276C16.9375 82.6704 16.8248 82.9728 16.574 82.9433C15.7717 82.8491 15.6284 80.8479 15.2879 80.6209C14.8959 80.3596 14.2426 80.3596 14.1119 80.2289C14.0039 80.1209 14.0745 79.7451 14.1022 79.4704C14.1124 79.3693 14.1449 79.2703 14.2059 79.189ZM27.5331 86.0519C27.028 85.3091 24.9858 85.0528 25.2584 85.9088C25.4122 86.3915 26.0437 86.8747 26.8238 87.0086C27.2723 87.0855 27.789 86.4283 27.5331 86.0519Z" fill="#FD937D"/>
<path d="M3.27158 31.941C3.68239 31.3247 4.63219 31.5486 4.58142 32.2875C4.56221 32.5671 4.51932 32.8295 4.44299 33.0585C4.43578 33.0801 4.42848 33.1006 4.42108 33.1201C4.30174 33.4345 3.39518 32.9817 3.13983 32.7628C2.98868 32.6333 2.95805 32.4113 3.06848 32.2456L3.27158 31.941Z" fill="#FD937D"/>
<path d="M43.4463 89.3359C43.989 89.4802 44.0627 90.6062 43.5027 90.5648C43.4644 90.562 43.424 90.5576 43.3813 90.5515C43.1096 90.5127 42.8609 90.4393 42.6524 90.3347C42.0393 90.027 42.7833 89.1597 43.4463 89.3359Z" fill="#FD937D"/>
<path d="M46.119 90.3526C46.1029 90.1214 45.4055 90.477 45.6174 90.571C45.7371 90.6241 46.1281 90.4832 46.119 90.3526Z" fill="#FD937D"/>
<path d="M47.0989 90.7417C47.06 90.7029 47.0322 90.6527 47.0226 90.5986C46.8362 89.5509 47.9799 90.4176 48.9993 90.2902C49.6913 90.2037 50.5646 89.5062 51.262 89.5062H53.9444C54.7173 89.5062 55.4436 89.1847 56.1482 88.867C56.2915 88.8024 56.4377 88.7503 56.578 88.7222C57.0288 88.6321 57.3552 88.853 57.8577 88.6122C58.4928 88.3079 58.6176 88.5916 59.3219 88.5916C59.8446 88.5916 60.1059 88.0689 60.6286 88.0689C61.6739 88.0689 62.9806 88.3302 64.2873 87.9382C65.5939 87.5462 66.3779 86.1089 66.7699 85.8476C67.1619 85.5862 69.5139 85.4556 69.7752 85.1942C70.0366 84.9329 69.3832 84.0183 69.5139 83.8876C69.8741 83.5994 70.1548 83.8276 70.3562 84.0903C70.5849 84.3888 71.2076 84.7303 71.5427 84.5597C72.5383 84.0529 72.0713 83.0311 73.1762 83.1955C73.7085 83.2746 74.2395 83.3595 74.7405 83.2343C75.5528 83.0312 75.9133 83.3904 76.2031 84.176C76.2749 84.3705 76.3779 84.4978 76.5005 84.5464C77.4373 84.9176 78.4451 83.6728 78.6933 84.6495C78.8693 85.342 79.0009 85.9782 80.4898 85.9782C82.8558 85.9782 82.8656 85.3356 83.7189 85.3109C83.8617 85.3068 83.9748 85.1744 83.9356 85.0371C83.8813 84.847 84.1589 84.6294 84.3566 84.6248C84.9772 84.6102 85.6168 84.0182 86.1085 84.0182C86.345 84.0182 86.4274 84.0867 86.4424 84.1741C86.4867 84.4305 86.4935 84.6317 86.7534 84.6207C87.3803 84.5943 88.3133 84.0505 88.9889 83.9862C89.1538 83.9704 89.3133 83.8019 89.2678 83.6426C89.2151 83.4583 89.4406 83.28 89.6293 83.3139C90.2251 83.4208 90.7684 83.1036 91.0738 83.1036C91.4658 83.1036 91.2045 83.7569 91.4658 83.7569C91.7271 83.7569 94.0791 83.7569 94.2098 83.7569C94.6198 83.7569 95.1102 83.194 95.7442 83.0776C96.0712 83.0175 96.3004 83.3329 96.3004 83.6654C96.3004 84.0768 95.9667 84.4085 95.556 84.4318C93.0818 84.5721 90.7058 85.3605 88.3298 85.7169C85.7165 86.1089 86.6311 85.4556 85.8472 85.4556C83.3645 85.7169 79.9672 87.4156 76.9619 87.5462C76.5396 87.5646 76.1922 87.57 75.904 87.567C74.9182 87.5564 73.8779 86.4329 72.9112 86.2396C72.2579 86.1089 72.3886 85.7169 71.8659 85.7169C71.3789 85.7169 71.352 86.2341 70.8802 86.3548C70.7802 86.3804 70.6754 86.4234 70.5592 86.5009C70.3247 86.6572 70.1837 87.0006 69.8565 87.1394C69.6325 87.2345 69.3791 87.6162 69.5394 87.7993C69.649 87.9247 69.591 88.1215 69.4308 88.1673L69.3555 88.1888C69.1434 88.2494 69.0839 88.5216 69.2514 88.6652L69.3296 88.7323C69.5257 88.9004 69.4636 89.2181 69.2171 89.2953C67.7827 89.7445 66.18 90.0987 64.6793 89.6369C62.9806 89.1142 64.1566 88.7222 64.0259 88.5916C63.5033 88.0689 62.1966 88.9836 61.6739 89.1142C56.4786 90.2832 52.8326 91.4521 47.2709 90.8244C47.2062 90.8171 47.1449 90.7878 47.0989 90.7417ZM68.0313 87.4352C67.8261 87.1123 67.4585 86.9431 67.1458 87.1636C66.9283 87.3169 66.7072 87.5469 66.5694 87.7523C66.3793 88.0355 66.6825 88.1996 67.0235 88.1996H67.5352C68.0492 88.1996 68.3071 87.869 68.0313 87.4352Z" fill="#FD937D"/>
<path d="M64.5492 31.0061C64.5492 31.0571 64.5079 31.0985 64.4569 31.0985C64.4257 31.0985 64.3888 31.0985 64.3496 31.0985C64.2012 31.0985 64.1078 31.2533 64.1892 31.3774C64.4249 31.737 64.6798 32.009 64.6798 32.5358C64.6798 33.1892 63.6345 36.1945 63.5038 36.7171C63.3732 37.2398 60.2372 42.3358 59.9759 42.5971C58.1465 44.4264 54.7492 43.7731 56.1866 40.7678C57.6239 37.7625 58.9305 36.9785 59.8452 35.0185C61.4132 31.8825 60.4985 29.9225 56.8399 30.1838C53.1812 30.4452 51.0906 31.4905 50.0453 32.0132C48.9999 32.5358 50.0453 32.7972 49.6533 32.9278C49.2613 33.0585 48.3466 32.9278 48.0853 32.9278C47.8239 32.9278 47.9546 33.5811 47.3013 33.7118C46.3866 33.9731 45.4719 33.7118 44.5573 34.1038C43.6426 34.4958 43.12 35.6718 42.4666 36.0638C41.8133 36.4558 41.0293 36.4558 40.6373 36.7171C40.2453 36.9785 39.4613 38.2851 38.9387 38.5465C38.1547 39.0691 36.9787 39.4611 35.9333 39.1998C35.9049 39.1927 35.8779 39.1857 35.8521 39.1788C35.2881 39.0274 34.7573 38.9998 34.7573 38.4158C34.7573 38.3097 34.7573 38.182 34.7617 38.0426C34.7976 36.8985 35.8109 36.2208 36.7606 35.5819C38.2217 34.5989 39.5512 33.3906 41.0293 32.4052C42.9893 31.0985 46.6479 29.2692 49.2613 28.3545C51.8746 27.4398 52.5279 27.1785 54.6186 26.7865C56.7092 26.3945 59.9759 25.3492 62.5892 27.5705C65.143 29.7412 64.9516 30.5394 64.5757 30.9404C64.559 30.9583 64.5492 30.9816 64.5492 31.0061Z" fill="#FB5109"/>
<path d="M21.0372 32.1438C21.0372 32.1438 21.2129 32.9372 21.5279 33.224C21.7098 33.3896 21.8295 33.6174 21.6905 34.1038C21.4292 35.0185 21.0372 34.2345 21.0372 34.4958C21.0372 34.7572 21.2986 35.0185 21.2986 35.1492C21.2986 35.2798 17.6399 39.4611 17.2479 39.7225C16.7252 40.1145 15.1573 40.7678 14.7653 40.3758C14.3733 39.9838 13.8506 38.5465 13.8506 38.1545C13.8506 36.2391 19.3413 30.9544 20.9326 31.9344C21.0034 31.9781 21.0372 32.0606 21.0372 32.1438Z" fill="#FB5109"/>
<path d="M61.0878 54.0957C61.1273 54.0957 61.1643 54.1171 61.1798 54.1534C61.586 55.1067 59.7686 56.9866 58.2187 58.5476C56.9213 59.8543 55.0665 61.8327 53.6326 60.6773C52.9964 60.1647 52.8784 59.1357 53.5732 57.885C54.3633 56.4629 55.2012 55.5662 55.7691 55.0506C56.2029 54.6567 56.7021 54.3322 57.2434 54.1077C58.4793 53.5953 60.4247 53.0797 60.989 54.0365C61.0097 54.0717 61.047 54.0957 61.0878 54.0957Z" fill="#FB5109"/>
<path d="M3.51193 52.773C3.52261 52.7836 3.53528 52.7927 3.54875 52.7995C3.57609 52.8134 3.60195 52.8269 3.62642 52.8401C4.0668 53.0781 3.5619 53.7925 3.39919 54.2659C3.35789 54.386 3.32506 54.514 3.29418 54.6384C3.27592 54.7119 3.25246 54.7948 3.29322 54.8587C3.35832 54.9607 3.53447 54.9308 3.72076 54.8951C4.02623 54.8366 4.34504 54.8964 4.62162 55.0386C5.49022 55.4854 5.08518 56.3877 5.08058 57.4107C5.07965 57.6179 4.97358 57.8156 4.78826 57.9083C4.40222 58.1013 3.90963 57.6255 3.52471 57.4302C3.1548 57.2426 2.57871 57.2379 2.35207 56.7091C2.22961 56.4233 2.18367 56.1759 2.17837 55.9666C2.16443 55.4151 2.11216 54.9787 1.57989 54.8337C1.44384 54.7966 1.3196 54.7419 1.23124 54.6333C0.804945 54.1093 1.69856 53.4964 1.8031 54.1637C1.81669 54.2505 1.86211 54.2629 1.94726 54.2844C2.40661 54.4007 2.9396 53.3392 3.3047 52.7906C3.35207 52.7195 3.45147 52.7125 3.51193 52.773Z" fill="#FDF8EE"/>
<path d="M11.2928 56.4139C11.7581 55.8333 12.4707 56.5377 12.6923 57.248C12.7909 57.5641 12.8553 57.8661 12.8054 58.0157C12.3803 59.5038 10.3526 58.1548 11.061 56.7788C11.1314 56.6422 11.2089 56.5186 11.2928 56.4139Z" fill="#FDF8EE"/>
<path d="M17.4638 3.26666C17.4923 3.26666 17.5196 3.28168 17.5348 3.30572C17.9548 3.96855 17.7057 4.46248 17.2216 4.81162C16.6702 5.20922 16.0167 4.64184 16.0879 3.9658L16.1333 3.53388C16.1703 3.18259 16.5056 2.94017 16.8453 3.03702C17.0417 3.09302 17.23 3.15501 17.3213 3.20819C17.3619 3.23184 17.4168 3.26666 17.4638 3.26666Z" fill="#FD937D"/>
<path d="M4.05089 53.7037C4.05089 53.8013 4.05089 53.9071 4.05089 54.0169C4.05089 54.5656 3.13623 55.4284 3.13623 54.8797C3.13623 54.2696 3.36416 53.6594 3.92644 53.7943C3.9873 53.8089 4.05089 53.7663 4.05089 53.7037Z" fill="#FD937D"/>
<path d="M21.9393 32.4747C21.9567 32.5992 21.8889 32.7479 21.7925 32.6673C21.7687 32.6474 21.7438 32.6216 21.7187 32.5914C21.4273 32.2405 21.8763 32.023 21.9393 32.4747Z" fill="#FB5109"/>
<path d="M57.2314 87.6769C57.2314 87.6047 57.2945 87.5396 57.3579 87.574C57.4506 87.6242 57.4506 87.7296 57.3579 87.7798C57.2945 87.8142 57.2314 87.7491 57.2314 87.6769Z" fill="#FD937D"/>
<path d="M88.5913 82.7116C88.5913 82.6394 88.6543 82.5743 88.7178 82.6087C88.8105 82.6589 88.8105 82.7643 88.7178 82.8145C88.6543 82.8489 88.5913 82.7838 88.5913 82.7116Z" fill="#FD937D"/>
<path d="M67.5039 86.9508C67.6375 86.9501 67.7256 87.0769 67.8033 87.1856C67.8458 87.245 67.8964 87.317 67.9494 87.3949C68.279 87.879 68.0095 88.1995 67.4239 88.1995C66.8382 88.1995 66.4437 87.8386 66.8267 87.3955C67.0368 87.1525 67.3 86.9518 67.5039 86.9508Z" fill="#FDF8EE"/>
<path d="M25.2813 85.972C24.9336 85.1119 27.1494 85.276 27.608 86.0825C27.8267 86.467 27.2895 87.0831 26.8527 87.0133C26.0936 86.892 25.4701 86.4389 25.2813 85.972Z" fill="#FDF8EE"/>
<path d="M12.9357 0C12.9357 0.216495 13.1112 0.391998 13.3277 0.391998H76.9594C87.4969 0.391998 96.0392 8.93433 96.0392 19.4718V74.1306C96.0392 75.0323 95.0042 75.7634 94.5319 76.5315C94.483 76.6111 94.4361 76.6931 94.3891 76.7749C93.9538 77.5321 93.327 78.7225 94.2004 78.7105C95.0871 78.6982 96.0392 79.1817 96.0392 80.0685V80.8538C96.0392 81.9606 95.0339 83.5398 93.9486 83.7569C93.2952 83.8876 91.3353 83.7569 91.2046 83.7569C91.0739 83.7569 91.0739 83.1036 90.8126 83.1036C90.5232 83.1036 89.9489 83.3885 89.4052 83.3272C89.2185 83.3062 88.967 83.504 89.0186 83.6845C89.0602 83.83 88.9217 83.9759 88.7705 83.9807C87.8483 84.0095 86.5704 84.8873 86.1086 84.5409C85.586 84.1489 86.1086 84.0182 85.8473 84.0182C85.3254 84.0182 84.7202 84.6018 84.0316 84.5703C83.8256 84.5609 83.5938 84.7551 83.6505 84.9534C83.6984 85.121 83.5479 85.2836 83.3736 85.2788C82.3029 85.2495 81.1617 85.9782 80.2287 85.9782C78.7503 85.9782 78.61 85.3092 78.4359 84.6098C78.1899 83.6221 77.2767 84.8005 76.2781 84.6034C76.1258 84.5733 76.0003 84.4251 75.9215 84.1741C75.6706 83.3746 75.301 83.0699 74.4794 83.2342C74.1715 83.3112 73.8523 83.3088 73.5284 83.2772C71.9928 83.1272 71.9417 84.8435 70.4287 84.5409C68.4687 84.1489 69.906 83.3649 69.2527 83.8876C68.5994 84.4102 69.6447 85.0636 69.514 85.1942C69.122 85.5862 66.7701 85.7169 66.5087 85.8476C66.1167 86.1089 64.6794 87.6769 64.0261 87.9382C62.7194 88.4609 61.4128 87.9382 60.3674 88.0689C59.3221 88.1995 59.5834 88.5915 59.0608 88.5915C58.3216 88.5915 58.2424 88.3941 57.5418 88.6296C57.1604 88.7577 56.8956 88.5568 56.3168 88.7222C55.4021 88.9835 55.0101 89.5062 54.8795 89.5062H51.0476C50.3796 89.5062 49.4022 90.2164 48.7382 90.2902C47.8363 90.3904 47.0882 89.9527 46.8473 90.2146C46.6727 90.4045 46.5483 90.6822 46.2903 90.6822C46.0535 90.6822 45.8884 90.4869 45.846 90.2539C45.8051 90.0289 45.6681 90.0289 45.2102 90.0289C45.2102 90.0289 43.6473 89.4633 42.915 89.3024C42.3545 89.1791 41.7526 89.1846 41.6822 89.1142C41.5515 88.9835 41.6822 88.4609 41.5515 88.4609C41.0289 88.4609 40.7675 89.1142 40.3755 89.1142C39.9835 89.1142 39.5915 88.0689 39.0689 87.9382C38.9421 87.9065 38.8077 87.9133 38.6693 87.9398C37.8206 88.1024 36.6214 88.2744 36.7169 87.4156C36.8475 86.2396 37.6315 87.0236 37.3702 86.5009C37.1089 85.9782 35.8022 84.5409 35.6716 84.5409C35.3724 84.5409 35.0733 84.8453 34.7741 85.0476C34.6008 85.1647 34.3889 85.1942 34.1797 85.1942C33.7483 85.1942 33.3202 85.1942 32.9093 85.1942C32.3716 85.1942 31.9627 85.677 32.0511 86.2073C32.1074 86.545 31.92 86.7991 31.6079 86.6584C30.7662 86.2787 29.2793 85.1942 28.8769 85.1942C28.4172 85.1942 27.9575 87.115 27.5867 85.2657C27.4916 84.7917 27.4003 84.9329 26.9169 84.9329C26.8279 84.9329 26.7426 84.9063 26.6624 84.8623C26.0843 84.5446 25.6249 84.0524 24.9783 84.183C23.9922 84.3822 23.9659 84.0095 22.9682 84.1378C22.9358 84.142 22.9018 84.1457 22.8663 84.1489C20.253 84.1489 20.9063 82.8422 20.5143 82.4502C20.1223 82.0582 18.9463 82.9729 18.685 82.7116C18.0317 82.1889 19.861 82.0582 19.3383 81.4049C18.8157 80.7516 18.293 81.4049 18.1623 81.0129C18.0316 80.6209 17.901 78.6609 16.8556 79.4449C16.1599 79.9667 16.1762 79.4353 15.3607 79.1332C15.3325 79.1228 15.3039 79.1129 15.2752 79.1034C14.6921 78.9112 14.3408 78.4285 14.0269 77.9009C13.552 77.1027 13.013 77.5356 12.805 77.2236C12.5437 76.8316 13.197 76.1783 13.0663 75.7863C12.9357 75.3943 12.413 75.6556 12.413 75.3943C12.413 74.7409 13.3277 74.3489 12.021 73.565C10.7144 72.781 10.845 73.6956 11.1064 72.6503C11.2478 72.0844 11.619 71.9397 11.8676 71.8017C12.2387 71.5956 11.7376 71.2535 11.3174 71.3135L10.7026 71.4013C10.433 71.4398 10.1917 71.2306 10.1917 70.9582C10.1917 70.6103 9.81545 70.4025 9.50191 70.5533C9.17885 70.7086 8.83564 70.8237 8.44482 70.8436C8.19363 70.8563 8.03193 70.6055 8.10103 70.3636C8.17013 70.1218 8.00984 69.8746 7.76085 69.839L7.51792 69.8043C7.0306 69.7347 6.86653 69.1619 6.9673 68.6801C7.09545 68.0673 6.40237 68.0415 6.40237 67.9463C6.40237 67.8353 6.44428 67.6929 6.49844 67.5338C6.74056 66.8228 6.92282 66.6134 7.61611 66.9025C7.98618 67.0568 7.86407 66.1516 7.51555 65.9534C6.67121 65.4732 5.28754 65.6935 4.96506 64.941C4.73895 64.4134 4.81715 63.9293 4.94891 63.589C5.08169 63.246 5.38754 63.0238 5.74793 62.9504C6.20971 62.8563 6.57951 62.6932 4.9475 61.8621C4.88022 61.8278 4.83438 61.7573 4.83438 61.6818C4.83438 61.5987 4.88816 61.5243 4.96452 61.4915C6.84104 60.6863 4.96222 59.0327 4.83438 57.7544C4.75495 56.96 5.01356 56.2139 4.87625 55.6629C4.69055 54.9178 3.91972 54.341 3.91972 53.5731C3.91972 53.1811 3.91972 52.9197 3.26639 52.6584C1.82907 51.8744 2.35172 53.1811 1.82906 53.3117C0.94481 53.5328 0.371395 52.3488 1.28237 52.3188C1.55286 52.3099 1.78677 52.3087 1.82906 52.2664C2.33666 51.7588 2.50407 51.1373 3.11771 50.7648C3.88258 50.3004 3.13572 49.1367 3.13572 48.3464C3.13572 47.3011 3.91972 46.2558 3.91972 45.6024C3.91972 44.4264 3.13572 42.4664 3.13572 41.4211C3.13572 40.3758 3.78905 39.7225 3.78905 39.1998C3.78905 38.6771 2.0904 38.6771 2.35174 36.7171C2.61307 34.7572 3.52772 33.5812 3.78905 33.0585C4.05038 32.5358 4.31171 33.1892 4.44238 32.7972C5.02907 31.0371 4.96885 29.0227 5.98405 27.4699C6.07756 27.3268 6.17315 27.1859 6.27172 27.0479C6.92505 26.1332 7.57837 26.6559 7.18637 25.4799C6.79438 24.3039 5.61837 25.2185 6.6637 22.9972C7.70903 20.7759 8.36237 22.4746 8.49303 19.7306C8.55907 18.3438 8.35813 17.9249 8.32871 17.6642C8.23114 16.7998 8.10869 16.8024 8.23171 15.9413C8.36237 15.0266 9.79969 13.5893 10.061 12.6746C10.3224 11.7599 10.061 11.3679 10.061 10.8453C10.061 10.3226 10.845 10.4533 10.9757 10.0613C11.1063 9.66928 11.237 7.57863 11.3677 7.05596C11.4357 6.78375 11.3266 6.19256 11.2248 5.65157C11.0903 4.93685 11.5068 4.56489 12.021 4.05065C12.1517 3.91998 11.7597 3.13598 11.7597 2.48265C11.7597 1.30666 12.9357 1.17599 12.9357 0ZM17.5398 3.26665C17.5194 3.26665 17.4995 3.2631 17.4805 3.256C17.4362 3.23952 17.3441 3.20538 17.2303 3.16399C16.7262 2.98071 16.2904 3.27965 16.2342 3.81313C16.1565 4.55182 16.9038 5.16877 17.4419 4.65669C17.784 4.33102 17.9496 3.90207 17.686 3.35582C17.6592 3.30029 17.6014 3.26665 17.5398 3.26665ZM64.5487 31.1368C64.5487 31.1123 64.5595 31.0895 64.5719 31.0683C64.8523 30.5886 62.9718 28.0843 62.5887 27.7012C60.1061 25.4799 57.4928 26.2639 54.6181 26.9172C51.7435 27.5705 51.0901 27.9625 49.2608 28.4852C46.5168 29.2692 43.3808 30.9678 41.0289 32.5358C39.3921 33.627 38.3249 34.6549 37.0786 35.5314C35.9484 36.3262 34.4218 37.2061 34.7569 38.5465C34.8875 39.0691 35.2796 38.5465 35.5409 38.8078C35.8548 39.1217 36.1492 39.4073 36.5927 39.4273C37.4131 39.4642 38.2163 39.1927 38.9382 38.6771C39.8529 38.0238 40.3755 36.9785 40.6369 36.8478C41.0289 36.5865 41.8129 36.5865 42.4662 36.1945C42.6993 36.0546 42.999 35.7816 43.2999 35.4824C44.1364 34.6507 45.1421 34.1625 46.3178 34.0663C46.6455 34.0395 46.9732 33.9829 47.3008 33.8425C48.2155 33.4505 47.8235 33.1892 48.0848 33.0585C48.3462 32.9278 49.2608 33.0585 49.6528 33.0585C50.3844 33.0585 50.3671 31.963 51.0554 31.7152C52.8274 31.077 55.8925 30.3145 56.8394 30.3145C60.4981 30.0532 61.4128 32.0132 59.8448 35.1492C58.2768 38.2851 57.1008 39.0691 56.1861 40.8985C54.7488 43.9038 58.1461 44.5571 59.9754 42.7278C61.8047 40.8985 63.2421 37.3705 63.5034 36.8478C63.7647 36.3251 64.6794 32.9278 64.6794 32.6665C64.6794 32.1396 64.4245 31.8677 64.1888 31.5081C64.1074 31.384 64.2007 31.2292 64.3492 31.2292C64.3884 31.2292 64.4253 31.2292 64.4564 31.2292C64.5074 31.2292 64.5487 31.1878 64.5487 31.1368ZM21.6912 32.6258C21.8246 32.7645 21.9635 32.5086 21.921 32.3209C21.8246 31.8952 21.3719 32.1654 21.6142 32.5284C21.6389 32.5653 21.6647 32.5983 21.6912 32.6258ZM21.037 32.2745C21.037 32.1913 21.0031 32.1087 20.9323 32.065C19.3464 31.0854 13.978 36.3698 13.8503 38.2851C13.8155 38.8079 13.855 39.2006 13.9342 39.4978C14.1666 40.3702 15.2213 40.7482 16.079 40.4661C16.5769 40.3023 17.0547 40.0461 17.2477 39.8531C17.6396 39.4611 21.1676 35.5412 21.2983 35.2798C21.429 35.0185 21.037 34.7572 21.037 34.6265C21.037 34.1029 21.95 33.9146 21.673 33.4702C21.5364 33.251 21.2646 33.1555 21.037 32.9278C20.645 32.5358 21.037 32.4052 21.037 32.2745ZM61.2165 54.0957C61.1763 54.0957 61.1396 54.0732 61.1175 54.0397C60.4002 52.9538 57.4778 53.9736 56.5781 54.4877C55.6635 55.0104 53.8341 57.6237 53.7035 57.885C53.0086 59.1357 53.1267 60.1647 53.7628 60.6773C55.1967 61.8327 57.0516 59.8543 58.349 58.5476C59.8981 56.9874 61.7144 55.1086 61.3107 54.1549C61.2949 54.1176 61.2569 54.0957 61.2165 54.0957ZM12.6015 56.6295C12.4246 56.3112 12.116 55.9862 11.7626 56.074C11.4904 56.1417 11.2538 56.4081 11.0672 56.7661C10.3276 58.185 12.3654 59.5542 12.805 58.0157C12.9609 57.4702 12.7914 56.9712 12.6015 56.6295ZM88.7178 82.6086C88.6543 82.5743 88.5913 82.6394 88.5913 82.7116C88.5913 82.7837 88.6543 82.8489 88.7178 82.8145C88.8105 82.7643 88.8105 82.6589 88.7178 82.6086ZM57.3579 87.574C57.2945 87.5396 57.2315 87.6047 57.2315 87.6769C57.2315 87.7491 57.2945 87.8142 57.3579 87.7798C57.4506 87.7296 57.4506 87.6242 57.3579 87.574Z" fill="#FBD209"/>
<path d="M14.2059 79.189C14.3677 78.9732 14.3163 78.6638 14.0943 78.5106C13.8998 78.3764 13.714 78.2509 13.5882 78.1855C13.5063 78.1428 13.4137 78.1247 13.3233 78.1062C12.086 77.8531 10.0991 78.4506 10.7307 76.8887C11.0072 76.2053 10.3353 75.6344 10.7146 75.0023C11.0935 74.3708 10.8613 74.3899 10.125 74.4054C9.83074 74.4117 9.59082 74.4012 9.53862 74.349C9.40795 74.2183 9.01596 71.997 8.88529 71.8663C8.75462 71.7356 7.44796 73.173 5.87997 72.1276C4.31198 71.0823 5.22663 70.429 5.09597 69.5143C5.00219 68.8579 4.36365 68.7349 4.66007 68.1417C4.882 67.6977 5.17363 67.261 5.09597 66.6397C4.9653 65.5943 4.5733 65.5943 4.44264 65.0717C4.31197 64.549 4.44264 64.0263 4.44264 63.765C4.44264 63.5037 1.82933 62.589 1.69866 62.4584C1.568 62.3277 2.35199 61.2824 1.95999 60.8904C1.56799 60.4984 1.04532 60.8904 0.783984 60.3677C0.522652 59.845 1.43733 58.1464 1.30666 57.6237C1.17599 56.709 -0.261328 56.5784 0.392002 54.8797C1.04533 53.1811 0.914658 54.6184 0.914658 54.4877C0.914658 53.0243 1.51973 52.0203 0.815943 50.7372C0.749298 50.6157 0.690653 50.4744 0.65333 50.3064C0.563676 49.903 0.550915 49.6687 0.567564 49.5244C0.599505 49.2477 0.671868 49.0092 0.579753 48.7463C0.223786 47.7303 1.56779 48.3711 1.67837 49.4419C1.73518 49.9919 1.75972 50.5494 1.69866 51.2211C1.568 52.6584 1.69866 52.3971 1.69866 52.5277C1.69866 52.6584 -0.391994 52.3971 0.392002 53.1811C1.176 53.9651 1.568 53.5731 1.69866 53.5731C2.77338 53.5731 2.89104 54.0031 1.9371 54.4981C1.8071 54.5656 1.68139 54.5728 1.56799 54.4877C0.957843 54.0301 0.444542 54.5588 1.07382 54.9897C1.36948 55.1922 1.86266 55.0984 2.09064 55.4024C2.48264 55.9251 1.82931 56.317 2.09064 56.9704C2.37263 57.5343 3.12792 57.4222 3.43238 57.8498C3.63469 58.134 3.97322 58.4464 4.28523 58.2904C4.55043 58.1578 4.8831 58.3313 4.99008 58.6078C5.43881 59.7678 6.56182 61.0676 4.96477 61.7528C4.88841 61.7856 4.83464 61.8601 4.83464 61.9432C4.83464 62.0187 4.88048 62.0892 4.94776 62.1234C7.38642 63.3654 5.35537 63.1156 5.22664 63.373C5.09597 63.6343 4.83465 64.941 4.96531 65.2023C5.28377 65.9454 6.6371 65.7399 7.48396 66.1971C7.85713 66.3985 7.96498 67.3633 7.59622 67.1539C6.9473 66.7853 6.78234 67.0641 6.51929 67.7625C6.45555 67.9317 6.40263 68.0829 6.40263 68.2077C6.40263 68.4975 7.04559 68.3587 6.90526 68.9534C6.79114 69.437 6.98136 69.989 7.47325 70.0593L7.79522 70.1053C8.02617 70.1382 8.17485 70.3675 8.11075 70.5918C8.04052 70.8376 8.22603 71.0824 8.47886 71.0447C8.82603 70.993 9.15722 70.8899 9.49955 70.7492C9.82375 70.6159 10.192 70.8414 10.192 71.1919C10.192 71.4789 10.4461 71.6993 10.7302 71.6587L11.3176 71.5748C11.7378 71.5148 12.2023 71.7924 11.9706 72.1481C11.8052 72.4017 11.5104 72.6014 11.3118 72.7373C11.1619 72.8398 11.0761 73 11.0551 73.1803C10.9725 73.8862 11.55 73.5907 12.0213 73.8263C13.1973 74.6103 12.2826 75.0023 12.4133 75.6556C12.5439 76.3089 13.0666 75.7863 13.0666 76.0476C13.0666 76.3089 12.5439 77.0929 12.8053 77.4849C13.0126 77.796 13.549 77.3666 14.0229 78.1551C14.3419 78.6859 14.6979 79.1629 15.2938 79.3315C15.3629 79.351 15.4308 79.3735 15.4965 79.4011C16.2702 79.7265 16.2624 80.2998 16.8559 79.7063C17.9012 78.7916 18.0319 81.0129 18.1626 81.2743C18.5303 82.0097 19.2867 81.9743 18.6595 82.506C18.5207 82.6236 18.4776 82.7652 18.6852 82.9729C19.5904 83.878 20.3261 83.8863 21.5416 84.2875C21.8486 84.3888 22.2734 84.4399 22.8665 84.4102C24.1691 84.3451 24.2849 84.514 25.5735 84.3131C25.7011 84.2932 25.843 84.2796 26.0025 84.2796C27.3092 84.2796 26.3945 85.0636 26.9172 85.1942C27.3673 85.3068 27.5019 85.1275 27.6142 85.5777C28.0541 87.3407 28.7633 85.4556 28.8772 85.4556C29.4008 85.4556 31.0158 86.7148 31.7708 87.0127C32.0092 87.1068 32.1204 86.8829 32.0782 86.6301C31.9758 86.0153 32.4499 85.4556 33.0732 85.4556C33.5732 85.4556 34.0552 85.4556 34.4958 85.4556C35.2798 85.4556 35.4105 84.8022 35.6718 84.8022C35.8024 84.8022 36.2268 85.2592 36.6187 85.7327C37.1545 86.3801 36.7171 86.8365 36.7171 87.6769C36.7171 88.8529 37.2398 88.3302 37.3705 88.4609C37.6239 88.7143 37.0244 89.4524 36.6795 89.5497C36.3087 89.6544 35.9526 89.7675 35.6718 89.7675C35.2357 89.7675 35.2545 89.0397 34.6652 89.0264C34.423 89.021 34.3085 89.2993 34.3985 89.5243C34.5372 89.871 34.194 90.2368 33.8288 90.1589C31.0364 89.5634 27.4316 90.2591 25.0879 88.8529C22.4745 87.2849 24.6959 88.0689 24.4345 87.9382C24.1732 87.8076 23.6505 88.3302 23.2585 88.1995C22.6003 87.9801 22.3542 87.3316 21.6655 87.2476C21.2774 87.2003 20.8458 86.9514 20.5581 86.6868C20.0687 86.2368 19.7427 85.5983 19.3386 85.1942C19.0645 84.9202 18.7546 84.7898 18.5029 84.709C18.1857 84.6071 17.9674 84.3805 17.9479 84.048C17.9027 83.2803 17.9653 82.0104 17.2374 81.8713C16.9518 81.8168 16.7882 82.148 16.8681 82.4276C16.9375 82.6704 16.8248 82.9728 16.574 82.9433C15.7717 82.8491 15.6284 80.8479 15.2879 80.6209C14.8959 80.3596 14.2426 80.3596 14.1119 80.2289C14.0039 80.1209 14.0745 79.7451 14.1022 79.4704C14.1124 79.3693 14.1449 79.2703 14.2059 79.189ZM27.5331 86.0519C27.028 85.3091 24.9858 85.0528 25.2584 85.9088C25.4122 86.3915 26.0437 86.8747 26.8238 87.0086C27.2723 87.0855 27.789 86.4283 27.5331 86.0519Z" fill="#FD937D"/>
<path d="M43.4463 89.3359C43.989 89.4802 44.0627 90.6062 43.5027 90.5648C43.4644 90.562 43.424 90.5576 43.3813 90.5515C43.1096 90.5127 42.8609 90.4393 42.6524 90.3347C42.0393 90.027 42.7833 89.1597 43.4463 89.3359Z" fill="#FD937D"/>
<path d="M46.119 90.3526C46.1029 90.1214 45.4055 90.477 45.6174 90.571C45.7371 90.6241 46.1281 90.4832 46.119 90.3526Z" fill="#FD937D"/>
<path d="M47.0989 90.7417C47.06 90.7029 47.0322 90.6527 47.0226 90.5986C46.8362 89.5509 47.9799 90.4176 48.9993 90.2902C49.6913 90.2037 50.5646 89.5062 51.262 89.5062H53.9444C54.7173 89.5062 55.4436 89.1847 56.1482 88.867C56.2915 88.8024 56.4377 88.7503 56.578 88.7222C57.0288 88.6321 57.3552 88.853 57.8577 88.6122C58.4928 88.3079 58.6176 88.5916 59.3219 88.5916C59.8446 88.5916 60.1059 88.0689 60.6286 88.0689C61.6739 88.0689 62.9806 88.3302 64.2873 87.9382C65.5939 87.5462 66.3779 86.1089 66.7699 85.8476C67.1619 85.5862 69.5139 85.4556 69.7752 85.1942C70.0366 84.9329 69.3832 84.0183 69.5139 83.8876C69.8741 83.5994 70.1548 83.8276 70.3562 84.0903C70.5849 84.3888 71.2076 84.7303 71.5427 84.5597C72.5383 84.0529 72.0713 83.0311 73.1762 83.1955C73.7085 83.2746 74.2395 83.3595 74.7405 83.2343C75.5528 83.0312 75.9133 83.3904 76.2031 84.176C76.2749 84.3705 76.3779 84.4978 76.5005 84.5464C77.4373 84.9176 78.4451 83.6728 78.6933 84.6495C78.8693 85.342 79.0009 85.9782 80.4898 85.9782C82.8558 85.9782 82.8656 85.3356 83.7189 85.3109C83.8617 85.3068 83.9748 85.1744 83.9356 85.0371C83.8813 84.847 84.1589 84.6294 84.3566 84.6248C84.9772 84.6102 85.6168 84.0182 86.1085 84.0182C86.345 84.0182 86.4274 84.0867 86.4424 84.1741C86.4867 84.4305 86.4935 84.6317 86.7534 84.6207C87.3803 84.5943 88.3133 84.0505 88.9889 83.9862C89.1538 83.9704 89.3133 83.8019 89.2678 83.6426C89.2151 83.4583 89.4406 83.28 89.6293 83.3139C90.2251 83.4208 90.7684 83.1036 91.0738 83.1036C91.4658 83.1036 91.2045 83.7569 91.4658 83.7569C91.7271 83.7569 94.0791 83.7569 94.2098 83.7569C94.6198 83.7569 95.1102 83.194 95.7442 83.0776C96.0712 83.0175 96.3004 83.3329 96.3004 83.6654C96.3004 84.0768 95.9667 84.4085 95.556 84.4318C93.0818 84.5721 90.7058 85.3605 88.3298 85.7169C85.7165 86.1089 86.6311 85.4556 85.8472 85.4556C83.3645 85.7169 79.9672 87.4156 76.9619 87.5462C76.5396 87.5646 76.1922 87.57 75.904 87.567C74.9182 87.5564 73.8779 86.4329 72.9112 86.2396C72.2579 86.1089 72.3886 85.7169 71.8659 85.7169C71.3789 85.7169 71.352 86.2341 70.8802 86.3548C70.7802 86.3804 70.6754 86.4234 70.5592 86.5009C70.3247 86.6572 70.1837 87.0006 69.8565 87.1394C69.6325 87.2345 69.3791 87.6162 69.5394 87.7993C69.649 87.9247 69.591 88.1215 69.4308 88.1673L69.3555 88.1888C69.1434 88.2494 69.0839 88.5216 69.2514 88.6652L69.3296 88.7323C69.5257 88.9004 69.4636 89.2181 69.2171 89.2953C67.7827 89.7445 66.18 90.0987 64.6793 89.6369C62.9806 89.1142 64.1566 88.7222 64.0259 88.5916C63.5033 88.0689 62.1966 88.9836 61.6739 89.1142C56.4786 90.2832 52.8326 91.4521 47.2709 90.8244C47.2062 90.8171 47.1449 90.7878 47.0989 90.7417ZM68.0313 87.4352C67.8261 87.1123 67.4585 86.9431 67.1458 87.1636C66.9283 87.3169 66.7072 87.5469 66.5694 87.7523C66.3793 88.0355 66.6825 88.1996 67.0235 88.1996H67.5352C68.0492 88.1996 68.3071 87.869 68.0313 87.4352Z" fill="#FD937D"/>
<path d="M61.0878 54.0957C61.1273 54.0957 61.1643 54.1171 61.1798 54.1534C61.586 55.1067 59.7686 56.9866 58.2187 58.5476C56.9213 59.8543 55.0665 61.8327 53.6326 60.6773C52.9964 60.1647 52.8784 59.1357 53.5732 57.885C54.3633 56.4629 55.2012 55.5662 55.7691 55.0506C56.2029 54.6567 56.7021 54.3322 57.2434 54.1077C58.4793 53.5953 60.4247 53.0797 60.989 54.0365C61.0097 54.0717 61.047 54.0957 61.0878 54.0957Z" fill="#FB5109"/>
<path d="M3.51193 52.773C3.52261 52.7836 3.53528 52.7927 3.54875 52.7995C3.57609 52.8134 3.60195 52.8269 3.62642 52.8401C4.0668 53.0781 3.5619 53.7925 3.39919 54.2659C3.35789 54.386 3.32506 54.514 3.29418 54.6384C3.27592 54.7119 3.25246 54.7948 3.29322 54.8587C3.35832 54.9607 3.53447 54.9308 3.72076 54.8951C4.02623 54.8366 4.34504 54.8964 4.62162 55.0386C5.49022 55.4854 5.08518 56.3877 5.08058 57.4107C5.07965 57.6179 4.97358 57.8156 4.78826 57.9083C4.40222 58.1013 3.90963 57.6255 3.52471 57.4302C3.1548 57.2426 2.57871 57.2379 2.35207 56.7091C2.22961 56.4233 2.18367 56.1759 2.17837 55.9666C2.16443 55.4151 2.11216 54.9787 1.57989 54.8337C1.44384 54.7966 1.3196 54.7419 1.23124 54.6333C0.804945 54.1093 1.69856 53.4964 1.8031 54.1637C1.81669 54.2505 1.86211 54.2629 1.94726 54.2844C2.40661 54.4007 2.9396 53.3392 3.3047 52.7906C3.35207 52.7195 3.45147 52.7125 3.51193 52.773Z" fill="#FDF8EE"/>
<path d="M11.2928 56.4139C11.7581 55.8333 12.4707 56.5377 12.6923 57.248C12.7909 57.5641 12.8553 57.8661 12.8054 58.0157C12.3803 59.5038 10.3526 58.1548 11.061 56.7788C11.1314 56.6422 11.2089 56.5186 11.2928 56.4139Z" fill="#FDF8EE"/>
<path d="M57.2314 87.6769C57.2314 87.6047 57.2945 87.5396 57.3579 87.574C57.4506 87.6242 57.4506 87.7296 57.3579 87.7798C57.2945 87.8142 57.2314 87.7491 57.2314 87.6769Z" fill="#FD937D"/>
<path d="M67.5039 86.9508C67.6375 86.9501 67.7256 87.0769 67.8033 87.1856C67.8458 87.245 67.8964 87.317 67.9494 87.3949C68.279 87.879 68.0095 88.1995 67.4239 88.1995C66.8382 88.1995 66.4437 87.8386 66.8267 87.3955C67.0368 87.1525 67.3 86.9518 67.5039 86.9508Z" fill="#FDF8EE"/>
<path d="M25.2813 85.972C24.9336 85.1119 27.1494 85.276 27.608 86.0825C27.8267 86.467 27.2895 87.0831 26.8527 87.0133C26.0936 86.892 25.4701 86.4389 25.2813 85.972Z" fill="#FDF8EE"/>
</svg>
