<svg width="193" height="181" viewBox="0 0 193 181" fill="none" xmlns="http://www.w3.org/2000/svg">
<path d="M161.468 16.7352C177.904 31.1502 193.397 53.2441 192.992 75.877C192.723 86.5198 183.966 111.173 177.5 119.526C171.033 127.879 167.935 129.495 163.624 134.749C159.313 140.003 158.639 141.889 155.541 145.123C150.152 150.646 143.281 157.113 137.488 162.232C127.923 170.719 119.975 170.719 108.389 174.222C98.0153 177.321 91.2794 181.093 79.8282 180.554C68.3771 180.015 59.755 179.746 51.8066 177.455C32.407 171.932 15.7018 148.491 8.42697 130.573C-3.42834 101.339 -4.50609 57.0163 16.5101 31.9585C37.3916 7.03541 89.2586 -1.3172 120.109 0.164717C150.96 1.64663 150.421 7.0354 161.468 16.8699V16.7352ZM99.632 19.5643C99.632 19.5643 99.2278 19.5643 98.9584 19.5643C98.6889 19.5643 98.6889 19.5643 98.6889 19.5643C98.2848 19.5643 97.0723 19.9685 97.0723 19.8337C97.0723 19.699 97.0723 19.2949 97.0723 19.1601C96.8029 18.8907 96.3987 19.4296 96.3987 19.4296H96.1293C95.1862 19.4296 94.1085 19.4296 93.1654 19.4296C92.2224 19.4296 91.6835 19.4296 90.8752 19.4296C88.3155 19.4296 87.3725 19.4296 84.6781 19.699C80.5018 20.2379 77.2686 20.7768 73.0923 21.8545C61.6411 24.9531 51.2677 31.689 42.7804 40.3111C34.2931 48.9331 42.511 41.2541 42.2415 41.5236C41.8374 41.9277 41.029 41.793 40.7596 42.0624C40.4902 42.3319 40.4902 43.2749 40.3555 43.2749C39.9513 43.5444 39.4124 42.736 39.4124 43.9485C39.4124 45.161 39.4124 44.2179 39.4124 44.2179C37.6611 44.4874 37.6611 46.9123 36.8527 48.1248C35.6403 48.3942 36.1792 48.7984 35.775 49.3373C32.5417 53.2441 30.1168 58.6329 28.2307 63.6175C25.2669 71.7007 23.1114 79.9186 22.5725 88.5406C22.0336 97.1627 22.5725 89.2142 22.5725 89.4836C22.5725 89.7531 22.5725 89.7531 22.5725 89.7531C22.5725 89.7531 22.3031 89.7531 22.3031 90.4267C22.3031 91.1003 22.3031 91.5044 22.5725 91.7739C21.8989 92.9864 22.1683 94.1988 22.8419 95.2766C22.8419 95.546 22.8419 95.9502 22.8419 96.2196C22.5725 97.4321 22.8419 98.3751 22.8419 99.7223C22.8419 102.551 22.8419 104.303 23.785 106.862C24.728 109.422 23.5155 107.805 23.5155 108.21C23.785 109.826 24.3238 111.308 24.728 112.925C24.728 112.925 25.1322 112.655 25.4016 112.655C25.4016 112.925 25.4016 113.329 25.4016 113.598C25.2669 114.676 25.671 116.697 26.7488 117.505C26.7488 118.044 27.2877 119.257 27.4224 119.796C27.5571 120.334 29.9821 123.972 29.9821 124.241C29.9821 124.511 29.7126 124.241 29.7126 124.376C29.5779 125.184 30.1168 124.78 30.3862 124.915C30.6557 125.05 30.3862 125.184 30.3862 125.184C31.1945 127.475 32.5417 128.956 33.4848 130.977L35.9097 133.537C35.9097 133.941 36.1791 134.076 36.1791 134.21C36.718 136.097 39.2777 138.387 41.0291 139.33C42.7804 140.273 41.4332 139.599 41.7026 139.599C41.7026 140.408 41.8374 140.542 42.3762 141.081C43.9929 142.563 46.822 143.506 48.4386 144.449C50.0552 145.392 51.5372 146.605 53.5579 147.278C55.5787 147.952 57.5995 148.895 58.812 148.895C60.0245 148.895 59.755 148.895 59.755 148.895C59.755 149.973 61.237 149.838 62.0453 149.838C62.8536 149.838 62.7189 149.838 62.9883 149.838C62.7189 150.646 63.5272 150.512 64.3355 150.512C65.1438 150.512 64.6049 150.512 64.6049 150.512C65.0091 150.916 65.4133 150.781 65.9521 150.781C67.434 151.05 67.2993 151.32 67.9729 151.589C68.6465 151.859 69.5895 151.589 70.2631 151.859C74.17 152.936 74.3047 152.667 78.2116 152.398C82.1185 152.128 78.8852 152.128 79.1546 152.128C79.4241 152.128 79.4241 152.128 79.4241 152.128C80.2324 152.128 81.4449 152.398 82.3879 152.398C83.3309 152.398 83.4656 152.398 84.0045 152.398C86.2947 152.398 86.8336 151.859 88.585 151.455C90.3363 151.05 91.5488 150.916 93.1654 150.512C94.7821 150.107 94.5126 149.973 94.7821 149.838C95.0515 149.703 95.1862 149.568 95.4557 149.568C95.7251 149.568 95.1862 149.838 96.1293 149.568C97.0723 149.299 97.3417 149.03 97.7459 148.895C98.15 148.76 98.6889 148.895 99.0931 148.895C99.4972 148.895 99.2278 148.221 99.3625 148.221C101.653 146.874 107.311 145.123 110.005 144.045C112.7 142.967 113.104 142.428 114.586 141.485C116.068 140.542 117.684 139.869 119.705 138.252C121.726 136.635 120.109 137.848 120.379 137.578C121.187 136.77 120.648 137.174 121.052 136.635C121.456 136.097 121.861 136.366 122.4 135.962C122.938 135.558 122.938 135.288 123.073 135.288C123.343 135.019 123.747 134.884 124.016 134.615C124.286 134.345 124.42 134.48 124.69 134.345C126.037 133.402 126.037 132.998 126.576 132.459C127.654 131.516 128.731 130.842 129.809 129.899C131.56 128.283 132.908 126.936 134.524 125.319C136.141 123.702 135.737 123.837 135.737 123.837C135.871 123.433 135.467 122.894 135.602 122.894C135.602 122.894 136.68 122.894 137.219 122.355C138.296 121.547 138.701 120.065 139.239 119.257C139.778 118.448 139.374 119.257 139.913 118.583C140.452 117.909 141.26 117.101 141.395 116.562C141.53 116.023 141.26 115.619 141.26 115.619C141.26 115.619 141.934 115.889 142.203 115.35C142.473 114.811 143.416 112.521 143.82 111.712C144.224 110.904 144.224 110.769 144.494 110.365C144.763 109.961 144.763 109.961 144.763 109.692C146.245 106.728 146.649 106.189 147.727 102.956C148.805 99.7223 149.343 100.935 149.882 99.0487C150.421 97.1626 150.556 93.1211 150.691 92.8516C150.825 92.5822 151.229 92.9864 151.364 92.5822C152.173 89.8878 152.846 85.0379 152.711 82.4782C152.577 79.9186 152.711 81.131 152.711 80.5922C153.385 79.6491 153.789 77.6283 152.981 76.6853C153.25 74.934 154.059 71.4313 153.789 69.8146C153.52 68.198 153.116 68.7369 152.981 68.3327C152.846 67.9286 152.981 68.0633 152.981 68.0633V67.7938C153.25 64.1564 152.577 64.9647 152.038 62.2703C151.499 59.576 151.768 59.4412 151.095 57.2857C149.478 52.7053 146.38 45.0263 143.146 40.85C139.913 36.6737 142.069 40.4458 141.664 39.9069C139.644 37.3473 139.239 37.2125 137.084 35.3265C134.928 33.4404 136.68 34.9223 136.41 34.6529C136.141 34.3834 135.737 33.9793 135.467 33.7098C135.198 33.4404 134.794 33.0362 134.524 32.7668C131.156 29.2641 128.866 26.9739 124.69 24.5489C120.513 22.124 117.954 20.5073 115.394 20.3726C113.373 19.0254 111.353 19.2949 109.197 19.0254C107.042 18.756 108.793 19.0254 108.523 19.0254C108.254 19.0254 108.119 19.0254 107.85 19.0254C107.446 19.0254 106.503 18.756 105.964 18.756C105.425 18.756 104.078 17.9477 103.404 18.756C102.461 18.6213 101.383 18.4866 100.44 18.4866C99.4972 18.4866 99.7667 17.5435 99.7667 18.756L99.632 19.5643Z" fill="#FD4C49" fill-opacity="0.03"/>
<path d="M84.6781 19.8337C84.4087 20.5073 84.6781 22.1239 84.4087 22.6628C84.1393 23.2017 83.4657 23.067 83.6004 23.7406H83.3309C82.6573 23.6058 81.4449 23.067 81.7143 24.01H81.4449L81.1754 23.3364C80.6365 23.3364 80.906 23.8753 80.906 24.2794C80.0977 24.1447 80.3671 24.953 80.0977 24.953C77.4033 25.2225 75.5172 26.1655 72.9575 26.8391C70.3979 27.5127 67.9729 28.1863 67.7035 28.1863C67.434 28.1863 67.7035 27.9169 67.4341 27.9169C67.1646 27.9169 67.1646 28.1863 67.1646 28.1863L66.8952 28.4557C66.6257 28.4557 66.2216 28.4557 65.9521 28.4557C65.8174 27.1085 65.8174 28.0516 65.6827 28.4557C64.7397 30.8807 58.812 33.1709 56.6565 34.5181C54.501 35.8653 53.8274 37.3472 52.4802 38.1555C51.133 38.9638 51.8066 38.425 51.4024 38.5597C50.9983 38.6944 50.4594 38.0208 49.9205 38.8291L49.6511 38.1555L48.8428 38.9638L49.5164 40.0416L49.2469 40.311C47.3609 40.1763 48.1692 40.4458 47.8997 41.2541C47.3609 41.3888 45.6095 42.1971 45.4748 42.6013C45.0706 43.4096 45.3401 45.4304 43.454 45.0262L44.1276 46.104C43.0498 45.9693 42.9151 46.104 42.3763 47.047C42.1068 46.104 42.1068 45.5651 41.0291 46.3734C40.8943 46.6428 41.4332 47.7206 41.1638 47.99C40.8943 48.2595 40.086 47.7206 40.2207 48.2595C40.6249 48.2595 41.029 48.2595 41.5679 48.2595C41.2985 48.5289 41.2985 49.472 41.2985 49.6067C41.2985 49.6067 40.3555 49.2025 40.6249 50.5497H40.3555C40.086 50.5497 39.4124 50.1456 39.4124 50.2803C39.9513 51.6275 38.8735 52.3011 38.7388 52.4358C38.6041 52.5705 38.7388 52.9747 38.7388 53.2441C38.7388 53.5135 38.7388 53.783 38.4694 53.9177C37.5264 53.9177 37.5264 54.3219 38.4694 54.1871C38.4694 54.9955 37.2569 55.3996 36.8527 56.0732C34.6972 60.5189 33.0806 65.9077 31.464 70.6229C29.8473 75.3381 30.5209 75.2033 29.9821 78.1672C29.4432 81.131 29.1737 79.9185 28.7696 80.4574C30.1168 80.8616 29.039 81.8046 28.7696 82.7476C28.5001 84.2295 27.9613 87.1934 27.8266 88.6753C27.6918 90.1572 28.6349 92.5822 27.8266 94.8724C27.0182 97.1626 27.153 96.0849 27.153 96.0849C26.7488 96.3543 26.0752 95.8154 26.2099 96.7585C28.6349 97.0279 27.4224 97.1626 27.6918 98.3751C27.9613 99.5876 27.9613 99.4528 28.5002 99.5876C28.5002 99.857 28.5002 100.261 28.5002 100.531C27.5571 100.396 27.8266 100.935 27.9613 101.608C27.9613 102.956 27.9613 104.976 28.9043 106.054C28.9043 106.458 28.9043 106.997 28.9043 107.401C29.1738 108.614 28.2307 107.401 27.9613 107.671C27.4224 108.075 28.6349 108.479 28.9043 108.883C29.5779 110.096 29.1737 112.116 28.5002 113.194C27.8266 114.272 26.7488 113.194 26.3446 113.464C26.3446 113.194 26.3446 112.79 26.3446 112.521C26.7488 112.386 27.5571 112.116 27.6918 111.578C26.6141 111.578 26.2099 111.847 26.3446 110.635C26.3446 110.635 26.8835 111.039 27.0182 110.904C27.5571 110.23 26.4794 110.23 26.3446 109.961C25.9405 109.422 25.4016 108.21 25.1322 107.671C24.8627 107.132 26.4794 106.054 24.728 106.728C23.9197 104.168 23.9197 102.417 23.785 99.5876L24.4586 98.2404C24.8627 98.6445 25.2669 98.6445 25.1322 98.1056C24.9974 97.5668 24.5933 98.1056 24.5933 97.8362C24.5933 97.5668 25.5363 95.9501 23.9197 95.9501C23.9197 95.6807 23.9197 95.2765 23.9197 95.0071C23.9197 95.1418 24.3238 95.8154 24.5933 95.6807C25.9405 93.7946 24.1891 94.1988 23.9197 94.0641C23.6503 93.9293 24.3239 92.0433 24.1891 91.6391C24.0544 91.235 23.6503 91.6391 23.5155 91.5044C23.2461 91.235 23.2461 90.5614 23.2461 90.1572C23.9197 90.1572 24.1891 90.0225 23.5155 89.4836V89.2142C24.4586 89.4836 24.5933 88.0017 23.5155 88.2711C23.9197 79.6491 26.0752 71.4312 29.1737 63.348C32.2723 55.2649 33.4848 52.9747 36.718 49.0678C39.9513 45.1609 36.718 48.2595 37.7958 47.8553C38.8735 47.4512 38.4694 47.8553 38.7388 47.8553C39.143 47.5859 38.8735 46.2387 39.2777 45.9693C39.6819 45.6998 40.6249 45.6998 40.7596 45.6998C40.8943 45.5651 40.4902 44.4873 40.4902 44.0832C40.4902 43.679 40.4902 43.8137 40.4902 43.8137C41.2985 43.8137 41.5679 43.9485 41.4332 43.1401C41.4332 43.1401 41.4332 42.1971 41.8374 41.9277C42.2415 41.6582 42.9151 41.9277 43.3193 41.3888C43.7234 40.8499 43.5887 40.4458 43.8582 40.1763C52.4802 31.5543 62.7189 24.6836 74.17 21.7198C85.6212 18.7559 81.4449 19.9684 85.7559 19.5643L84.6781 19.8337ZM50.7288 36.6736C50.4594 36.4042 49.7858 36.6736 50.0553 37.3472C51.2677 37.2125 49.7858 38.1555 50.9983 38.0208C50.9983 37.7514 50.7288 36.8083 50.7288 36.6736ZM49.6511 37.6166V37.8861C49.9205 37.8861 49.9205 37.6166 49.6511 37.6166ZM41.8374 45.6998V45.9693C42.1068 45.9693 42.1068 45.6998 41.8374 45.6998ZM38.3347 51.6275V51.8969C38.6041 51.8969 38.6041 51.6275 38.3347 51.6275ZM37.5263 53.783C37.7958 53.3788 37.2569 52.9747 37.2569 53.1094C36.9875 53.5135 37.5263 53.9177 37.5263 53.783ZM27.0182 100.126V100.396C27.2877 100.396 27.2877 100.126 27.0182 100.126ZM27.153 104.976C26.7488 104.572 26.2099 105.246 26.4794 105.65C26.7488 106.054 27.4224 105.38 27.153 104.976ZM27.2877 106.189V106.458C27.5571 106.458 27.5571 106.189 27.2877 106.189ZM26.3446 106.862V107.132C26.6141 107.132 26.6141 106.862 26.3446 106.862Z" fill="#A68263"/>
<path d="M145.841 94.1988C146.514 93.7947 148.131 94.1988 148.4 94.0641C149.209 93.6599 148.804 92.0433 149.747 92.7169L150.421 93.5252C150.286 93.7947 149.882 98.6446 149.613 99.7223C149.074 101.608 147.727 102.551 147.457 103.629C146.11 103.629 146.245 105.515 146.11 105.515C145.706 105.785 144.628 105.246 144.224 105.246C144.224 104.976 144.224 104.707 144.224 104.437C144.224 104.033 143.416 104.438 143.55 103.899C145.841 104.168 144.763 103.899 145.302 102.686C145.841 101.474 146.245 101.878 146.514 101.878C145.436 100.8 145.302 100.8 144.897 99.3182C144.493 97.8362 144.897 99.0487 144.897 99.0487C145.167 98.7793 145.571 98.3751 145.571 98.1057C145.706 96.6238 145.571 96.0849 145.841 94.1988ZM145.975 100.126C145.706 100.396 146.11 100.531 146.245 100.8C146.514 100.531 146.11 100.396 145.975 100.126ZM145.975 102.956L145.436 103.494C145.436 103.899 146.245 103.36 145.975 102.956Z" fill="#A68263"/>
<path d="M141.26 40.5805C141.664 41.1194 142.338 41.1194 142.742 41.5236C145.975 45.6999 148.939 53.3789 150.69 57.9593C152.442 62.5398 151.364 61.1926 151.634 62.9439C151.364 63.4828 151.095 63.6175 150.556 63.6175C150.017 63.6175 150.286 62.9439 149.747 62.9439C149.343 64.5606 150.69 63.6175 150.96 63.887C151.229 64.1564 150.96 64.5606 151.229 64.83C151.499 65.0995 152.307 65.0995 152.307 65.0995C152.307 65.0995 151.229 67.7938 152.577 68.3327V68.6022C152.442 68.6022 152.307 68.7369 152.307 68.8716C151.364 68.0633 151.768 69.2758 151.364 69.5452C150.96 69.8146 150.69 69.5452 150.69 69.4105C151.364 68.4674 150.421 68.7369 150.421 68.4674C150.421 68.0633 150.556 66.9855 150.421 66.3119C148.939 67.1202 150.017 65.7731 148.535 65.2342C150.286 64.83 148.535 62.4051 148.804 62.1356C149.074 61.8662 149.882 62.4051 149.747 61.8662C148.804 61.462 147.727 61.462 148.4 60.2496C146.379 60.9232 147.457 58.3635 145.841 57.9593C145.706 57.5552 145.302 56.0733 145.167 56.0733C145.841 56.0733 146.245 56.4774 145.841 55.5344C145.436 54.5913 145.032 53.6483 144.089 54.4566C144.089 53.9177 143.955 52.3011 143.82 52.1664L145.302 51.2234V49.8762C144.089 49.6067 144.628 50.6845 144.493 50.8192C143.955 51.3581 143.82 50.1456 143.685 50.1456C143.55 50.1456 143.281 50.415 143.146 50.415C143.146 49.7414 142.877 48.7984 143.146 48.1248C143.416 47.4512 143.82 47.8554 143.82 47.7207C143.82 45.9693 142.607 47.1818 141.799 46.7776C140.991 46.3735 141.26 46.104 140.991 45.6999C140.721 45.2957 140.182 45.6999 140.452 44.8916L141.125 44.6221L139.239 44.3527C139.105 44.0832 138.7 43.1402 138.566 43.0055L139.913 41.6583C137.219 41.793 138.97 39.3681 136.68 39.7722L138.027 37.8862L139.509 41.1194L141.26 40.4458V40.5805ZM147.053 58.0941C147.323 57.6899 146.784 57.2857 146.784 57.4205C146.514 57.8246 147.053 58.2288 147.053 58.0941Z" fill="#A68263"/>
<path d="M152.577 77.4936C152.307 79.3797 152.173 79.2449 152.307 81.4005C152.442 83.556 152.307 82.7476 152.307 83.2865C151.903 83.4212 151.095 84.7684 150.96 84.7684C150.691 84.9032 150.556 84.0948 150.017 85.3073C151.23 84.499 151.364 86.9239 150.96 87.4628C150.556 88.0017 149.882 87.4628 149.478 88.0017C149.074 88.5406 149.344 90.8308 147.323 90.2919L148.67 88.9447L147.727 88.4059C147.996 88.1364 148.401 88.0017 148.67 87.7323C149.478 86.5198 148.401 86.7892 148.401 86.5198C148.401 86.1156 148.131 84.3643 148.131 83.8254C148.131 83.2865 148.131 83.1518 148.131 82.8824C148.67 83.0171 148.67 84.0948 148.805 84.2296C148.939 84.2296 149.209 83.8254 149.613 83.6907C150.017 83.556 150.691 84.0948 150.825 83.6907L148.535 82.2088L149.478 81.4005L148.131 80.8616V80.5921C148.401 80.3227 148.939 80.7269 149.074 80.3227C149.209 79.9185 148.67 79.3797 150.017 79.5144L149.748 80.3227C151.634 80.8616 152.846 78.3019 150.556 77.8978C150.152 77.8978 150.825 78.8408 150.691 78.8408C150.556 78.8408 149.478 79.2449 149.344 79.1102C149.074 77.8978 148.805 76.6853 148.67 75.6075C148.535 74.5298 148.67 74.9339 148.67 74.6645C150.017 73.452 151.499 75.3381 150.287 72.509C149.074 69.6799 149.478 72.2395 149.613 71.2965C149.613 69.8146 150.152 69.9493 151.23 69.5452C152.307 69.141 151.769 70.084 152.173 68.8716H152.442C152.577 69.2757 153.25 69.6799 153.25 70.3535C153.385 71.9701 152.577 75.4728 152.442 77.2242L152.577 77.4936ZM151.768 81.9393V82.2088C152.038 82.2088 152.038 81.9393 151.768 81.9393Z" fill="#A68263"/>
<path d="M144.898 99.4529C145.302 100.935 145.436 101.07 146.514 102.013C146.245 102.013 145.302 102.686 145.302 102.821C144.898 103.899 145.841 104.168 143.55 104.033C143.416 104.572 144.089 104.168 144.224 104.572C144.359 104.976 144.224 105.111 144.224 105.381C143.955 105.381 142.742 105.65 142.607 105.65C142.068 106.324 143.146 106.324 143.281 106.324C143.685 106.997 142.877 106.862 142.742 106.997C142.338 107.671 142.338 107.806 141.664 108.479C141.125 107.536 141.934 106.189 142.338 105.246C142.742 104.303 142.877 104.976 142.877 104.707C143.281 103.09 143.281 100.8 144.898 99.4529ZM144.898 102.956C144.898 102.147 144.224 101.743 143.955 102.417C143.685 103.09 144.763 102.686 144.898 102.956Z" fill="#FD937D"/>
<path d="M152.577 68.3327C151.095 67.9285 152.308 65.2341 152.308 65.0994C152.308 64.9647 151.499 65.0994 151.23 64.83C150.96 64.5605 151.23 64.0217 150.96 63.8869C150.556 63.4828 149.344 64.4258 149.748 62.9439C150.287 62.9439 149.748 63.4828 150.556 63.6175C151.364 63.7522 151.364 63.4828 151.634 62.9439C152.173 65.6383 152.981 64.83 152.577 68.4674V68.3327Z" fill="#FD937D"/>
<path d="M39.4126 44.4874C39.4126 44.8915 39.9515 45.9693 39.6821 46.104C39.4127 46.2387 38.6043 46.104 38.2002 46.3734C37.796 46.6429 38.0655 47.9901 37.6613 48.2595C37.2571 48.529 36.9877 48.2595 36.7183 48.2595C37.5266 47.047 37.5266 44.7568 39.2779 44.3527L39.4126 44.4874Z" fill="#FD937D"/>
<path d="M22.5724 92.0434C22.5724 92.0434 23.1112 91.9086 23.2459 92.1781C23.3807 92.4475 22.8418 94.4683 22.9765 94.603C23.246 94.7377 24.9973 94.3336 23.6501 96.2197C23.3807 96.3544 23.1112 95.8155 22.9765 95.5461C22.3029 94.4683 22.0335 93.2558 22.7071 92.0434H22.5724Z" fill="#FD937D"/>
<path d="M22.9766 96.489C24.5933 96.489 23.6502 98.2404 23.6502 98.3751C23.6502 98.5098 24.1891 98.3751 24.1891 98.6445C24.4586 99.3181 24.0544 99.1834 23.5155 98.7793L22.8419 100.126C22.8419 98.7793 22.5725 97.8362 22.8419 96.6238L22.9766 96.489Z" fill="#FD937D"/>
<path d="M152.307 81.2657C152.307 79.1102 152.307 79.245 152.577 77.3589C153.25 78.3019 152.846 80.188 152.307 81.2657Z" fill="#FD937D"/>
<path d="M22.5723 88.81C23.65 88.5406 23.5153 90.0225 22.5723 89.7531C22.5723 89.4837 22.5723 89.0795 22.5723 88.81Z" fill="#FD937D"/>
<path d="M40.3552 43.5444C40.4899 44.3527 40.0857 44.218 39.4121 44.218C39.4121 43.0055 39.951 43.8138 40.3552 43.5444Z" fill="#FD937D"/>
<path d="M22.5727 90.0225C23.2463 90.5614 22.9768 90.8309 22.3032 90.6961C22.3032 90.1573 22.5727 90.0225 22.5727 90.0225Z" fill="#FD937D"/>
<path d="M152.307 69.0063C151.903 70.2187 152.173 69.4104 151.364 69.6799C151.768 69.4104 151.364 68.198 152.307 69.0063Z" fill="#FD937D"/>
<path d="M152.577 69.0063H152.307C152.307 68.8716 152.442 68.7368 152.577 68.7368V69.0063Z" fill="#FD937D"/>
<path d="M145.84 58.094C147.592 58.4982 146.379 61.0578 148.4 60.3842C147.592 61.5967 148.669 61.5967 149.747 62.0009C149.747 62.6745 148.939 62.1356 148.804 62.2703C148.535 62.5398 150.286 64.9647 148.535 65.3689C150.017 65.9077 148.939 67.2549 150.421 66.4466C150.69 66.9855 150.421 68.0632 150.421 68.6021C150.421 69.141 151.364 68.6021 150.69 69.5452C150.69 69.8146 151.229 69.8146 151.364 69.6799C150.151 70.084 149.747 70.084 149.747 71.4312C149.747 72.7784 150.286 72.1048 150.421 72.6437C151.499 75.4728 150.017 73.5867 148.804 74.7992C148.265 68.8716 147.996 63.4828 145.84 57.9593V58.094ZM150.286 69.0063C149.882 68.7368 149.478 69.2757 149.612 69.2757C150.017 69.5452 150.421 69.0063 150.286 69.0063Z" fill="#FD937D"/>
<path d="M107.041 23.4711C109.197 23.7406 110.948 24.2795 113.238 24.4142C115.529 24.5489 113.643 24.4142 113.912 24.4142C114.181 25.8961 115.663 25.7614 116.876 26.0308C118.088 26.3003 117.954 26.7044 118.762 26.7044C118.897 27.2433 119.301 27.2433 119.705 27.378C120.379 27.6474 121.322 27.7822 121.995 28.0516C122.399 28.9946 124.151 30.3418 125.228 30.6113C125.767 32.0932 126.171 31.4196 126.71 31.9585C127.249 32.4973 126.576 33.3057 128.058 33.1709C128.058 33.8445 128.058 33.8445 128.731 33.8445V34.114C129.001 35.057 129.809 34.9223 130.078 35.057C130.348 35.1917 129.944 36.1348 131.021 36C132.099 35.8653 131.291 36 131.291 36C131.291 37.2125 132.369 36.8084 132.638 36.9431C132.907 37.0778 132.503 37.7514 133.985 38.2903C133.716 39.5027 134.524 39.0986 134.659 39.2333C134.793 39.368 134.659 39.6375 134.659 39.7722C134.928 40.0416 135.602 39.7722 135.871 39.7722C136.141 39.7722 136.006 40.8499 136.41 41.3888C137.084 42.3319 138.161 42.6013 138.835 43.0054C139.509 43.4096 139.374 43.9485 139.509 44.3526C140.048 45.2957 141.529 47.047 141.664 47.3165C142.068 48.2595 142.068 50.415 143.416 50.415C143.416 50.8192 143.416 51.4928 143.416 51.7622C143.416 52.0316 143.954 51.8969 144.089 52.0317C144.089 52.0317 144.359 53.783 144.359 54.3219C144.763 56.4774 144.897 55.3996 145.302 55.9385C145.706 56.4774 145.84 57.4204 145.975 57.8246C148.131 63.3481 148.265 68.6021 148.939 74.6645C149.613 80.7269 148.939 75.3381 148.939 75.6075C147.861 76.6853 148.265 78.9755 148.265 80.4574C148.265 81.9393 148.265 80.7269 148.265 80.7269C148.265 81.4005 148.265 82.0741 148.265 82.6129C148.265 83.1518 148.265 83.2865 148.265 83.556C147.322 83.4212 147.727 84.0948 147.592 84.6337C147.322 87.5976 146.514 90.9655 145.975 93.7946C145.436 96.6238 145.84 96.2196 145.706 97.7015C144.359 97.8362 144.897 98.2404 145.032 98.6445C145.167 99.0487 145.032 98.914 145.032 98.914C143.416 100.261 143.55 102.551 143.011 104.168C142.472 105.785 142.472 104.437 142.472 104.707C142.068 105.65 141.26 106.997 141.799 107.94C138.835 111.039 138.431 113.598 136.006 116.697C133.581 119.795 135.467 117.101 135.063 117.64C134.659 118.179 131.695 121.951 131.425 122.086C131.021 122.49 130.213 122.086 129.944 123.837C128.192 123.972 128.192 125.454 127.384 126.262C126.576 127.07 125.498 127.879 124.151 129.361C122.803 130.842 123.477 130.034 123.208 130.304C122.938 130.573 122.803 129.765 122.534 130.977C122.265 132.19 122.534 131.516 122.534 131.651H122.265C119.301 132.055 116.741 134.884 114.855 136.77C113.373 136.77 111.891 138.117 110.679 138.791C109.466 139.464 109.736 138.791 109.062 140.003C108.658 140.003 108.388 140.138 108.119 140.273C107.85 140.408 107.85 140.542 107.85 140.542C105.559 141.351 103.404 142.294 101.114 143.102C98.8234 143.91 97.2068 143.91 95.7249 144.584C94.2429 145.257 94.1082 145.662 94.3777 145.931C94.1082 145.931 93.7041 145.931 93.4346 145.931C90.6055 145.931 89.5278 146.739 87.1028 147.143C84.6779 147.548 82.3876 147.413 80.2321 147.548C78.0766 147.682 79.9627 147.548 79.9627 147.548C79.2891 147.548 78.6155 147.278 78.0766 147.817C76.8642 147.548 76.3253 147.817 75.3822 147.682C72.0143 147.278 69.1852 146.066 65.9519 145.392C62.7186 144.719 63.1228 144.719 61.6409 144.988C61.9103 144.045 60.8326 144.314 60.0242 144.314C60.0242 144.18 60.159 143.91 59.8895 143.641C59.6201 143.371 57.5993 143.102 57.4646 142.967C57.3298 142.832 57.4646 142.428 57.4646 142.428C57.1951 142.294 56.6562 142.698 56.3868 142.698C56.1174 142.698 56.3868 142.159 55.9827 142.024C52.48 140.946 50.8633 139.599 47.7648 137.578C44.6662 135.558 47.2259 136.097 46.1481 136.501H45.8787C46.2829 134.749 45.3398 135.423 44.8009 134.884C44.2621 134.345 44.8009 134.076 44.5315 133.941C44.2621 133.806 43.7232 133.941 43.319 133.672C42.7802 133.267 43.1843 132.459 41.7024 132.594V132.324C41.8371 131.247 41.433 130.708 40.3552 130.438C39.9511 129.226 39.1427 129.226 38.7386 128.552C38.3344 127.879 37.3914 125.723 36.8525 124.645C36.3136 123.568 36.1789 122.894 35.5053 123.029C35.5053 122.894 35.2359 122.355 35.2359 122.086C34.9664 121.008 34.5623 118.583 33.3498 118.583V118.314C33.0804 116.293 32.0026 115.484 31.329 114.003C30.6554 112.521 30.7901 110.365 30.2513 108.614C29.7124 106.862 29.8471 107.267 29.1735 107.267C29.1735 106.862 29.1735 106.324 29.1735 105.919C29.7124 103.09 29.0388 102.821 28.9041 100.396C28.7693 97.9709 28.9041 99.7223 28.9041 99.4529C28.9041 99.1834 29.1735 99.3181 29.0388 98.7793C29.0388 97.2973 28.2305 95.9501 28.2305 94.6029C29.0388 92.3127 28.2305 90.4267 28.2305 88.4059C28.2305 86.3851 28.9041 84.0949 29.1735 82.4782C29.4429 80.8616 30.5207 80.5921 29.1735 80.188C29.7124 79.6491 30.2513 78.5714 30.386 77.8978C30.9249 74.9339 30.7901 73.452 31.8679 70.3535C33.4845 65.6383 35.1012 60.2495 37.2567 55.8038C39.4122 51.358 39.008 54.726 38.8733 53.9177V53.6483C39.2774 53.6483 39.1427 53.2441 39.1427 52.9747C39.8163 52.9747 40.6246 51.0886 40.7594 50.415H41.0288C41.5677 50.415 41.7024 49.8761 41.7024 49.472C41.7024 49.472 41.7024 48.3942 41.9718 48.1248C43.9926 48.1248 42.7802 47.8554 43.319 47.3165C44.5315 45.8346 47.8995 42.736 48.4384 40.9847C50.055 40.3111 49.112 40.7152 49.7856 40.0416C50.4592 39.368 49.9203 39.7722 50.055 39.7722C50.5939 39.368 52.2105 39.0986 51.9411 38.1556C52.3452 38.1556 52.6147 38.1556 53.0188 37.7514C54.366 36.9431 56.1174 34.7876 57.1951 34.114C59.3506 32.7668 65.2783 30.4766 66.2213 28.0516H66.4908C66.7602 28.0516 67.1644 28.0516 67.4338 28.0516L67.7032 27.7822C67.7032 27.7822 67.7032 27.5127 67.9727 27.5127L68.2421 27.7822C68.5116 27.7822 72.5531 26.7044 73.4962 26.435C76.0558 25.7614 77.9419 24.8183 80.6363 24.5489C83.3307 24.2795 80.6363 23.7406 81.4446 23.8753C82.2529 24.01 81.8488 24.4142 82.1182 24.1447C82.3877 23.8753 82.1182 23.6059 82.1182 23.4711C82.1182 23.3364 82.3876 23.4711 82.3876 23.4711C82.9265 23.4711 83.7348 23.7406 84.0043 23.2017H84.2737C85.2168 23.3364 84.9473 23.6059 86.1598 23.4711C87.3723 23.3364 87.9111 23.2017 88.7195 23.2017C89.5278 23.2017 90.875 23.2017 91.9527 23.2017C93.8388 23.2017 96.2637 22.9323 97.8804 22.9323H103.673C104.886 22.9323 106.233 22.7975 107.445 22.9323L107.041 23.4711ZM122.803 62.2703C123.477 62.2703 123.746 62.6745 124.151 61.8662C124.555 61.0578 125.363 59.7106 125.633 59.0371C125.902 58.094 125.633 57.151 125.902 56.4774C126.171 55.8038 127.114 55.3996 127.519 54.8608C128.596 53.2441 130.617 50.5497 128.596 48.7984C126.576 47.047 124.42 50.415 123.746 51.6275C123.073 52.84 123.746 52.4358 123.612 52.5705C123.612 52.84 123.342 52.9747 123.342 53.2441C122.265 53.2441 122.265 54.1872 121.995 54.5913C119.301 57.8246 116.876 60.519 114.451 63.8869C104.212 78.0325 92.0874 91.6391 83.3307 106.997C81.714 107.401 78.2113 114.272 77.8072 114.407C77.403 114.541 76.9989 114.407 76.7294 114.407L72.6879 109.422C72.4184 109.287 71.8795 109.422 71.6101 109.287C71.3407 109.153 67.1644 103.09 66.2213 102.282C65.2783 101.474 65.413 102.147 64.0658 100.396C61.102 96.489 58.1382 91.235 54.6355 87.5975C51.1328 83.9601 51.4022 86.5198 51.1328 88.2711C50.8633 90.0225 51.1328 88.9447 51.1328 89.2142C51.1328 89.4836 51.1328 89.6183 51.1328 89.8878C51.4022 89.8878 51.8064 89.8878 52.0758 89.8878C52.0758 90.9655 51.5369 92.0433 53.0188 91.9086L54.7702 95.9501C56.1174 97.4321 59.7548 102.147 60.159 103.764C60.5631 105.381 60.5631 104.168 60.8325 104.437C61.102 104.707 60.8325 104.976 60.8325 105.111C61.2367 106.189 61.2367 105.515 61.5061 105.785C61.7756 106.054 62.1797 106.324 62.1797 106.458C62.1797 106.593 62.4492 106.997 62.4492 107.132C62.8533 108.21 62.4492 108.883 63.7964 109.422C64.0658 111.847 65.1436 111.039 65.9519 112.116C66.7602 113.194 67.0296 115.619 68.6463 115.889V116.158C68.6463 118.044 71.4754 121.008 72.8226 122.22C72.5531 125.05 71.6101 126.531 75.2475 126.127C78.8849 125.723 76.3253 125.319 76.46 125.184C76.7294 124.915 77.6725 124.915 77.8072 124.915C78.0766 126.936 81.3099 125.723 81.5793 124.376C81.8488 123.029 81.1752 123.433 81.3099 123.298C81.4446 123.163 81.9835 123.433 82.2529 123.029C82.5224 122.625 83.8696 120.2 84.139 119.661C84.4084 119.122 84.9473 119.526 84.139 118.583C86.0251 118.044 87.1028 115.08 88.45 113.329C89.7972 111.578 90.4708 110.904 90.7402 110.635C91.0097 110.365 92.2222 109.961 92.2222 109.826C92.8958 109.153 91.4138 109.287 91.5486 108.883H92.4916C93.4346 107.536 93.9735 105.515 94.7818 104.303C95.5901 103.09 97.8804 100.531 98.8234 99.4529C100.44 97.5668 101.518 94.3335 102.865 92.178C104.212 90.0225 108.658 85.7115 109.87 83.0171C111.083 80.3227 109.601 83.0171 110.544 81.5352C111.487 80.0533 111.083 79.7838 111.487 79.1102C111.891 78.4366 111.756 78.4366 111.756 78.4366C112.161 78.0325 112.834 78.1672 113.508 77.4936C114.181 76.82 114.586 75.0687 115.124 73.9909C115.933 72.509 115.933 72.1048 117.145 71.0271C119.435 69.0063 119.166 67.6591 120.379 65.5036C121.591 63.3481 122.13 64.5605 122.399 62.9439C122.534 62.9439 122.669 62.8092 122.669 62.6745C122.669 62.5398 122.669 62.405 122.669 62.405L122.803 62.2703Z" fill="#FDFDFD"/>
<path d="M48.8426 40.5805C48.169 41.2541 49.112 40.85 47.4954 41.5236C46.9565 43.1402 43.5885 46.3734 42.376 47.8554C41.1636 49.3373 43.0496 48.529 41.0288 48.6637C39.008 48.7984 40.2205 48.6637 39.6816 48.6637C39.6816 47.9901 40.49 48.529 40.6247 48.3942C40.7594 48.2595 40.2205 47.047 40.49 46.7776C41.5677 45.9693 41.5677 46.3735 41.8371 47.4512C42.376 46.5082 42.5107 46.2387 43.5885 46.5082L42.9149 45.4304C44.801 45.8346 44.5315 43.8138 44.9357 43.0055C45.3398 42.1971 46.8218 41.9277 47.3606 41.6583C47.6301 40.85 46.687 40.5805 48.7078 40.7152L48.8426 40.5805Z" fill="#FD937D"/>
<path d="M27.8265 100.126C27.2876 99.9917 27.0182 99.3181 27.0182 98.914C26.8835 97.7015 27.9612 97.5668 25.5363 97.2973C25.2669 96.2196 26.0752 96.8932 26.4793 96.6237C26.8835 96.3543 27.1529 95.4113 27.1529 95.4113C27.1529 96.8932 27.8265 98.2404 27.9612 99.5876C28.096 100.935 27.8265 100.126 27.8265 100.261V100.126Z" fill="#FD937D"/>
<path d="M39.8163 50.9539C39.8163 51.6275 38.8733 53.6483 38.1997 53.5136C38.1997 53.3788 38.1997 52.9747 38.1997 52.7053C38.1997 52.4358 39.4122 51.8969 38.8733 50.5497C38.8733 50.5497 39.5469 50.8192 39.8163 50.8192V50.9539Z" fill="#FD937D"/>
<path d="M40.7599 50.0109C40.7599 50.415 40.6252 50.8192 40.0863 50.9539C39.8169 49.6067 40.6252 50.1456 40.7599 50.0109Z" fill="#FD937D"/>
<path d="M37.5265 53.783C37.5265 54.0525 36.9876 53.6483 37.2571 53.1095C37.5265 52.5706 37.796 53.2442 37.5265 53.783Z" fill="#FD937D"/>
<path d="M37.7952 54.1872V54.4566C36.8521 54.4566 36.8521 54.0525 37.7952 54.1872Z" fill="#FD937D"/>
<path d="M27.0181 100.126C27.2875 100.126 27.2875 100.396 27.0181 100.396V100.126Z" fill="#FD937D"/>
<path d="M38.3345 51.6275C38.6039 51.6275 38.6039 51.8969 38.3345 51.8969V51.6275Z" fill="#FD937D"/>
<path d="M41.8369 45.6998C42.1064 45.6998 42.1064 45.9693 41.8369 45.9693V45.6998Z" fill="#FD937D"/>
<path d="M139.374 44.4874L141.26 44.7568L140.586 45.0262C140.317 45.8346 140.991 45.5651 141.125 45.8346C141.395 46.104 141.664 46.7776 141.934 46.9123C142.607 47.3165 143.954 45.9693 143.954 47.8553C143.954 49.7414 143.416 47.9901 143.281 48.2595C143.011 48.9331 143.281 49.8761 143.281 50.5497C143.281 50.5497 143.685 50.2803 143.82 50.2803C143.954 50.2803 143.954 51.4928 144.628 50.9539C145.302 50.415 144.224 49.7414 145.302 50.0109V51.3581C145.436 51.3581 143.954 52.3011 143.954 52.3011C143.954 52.3011 143.416 52.4358 143.281 52.0317C143.146 51.6275 143.281 51.0886 143.281 50.6845C141.934 50.6845 141.934 48.529 141.53 47.5859C141.125 46.6429 139.913 45.5651 139.374 44.6221V44.4874Z" fill="#FD937D"/>
<path d="M144.224 54.4566C145.032 53.6483 145.706 54.8607 145.975 55.5343C146.38 56.6121 145.975 56.0732 145.302 56.0732C144.898 55.5343 144.763 56.6121 144.359 54.4566H144.224Z" fill="#FD937D"/>
<path d="M147.053 58.094C147.053 58.3635 146.514 57.9593 146.783 57.4204C147.053 56.8816 147.322 57.5552 147.053 58.094Z" fill="#FD937D"/>
<path d="M148.67 75.877C148.804 77.0895 149.074 78.3019 149.343 79.3797C149.343 79.3797 150.556 79.1102 150.691 79.1102C150.691 79.1102 150.152 78.3019 150.556 78.1672C152.846 78.5714 151.634 81.131 149.748 80.5922L150.017 79.7838C148.535 79.5144 149.209 80.0533 149.074 80.5922C148.939 81.131 148.4 80.5922 148.131 80.8616C148.131 79.3797 147.727 77.0895 148.804 76.0117L148.67 75.877Z" fill="#FD937D"/>
<path d="M148.131 80.9963L149.478 81.5352L148.535 82.3435L150.825 83.8254C150.825 84.2296 150.017 83.8254 149.613 83.8254C149.209 83.8254 148.939 84.499 148.804 84.3643C148.67 84.2296 148.804 83.2865 148.131 83.0171C148.131 82.3435 148.131 81.6699 148.131 81.131V80.9963Z" fill="#FD937D"/>
<path d="M152.307 83.2865C152.442 85.8462 151.768 90.6961 150.96 93.3905C150.152 96.0849 150.287 93.5252 150.287 93.6599L149.613 92.8516C148.67 92.0433 149.074 93.7947 148.266 94.1988C147.457 94.603 146.38 93.9294 145.706 94.3335C146.245 91.3697 147.053 88.0017 147.323 85.1726C147.592 82.3435 146.919 83.8254 147.996 84.0949C147.996 84.6337 148.266 86.3851 148.266 86.7892C148.266 87.1934 149.478 86.7892 148.535 88.0017C147.592 89.2142 147.862 88.4059 147.592 88.6753L148.535 89.2142L147.188 90.5614C149.074 91.1003 148.67 89.0795 149.343 88.2711C150.017 87.4628 150.556 88.2712 150.825 87.7323C151.095 87.1934 151.095 84.6337 149.882 85.5768C150.421 84.2296 150.421 85.1726 150.825 85.0379C151.23 84.9032 151.768 83.6907 152.173 83.556L152.307 83.2865ZM152.307 84.9032H151.364C151.768 85.7115 152.038 85.5768 152.307 84.9032Z" fill="#FD937D"/>
<path d="M151.769 81.9394C152.038 81.9394 152.038 82.2088 151.769 82.2088V81.9394Z" fill="#FD937D"/>
<path d="M145.437 98.1057C145.437 98.5099 145.033 98.914 144.763 99.0488C144.763 98.6446 144.09 98.2404 145.437 98.1057Z" fill="#FD937D"/>
<path d="M145.975 100.126C146.11 100.396 146.649 100.531 146.245 100.8C146.11 100.665 145.571 100.396 145.975 100.126Z" fill="#FD937D"/>
<path d="M152.307 84.9031C152.038 85.5767 151.768 85.7115 151.364 85.0379H152.307V84.9031Z" fill="#A68263"/>
<path d="M123.477 52.5705C124.959 52.9747 124.42 51.4928 124.824 51.0886C125.228 50.6845 125.902 51.0886 126.306 50.6845C126.71 50.2803 126.576 48.3942 127.653 50.1456C126.172 50.1456 127.249 51.8969 126.98 52.84C126.71 53.783 125.633 55.1302 125.094 54.9955L125.767 55.5344C124.285 56.208 125.363 57.4204 123.208 57.0163C123.073 57.151 124.016 59.3065 123.881 59.9801C123.747 60.6537 122.265 60.1148 123.477 61.462H121.86C122.13 62.2703 122.804 61.1926 122.804 62.405C122.804 63.6175 122.804 62.6745 122.804 62.6745C122.669 62.6745 122.534 62.8092 122.534 62.9439C122.265 64.6953 121.187 64.1564 120.513 65.5036C119.301 67.6591 119.57 69.141 117.28 71.0271C114.99 72.9132 115.933 72.3743 115.259 73.9909C114.586 75.6075 114.586 76.4159 113.643 77.4936C112.7 78.5714 112.295 78.1672 111.891 78.4367L110.275 77.4936L111.622 79.1102C111.218 79.7838 111.083 80.7269 110.679 81.5352C109.736 83.0171 110.409 82.2088 110.005 83.0171C108.793 85.8462 104.751 89.6184 103 92.178C101.248 94.7377 100.575 97.4321 98.9582 99.4529C97.3416 101.474 95.8596 102.821 94.9166 104.303C93.9736 105.785 93.5694 107.536 92.6264 108.883H91.6833C91.5486 109.422 92.8958 109.153 92.3569 109.961C91.8181 110.769 91.2792 110.365 90.875 110.769C90.4709 111.173 88.8542 113.06 88.5848 113.464C87.2376 115.215 86.1598 118.179 84.2738 118.718C82.3877 119.257 83.3307 118.718 83.3307 119.661C82.6571 119.795 83.3307 118.987 82.6571 118.987C82.6571 120.065 83.3307 120.604 81.9835 121.008C80.6363 121.412 80.9058 120.469 81.3099 121.951C81.7141 123.433 82.1183 121.951 81.9835 122.49C79.9627 121.682 80.3669 122.894 79.6933 123.568C79.0197 124.241 78.3461 123.568 78.0767 123.837C77.8072 124.107 77.8072 124.645 77.8072 124.645C77.8072 124.645 76.8642 124.645 76.46 124.915C74.9781 125.05 74.9781 123.568 74.7087 123.298C74.4393 123.029 73.9004 123.298 73.7657 123.298C73.6309 123.298 74.1698 122.894 73.7657 122.22C73.0921 120.604 72.149 121.143 72.149 121.143C71.8796 120.739 71.8796 118.987 71.7449 118.852C71.3407 118.718 68.9158 118.852 70.8018 117.775C70.6671 117.236 69.7241 117.371 69.5894 117.236C69.1852 116.832 70.1282 115.619 68.5116 116.023V115.754C68.5116 115.754 69.0505 115.484 68.781 115.215C68.5116 114.946 67.2991 114.272 67.2991 114.137C67.1644 113.868 67.7033 113.329 67.5686 113.194C67.4339 113.06 66.7603 113.194 66.7603 112.655C66.7603 112.116 67.1644 111.712 66.895 111.173C66.6255 110.635 65.1436 110.365 64.7395 110.5C65.2783 109.153 64.8742 109.557 63.7964 109.153C63.7964 107.94 64.6047 106.458 62.4492 106.862C62.4492 106.862 62.1798 106.324 62.1798 106.189C62.4492 105.381 61.6409 105.65 61.5062 105.515C61.3715 105.381 61.6409 104.572 60.8326 104.842C60.8326 104.707 60.8326 104.303 60.8326 104.168C60.8326 103.494 60.8326 103.494 60.159 103.494C59.7548 101.878 55.9827 97.1626 54.7702 95.6807L53.0189 91.6391C51.6717 91.6391 52.2106 90.6961 52.0758 89.6184C53.423 89.6184 52.48 88.2712 51.1328 88.9448C51.1328 88.6753 51.1328 88.2712 51.1328 88.0017C52.8842 88.6753 53.0189 87.7323 54.6355 87.3281C58.1382 90.8308 61.102 96.2196 64.0659 100.126C67.0297 104.033 65.1436 101.069 66.2214 102.013C67.2991 102.956 71.206 108.749 71.6102 109.018C72.0143 109.287 72.4185 109.018 72.6879 109.153L76.7295 114.137C76.9989 114.272 77.5378 114.137 77.8072 114.137C78.2114 114.003 81.7141 107.132 83.3307 106.728C92.0875 91.3697 104.212 77.7631 114.451 63.6175C116.876 60.2495 119.436 57.5552 121.995 54.3219C123.073 54.3219 122.938 53.783 123.342 52.9747C123.747 52.1664 123.612 52.5705 123.612 52.3011L123.477 52.5705ZM122.399 60.2495L121.86 60.7884C121.86 61.1926 122.669 60.6537 122.399 60.2495ZM54.7702 88.81V89.0795C55.0397 89.0795 55.0397 88.81 54.7702 88.81ZM62.584 105.515V105.785C62.8534 105.785 62.8534 105.515 62.584 105.515ZM62.8534 106.189V106.458C63.1228 106.458 63.1228 106.189 62.8534 106.189Z" fill="#A68263"/>
<path d="M123.477 52.5706C123.477 52.4358 123.477 52.0317 123.612 51.6275C124.285 50.4151 126.98 47.4512 128.462 48.7984C129.943 50.1456 128.462 53.1094 127.384 54.8608C126.306 56.6121 126.037 56.0733 125.767 56.4774C125.498 57.2857 125.767 58.2288 125.498 59.0371C125.228 59.8454 124.42 61.0579 124.016 61.8662C123.612 62.6745 123.342 62.2704 122.669 62.2704C122.669 61.0579 121.995 62.1356 121.726 61.3273H123.342C121.995 59.9801 123.612 60.3843 123.746 59.8454C123.881 59.3065 122.938 57.0163 123.073 56.8816C125.228 57.2857 124.151 56.0733 125.632 55.3997L124.959 54.8608C125.498 54.8608 126.71 52.9747 126.845 52.7053C127.114 51.7623 126.037 50.1456 127.519 50.0109C126.441 48.2596 126.575 50.1456 126.171 50.5498C125.767 50.9539 124.959 50.8192 124.689 50.9539C124.285 51.3581 124.689 52.9747 123.342 52.4358L123.477 52.5706Z" fill="#FD937D"/>
<path d="M54.6355 87.4629C53.0189 87.867 52.8842 88.81 51.1328 88.1365C51.537 86.3851 53.6925 86.3851 54.6355 87.4629Z" fill="#FD937D"/>
<path d="M111.892 78.4366C111.892 78.4366 111.622 78.8408 111.622 79.1102L110.275 77.4936L111.892 78.4366Z" fill="#FD937D"/>
<path d="M51.1328 89.0794C52.48 88.4058 53.5578 89.8877 52.0758 89.753C50.5939 89.6183 51.4023 89.753 51.1328 89.753C51.1328 89.4836 51.1328 89.3489 51.1328 89.0794Z" fill="#FD937D"/>
<path d="M123.208 53.2441C122.938 53.9177 122.938 54.4566 121.86 54.5913C122.13 54.3219 121.995 53.2441 123.208 53.2441Z" fill="#FD937D"/>
<path d="M122.534 62.9439C122.534 62.8092 122.669 62.6745 122.804 62.6745C122.804 62.8092 122.669 62.9439 122.534 62.9439Z" fill="#FD937D"/>
<path d="M150.286 69.0063C150.556 69.0063 150.152 69.5452 149.613 69.2758C149.074 69.0063 149.747 68.7369 150.286 69.0063Z" fill="#A68263"/>
<path d="M54.7705 88.8101C55.0399 88.8101 55.0399 89.0795 54.7705 89.0795V88.8101Z" fill="#FD937D"/>
<path d="M122.399 60.2495C122.669 60.519 121.86 61.0578 121.86 60.7884L122.399 60.2495Z" fill="#FD937D"/>
<path d="M84.6781 19.8337C84.4087 20.5073 84.6781 22.1239 84.4087 22.6628C84.1393 23.2017 83.4657 23.067 83.6004 23.7406H83.3309C82.6573 23.6058 81.4449 23.067 81.7143 24.01H81.4449L81.1754 23.3364C80.6365 23.3364 80.906 23.8753 80.906 24.2794C80.0977 24.1447 80.3671 24.953 80.0977 24.953C77.4033 25.2225 75.5172 26.1655 72.9575 26.8391C70.3979 27.5127 67.9729 28.1863 67.7035 28.1863C67.434 28.1863 67.7035 27.9169 67.4341 27.9169C67.1646 27.9169 67.1646 28.1863 67.1646 28.1863L66.8952 28.4557C66.6257 28.4557 66.2216 28.4557 65.9521 28.4557C65.8174 27.1085 65.8174 28.0516 65.6827 28.4557C64.7397 30.8807 58.812 33.1709 56.6565 34.5181C54.501 35.8653 53.8274 37.3472 52.4802 38.1555C51.133 38.9638 51.8066 38.425 51.4024 38.5597C50.9983 38.6944 50.4594 38.0208 49.9205 38.8291L49.6511 38.1555L48.8428 38.9638L49.5164 40.0416L49.2469 40.311C47.3609 40.1763 48.1692 40.4458 47.8997 41.2541C47.3609 41.3888 45.6095 42.1971 45.4748 42.6013C45.0706 43.4096 45.3401 45.4304 43.454 45.0262L44.1276 46.104C43.0498 45.9693 42.9151 46.104 42.3763 47.047C42.1068 46.104 42.1068 45.5651 41.0291 46.3734C40.8943 46.6428 41.4332 47.7206 41.1638 47.99C40.8943 48.2595 40.086 47.7206 40.2207 48.2595C40.6249 48.2595 41.029 48.2595 41.5679 48.2595C41.2985 48.5289 41.2985 49.472 41.2985 49.6067C41.2985 49.6067 40.3555 49.2025 40.6249 50.5497H40.3555C40.086 50.5497 39.4124 50.1456 39.4124 50.2803C39.9513 51.6275 38.8735 52.3011 38.7388 52.4358C38.6041 52.5705 38.7388 52.9747 38.7388 53.2441C38.7388 53.5135 38.7388 53.783 38.4694 53.9177C37.5264 53.9177 37.5264 54.3219 38.4694 54.1871C38.4694 54.9955 37.2569 55.3996 36.8527 56.0732C34.6972 60.5189 33.0806 65.9077 31.464 70.6229C29.8473 75.3381 30.5209 75.2033 29.9821 78.1672C29.4432 81.131 29.1737 79.9185 28.7696 80.4574C30.1168 80.8616 29.039 81.8046 28.7696 82.7476C28.5001 84.2295 27.9613 87.1934 27.8266 88.6753C27.6918 90.1572 28.6349 92.5822 27.8266 94.8724C27.0182 97.1626 27.153 96.0849 27.153 96.0849C26.7488 96.3543 26.0752 95.8154 26.2099 96.7585C28.6349 97.0279 27.4224 97.1626 27.6918 98.3751C27.9613 99.5876 27.9613 99.4528 28.5002 99.5876C28.5002 99.857 28.5002 100.261 28.5002 100.531C27.5571 100.396 27.8266 100.935 27.9613 101.608C27.9613 102.956 27.9613 104.976 28.9043 106.054C28.9043 106.458 28.9043 106.997 28.9043 107.401C29.1738 108.614 28.2307 107.401 27.9613 107.671C27.4224 108.075 28.6349 108.479 28.9043 108.883C29.5779 110.096 29.1737 112.116 28.5002 113.194C27.8266 114.272 26.7488 113.194 26.3446 113.464C26.3446 113.194 26.3446 112.79 26.3446 112.521C26.7488 112.386 27.5571 112.116 27.6918 111.578C26.6141 111.578 26.2099 111.847 26.3446 110.635C26.3446 110.635 26.8835 111.039 27.0182 110.904C27.5571 110.23 26.4794 110.23 26.3446 109.961C25.9405 109.422 25.4016 108.21 25.1322 107.671C24.8627 107.132 26.4794 106.054 24.728 106.728C23.9197 104.168 23.9197 102.417 23.785 99.5876L24.4586 98.2404C24.8627 98.6445 25.2669 98.6445 25.1322 98.1056C24.9974 97.5668 24.5933 98.1056 24.5933 97.8362C24.5933 97.5668 25.5363 95.9501 23.9197 95.9501C23.9197 95.6807 23.9197 95.2765 23.9197 95.0071C23.9197 95.1418 24.3238 95.8154 24.5933 95.6807C25.9405 93.7946 24.1891 94.1988 23.9197 94.0641C23.6503 93.9293 24.3239 92.0433 24.1891 91.6391C24.0544 91.235 23.6503 91.6391 23.5155 91.5044C23.2461 91.235 23.2461 90.5614 23.2461 90.1572C23.9197 90.1572 24.1891 90.0225 23.5155 89.4836V89.2142C24.4586 89.4836 24.5933 88.0017 23.5155 88.2711C23.9197 79.6491 26.0752 71.4312 29.1737 63.348C32.2723 55.2649 33.4848 52.9747 36.718 49.0678C39.9513 45.1609 36.718 48.2595 37.7958 47.8553C38.8735 47.4512 38.4694 47.8553 38.7388 47.8553C39.143 47.5859 38.8735 46.2387 39.2777 45.9693C39.6819 45.6998 40.6249 45.6998 40.7596 45.6998C40.8943 45.5651 40.4902 44.4873 40.4902 44.0832C40.4902 43.679 40.4902 43.8137 40.4902 43.8137C41.2985 43.8137 41.5679 43.9485 41.4332 43.1401C41.4332 43.1401 41.4332 42.1971 41.8374 41.9277C42.2415 41.6582 42.9151 41.9277 43.3193 41.3888C43.7234 40.8499 43.5887 40.4458 43.8582 40.1763C52.4802 31.5543 62.7189 24.6836 74.17 21.7198C85.6212 18.7559 81.4449 19.9684 85.7559 19.5643L84.6781 19.8337ZM50.7288 36.6736C50.4594 36.4042 49.7858 36.6736 50.0553 37.3472C51.2677 37.2125 49.7858 38.1555 50.9983 38.0208C50.9983 37.7514 50.7288 36.8083 50.7288 36.6736ZM49.6511 37.6166V37.8861C49.9205 37.8861 49.9205 37.6166 49.6511 37.6166ZM41.8374 45.6998V45.9693C42.1068 45.9693 42.1068 45.6998 41.8374 45.6998ZM38.3347 51.6275V51.8969C38.6041 51.8969 38.6041 51.6275 38.3347 51.6275ZM37.5263 53.783C37.7958 53.3788 37.2569 52.9747 37.2569 53.1094C36.9875 53.5135 37.5263 53.9177 37.5263 53.783ZM27.0182 100.126V100.396C27.2877 100.396 27.2877 100.126 27.0182 100.126ZM27.153 104.976C26.7488 104.572 26.2099 105.246 26.4794 105.65C26.7488 106.054 27.4224 105.38 27.153 104.976ZM27.2877 106.189V106.458C27.5571 106.458 27.5571 106.189 27.2877 106.189ZM26.3446 106.862V107.132C26.6141 107.132 26.6141 106.862 26.3446 106.862Z" fill="#A68263"/>
<path d="M145.841 94.1988C146.514 93.7947 148.131 94.1988 148.4 94.0641C149.209 93.6599 148.804 92.0433 149.747 92.7169L150.421 93.5252C150.286 93.7947 149.882 98.6446 149.613 99.7223C149.074 101.608 147.727 102.551 147.457 103.629C146.11 103.629 146.245 105.515 146.11 105.515C145.706 105.785 144.628 105.246 144.224 105.246C144.224 104.976 144.224 104.707 144.224 104.437C144.224 104.033 143.416 104.438 143.55 103.899C145.841 104.168 144.763 103.899 145.302 102.686C145.841 101.474 146.245 101.878 146.514 101.878C145.436 100.8 145.302 100.8 144.897 99.3182C144.493 97.8362 144.897 99.0487 144.897 99.0487C145.167 98.7793 145.571 98.3751 145.571 98.1057C145.706 96.6238 145.571 96.0849 145.841 94.1988ZM145.975 100.126C145.706 100.396 146.11 100.531 146.245 100.8C146.514 100.531 146.11 100.396 145.975 100.126ZM145.975 102.956L145.436 103.494C145.436 103.899 146.245 103.36 145.975 102.956Z" fill="#A68263"/>
<path d="M141.26 40.5805C141.664 41.1194 142.338 41.1194 142.742 41.5236C145.975 45.6999 148.939 53.3789 150.69 57.9593C152.442 62.5398 151.364 61.1926 151.634 62.9439C151.364 63.4828 151.095 63.6175 150.556 63.6175C150.017 63.6175 150.286 62.9439 149.747 62.9439C149.343 64.5606 150.69 63.6175 150.96 63.887C151.229 64.1564 150.96 64.5606 151.229 64.83C151.499 65.0995 152.307 65.0995 152.307 65.0995C152.307 65.0995 151.229 67.7938 152.577 68.3327V68.6022C152.442 68.6022 152.307 68.7369 152.307 68.8716C151.364 68.0633 151.768 69.2758 151.364 69.5452C150.96 69.8146 150.69 69.5452 150.69 69.4105C151.364 68.4674 150.421 68.7369 150.421 68.4674C150.421 68.0633 150.556 66.9855 150.421 66.3119C148.939 67.1202 150.017 65.7731 148.535 65.2342C150.286 64.83 148.535 62.4051 148.804 62.1356C149.074 61.8662 149.882 62.4051 149.747 61.8662C148.804 61.462 147.727 61.462 148.4 60.2496C146.379 60.9232 147.457 58.3635 145.841 57.9593C145.706 57.5552 145.302 56.0733 145.167 56.0733C145.841 56.0733 146.245 56.4774 145.841 55.5344C145.436 54.5913 145.032 53.6483 144.089 54.4566C144.089 53.9177 143.955 52.3011 143.82 52.1664L145.302 51.2234V49.8762C144.089 49.6067 144.628 50.6845 144.493 50.8192C143.955 51.3581 143.82 50.1456 143.685 50.1456C143.55 50.1456 143.281 50.415 143.146 50.415C143.146 49.7414 142.877 48.7984 143.146 48.1248C143.416 47.4512 143.82 47.8554 143.82 47.7207C143.82 45.9693 142.607 47.1818 141.799 46.7776C140.991 46.3735 141.26 46.104 140.991 45.6999C140.721 45.2957 140.182 45.6999 140.452 44.8916L141.125 44.6221L139.239 44.3527C139.105 44.0832 138.7 43.1402 138.566 43.0055L139.913 41.6583C137.219 41.793 138.97 39.3681 136.68 39.7722L138.027 37.8862L139.509 41.1194L141.26 40.4458V40.5805ZM147.053 58.0941C147.323 57.6899 146.784 57.2857 146.784 57.4205C146.514 57.8246 147.053 58.2288 147.053 58.0941Z" fill="#A68263"/>
<path d="M152.577 77.4936C152.307 79.3797 152.173 79.2449 152.307 81.4005C152.442 83.556 152.307 82.7476 152.307 83.2865C151.903 83.4212 151.095 84.7684 150.96 84.7684C150.691 84.9032 150.556 84.0948 150.017 85.3073C151.23 84.499 151.364 86.9239 150.96 87.4628C150.556 88.0017 149.882 87.4628 149.478 88.0017C149.074 88.5406 149.344 90.8308 147.323 90.2919L148.67 88.9447L147.727 88.4059C147.996 88.1364 148.401 88.0017 148.67 87.7323C149.478 86.5198 148.401 86.7892 148.401 86.5198C148.401 86.1156 148.131 84.3643 148.131 83.8254C148.131 83.2865 148.131 83.1518 148.131 82.8824C148.67 83.0171 148.67 84.0948 148.805 84.2296C148.939 84.2296 149.209 83.8254 149.613 83.6907C150.017 83.556 150.691 84.0948 150.825 83.6907L148.535 82.2088L149.478 81.4005L148.131 80.8616V80.5921C148.401 80.3227 148.939 80.7269 149.074 80.3227C149.209 79.9185 148.67 79.3797 150.017 79.5144L149.748 80.3227C151.634 80.8616 152.846 78.3019 150.556 77.8978C150.152 77.8978 150.825 78.8408 150.691 78.8408C150.556 78.8408 149.478 79.2449 149.344 79.1102C149.074 77.8978 148.805 76.6853 148.67 75.6075C148.535 74.5298 148.67 74.9339 148.67 74.6645C150.017 73.452 151.499 75.3381 150.287 72.509C149.074 69.6799 149.478 72.2395 149.613 71.2965C149.613 69.8146 150.152 69.9493 151.23 69.5452C152.307 69.141 151.769 70.084 152.173 68.8716H152.442C152.577 69.2757 153.25 69.6799 153.25 70.3535C153.385 71.9701 152.577 75.4728 152.442 77.2242L152.577 77.4936ZM151.768 81.9393V82.2088C152.038 82.2088 152.038 81.9393 151.768 81.9393Z" fill="#A68263"/>
<path d="M144.898 99.4529C145.302 100.935 145.436 101.07 146.514 102.013C146.245 102.013 145.302 102.686 145.302 102.821C144.898 103.899 145.841 104.168 143.55 104.033C143.416 104.572 144.089 104.168 144.224 104.572C144.359 104.976 144.224 105.111 144.224 105.381C143.955 105.381 142.742 105.65 142.607 105.65C142.068 106.324 143.146 106.324 143.281 106.324C143.685 106.997 142.877 106.862 142.742 106.997C142.338 107.671 142.338 107.806 141.664 108.479C141.125 107.536 141.934 106.189 142.338 105.246C142.742 104.303 142.877 104.976 142.877 104.707C143.281 103.09 143.281 100.8 144.898 99.4529ZM144.898 102.956C144.898 102.147 144.224 101.743 143.955 102.417C143.685 103.09 144.763 102.686 144.898 102.956Z" fill="#FD937D"/>
<path d="M152.577 68.3327C151.095 67.9285 152.308 65.2341 152.308 65.0994C152.308 64.9647 151.499 65.0994 151.23 64.83C150.96 64.5605 151.23 64.0217 150.96 63.8869C150.556 63.4828 149.344 64.4258 149.748 62.9439C150.287 62.9439 149.748 63.4828 150.556 63.6175C151.364 63.7522 151.364 63.4828 151.634 62.9439C152.173 65.6383 152.981 64.83 152.577 68.4674V68.3327Z" fill="#FD937D"/>
<path d="M39.4126 44.4874C39.4126 44.8915 39.9515 45.9693 39.6821 46.104C39.4127 46.2387 38.6043 46.104 38.2002 46.3734C37.796 46.6429 38.0655 47.9901 37.6613 48.2595C37.2571 48.529 36.9877 48.2595 36.7183 48.2595C37.5266 47.047 37.5266 44.7568 39.2779 44.3527L39.4126 44.4874Z" fill="#FD937D"/>
<path d="M22.5724 92.0434C22.5724 92.0434 23.1112 91.9086 23.2459 92.1781C23.3807 92.4475 22.8418 94.4683 22.9765 94.603C23.246 94.7377 24.9973 94.3336 23.6501 96.2197C23.3807 96.3544 23.1112 95.8155 22.9765 95.5461C22.3029 94.4683 22.0335 93.2558 22.7071 92.0434H22.5724Z" fill="#FD937D"/>
<path d="M22.9766 96.489C24.5933 96.489 23.6502 98.2404 23.6502 98.3751C23.6502 98.5098 24.1891 98.3751 24.1891 98.6445C24.4586 99.3181 24.0544 99.1834 23.5155 98.7793L22.8419 100.126C22.8419 98.7793 22.5725 97.8362 22.8419 96.6238L22.9766 96.489Z" fill="#FD937D"/>
<path d="M152.307 81.2657C152.307 79.1102 152.307 79.245 152.577 77.3589C153.25 78.3019 152.846 80.188 152.307 81.2657Z" fill="#FD937D"/>
<path d="M22.5723 88.81C23.65 88.5406 23.5153 90.0225 22.5723 89.7531C22.5723 89.4837 22.5723 89.0795 22.5723 88.81Z" fill="#FD937D"/>
<path d="M40.3552 43.5444C40.4899 44.3527 40.0857 44.218 39.4121 44.218C39.4121 43.0055 39.951 43.8138 40.3552 43.5444Z" fill="#FD937D"/>
<path d="M22.5727 90.0225C23.2463 90.5614 22.9768 90.8309 22.3032 90.6961C22.3032 90.1573 22.5727 90.0225 22.5727 90.0225Z" fill="#FD937D"/>
<path d="M152.307 69.0063C151.903 70.2187 152.173 69.4104 151.364 69.6799C151.768 69.4104 151.364 68.198 152.307 69.0063Z" fill="#FD937D"/>
<path d="M152.577 69.0063H152.307C152.307 68.8716 152.442 68.7368 152.577 68.7368V69.0063Z" fill="#FD937D"/>
<path d="M145.84 58.094C147.592 58.4982 146.379 61.0578 148.4 60.3842C147.592 61.5967 148.669 61.5967 149.747 62.0009C149.747 62.6745 148.939 62.1356 148.804 62.2703C148.535 62.5398 150.286 64.9647 148.535 65.3689C150.017 65.9077 148.939 67.2549 150.421 66.4466C150.69 66.9855 150.421 68.0632 150.421 68.6021C150.421 69.141 151.364 68.6021 150.69 69.5452C150.69 69.8146 151.229 69.8146 151.364 69.6799C150.151 70.084 149.747 70.084 149.747 71.4312C149.747 72.7784 150.286 72.1048 150.421 72.6437C151.499 75.4728 150.017 73.5867 148.804 74.7992C148.265 68.8716 147.996 63.4828 145.84 57.9593V58.094ZM150.286 69.0063C149.882 68.7368 149.478 69.2757 149.612 69.2757C150.017 69.5452 150.421 69.0063 150.286 69.0063Z" fill="#FD937D"/>
<path d="M107.041 23.4711C109.197 23.7406 110.948 24.2795 113.238 24.4142C115.529 24.5489 113.643 24.4142 113.912 24.4142C114.181 25.8961 115.663 25.7614 116.876 26.0308C118.088 26.3003 117.954 26.7044 118.762 26.7044C118.897 27.2433 119.301 27.2433 119.705 27.378C120.379 27.6474 121.322 27.7822 121.995 28.0516C122.399 28.9946 124.151 30.3418 125.228 30.6113C125.767 32.0932 126.171 31.4196 126.71 31.9585C127.249 32.4973 126.576 33.3057 128.058 33.1709C128.058 33.8445 128.058 33.8445 128.731 33.8445V34.114C129.001 35.057 129.809 34.9223 130.078 35.057C130.348 35.1917 129.944 36.1348 131.021 36C132.099 35.8653 131.291 36 131.291 36C131.291 37.2125 132.369 36.8084 132.638 36.9431C132.907 37.0778 132.503 37.7514 133.985 38.2903C133.716 39.5027 134.524 39.0986 134.659 39.2333C134.793 39.368 134.659 39.6375 134.659 39.7722C134.928 40.0416 135.602 39.7722 135.871 39.7722C136.141 39.7722 136.006 40.8499 136.41 41.3888C137.084 42.3319 138.161 42.6013 138.835 43.0054C139.509 43.4096 139.374 43.9485 139.509 44.3526C140.048 45.2957 141.529 47.047 141.664 47.3165C142.068 48.2595 142.068 50.415 143.416 50.415C143.416 50.8192 143.416 51.4928 143.416 51.7622C143.416 52.0316 143.954 51.8969 144.089 52.0317C144.089 52.0317 144.359 53.783 144.359 54.3219C144.763 56.4774 144.897 55.3996 145.302 55.9385C145.706 56.4774 145.84 57.4204 145.975 57.8246C148.131 63.3481 148.265 68.6021 148.939 74.6645C149.613 80.7269 148.939 75.3381 148.939 75.6075C147.861 76.6853 148.265 78.9755 148.265 80.4574C148.265 81.9393 148.265 80.7269 148.265 80.7269C148.265 81.4005 148.265 82.0741 148.265 82.6129C148.265 83.1518 148.265 83.2865 148.265 83.556C147.322 83.4212 147.727 84.0948 147.592 84.6337C147.322 87.5976 146.514 90.9655 145.975 93.7946C145.436 96.6238 145.84 96.2196 145.706 97.7015C144.359 97.8362 144.897 98.2404 145.032 98.6445C145.167 99.0487 145.032 98.914 145.032 98.914C143.416 100.261 143.55 102.551 143.011 104.168C142.472 105.785 142.472 104.437 142.472 104.707C142.068 105.65 141.26 106.997 141.799 107.94C138.835 111.039 138.431 113.598 136.006 116.697C133.581 119.795 135.467 117.101 135.063 117.64C134.659 118.179 131.695 121.951 131.425 122.086C131.021 122.49 130.213 122.086 129.944 123.837C128.192 123.972 128.192 125.454 127.384 126.262C126.576 127.07 125.498 127.879 124.151 129.361C122.803 130.842 123.477 130.034 123.208 130.304C122.938 130.573 122.803 129.765 122.534 130.977C122.265 132.19 122.534 131.516 122.534 131.651H122.265C119.301 132.055 116.741 134.884 114.855 136.77C113.373 136.77 111.891 138.117 110.679 138.791C109.466 139.464 109.736 138.791 109.062 140.003C108.658 140.003 108.388 140.138 108.119 140.273C107.85 140.408 107.85 140.542 107.85 140.542C105.559 141.351 103.404 142.294 101.114 143.102C98.8234 143.91 97.2068 143.91 95.7249 144.584C94.2429 145.257 94.1082 145.662 94.3777 145.931C94.1082 145.931 93.7041 145.931 93.4346 145.931C90.6055 145.931 89.5278 146.739 87.1028 147.143C84.6779 147.548 82.3876 147.413 80.2321 147.548C78.0766 147.682 79.9627 147.548 79.9627 147.548C79.2891 147.548 78.6155 147.278 78.0766 147.817C76.8642 147.548 76.3253 147.817 75.3822 147.682C72.0143 147.278 69.1852 146.066 65.9519 145.392C62.7186 144.719 63.1228 144.719 61.6409 144.988C61.9103 144.045 60.8326 144.314 60.0242 144.314C60.0242 144.18 60.159 143.91 59.8895 143.641C59.6201 143.371 57.5993 143.102 57.4646 142.967C57.3298 142.832 57.4646 142.428 57.4646 142.428C57.1951 142.294 56.6562 142.698 56.3868 142.698C56.1174 142.698 56.3868 142.159 55.9827 142.024C52.48 140.946 50.8633 139.599 47.7648 137.578C44.6662 135.558 47.2259 136.097 46.1481 136.501H45.8787C46.2829 134.749 45.3398 135.423 44.8009 134.884C44.2621 134.345 44.8009 134.076 44.5315 133.941C44.2621 133.806 43.7232 133.941 43.319 133.672C42.7802 133.267 43.1843 132.459 41.7024 132.594V132.324C41.8371 131.247 41.433 130.708 40.3552 130.438C39.9511 129.226 39.1427 129.226 38.7386 128.552C38.3344 127.879 37.3914 125.723 36.8525 124.645C36.3136 123.568 36.1789 122.894 35.5053 123.029C35.5053 122.894 35.2359 122.355 35.2359 122.086C34.9664 121.008 34.5623 118.583 33.3498 118.583V118.314C33.0804 116.293 32.0026 115.484 31.329 114.003C30.6554 112.521 30.7901 110.365 30.2513 108.614C29.7124 106.862 29.8471 107.267 29.1735 107.267C29.1735 106.862 29.1735 106.324 29.1735 105.919C29.7124 103.09 29.0388 102.821 28.9041 100.396C28.7693 97.9709 28.9041 99.7223 28.9041 99.4529C28.9041 99.1834 29.1735 99.3181 29.0388 98.7793C29.0388 97.2973 28.2305 95.9501 28.2305 94.6029C29.0388 92.3127 28.2305 90.4267 28.2305 88.4059C28.2305 86.3851 28.9041 84.0949 29.1735 82.4782C29.4429 80.8616 30.5207 80.5921 29.1735 80.188C29.7124 79.6491 30.2513 78.5714 30.386 77.8978C30.9249 74.9339 30.7901 73.452 31.8679 70.3535C33.4845 65.6383 35.1012 60.2495 37.2567 55.8038C39.4122 51.358 39.008 54.726 38.8733 53.9177V53.6483C39.2774 53.6483 39.1427 53.2441 39.1427 52.9747C39.8163 52.9747 40.6246 51.0886 40.7594 50.415H41.0288C41.5677 50.415 41.7024 49.8761 41.7024 49.472C41.7024 49.472 41.7024 48.3942 41.9718 48.1248C43.9926 48.1248 42.7802 47.8554 43.319 47.3165C44.5315 45.8346 47.8995 42.736 48.4384 40.9847C50.055 40.3111 49.112 40.7152 49.7856 40.0416C50.4592 39.368 49.9203 39.7722 50.055 39.7722C50.5939 39.368 52.2105 39.0986 51.9411 38.1556C52.3452 38.1556 52.6147 38.1556 53.0188 37.7514C54.366 36.9431 56.1174 34.7876 57.1951 34.114C59.3506 32.7668 65.2783 30.4766 66.2213 28.0516H66.4908C66.7602 28.0516 67.1644 28.0516 67.4338 28.0516L67.7032 27.7822C67.7032 27.7822 67.7032 27.5127 67.9727 27.5127L68.2421 27.7822C68.5116 27.7822 72.5531 26.7044 73.4962 26.435C76.0558 25.7614 77.9419 24.8183 80.6363 24.5489C83.3307 24.2795 80.6363 23.7406 81.4446 23.8753C82.2529 24.01 81.8488 24.4142 82.1182 24.1447C82.3877 23.8753 82.1182 23.6059 82.1182 23.4711C82.1182 23.3364 82.3876 23.4711 82.3876 23.4711C82.9265 23.4711 83.7348 23.7406 84.0043 23.2017H84.2737C85.2168 23.3364 84.9473 23.6059 86.1598 23.4711C87.3723 23.3364 87.9111 23.2017 88.7195 23.2017C89.5278 23.2017 90.875 23.2017 91.9527 23.2017C93.8388 23.2017 96.2637 22.9323 97.8804 22.9323H103.673C104.886 22.9323 106.233 22.7975 107.445 22.9323L107.041 23.4711ZM122.803 62.2703C123.477 62.2703 123.746 62.6745 124.151 61.8662C124.555 61.0578 125.363 59.7106 125.633 59.0371C125.902 58.094 125.633 57.151 125.902 56.4774C126.171 55.8038 127.114 55.3996 127.519 54.8608C128.596 53.2441 130.617 50.5497 128.596 48.7984C126.576 47.047 124.42 50.415 123.746 51.6275C123.073 52.84 123.746 52.4358 123.612 52.5705C123.612 52.84 123.342 52.9747 123.342 53.2441C122.265 53.2441 122.265 54.1872 121.995 54.5913C119.301 57.8246 116.876 60.519 114.451 63.8869C104.212 78.0325 92.0874 91.6391 83.3307 106.997C81.714 107.401 78.2113 114.272 77.8072 114.407C77.403 114.541 76.9989 114.407 76.7294 114.407L72.6879 109.422C72.4184 109.287 71.8795 109.422 71.6101 109.287C71.3407 109.153 67.1644 103.09 66.2213 102.282C65.2783 101.474 65.413 102.147 64.0658 100.396C61.102 96.489 58.1382 91.235 54.6355 87.5975C51.1328 83.9601 51.4022 86.5198 51.1328 88.2711C50.8633 90.0225 51.1328 88.9447 51.1328 89.2142C51.1328 89.4836 51.1328 89.6183 51.1328 89.8878C51.4022 89.8878 51.8064 89.8878 52.0758 89.8878C52.0758 90.9655 51.5369 92.0433 53.0188 91.9086L54.7702 95.9501C56.1174 97.4321 59.7548 102.147 60.159 103.764C60.5631 105.381 60.5631 104.168 60.8325 104.437C61.102 104.707 60.8325 104.976 60.8325 105.111C61.2367 106.189 61.2367 105.515 61.5061 105.785C61.7756 106.054 62.1797 106.324 62.1797 106.458C62.1797 106.593 62.4492 106.997 62.4492 107.132C62.8533 108.21 62.4492 108.883 63.7964 109.422C64.0658 111.847 65.1436 111.039 65.9519 112.116C66.7602 113.194 67.0296 115.619 68.6463 115.889V116.158C68.6463 118.044 71.4754 121.008 72.8226 122.22C72.5531 125.05 71.6101 126.531 75.2475 126.127C78.8849 125.723 76.3253 125.319 76.46 125.184C76.7294 124.915 77.6725 124.915 77.8072 124.915C78.0766 126.936 81.3099 125.723 81.5793 124.376C81.8488 123.029 81.1752 123.433 81.3099 123.298C81.4446 123.163 81.9835 123.433 82.2529 123.029C82.5224 122.625 83.8696 120.2 84.139 119.661C84.4084 119.122 84.9473 119.526 84.139 118.583C86.0251 118.044 87.1028 115.08 88.45 113.329C89.7972 111.578 90.4708 110.904 90.7402 110.635C91.0097 110.365 92.2222 109.961 92.2222 109.826C92.8958 109.153 91.4138 109.287 91.5486 108.883H92.4916C93.4346 107.536 93.9735 105.515 94.7818 104.303C95.5901 103.09 97.8804 100.531 98.8234 99.4529C100.44 97.5668 101.518 94.3335 102.865 92.178C104.212 90.0225 108.658 85.7115 109.87 83.0171C111.083 80.3227 109.601 83.0171 110.544 81.5352C111.487 80.0533 111.083 79.7838 111.487 79.1102C111.891 78.4366 111.756 78.4366 111.756 78.4366C112.161 78.0325 112.834 78.1672 113.508 77.4936C114.181 76.82 114.586 75.0687 115.124 73.9909C115.933 72.509 115.933 72.1048 117.145 71.0271C119.435 69.0063 119.166 67.6591 120.379 65.5036C121.591 63.3481 122.13 64.5605 122.399 62.9439C122.534 62.9439 122.669 62.8092 122.669 62.6745C122.669 62.5398 122.669 62.405 122.669 62.405L122.803 62.2703Z" fill="#FDFDFD"/>
<path d="M48.8426 40.5805C48.169 41.2541 49.112 40.85 47.4954 41.5236C46.9565 43.1402 43.5885 46.3734 42.376 47.8554C41.1636 49.3373 43.0496 48.529 41.0288 48.6637C39.008 48.7984 40.2205 48.6637 39.6816 48.6637C39.6816 47.9901 40.49 48.529 40.6247 48.3942C40.7594 48.2595 40.2205 47.047 40.49 46.7776C41.5677 45.9693 41.5677 46.3735 41.8371 47.4512C42.376 46.5082 42.5107 46.2387 43.5885 46.5082L42.9149 45.4304C44.801 45.8346 44.5315 43.8138 44.9357 43.0055C45.3398 42.1971 46.8218 41.9277 47.3606 41.6583C47.6301 40.85 46.687 40.5805 48.7078 40.7152L48.8426 40.5805Z" fill="#FD937D"/>
<path d="M27.8265 100.126C27.2876 99.9917 27.0182 99.3181 27.0182 98.914C26.8835 97.7015 27.9612 97.5668 25.5363 97.2973C25.2669 96.2196 26.0752 96.8932 26.4793 96.6237C26.8835 96.3543 27.1529 95.4113 27.1529 95.4113C27.1529 96.8932 27.8265 98.2404 27.9612 99.5876C28.096 100.935 27.8265 100.126 27.8265 100.261V100.126Z" fill="#FD937D"/>
<path d="M39.8163 50.9539C39.8163 51.6275 38.8733 53.6483 38.1997 53.5136C38.1997 53.3788 38.1997 52.9747 38.1997 52.7053C38.1997 52.4358 39.4122 51.8969 38.8733 50.5497C38.8733 50.5497 39.5469 50.8192 39.8163 50.8192V50.9539Z" fill="#FD937D"/>
<path d="M40.7599 50.0109C40.7599 50.415 40.6252 50.8192 40.0863 50.9539C39.8169 49.6067 40.6252 50.1456 40.7599 50.0109Z" fill="#FD937D"/>
<path d="M37.5265 53.783C37.5265 54.0525 36.9876 53.6483 37.2571 53.1095C37.5265 52.5706 37.796 53.2442 37.5265 53.783Z" fill="#FD937D"/>
<path d="M37.7952 54.1872V54.4566C36.8521 54.4566 36.8521 54.0525 37.7952 54.1872Z" fill="#FD937D"/>
<path d="M27.0181 100.126C27.2875 100.126 27.2875 100.396 27.0181 100.396V100.126Z" fill="#FD937D"/>
<path d="M38.3345 51.6275C38.6039 51.6275 38.6039 51.8969 38.3345 51.8969V51.6275Z" fill="#FD937D"/>
<path d="M41.8369 45.6998C42.1064 45.6998 42.1064 45.9693 41.8369 45.9693V45.6998Z" fill="#FD937D"/>
<path d="M139.374 44.4874L141.26 44.7568L140.586 45.0262C140.317 45.8346 140.991 45.5651 141.125 45.8346C141.395 46.104 141.664 46.7776 141.934 46.9123C142.607 47.3165 143.954 45.9693 143.954 47.8553C143.954 49.7414 143.416 47.9901 143.281 48.2595C143.011 48.9331 143.281 49.8761 143.281 50.5497C143.281 50.5497 143.685 50.2803 143.82 50.2803C143.954 50.2803 143.954 51.4928 144.628 50.9539C145.302 50.415 144.224 49.7414 145.302 50.0109V51.3581C145.436 51.3581 143.954 52.3011 143.954 52.3011C143.954 52.3011 143.416 52.4358 143.281 52.0317C143.146 51.6275 143.281 51.0886 143.281 50.6845C141.934 50.6845 141.934 48.529 141.53 47.5859C141.125 46.6429 139.913 45.5651 139.374 44.6221V44.4874Z" fill="#FD937D"/>
<path d="M144.224 54.4566C145.032 53.6483 145.706 54.8607 145.975 55.5343C146.38 56.6121 145.975 56.0732 145.302 56.0732C144.898 55.5343 144.763 56.6121 144.359 54.4566H144.224Z" fill="#FD937D"/>
<path d="M147.053 58.094C147.053 58.3635 146.514 57.9593 146.783 57.4204C147.053 56.8816 147.322 57.5552 147.053 58.094Z" fill="#FD937D"/>
<path d="M148.67 75.877C148.804 77.0895 149.074 78.3019 149.343 79.3797C149.343 79.3797 150.556 79.1102 150.691 79.1102C150.691 79.1102 150.152 78.3019 150.556 78.1672C152.846 78.5714 151.634 81.131 149.748 80.5922L150.017 79.7838C148.535 79.5144 149.209 80.0533 149.074 80.5922C148.939 81.131 148.4 80.5922 148.131 80.8616C148.131 79.3797 147.727 77.0895 148.804 76.0117L148.67 75.877Z" fill="#FD937D"/>
<path d="M148.131 80.9963L149.478 81.5352L148.535 82.3435L150.825 83.8254C150.825 84.2296 150.017 83.8254 149.613 83.8254C149.209 83.8254 148.939 84.499 148.804 84.3643C148.67 84.2296 148.804 83.2865 148.131 83.0171C148.131 82.3435 148.131 81.6699 148.131 81.131V80.9963Z" fill="#FD937D"/>
<path d="M152.307 83.2865C152.442 85.8462 151.768 90.6961 150.96 93.3905C150.152 96.0849 150.287 93.5252 150.287 93.6599L149.613 92.8516C148.67 92.0433 149.074 93.7947 148.266 94.1988C147.457 94.603 146.38 93.9294 145.706 94.3335C146.245 91.3697 147.053 88.0017 147.323 85.1726C147.592 82.3435 146.919 83.8254 147.996 84.0949C147.996 84.6337 148.266 86.3851 148.266 86.7892C148.266 87.1934 149.478 86.7892 148.535 88.0017C147.592 89.2142 147.862 88.4059 147.592 88.6753L148.535 89.2142L147.188 90.5614C149.074 91.1003 148.67 89.0795 149.343 88.2711C150.017 87.4628 150.556 88.2712 150.825 87.7323C151.095 87.1934 151.095 84.6337 149.882 85.5768C150.421 84.2296 150.421 85.1726 150.825 85.0379C151.23 84.9032 151.768 83.6907 152.173 83.556L152.307 83.2865ZM152.307 84.9032H151.364C151.768 85.7115 152.038 85.5768 152.307 84.9032Z" fill="#FD937D"/>
<path d="M151.769 81.9394C152.038 81.9394 152.038 82.2088 151.769 82.2088V81.9394Z" fill="#FD937D"/>
<path d="M145.437 98.1057C145.437 98.5099 145.033 98.914 144.763 99.0488C144.763 98.6446 144.09 98.2404 145.437 98.1057Z" fill="#FD937D"/>
<path d="M145.975 100.126C146.11 100.396 146.649 100.531 146.245 100.8C146.11 100.665 145.571 100.396 145.975 100.126Z" fill="#FD937D"/>
<path d="M152.307 84.9031C152.038 85.5767 151.768 85.7115 151.364 85.0379H152.307V84.9031Z" fill="#A68263"/>
<path d="M123.477 52.5705C124.959 52.9747 124.42 51.4928 124.824 51.0886C125.228 50.6845 125.902 51.0886 126.306 50.6845C126.71 50.2803 126.576 48.3942 127.653 50.1456C126.172 50.1456 127.249 51.8969 126.98 52.84C126.71 53.783 125.633 55.1302 125.094 54.9955L125.767 55.5344C124.285 56.208 125.363 57.4204 123.208 57.0163C123.073 57.151 124.016 59.3065 123.881 59.9801C123.747 60.6537 122.265 60.1148 123.477 61.462H121.86C122.13 62.2703 122.804 61.1926 122.804 62.405C122.804 63.6175 122.804 62.6745 122.804 62.6745C122.669 62.6745 122.534 62.8092 122.534 62.9439C122.265 64.6953 121.187 64.1564 120.513 65.5036C119.301 67.6591 119.57 69.141 117.28 71.0271C114.99 72.9132 115.933 72.3743 115.259 73.9909C114.586 75.6075 114.586 76.4159 113.643 77.4936C112.7 78.5714 112.295 78.1672 111.891 78.4367L110.275 77.4936L111.622 79.1102C111.218 79.7838 111.083 80.7269 110.679 81.5352C109.736 83.0171 110.409 82.2088 110.005 83.0171C108.793 85.8462 104.751 89.6184 103 92.178C101.248 94.7377 100.575 97.4321 98.9582 99.4529C97.3416 101.474 95.8596 102.821 94.9166 104.303C93.9736 105.785 93.5694 107.536 92.6264 108.883H91.6833C91.5486 109.422 92.8958 109.153 92.3569 109.961C91.8181 110.769 91.2792 110.365 90.875 110.769C90.4709 111.173 88.8542 113.06 88.5848 113.464C87.2376 115.215 86.1598 118.179 84.2738 118.718C82.3877 119.257 83.3307 118.718 83.3307 119.661C82.6571 119.795 83.3307 118.987 82.6571 118.987C82.6571 120.065 83.3307 120.604 81.9835 121.008C80.6363 121.412 80.9058 120.469 81.3099 121.951C81.7141 123.433 82.1183 121.951 81.9835 122.49C79.9627 121.682 80.3669 122.894 79.6933 123.568C79.0197 124.241 78.3461 123.568 78.0767 123.837C77.8072 124.107 77.8072 124.645 77.8072 124.645C77.8072 124.645 76.8642 124.645 76.46 124.915C74.9781 125.05 74.9781 123.568 74.7087 123.298C74.4393 123.029 73.9004 123.298 73.7657 123.298C73.6309 123.298 74.1698 122.894 73.7657 122.22C73.0921 120.604 72.149 121.143 72.149 121.143C71.8796 120.739 71.8796 118.987 71.7449 118.852C71.3407 118.718 68.9158 118.852 70.8018 117.775C70.6671 117.236 69.7241 117.371 69.5894 117.236C69.1852 116.832 70.1282 115.619 68.5116 116.023V115.754C68.5116 115.754 69.0505 115.484 68.781 115.215C68.5116 114.946 67.2991 114.272 67.2991 114.137C67.1644 113.868 67.7033 113.329 67.5686 113.194C67.4339 113.06 66.7603 113.194 66.7603 112.655C66.7603 112.116 67.1644 111.712 66.895 111.173C66.6255 110.635 65.1436 110.365 64.7395 110.5C65.2783 109.153 64.8742 109.557 63.7964 109.153C63.7964 107.94 64.6047 106.458 62.4492 106.862C62.4492 106.862 62.1798 106.324 62.1798 106.189C62.4492 105.381 61.6409 105.65 61.5062 105.515C61.3715 105.381 61.6409 104.572 60.8326 104.842C60.8326 104.707 60.8326 104.303 60.8326 104.168C60.8326 103.494 60.8326 103.494 60.159 103.494C59.7548 101.878 55.9827 97.1626 54.7702 95.6807L53.0189 91.6391C51.6717 91.6391 52.2106 90.6961 52.0758 89.6184C53.423 89.6184 52.48 88.2712 51.1328 88.9448C51.1328 88.6753 51.1328 88.2712 51.1328 88.0017C52.8842 88.6753 53.0189 87.7323 54.6355 87.3281C58.1382 90.8308 61.102 96.2196 64.0659 100.126C67.0297 104.033 65.1436 101.069 66.2214 102.013C67.2991 102.956 71.206 108.749 71.6102 109.018C72.0143 109.287 72.4185 109.018 72.6879 109.153L76.7295 114.137C76.9989 114.272 77.5378 114.137 77.8072 114.137C78.2114 114.003 81.7141 107.132 83.3307 106.728C92.0875 91.3697 104.212 77.7631 114.451 63.6175C116.876 60.2495 119.436 57.5552 121.995 54.3219C123.073 54.3219 122.938 53.783 123.342 52.9747C123.747 52.1664 123.612 52.5705 123.612 52.3011L123.477 52.5705ZM122.399 60.2495L121.86 60.7884C121.86 61.1926 122.669 60.6537 122.399 60.2495ZM54.7702 88.81V89.0795C55.0397 89.0795 55.0397 88.81 54.7702 88.81ZM62.584 105.515V105.785C62.8534 105.785 62.8534 105.515 62.584 105.515ZM62.8534 106.189V106.458C63.1228 106.458 63.1228 106.189 62.8534 106.189Z" fill="#A68263"/>
<path d="M123.477 52.5706C123.477 52.4358 123.477 52.0317 123.612 51.6275C124.285 50.4151 126.98 47.4512 128.462 48.7984C129.943 50.1456 128.462 53.1094 127.384 54.8608C126.306 56.6121 126.037 56.0733 125.767 56.4774C125.498 57.2857 125.767 58.2288 125.498 59.0371C125.228 59.8454 124.42 61.0579 124.016 61.8662C123.612 62.6745 123.342 62.2704 122.669 62.2704C122.669 61.0579 121.995 62.1356 121.726 61.3273H123.342C121.995 59.9801 123.612 60.3843 123.746 59.8454C123.881 59.3065 122.938 57.0163 123.073 56.8816C125.228 57.2857 124.151 56.0733 125.632 55.3997L124.959 54.8608C125.498 54.8608 126.71 52.9747 126.845 52.7053C127.114 51.7623 126.037 50.1456 127.519 50.0109C126.441 48.2596 126.575 50.1456 126.171 50.5498C125.767 50.9539 124.959 50.8192 124.689 50.9539C124.285 51.3581 124.689 52.9747 123.342 52.4358L123.477 52.5706Z" fill="#FD937D"/>
<path d="M54.6355 87.4629C53.0189 87.867 52.8842 88.81 51.1328 88.1365C51.537 86.3851 53.6925 86.3851 54.6355 87.4629Z" fill="#FD937D"/>
<path d="M111.892 78.4366C111.892 78.4366 111.622 78.8408 111.622 79.1102L110.275 77.4936L111.892 78.4366Z" fill="#FD937D"/>
<path d="M51.1328 89.0794C52.48 88.4058 53.5578 89.8877 52.0758 89.753C50.5939 89.6183 51.4023 89.753 51.1328 89.753C51.1328 89.4836 51.1328 89.3489 51.1328 89.0794Z" fill="#FD937D"/>
<path d="M123.208 53.2441C122.938 53.9177 122.938 54.4566 121.86 54.5913C122.13 54.3219 121.995 53.2441 123.208 53.2441Z" fill="#FD937D"/>
<path d="M122.534 62.9439C122.534 62.8092 122.669 62.6745 122.804 62.6745C122.804 62.8092 122.669 62.9439 122.534 62.9439Z" fill="#FD937D"/>
<path d="M150.286 69.0063C150.556 69.0063 150.152 69.5452 149.613 69.2758C149.074 69.0063 149.747 68.7369 150.286 69.0063Z" fill="#A68263"/>
<path d="M54.7705 88.8101C55.0399 88.8101 55.0399 89.0795 54.7705 89.0795V88.8101Z" fill="#FD937D"/>
<path d="M122.399 60.2495C122.669 60.519 121.86 61.0578 121.86 60.7884L122.399 60.2495Z" fill="#FD937D"/>
</svg>
