<svg width="68" height="75" viewBox="0 0 68 75" fill="none" xmlns="http://www.w3.org/2000/svg">
<path d="M0 47.5326C0 47.7853 0.0248693 48.0669 0.230447 48.2138C0.297107 48.2615 0.369148 48.2958 0.440912 48.3261C0.746778 48.4555 1.01702 48.6758 1.18895 48.9599C1.36618 49.2528 1.42735 49.5633 1.62586 49.828C1.73589 49.9747 1.97248 50.1776 2.22239 50.3775C2.78695 50.829 2.64491 51.6121 3.15609 52.1233C3.42263 52.3898 3.93678 52.1612 4.23849 52.434C4.27898 52.4706 4.27152 52.5335 4.23007 52.569C4.13813 52.6478 4.24765 52.8208 4.3642 52.7879C5.54551 52.4549 4.72576 53.7324 4.97323 54.2274C5.24113 54.7632 5.97564 54.0705 6.52194 54.3163C7.02051 54.5406 6.57495 54.8987 6.50346 55.4707C6.4187 56.1487 7.46055 56.0005 6.83356 56.0246C6.64789 56.0317 6.49355 56.2379 6.67309 56.2857C6.93546 56.3556 7.04129 56.7724 7.29452 56.6744C8.01594 56.3954 7.08728 55.1234 7.65113 54.8012C8.70316 54.1317 8.12932 55.2794 8.22496 55.375C8.3206 55.4707 8.89443 55.6619 8.99007 55.9489C9.08571 56.2358 8.70316 56.8096 8.79879 57.0009C8.89443 57.1922 9.65955 57.0009 9.85082 57.2878C10.0421 57.5747 10.1377 58.6268 10.4247 58.818C10.7116 59.0093 10.8072 58.6267 11.0941 58.9137C11.3811 59.2006 11.7636 60.3483 12.0505 60.6352C12.3374 60.9221 12.3374 59.6788 12.72 60.157C12.8799 60.3569 12.9357 60.1153 13.1906 60.1384C13.5074 60.1672 13.9837 60.5986 14.1546 60.8264C14.4415 61.209 14.2502 61.4003 14.3459 61.4959C14.4415 61.5916 14.7284 61.3046 15.0153 61.4003C15.8761 61.7828 17.7889 64.8433 19.1278 64.9389C18.8522 64.9389 18.704 65.3807 18.7625 65.65C18.7983 65.8149 18.8206 66.0073 18.9365 66.2779C19.2235 66.9474 19.2235 66.2779 19.2235 66.3735C19.2235 66.6114 19.2202 66.8239 19.4522 66.7714C19.5869 66.7409 19.7285 66.6924 19.8507 66.6487C20.0624 66.573 20.2348 66.6796 20.2332 66.9044C20.2306 67.2631 20.2389 67.7701 21.0406 67.9037C21.7377 68.0199 22.1173 67.8891 22.4579 67.8328C22.8135 67.774 22.9491 68.1659 23.2482 68.367C23.2713 68.3825 23.2917 68.4034 23.3069 68.4323C23.3503 68.5145 23.299 68.6101 23.2333 68.6758C23.0555 68.8536 23.133 69.1258 23.3814 69.0864C23.7417 69.0292 24.1016 68.8601 24.2923 68.8601C24.5792 68.8601 25.5356 70.0078 25.8225 70.1034C26.3964 70.2947 26.8746 69.8165 27.7353 70.2947C28.1438 70.5217 28.5092 70.7486 28.7805 70.9347C29.126 71.1717 29.3809 71.6426 29.4063 72.0608C29.4201 72.2886 29.5685 72.3436 29.7966 72.3455C30.1387 72.3484 30.6282 72.3031 30.8914 72.3031C30.9284 72.3031 30.96 72.3067 30.987 72.3132C31.2124 72.3672 31.2144 72.7109 31.4447 72.6848C31.7804 72.6468 32.7445 72.6639 33.0807 72.6312C33.2498 72.6148 33.4197 72.6326 33.5574 72.6878C33.8585 72.8084 34.0076 73.0177 34.1247 72.7152C34.1292 72.7036 34.1352 72.6937 34.1432 72.6857C34.5109 72.3915 35.105 73.3418 35.4902 74.0139C35.664 74.3171 35.8088 74.3674 36.0559 74.1203C36.3071 73.8691 36.6422 73.7847 36.8115 73.4724C36.8493 73.4026 36.883 73.3552 36.9167 73.3552C36.9886 73.3552 37.4397 73.7884 37.8216 73.9621C37.9546 74.0226 38.0842 74.2142 38.0299 74.3498C37.9953 74.4363 38.0327 74.5364 38.1211 74.5657C38.6824 74.7514 39.3358 74.4969 39.9193 74.3694C40.4316 74.2574 42.3573 74.2526 42.7013 74.6484C42.8462 74.8149 43.063 75.0379 43.059 74.8172C43.0577 74.7465 43.0652 74.6665 43.1332 74.5985C43.3245 74.4072 43.5158 74.5985 43.6114 74.4072C43.7071 74.2159 43.7071 74.0246 43.8027 74.0246C44.0896 74.0246 44.3765 74.4072 44.6634 74.4072C44.9504 74.4072 45.5242 73.8334 45.8111 73.8334C46.098 73.8334 45.8111 74.3116 46.0024 74.3116C46.1937 74.3116 46.5762 74.0246 46.8631 74.0246C47.1501 74.0246 46.9588 74.5028 47.0544 74.5028C47.3651 74.5028 47.9584 74.0992 48.3097 74.0786C48.6106 74.061 48.6584 74.3334 48.8716 74.1203C48.9672 74.0246 49.7323 74.4072 49.541 73.4508C49.3498 72.4944 49.0628 73.3552 49.0628 73.2595C49.1429 72.4586 49.6925 72.7979 49.9252 72.8732C49.985 72.8926 50.0192 72.8417 50.0192 72.7789C50.0192 72.5681 50.351 72.3429 50.5617 72.3328C50.9155 72.3159 51.2994 72.2075 51.3582 72.2075C51.4538 72.2075 51.3582 72.5901 51.5495 72.5901C51.9659 72.5901 53.1076 72.2999 53.8377 72.4776C53.9391 72.5023 54.0532 72.3937 54.0144 72.2968C53.9822 72.2164 54.0521 72.1309 54.1387 72.133C54.8522 72.1498 54.9739 71.4476 55.0466 71.1118C55.0682 71.0123 55.1284 70.921 55.23 70.9148C55.2895 70.9112 55.3597 70.9168 55.4351 70.9222C55.6723 70.939 55.7336 70.7896 55.508 70.8648C55.4448 70.8859 55.3708 70.8644 55.2794 70.7729C54.9032 70.3968 55.3556 69.8431 55.845 69.7636C55.9179 69.7517 56.0046 69.5853 55.9524 69.5331C55.9039 69.4846 55.9613 69.3774 56.0292 69.3673C56.3965 69.3125 56.5397 68.8601 56.6183 68.8601C56.9052 68.8601 57.1922 69.1471 57.6704 68.8601C58.0308 68.6439 58.4457 67.8841 58.71 67.4822C58.8276 67.3033 58.9932 67.1502 59.1976 67.0866C59.5526 66.9762 60.0762 66.9421 60.3478 66.6838C60.4146 66.6203 60.4057 66.517 60.3481 66.445C60.2325 66.3006 60.3378 66.0743 60.5131 66.0151C61.5645 65.6602 61.8379 64.0748 62.261 63.3131C62.7392 62.4523 63.3131 62.261 63.5043 61.9741C64.2506 60.7615 64.4509 59.003 65.7026 57.9409C65.7629 57.8898 65.7997 57.8155 65.7997 57.7365V57.7182C65.7997 57.5861 65.6926 57.4791 65.5606 57.4791C65.4285 57.4791 65.3108 57.351 65.4134 57.2679C65.5665 57.144 65.8774 57.1324 66.0866 56.714C66.3735 56.1401 66.5648 55.4707 66.6604 55.2794C66.7561 55.0881 66.3735 54.4186 66.6604 53.9404C66.9285 53.4937 68.1148 53.7147 67.1777 53.1218C67.0597 53.0471 67.0294 52.8856 67.1188 52.7783C67.2406 52.6322 67.1366 52.4102 66.9464 52.4102H66.7252C66.5747 52.4102 66.4031 52.2423 66.5471 52.1985C66.6715 52.1606 66.8866 52.2099 66.9474 52.0277C67.2343 50.7843 66.5648 50.88 66.4692 50.4974C66.237 49.801 66.0675 49.042 66.1632 48.3217C66.1966 48.0701 66.0158 47.8195 65.7621 47.8195C65.4786 47.8195 65.3948 47.4846 65.2821 47.2245C65.2056 47.0478 64.9389 47.0795 64.9389 46.9588C64.9389 46.2893 65.0346 46.1937 64.652 45.2373C63.8869 43.4201 63.6956 40.9335 63.2174 38.8295C62.9828 37.7969 63.5216 38.103 64.0542 39.0181C64.4186 39.644 64.6982 40.3466 64.7477 40.7422C64.8433 41.5074 64.4607 43.1332 65.1302 42.3681C65.7997 41.603 65.6084 40.6466 65.6084 40.4553C65.6084 39.8815 65.2258 36.1516 65.0346 35.6734C64.8433 35.1952 63.6956 32.2304 63.6 32.0391C63.5043 31.8478 63.0261 31.8478 62.8349 31.3696C62.5837 30.7836 62.9188 30.1977 62.1084 29.9965C61.9611 29.9599 61.9014 29.7637 62.0199 29.6689C62.0975 29.6068 62.1032 29.4917 62.0348 29.4196C61.8913 29.2683 61.7609 29.1041 61.6872 28.883C61.4959 28.4048 60.5395 26.0138 60.2526 25.8226C59.9657 25.6313 59.6788 25.8226 59.5831 25.8226C59.4875 25.8226 59.7744 25.2487 59.6788 24.8662C59.5558 24.1283 59.077 23.5486 58.8525 22.8728C58.6503 22.2645 58.4469 21.5531 58.2442 20.945C58.0529 20.3711 57.2878 20.2755 57.4791 19.5104L57.4054 19.7315C57.3307 19.9556 57.1619 20.1945 56.9274 20.166C56.8604 20.1579 56.8189 20.1267 56.7971 20.0788C56.5553 19.5498 56.3241 18.8189 56.1401 18.2671C55.9965 17.836 56.7161 17.8367 56.5969 17.58C56.4767 17.3213 56.0899 17.5163 56.043 17.7976C55.997 18.0741 55.6388 18.2546 55.508 18.0068C55.4511 17.899 55.4919 17.8158 55.5676 17.7535C55.7612 17.5942 55.9628 17.4241 55.8446 17.203C55.5512 16.6542 54.7594 15.8881 54.6099 15.5892C54.4186 15.2066 54.8012 15.0153 54.6099 14.6328C54.4186 14.2502 53.8448 14.3459 53.7492 14.2502C53.2191 13.7202 53.1865 13.474 52.6178 12.9856C52.51 12.893 52.4322 12.7489 52.4102 12.5287C52.3146 11.5723 52.8884 12.2418 52.8884 12.0505C52.8884 11.8188 52.6389 11.3377 52.5933 10.9092C52.5798 10.7832 52.4457 10.6783 52.328 10.7253C52.2271 10.7657 52.1164 10.6944 52.1001 10.587C51.9029 9.29223 50.7504 9.39543 50.1149 8.03368C50.0631 7.92275 50.0205 7.81926 49.9853 7.72294C49.7094 6.9668 48.7807 6.191 48.2977 5.54707C48.1249 5.3166 48.1603 4.73899 48.153 4.25343C48.1457 3.76052 47.8834 3.32431 47.6314 2.90058C46.5621 1.10216 44.6245 1.89689e-06 42.5322 1.89689e-06H13.9652C6.25244 1.89689e-06 0 6.25244 0 13.9652V47.5326ZM53.5176 70.4235C53.6709 70.3532 53.7382 70.4843 53.7129 70.6511C53.6627 70.9818 53.5855 71.5251 53.6535 71.7293L52.8884 70.1034L52.99 70.2728C53.105 70.4644 53.3145 70.5167 53.5176 70.4235ZM28.9786 65.991C28.9354 66.0342 28.9547 66.1076 29.0145 66.1203C29.328 66.1869 29.5849 66.1429 29.7853 66.0893C30.1455 65.9932 30.6891 66.0991 31.0585 66.1498C31.0734 66.1518 31.0881 66.1544 31.1024 66.1574C31.4781 66.2379 31.0716 66.6885 30.7205 66.8448C30.401 66.9871 30.1202 67.1948 29.8394 67.1386C28.9786 66.9474 29.0743 66.4692 28.9786 65.991C28.9192 65.9791 28.8656 65.9716 28.8176 65.9662C28.6673 65.9493 28.9308 65.8474 28.9786 65.991ZM12.6244 58.4355C12.6244 58.4909 12.5834 58.539 12.5286 58.5481C12.0323 58.6308 11.8153 58.5793 11.7293 58.4616C11.4153 58.0319 10.7866 58.0142 11.0219 57.5368C11.147 57.2829 11.5215 56.9053 11.5723 56.9053C12.4331 56.9053 12.72 57.6704 12.6244 58.4355ZM24.4335 52.8884C24.4189 52.8884 24.4118 52.9068 24.4231 52.916C24.8392 53.2535 26.5468 54.9589 26.9044 55.5162C26.9626 55.6071 26.9899 55.7146 26.9982 55.8223C27.0737 56.7993 25.4056 57.56 24.7705 57.2878C24.101 57.0009 23.9098 56.4271 23.8141 56.3314C23.3359 55.7576 23.1447 55.1837 22.8577 54.7056C22.5865 54.2536 21.5463 54.0579 22.0793 52.7456C22.1428 52.5892 22.2756 52.4702 22.4355 52.4162C23.4436 52.0756 23.6752 52.345 24.4415 52.8602C24.454 52.8686 24.4485 52.8884 24.4335 52.8884ZM37.8668 44.0881C37.9994 44.2145 38.1216 44.3613 38.1381 44.5438C38.1927 45.1495 37.2914 45.4634 36.92 44.9819C36.8296 44.8647 36.79 44.7331 36.7739 44.5833C36.6892 43.7963 37.1724 43.4421 37.7526 43.9806C37.7934 44.0185 37.8318 44.0547 37.8668 44.0881ZM54.7056 45.3329C54.0361 45.046 54.0361 43.7071 53.7492 43.1332C53.271 42.0812 52.1233 41.0292 52.8884 39.8815C54.7055 37.108 57.3834 43.6114 56.4271 45.046C55.4707 46.4806 55.0881 45.5242 54.7056 45.3329ZM25.8781 33.1667C25.8223 33.1388 25.7586 33.1931 25.7724 33.2539C25.9554 34.0604 25.5356 34.8669 25.5356 35.6734C25.5356 36.9167 26.492 39.4033 25.8225 40.1684C24.9631 41.1506 23.6075 39.0911 23.3648 37.8087C22.7007 34.2989 23.18 30.0765 27.4484 29.8394C32.6129 29.5525 30.2219 30.0307 30.3176 30.1263C30.5621 30.3708 30.6221 30.6373 30.9641 30.5866C31.0567 30.5728 31.1563 30.5751 31.274 30.6045C34.0475 31.274 38.9251 35.4821 41.2204 37.4905C41.4102 37.6566 41.5726 37.7965 41.7108 37.9135C42.4167 38.5111 42.6833 38.3328 42.798 39.2505C42.8343 39.5405 42.8026 39.8141 42.703 40.0348C42.2072 41.1328 40.6498 39.9771 39.7265 39.2032C36.6419 36.6177 33.4813 33.8462 29.7438 32.5173C25.44 30.9871 27.9266 32.0391 27.831 32.0391C27.3641 32.0391 26.4414 32.7684 25.9529 33.159C25.9316 33.176 25.9025 33.1789 25.8781 33.1667ZM64.1738 35.1952C64.3835 35.5621 63.9554 35.77 63.6482 35.4798L62.9906 34.8587C62.8301 34.7072 62.7392 34.4963 62.7392 34.2757V34.0047C62.7392 33.7114 62.8803 33.5027 63.1703 33.5462C63.5287 33.6001 63.8029 33.9962 63.6762 34.3358C63.4341 34.9849 63.8659 34.6563 64.1738 35.1952ZM62.0698 30.7001C62.1255 30.7001 62.1736 30.7388 62.1848 30.7935C62.2088 30.9119 62.2515 31.1294 62.2905 31.3662C62.3734 31.8697 61.965 32.0712 61.6798 31.6481C61.5829 31.5043 61.502 31.358 61.4493 31.2288C61.4106 31.1339 61.3924 31.0288 61.4172 30.9293C61.5129 30.5461 61.9839 30.7001 62.0698 30.7001ZM63.0979 32.0391C63.2217 31.874 63.0782 31.5871 62.9544 31.7522C62.8306 31.9172 62.9741 32.2041 63.0979 32.0391ZM54.849 16.4977C54.9372 16.586 54.8719 16.7495 54.7509 16.719C54.6808 16.7013 54.6455 16.666 54.6278 16.5958C54.5973 16.4748 54.7608 16.4095 54.849 16.4977ZM54.2274 16.0435C54.3924 16.1673 54.6793 16.0238 54.5143 15.9C54.3492 15.7762 54.0623 15.9197 54.2274 16.0435ZM49.541 11.381C49.9955 11.7219 50.5277 11.12 50.0855 10.7634C49.473 10.2695 48.5003 10.5484 49.541 11.381ZM49.0598 6.57879C49.0133 6.60395 48.9672 6.55627 48.9672 6.50345C48.9672 6.45064 49.0133 6.40296 49.0598 6.42812C49.1276 6.46488 49.1276 6.54203 49.0598 6.57879Z" fill="#FD937D"/>
<path d="M51.7407 73.0682C51.7407 73.1211 51.7869 73.1687 51.8333 73.1436C51.9011 73.1068 51.9011 73.0297 51.8333 72.9929C51.7869 72.9678 51.7407 73.0154 51.7407 73.0682Z" fill="#FD937D"/>
<path d="M25.6917 33.0734C25.7138 33.0844 25.7397 33.0837 25.7606 33.0706C26.2487 32.7654 27.1727 31.9435 27.6399 31.9435C28.9438 31.9435 30.2078 32.6137 31.3795 33.1857C34.3511 34.6366 36.9089 36.8871 39.4397 39.0231C40.4245 39.8543 42.1688 41.0772 42.5834 39.8569C42.7912 39.2452 42.5135 38.298 41.7945 37.6818C40.4556 36.5341 41.2207 37.5862 41.0294 37.3949C38.7341 35.4821 33.8565 31.1783 31.083 30.5089C29.6794 30.1701 29.5494 30.1742 29.7139 30.2857C29.9685 30.4583 30.1266 30.3382 30.1266 30.0307C30.1266 29.935 27.5443 29.7438 27.2574 29.7438C23.0266 30.0571 22.5184 34.1574 23.1565 37.6278C23.4021 38.9634 24.7832 41.1332 25.6315 40.0728C26.3966 39.1164 25.3446 36.821 25.3446 35.5777C25.3446 34.4175 25.7611 33.9235 25.5835 33.1632C25.5689 33.1006 25.6342 33.0446 25.6917 33.0734Z" fill="#FD4C49"/>
<path d="M54.7055 45.3329C55.0881 45.5242 56.1401 45.5242 56.427 45.046C57.3834 43.707 54.7055 37.1079 52.8884 39.8815C51.0712 42.655 53.2709 41.9855 53.7491 43.1332C54.2273 44.2809 53.9404 44.9504 54.7055 45.3329Z" fill="#FD4C49"/>
<path d="M24.3404 52.8884C24.3557 52.8884 24.3619 52.8687 24.3497 52.8595C23.6686 52.3468 23.3625 52.078 22.3539 52.412C22.1845 52.4682 22.0428 52.5911 21.9725 52.7552C21.4537 53.9652 22.4031 54.1668 22.7623 54.7056C23.1449 55.2794 23.3362 55.8532 23.7187 56.3314C24.2797 57.0327 25.1878 57.4848 25.9813 57.0643C26.5548 56.7604 27.0325 56.2401 26.8748 55.662C26.5964 54.6412 24.7873 53.2602 24.3306 52.917C24.3184 52.9078 24.3251 52.8884 24.3404 52.8884Z" fill="#FD4C49"/>
<path d="M28.7873 66.1822C28.8282 66.1414 28.8972 66.1627 28.9056 66.2199C28.969 66.6514 28.9631 67.0608 29.7437 67.2343C30.1847 67.3323 30.4499 67.1792 30.6809 67.0324C30.9893 66.8364 31.399 66.3682 31.0591 66.2342C30.6889 66.0883 29.9912 66.0932 29.6014 66.1734C29.3924 66.2165 29.1242 66.2435 28.7873 66.1822C28.7873 66.1266 28.6612 66.1606 28.7162 66.1694C28.7386 66.173 28.7623 66.1773 28.7873 66.1822Z" fill="#FDF8EE"/>
<path d="M38.159 44.6818C38.1466 44.4292 37.9732 44.1879 37.7877 44.0161C37.7644 43.9945 37.7401 43.9721 37.7149 43.9493C37.1538 43.4386 36.715 43.7742 36.7694 44.5309C36.7836 44.7284 36.8313 44.8952 36.9697 45.0393C37.3664 45.4521 38.1872 45.2536 38.159 44.6818Z" fill="#FDF8EE"/>
<path d="M12.6243 58.5311C12.6243 57.766 12.433 56.9053 11.5722 57.0009C11.0286 57.0613 10.6375 57.5795 10.7846 57.7845C11.0999 58.2238 11.337 58.2141 11.7417 58.5728C11.8554 58.6736 12.0857 58.716 12.5286 58.6436C12.5833 58.6346 12.6243 58.5866 12.6243 58.5311Z" fill="#FDF8EE"/>
<path d="M49.7336 10.5614C50.5335 10.8129 50.1776 11.9267 49.541 11.381C48.7585 10.7104 49.2172 10.399 49.7336 10.5614Z" fill="#FDF8EE"/>
<path d="M53.7704 70.4486C53.7568 70.3595 53.6959 70.4007 53.6082 70.4219C53.5972 70.4245 53.5857 70.4273 53.574 70.4303C53.3623 70.4832 53.0663 70.4004 52.9541 70.2133L52.8882 70.1035L53.1396 70.6377C53.2623 70.8984 53.8136 70.7334 53.7704 70.4486Z" fill="#FDF8EE"/>
<path d="M54.7509 16.719C54.8719 16.7495 54.9372 16.586 54.849 16.4977C54.7607 16.4095 54.5972 16.4748 54.6277 16.5958C54.6454 16.666 54.6807 16.7012 54.7509 16.719Z" fill="#FDF8EE"/>
<path d="M54.1319 15.8761C54.2134 15.8353 53.9605 16.0681 53.999 15.9855C54.0151 15.9509 54.057 15.9135 54.1319 15.8761Z" fill="#FDF8EE"/>
<path d="M48.9673 6.50345C48.9673 6.55627 49.0134 6.60395 49.0599 6.57879C49.1277 6.54203 49.1277 6.46488 49.0599 6.42812C49.0134 6.40296 48.9673 6.45063 48.9673 6.50345Z" fill="#FDF8EE"/>
<path d="M0 47.5326C0 47.7853 0.0248693 48.0669 0.230447 48.2138C0.297107 48.2615 0.369148 48.2958 0.440912 48.3261C0.746778 48.4555 1.01702 48.6758 1.18895 48.9599C1.36618 49.2528 1.42735 49.5633 1.62586 49.828C1.73589 49.9747 1.97248 50.1776 2.22239 50.3775C2.78695 50.829 2.64491 51.6121 3.15609 52.1233C3.42263 52.3898 3.93678 52.1612 4.23849 52.434C4.27898 52.4706 4.27152 52.5335 4.23007 52.569C4.13813 52.6478 4.24765 52.8208 4.3642 52.7879C5.54551 52.4549 4.72576 53.7324 4.97323 54.2274C5.24113 54.7632 5.97564 54.0705 6.52194 54.3163C7.02051 54.5406 6.57495 54.8987 6.50346 55.4707C6.4187 56.1487 7.46055 56.0005 6.83356 56.0246C6.64789 56.0317 6.49355 56.2379 6.67309 56.2857C6.93546 56.3556 7.04129 56.7724 7.29452 56.6744C8.01594 56.3954 7.08728 55.1234 7.65113 54.8012C8.70316 54.1317 8.12932 55.2794 8.22496 55.375C8.3206 55.4707 8.89443 55.6619 8.99007 55.9489C9.08571 56.2358 8.70316 56.8096 8.79879 57.0009C8.89443 57.1922 9.65955 57.0009 9.85082 57.2878C10.0421 57.5747 10.1377 58.6268 10.4247 58.818C10.7116 59.0093 10.8072 58.6267 11.0941 58.9137C11.3811 59.2006 11.7636 60.3483 12.0505 60.6352C12.3374 60.9221 12.3374 59.6788 12.72 60.157C12.8799 60.3569 12.9357 60.1153 13.1906 60.1384C13.5074 60.1672 13.9837 60.5986 14.1546 60.8264C14.4415 61.209 14.2502 61.4003 14.3459 61.4959C14.4415 61.5916 14.7284 61.3046 15.0153 61.4003C15.8761 61.7828 17.7889 64.8433 19.1278 64.9389C18.8522 64.9389 18.704 65.3807 18.7625 65.65C18.7983 65.8149 18.8206 66.0073 18.9365 66.2779C19.2235 66.9474 19.2235 66.2779 19.2235 66.3735C19.2235 66.6114 19.2202 66.8239 19.4522 66.7714C19.5869 66.7409 19.7285 66.6924 19.8507 66.6487C20.0624 66.573 20.2348 66.6796 20.2332 66.9044C20.2306 67.2631 20.2389 67.7701 21.0406 67.9037C21.7377 68.0199 22.1173 67.8891 22.4579 67.8328C22.8135 67.774 22.9491 68.1659 23.2482 68.367C23.2713 68.3825 23.2917 68.4034 23.3069 68.4323C23.3503 68.5145 23.299 68.6101 23.2333 68.6758C23.0555 68.8536 23.133 69.1258 23.3814 69.0864C23.7417 69.0292 24.1016 68.8601 24.2923 68.8601C24.5792 68.8601 25.5356 70.0078 25.8225 70.1034C26.3964 70.2947 26.8746 69.8165 27.7353 70.2947C28.1438 70.5217 28.5092 70.7486 28.7805 70.9347C29.126 71.1717 29.3809 71.6426 29.4063 72.0608C29.4201 72.2886 29.5685 72.3436 29.7966 72.3455C30.1387 72.3484 30.6282 72.3031 30.8914 72.3031C30.9284 72.3031 30.96 72.3067 30.987 72.3132C31.2124 72.3672 31.2144 72.7109 31.4447 72.6848C31.7804 72.6468 32.7445 72.6639 33.0807 72.6312C33.2498 72.6148 33.4197 72.6326 33.5574 72.6878C33.8585 72.8084 34.0076 73.0177 34.1247 72.7152C34.1292 72.7036 34.1352 72.6937 34.1432 72.6857C34.5109 72.3915 35.105 73.3418 35.4902 74.0139C35.664 74.3171 35.8088 74.3674 36.0559 74.1203C36.3071 73.8691 36.6422 73.7847 36.8115 73.4724C36.8493 73.4026 36.883 73.3552 36.9167 73.3552C36.9886 73.3552 37.4397 73.7884 37.8216 73.9621C37.9546 74.0226 38.0842 74.2142 38.0299 74.3498C37.9953 74.4363 38.0327 74.5364 38.1211 74.5657C38.6824 74.7514 39.3358 74.4969 39.9193 74.3694C40.4316 74.2574 42.3573 74.2526 42.7013 74.6484C42.8462 74.8149 43.063 75.0379 43.059 74.8172C43.0577 74.7465 43.0652 74.6665 43.1332 74.5985C43.3245 74.4072 43.5158 74.5985 43.6114 74.4072C43.7071 74.2159 43.7071 74.0246 43.8027 74.0246C44.0896 74.0246 44.3765 74.4072 44.6634 74.4072C44.9504 74.4072 45.5242 73.8334 45.8111 73.8334C46.098 73.8334 45.8111 74.3116 46.0024 74.3116C46.1937 74.3116 46.5762 74.0246 46.8631 74.0246C47.1501 74.0246 46.9588 74.5028 47.0544 74.5028C47.3651 74.5028 47.9584 74.0992 48.3097 74.0786C48.6106 74.061 48.6584 74.3334 48.8716 74.1203C48.9672 74.0246 49.7323 74.4072 49.541 73.4508C49.3498 72.4944 49.0628 73.3552 49.0628 73.2595C49.1429 72.4586 49.6925 72.7979 49.9252 72.8732C49.985 72.8926 50.0192 72.8417 50.0192 72.7789C50.0192 72.5681 50.351 72.3429 50.5617 72.3328C50.9155 72.3159 51.2994 72.2075 51.3582 72.2075C51.4538 72.2075 51.3582 72.5901 51.5495 72.5901C51.9659 72.5901 53.1076 72.2999 53.8377 72.4776C53.9391 72.5023 54.0532 72.3937 54.0144 72.2968C53.9822 72.2164 54.0521 72.1309 54.1387 72.133C54.8522 72.1498 54.9739 71.4476 55.0466 71.1118C55.0682 71.0123 55.1284 70.921 55.23 70.9148C55.2895 70.9112 55.3597 70.9168 55.4351 70.9222C55.6723 70.939 55.7336 70.7896 55.508 70.8648C55.4448 70.8859 55.3708 70.8644 55.2794 70.7729C54.9032 70.3968 55.3556 69.8431 55.845 69.7636C55.9179 69.7517 56.0046 69.5853 55.9524 69.5331C55.9039 69.4846 55.9613 69.3774 56.0292 69.3673C56.3965 69.3125 56.5397 68.8601 56.6183 68.8601C56.9052 68.8601 57.1922 69.1471 57.6704 68.8601C58.0308 68.6439 58.4457 67.8841 58.71 67.4822C58.8276 67.3033 58.9932 67.1502 59.1976 67.0866C59.5526 66.9762 60.0762 66.9421 60.3478 66.6838C60.4146 66.6203 60.4057 66.517 60.3481 66.445C60.2325 66.3006 60.3378 66.0743 60.5131 66.0151C61.5645 65.6602 61.8379 64.0748 62.261 63.3131C62.7392 62.4523 63.3131 62.261 63.5043 61.9741C64.2506 60.7615 64.4509 59.003 65.7026 57.9409C65.7629 57.8898 65.7997 57.8155 65.7997 57.7365V57.7182C65.7997 57.5861 65.6926 57.4791 65.5606 57.4791C65.4285 57.4791 65.3108 57.351 65.4134 57.2679C65.5665 57.144 65.8774 57.1324 66.0866 56.714C66.3735 56.1401 66.5648 55.4707 66.6604 55.2794C66.7561 55.0881 66.3735 54.4186 66.6604 53.9404C66.9285 53.4937 68.1148 53.7147 67.1777 53.1218C67.0597 53.0471 67.0294 52.8856 67.1188 52.7783C67.2406 52.6322 67.1366 52.4102 66.9464 52.4102H66.7252C66.5747 52.4102 66.4031 52.2423 66.5471 52.1985C66.6715 52.1606 66.8866 52.2099 66.9474 52.0277C67.2343 50.7843 66.5648 50.88 66.4692 50.4974C66.237 49.801 66.0675 49.042 66.1632 48.3217C66.1966 48.0701 66.0158 47.8195 65.7621 47.8195C65.4786 47.8195 65.3948 47.4846 65.2821 47.2245C65.2056 47.0478 64.9389 47.0795 64.9389 46.9588C64.9389 46.2893 65.0346 46.1937 64.652 45.2373C63.8869 43.4201 63.6956 40.9335 63.2174 38.8295C62.9828 37.7969 63.5216 38.103 64.0542 39.0181C64.4186 39.644 64.6982 40.3466 64.7477 40.7422C64.8433 41.5074 64.4607 43.1332 65.1302 42.3681C65.7997 41.603 65.6084 40.6466 65.6084 40.4553C65.6084 39.8815 65.2258 36.1516 65.0346 35.6734C64.8433 35.1952 63.6956 32.2304 63.6 32.0391C63.5043 31.8478 63.0261 31.8478 62.8349 31.3696C62.5837 30.7836 62.9188 30.1977 62.1084 29.9965C61.9611 29.9599 61.9014 29.7637 62.0199 29.6689C62.0975 29.6068 62.1032 29.4917 62.0348 29.4196C61.8913 29.2683 61.7609 29.1041 61.6872 28.883C61.4959 28.4048 60.5395 26.0138 60.2526 25.8226C59.9657 25.6313 59.6788 25.8226 59.5831 25.8226C59.4875 25.8226 59.7744 25.2487 59.6788 24.8662C59.5558 24.1283 59.077 23.5486 58.8525 22.8728C58.6503 22.2645 58.4469 21.5531 58.2442 20.945C58.0529 20.3711 57.2878 20.2755 57.4791 19.5104L57.4054 19.7315C57.3307 19.9556 57.1619 20.1945 56.9274 20.166C56.8604 20.1579 56.8189 20.1267 56.7971 20.0788C56.5553 19.5498 56.3241 18.8189 56.1401 18.2671C55.9965 17.836 56.7161 17.8367 56.5969 17.58C56.4767 17.3213 56.0899 17.5163 56.043 17.7976C55.997 18.0741 55.6388 18.2546 55.508 18.0068C55.4511 17.899 55.4919 17.8158 55.5676 17.7535C55.7612 17.5942 55.9628 17.4241 55.8446 17.203C55.5512 16.6542 54.7594 15.8881 54.6099 15.5892C54.4186 15.2066 54.8012 15.0153 54.6099 14.6328C54.4186 14.2502 53.8448 14.3459 53.7492 14.2502C53.2191 13.7202 53.1865 13.474 52.6178 12.9856C52.51 12.893 52.4322 12.7489 52.4102 12.5287C52.3146 11.5723 52.8884 12.2418 52.8884 12.0505C52.8884 11.8188 52.6389 11.3377 52.5933 10.9092C52.5798 10.7832 52.4457 10.6783 52.328 10.7253C52.2271 10.7657 52.1164 10.6944 52.1001 10.587C51.9029 9.29223 50.7504 9.39543 50.1149 8.03368C50.0631 7.92275 50.0205 7.81926 49.9853 7.72294C49.7094 6.9668 48.7807 6.191 48.2977 5.54707C48.1249 5.3166 48.1603 4.73899 48.153 4.25343C48.1457 3.76052 47.8834 3.32431 47.6314 2.90058C46.5621 1.10216 44.6245 1.89689e-06 42.5322 1.89689e-06H13.9652C6.25244 1.89689e-06 0 6.25244 0 13.9652V47.5326ZM53.5176 70.4235C53.6709 70.3532 53.7382 70.4843 53.7129 70.6511C53.6627 70.9818 53.5855 71.5251 53.6535 71.7293L52.8884 70.1034L52.99 70.2728C53.105 70.4644 53.3145 70.5167 53.5176 70.4235ZM28.9786 65.991C28.9354 66.0342 28.9547 66.1076 29.0145 66.1203C29.328 66.1869 29.5849 66.1429 29.7853 66.0893C30.1455 65.9932 30.6891 66.0991 31.0585 66.1498C31.0734 66.1518 31.0881 66.1544 31.1024 66.1574C31.4781 66.2379 31.0716 66.6885 30.7205 66.8448C30.401 66.9871 30.1202 67.1948 29.8394 67.1386C28.9786 66.9474 29.0743 66.4692 28.9786 65.991C28.9192 65.9791 28.8656 65.9716 28.8176 65.9662C28.6673 65.9493 28.9308 65.8474 28.9786 65.991ZM12.6244 58.4355C12.6244 58.4909 12.5834 58.539 12.5286 58.5481C12.0323 58.6308 11.8153 58.5793 11.7293 58.4616C11.4153 58.0319 10.7866 58.0142 11.0219 57.5368C11.147 57.2829 11.5215 56.9053 11.5723 56.9053C12.4331 56.9053 12.72 57.6704 12.6244 58.4355ZM24.4335 52.8884C24.4189 52.8884 24.4118 52.9068 24.4231 52.916C24.8392 53.2535 26.5468 54.9589 26.9044 55.5162C26.9626 55.6071 26.9899 55.7146 26.9982 55.8223C27.0737 56.7993 25.4056 57.56 24.7705 57.2878C24.101 57.0009 23.9098 56.4271 23.8141 56.3314C23.3359 55.7576 23.1447 55.1837 22.8577 54.7056C22.5865 54.2536 21.5463 54.0579 22.0793 52.7456C22.1428 52.5892 22.2756 52.4702 22.4355 52.4162C23.4436 52.0756 23.6752 52.345 24.4415 52.8602C24.454 52.8686 24.4485 52.8884 24.4335 52.8884ZM37.8668 44.0881C37.9994 44.2145 38.1216 44.3613 38.1381 44.5438C38.1927 45.1495 37.2914 45.4634 36.92 44.9819C36.8296 44.8647 36.79 44.7331 36.7739 44.5833C36.6892 43.7963 37.1724 43.4421 37.7526 43.9806C37.7934 44.0185 37.8318 44.0547 37.8668 44.0881ZM54.7056 45.3329C54.0361 45.046 54.0361 43.7071 53.7492 43.1332C53.271 42.0812 52.1233 41.0292 52.8884 39.8815C54.7055 37.108 57.3834 43.6114 56.4271 45.046C55.4707 46.4806 55.0881 45.5242 54.7056 45.3329ZM25.8781 33.1667C25.8223 33.1388 25.7586 33.1931 25.7724 33.2539C25.9554 34.0604 25.5356 34.8669 25.5356 35.6734C25.5356 36.9167 26.492 39.4033 25.8225 40.1684C24.9631 41.1506 23.6075 39.0911 23.3648 37.8087C22.7007 34.2989 23.18 30.0765 27.4484 29.8394C32.6129 29.5525 30.2219 30.0307 30.3176 30.1263C30.5621 30.3708 30.6221 30.6373 30.9641 30.5866C31.0567 30.5728 31.1563 30.5751 31.274 30.6045C34.0475 31.274 38.9251 35.4821 41.2204 37.4905C41.4102 37.6566 41.5726 37.7965 41.7108 37.9135C42.4167 38.5111 42.6833 38.3328 42.798 39.2505C42.8343 39.5405 42.8026 39.8141 42.703 40.0348C42.2072 41.1328 40.6498 39.9771 39.7265 39.2032C36.6419 36.6177 33.4813 33.8462 29.7438 32.5173C25.44 30.9871 27.9266 32.0391 27.831 32.0391C27.3641 32.0391 26.4414 32.7684 25.9529 33.159C25.9316 33.176 25.9025 33.1789 25.8781 33.1667ZM64.1738 35.1952C64.3835 35.5621 63.9554 35.77 63.6482 35.4798L62.9906 34.8587C62.8301 34.7072 62.7392 34.4963 62.7392 34.2757V34.0047C62.7392 33.7114 62.8803 33.5027 63.1703 33.5462C63.5287 33.6001 63.8029 33.9962 63.6762 34.3358C63.4341 34.9849 63.8659 34.6563 64.1738 35.1952ZM62.0698 30.7001C62.1255 30.7001 62.1736 30.7388 62.1848 30.7935C62.2088 30.9119 62.2515 31.1294 62.2905 31.3662C62.3734 31.8697 61.965 32.0712 61.6798 31.6481C61.5829 31.5043 61.502 31.358 61.4493 31.2288C61.4106 31.1339 61.3924 31.0288 61.4172 30.9293C61.5129 30.5461 61.9839 30.7001 62.0698 30.7001ZM63.0979 32.0391C63.2217 31.874 63.0782 31.5871 62.9544 31.7522C62.8306 31.9172 62.9741 32.2041 63.0979 32.0391ZM54.849 16.4977C54.9372 16.586 54.8719 16.7495 54.7509 16.719C54.6808 16.7013 54.6455 16.666 54.6278 16.5958C54.5973 16.4748 54.7608 16.4095 54.849 16.4977ZM54.2274 16.0435C54.3924 16.1673 54.6793 16.0238 54.5143 15.9C54.3492 15.7762 54.0623 15.9197 54.2274 16.0435ZM49.541 11.381C49.9955 11.7219 50.5277 11.12 50.0855 10.7634C49.473 10.2695 48.5003 10.5484 49.541 11.381ZM49.0598 6.57879C49.0133 6.60395 48.9672 6.55627 48.9672 6.50345C48.9672 6.45064 49.0133 6.40296 49.0598 6.42812C49.1276 6.46488 49.1276 6.54203 49.0598 6.57879Z" fill="#FD937D"/>
<path d="M51.7407 73.0682C51.7407 73.1211 51.7869 73.1687 51.8333 73.1436C51.9011 73.1068 51.9011 73.0297 51.8333 72.9929C51.7869 72.9678 51.7407 73.0154 51.7407 73.0682Z" fill="#FD937D"/>
<path d="M54.7055 45.3329C55.0881 45.5242 56.1401 45.5242 56.427 45.046C57.3834 43.707 54.7055 37.1079 52.8884 39.8815C51.0712 42.655 53.2709 41.9855 53.7491 43.1332C54.2273 44.2809 53.9404 44.9504 54.7055 45.3329Z" fill="#FD4C49"/>
<path d="M53.7704 70.4486C53.7568 70.3595 53.6959 70.4007 53.6082 70.4219C53.5972 70.4245 53.5857 70.4273 53.574 70.4303C53.3623 70.4832 53.0663 70.4004 52.9541 70.2133L52.8882 70.1035L53.1396 70.6377C53.2623 70.8984 53.8136 70.7334 53.7704 70.4486Z" fill="#FDF8EE"/>
<path d="M54.7509 16.719C54.8719 16.7495 54.9372 16.586 54.849 16.4977C54.7607 16.4095 54.5972 16.4748 54.6277 16.5958C54.6454 16.666 54.6807 16.7012 54.7509 16.719Z" fill="#FDF8EE"/>
<path d="M54.1319 15.8761C54.2134 15.8353 53.9605 16.0681 53.999 15.9855C54.0151 15.9509 54.057 15.9135 54.1319 15.8761Z" fill="#FDF8EE"/>
</svg>
